M48
; DRILL file {KiCad 5.1.9-73d0e3b20d~88~ubuntu18.04.1} date Sat Mar 13 15:23:58 2021
; FORMAT={-:-/ absolute / inch / decimal}
; #@! TF.CreationDate,2021-03-13T15:23:58+09:00
; #@! TF.GenerationSoftware,Kicad,Pcbnew,5.1.9-73d0e3b20d~88~ubuntu18.04.1
FMAT,2
INCH
T1C0.0157
T2C0.0320
T3C0.0394
T4C0.0512
T5C0.0906
T6C0.0472
T7C0.0669
T8C0.0748
T9C0.1181
T10C0.1614
%
G90
G05
T1
X1.53Y-3.41
X1.53Y-4.1
X1.5469Y-2.7188
X1.55Y-4.05
X1.55Y-4.8
X1.56Y-2.55
X1.56Y-3.3
X1.5689Y-5.5311
X1.623Y-2.497
X1.623Y-3.247
X1.623Y-3.997
X1.623Y-4.747
X1.6287Y-5.5073
X1.7344Y-2.2031
X1.8406Y-2.659
X1.8408Y-3.4092
X1.8408Y-4.1592
X1.8408Y-4.9092
X1.8408Y-5.6592
X1.91Y-2.1
X1.9188Y-4.0506
X1.92Y-3.35
X1.9294Y-4.8006
X1.93Y-2.61
X1.95Y-5.61
X1.97Y-4.95
X1.98Y-3.47
X1.98Y-4.23
X2.01Y-2.39
X2.0175Y-5.3794
X2.02Y-3.16
X2.02Y-3.9
X2.02Y-4.64
X2.0293Y-2.7187
X2.1094Y-2.625
X2.1094Y-3.375
X2.1094Y-4.125
X2.1094Y-4.875
X2.1094Y-5.2031
X2.1563Y-5.4375
X2.24Y-3.47
X2.25Y-4.23
X2.25Y-4.95
X2.25Y-3.375
X2.25Y-4.125
X2.2627Y-4.8877
X2.29Y-4.8
X2.2969Y-2.7656
X2.3Y-3.3
X2.3Y-4.05
X2.3Y-5.55
X2.31Y-2.55
X2.3728Y-2.4985
X2.373Y-3.247
X2.373Y-3.997
X2.373Y-4.747
X2.373Y-5.497
X2.4844Y-2.2031
X2.5908Y-2.6592
X2.5908Y-3.4092
X2.5908Y-4.1592
X2.5908Y-4.9092
X2.5908Y-5.6592
X2.6Y-2.44
X2.6Y-3.19
X2.6Y-3.94
X2.61Y-4.69
X2.67Y-2.1
X2.6757Y-3.3557
X2.69Y-2.61
X2.69Y-4.11
X2.69Y-4.86
X2.69Y-5.61
X2.7565Y-5.3835
X2.7656Y-3.2344
X2.8594Y-2.9063
X2.8594Y-3.6563
X2.8594Y-4.4063
X2.8594Y-4.9688
X2.9Y-4.04
X2.9Y-4.8
X2.9063Y-1.875
X2.92Y-3.29
X2.99Y-3.04
X3.0Y-3.29
X3.0Y-3.2344
X3.02Y-4.04
X3.02Y-4.8
X3.05Y-3.86
X3.05Y-4.62
X3.05Y-5.36
X3.06Y-2.37
X3.06Y-3.11
X3.1Y-3.2615
X3.1184Y-3.0516
X3.1205Y-2.3095
X3.1205Y-3.8095
X3.1205Y-4.5595
X3.1205Y-5.3095
X3.2344Y-2.0156
X3.3381Y-5.4715
X3.3383Y-2.4717
X3.3383Y-3.2217
X3.3383Y-3.9717
X3.3383Y-4.7217
X3.41Y-1.91
X3.44Y-5.41
X3.45Y-3.17
X3.46Y-2.42
X3.46Y-3.92
X3.46Y-4.67
X3.51Y-2.21
X3.51Y-2.95
X3.51Y-3.71
X3.51Y-4.45
X3.51Y-5.2
X3.5156Y-5.5313
X3.5208Y-3.2892
X3.5625Y-1.875
X3.6563Y-5.2031
X3.66Y-3.95
X3.67Y-3.19
X3.67Y-4.71
X3.76Y-3.19
X3.76Y-3.95
X3.76Y-4.71
X3.81Y-2.27
X3.81Y-3.79
X3.81Y-4.53
X3.81Y-5.29
X3.819Y-3.03
X3.8742Y-2.9658
X3.8742Y-3.7158
X3.8742Y-4.4658
X3.8742Y-5.2158
X3.8756Y-2.2144
X3.9844Y-1.9219
X4.082Y-4.628
X4.09Y-2.38
X4.09Y-3.13
X4.09Y-5.4
X4.09Y-3.88
X4.16Y-1.82
X4.19Y-4.58
X4.1956Y-5.3244
X4.2Y-2.32
X4.2Y-3.08
X4.2Y-3.83
X4.2188Y-3.2813
X4.26Y-2.85
X4.26Y-3.61
X4.26Y-4.36
X4.26Y-5.11
X4.2631Y-2.11
X4.2656Y-1.8281
X4.28Y-3.28
X4.3594Y-2.6719
X4.3594Y-3.4219
X4.3594Y-4.3594
X4.42Y-4.14
X4.42Y-4.88
X4.43Y-3.32
X4.4531Y-5.5313
X4.49Y-3.32
X4.5Y-4.14
X4.5Y-4.88
X4.5019Y-4.7619
X4.593Y-4.623
X4.594Y-5.376
X4.6Y-2.37
X4.6Y-3.12
X4.603Y-3.873
X4.63Y-4.6635
X4.63Y-5.4135
X4.6378Y-3.1635
X4.64Y-2.41
X4.64Y-3.91
X4.84Y-3.32
X4.84Y-4.07
X4.8443Y-4.82
X4.8445Y-2.5655
X4.8445Y-5.5655
X4.9Y-2.01
X4.94Y-3.27
X4.95Y-2.51
X4.95Y-4.01
X4.95Y-4.76
X4.96Y-5.52
X5.01Y-2.3
X5.01Y-3.05
X5.01Y-3.8
X5.01Y-4.54
X5.01Y-5.29
X5.0156Y-2.0156
X5.0156Y-3.8906
X5.0156Y-4.2656
X5.0625Y-3.6094
X5.1094Y-2.3438
X5.1094Y-3.0
X5.1094Y-3.4688
X5.15Y-5.56
X5.1563Y-4.2656
X5.17Y-3.52
X5.17Y-4.14
X5.18Y-2.72
X5.18Y-4.86
X5.2Y-5.56
X5.24Y-4.86
X5.25Y-3.52
X5.25Y-4.07
X5.25Y-4.14
X5.25Y-2.625
X5.2682Y-3.31
X5.2969Y-4.2656
X5.319Y-2.55
X5.32Y-5.4
X5.3457Y-2.4743
X5.3532Y-3.2068
X5.3532Y-4.7068
X5.3532Y-3.9568
X5.36Y-2.7
X5.38Y-5.47
X5.3896Y-4.7569
X5.39Y-3.25
X5.39Y-3.9903
X5.48Y-2.7
X5.4844Y-5.1563
X5.49Y-5.85
X5.5489Y-4.1651
X5.55Y-2.6651
X5.55Y-4.92
X5.5537Y-3.4163
X5.57Y-4.96
X5.6215Y-2.7
X5.6719Y-5.5781
X5.68Y-4.11
X5.6885Y-2.6
X5.7Y-3.28
X5.7188Y-4.2656
X5.7215Y-2.8
X5.73Y-3.56
X5.755Y-2.4846
X5.76Y-3.14
X5.76Y-3.46
X5.76Y-3.88
X5.76Y-4.64
X5.78Y-3.63
X5.7844Y-2.5994
X5.79Y-3.36
X5.85Y-3.66
X6.045Y-3.785
X6.0938Y-3.9844
X6.1125Y-3.0281
X6.1328Y-3.5082
X6.2175Y-3.6531
X6.2344Y-2.9531
X6.2569Y-2.6494
X6.2813Y-2.4844
X6.2835Y-3.6271
X6.2944Y-2.7994
X6.3087Y-3.0994
X6.32Y-3.5338
X6.3625Y-3.6281
X6.41Y-3.5538
X6.42Y-2.95
X6.4475Y-3.1481
X6.4475Y-3.2431
X6.4475Y-3.3481
X6.4475Y-3.4208
X6.4575Y-3.0631
X6.48Y-3.7681
T2
X1.6163Y-2.0625
X1.6163Y-2.8125
X1.6163Y-3.5625
X1.6163Y-4.3125
X1.6163Y-5.0625
X1.8525Y-2.0625
X1.8525Y-2.8125
X1.8525Y-3.5625
X1.8525Y-4.3125
X1.8525Y-5.0625
X2.3663Y-2.0625
X2.3663Y-2.8125
X2.3663Y-3.5625
X2.3663Y-4.3125
X2.3663Y-5.0625
X2.6025Y-2.0625
X2.6025Y-2.8125
X2.6025Y-3.5625
X2.6025Y-4.3125
X2.6025Y-5.0625
X3.1163Y-1.875
X3.1163Y-3.375
X3.1163Y-4.125
X3.1163Y-4.875
X3.1401Y-2.625
X3.3525Y-1.875
X3.3525Y-3.375
X3.3525Y-4.125
X3.3525Y-4.875
X3.3764Y-2.625
X3.8663Y-1.7812
X3.8663Y-2.5312
X3.8663Y-3.2812
X3.8663Y-4.0312
X3.8663Y-4.7812
X4.1025Y-1.7812
X4.1025Y-2.5312
X4.1025Y-3.2812
X4.1025Y-4.0312
X4.1025Y-4.7812
X4.6163Y-1.9688
X4.6163Y-2.7188
X4.6163Y-3.4688
X4.6163Y-4.2188
X4.6163Y-4.9688
X4.8525Y-1.9688
X4.8525Y-2.7188
X4.8525Y-3.4688
X4.8525Y-4.2188
X4.8525Y-4.9688
X5.3663Y-2.0625
X5.3663Y-2.8125
X5.3663Y-3.5625
X5.3663Y-4.3125
X5.3663Y-5.0625
X5.6025Y-2.0625
X5.6025Y-2.8125
X5.6025Y-3.5625
X5.6025Y-4.3125
X5.6025Y-5.0625
X5.9353Y-2.5994
X5.9353Y-2.6994
X5.9353Y-2.7994
X5.9353Y-2.8994
X5.9353Y-2.9994
X5.9353Y-3.0994
X5.9353Y-3.1994
X5.9353Y-3.2994
X5.9353Y-3.3994
X5.9353Y-3.4994
X5.9353Y-3.5994
X5.9353Y-3.6994
X5.9875Y-2.5494
X5.9875Y-2.6494
X5.9875Y-2.7494
X5.9875Y-2.8494
X5.9875Y-2.9494
X5.9875Y-3.0494
X5.9875Y-3.1494
X5.9875Y-3.2494
X5.9875Y-3.3494
X5.9875Y-3.4494
X5.9875Y-3.5494
X5.9875Y-3.6494
X6.1125Y-3.8444
X6.2125Y-3.8444
X6.3125Y-3.8444
X6.4125Y-3.8444
X6.5353Y-2.5994
X6.5353Y-2.6994
X6.5353Y-2.7994
X6.5353Y-2.8994
X6.5353Y-2.9994
X6.5353Y-3.0994
X6.5353Y-3.1994
X6.5353Y-3.2994
X6.5353Y-3.3994
X6.5353Y-3.4994
X6.5353Y-3.5994
X6.5353Y-3.6994
X6.5867Y-2.5494
X6.5867Y-2.6494
X6.5867Y-2.7494
X6.5867Y-2.8494
X6.5867Y-2.9494
X6.5867Y-3.0494
X6.5867Y-3.1494
X6.5867Y-3.2494
X6.5867Y-3.3494
X6.5867Y-3.4494
X6.5867Y-3.5494
X6.5867Y-3.6494
T4
X6.1416Y-4.4288
X6.3975Y-4.4288
T5
X2.1094Y-2.7656
X2.1094Y-5.0156
X3.6094Y-2.5781
X3.6094Y-4.8281
X5.1094Y-2.6719
X5.1094Y-4.9219
X5.975Y-3.8906
X6.55Y-3.8906
T6
X6.3129Y-4.1255
X6.3129Y-4.1944
X6.5884Y-4.1255
X6.5884Y-4.1944
T7
X1.5572Y-2.3906
X1.5572Y-3.1406
X1.5572Y-3.8906
X1.5572Y-4.6406
X1.5572Y-5.3906
X1.9115Y-2.3906
X1.9115Y-3.1406
X1.9115Y-3.8906
X1.9115Y-4.6406
X1.9115Y-5.3906
X2.3072Y-2.3906
X2.3072Y-3.1406
X2.3072Y-3.8906
X2.3072Y-4.6406
X2.3072Y-5.3906
X2.6615Y-2.3906
X2.6615Y-3.1406
X2.6615Y-3.8906
X2.6615Y-4.6406
X2.6615Y-5.3906
X3.0572Y-2.2031
X3.0572Y-2.9531
X3.0572Y-3.7031
X3.0572Y-4.4531
X3.0572Y-5.2031
X3.4115Y-2.2031
X3.4115Y-2.9531
X3.4115Y-3.7031
X3.4115Y-4.4531
X3.4115Y-5.2031
X3.8072Y-2.1094
X3.8072Y-2.8594
X3.8072Y-3.6094
X3.8072Y-4.3594
X3.8072Y-5.1094
X4.1615Y-2.1094
X4.1615Y-2.8594
X4.1615Y-3.6094
X4.1615Y-4.3594
X4.1615Y-5.1094
X4.5572Y-2.2969
X4.5572Y-3.0469
X4.5572Y-3.7969
X4.5572Y-4.5469
X4.5572Y-5.2969
X4.9115Y-2.2969
X4.9115Y-3.0469
X4.9115Y-3.7969
X4.9115Y-4.5469
X4.9115Y-5.2969
X5.3072Y-2.3906
X5.3072Y-3.1406
X5.3072Y-3.8906
X5.3072Y-4.6406
X5.4844Y-5.401
X5.4844Y-5.7553
X5.6615Y-2.3906
X5.6615Y-3.1406
X5.6615Y-3.8906
X5.6615Y-4.6406
T8
X1.5344Y-2.3906
X1.5344Y-3.1406
X1.5344Y-3.8906
X1.5344Y-4.6406
X1.5344Y-5.3906
X1.9344Y-2.3906
X1.9344Y-3.1406
X1.9344Y-3.8906
X1.9344Y-4.6406
X1.9344Y-5.3906
X2.2844Y-2.3906
X2.2844Y-3.1406
X2.2844Y-3.8906
X2.2844Y-4.6406
X2.2844Y-5.3906
X2.6844Y-2.3906
X2.6844Y-3.1406
X2.6844Y-3.8906
X2.6844Y-4.6406
X2.6844Y-5.3906
X3.0344Y-2.2031
X3.0344Y-2.9531
X3.0344Y-3.7031
X3.0344Y-4.4531
X3.0344Y-5.2031
X3.4344Y-2.2031
X3.4344Y-2.9531
X3.4344Y-3.7031
X3.4344Y-4.4531
X3.4344Y-5.2031
X3.7844Y-2.1094
X3.7844Y-2.8594
X3.7844Y-3.6094
X3.7844Y-4.3594
X3.7844Y-5.1094
X4.1844Y-2.1094
X4.1844Y-2.8594
X4.1844Y-3.6094
X4.1844Y-4.3594
X4.1844Y-5.1094
X4.5344Y-2.2969
X4.5344Y-3.0469
X4.5344Y-3.7969
X4.5344Y-4.5469
X4.5344Y-5.2969
X4.9344Y-2.2969
X4.9344Y-3.0469
X4.9344Y-3.7969
X4.9344Y-4.5469
X4.9344Y-5.2969
X5.2844Y-2.3906
X5.2844Y-3.1406
X5.2844Y-3.8906
X5.2844Y-4.6406
X5.4844Y-5.3781
X5.4844Y-5.7781
X5.6844Y-2.3906
X5.6844Y-3.1406
X5.6844Y-3.8906
X5.6844Y-4.6406
T9
X1.5844Y-2.2906
X1.5844Y-3.0406
X1.5844Y-3.7906
X1.5844Y-4.5406
X1.5844Y-5.2906
X1.6344Y-2.1906
X1.6344Y-2.9406
X1.6344Y-3.6906
X1.6344Y-4.4406
X1.6344Y-5.1906
X1.8344Y-2.1906
X1.8344Y-2.9406
X1.8344Y-3.6906
X1.8344Y-4.4406
X1.8344Y-5.1906
X1.8844Y-2.2906
X1.8844Y-3.0406
X1.8844Y-3.7906
X1.8844Y-4.5406
X1.8844Y-5.2906
X2.3344Y-2.2906
X2.3344Y-3.0406
X2.3344Y-3.7906
X2.3344Y-4.5406
X2.3344Y-5.2906
X2.3844Y-2.1906
X2.3844Y-2.9406
X2.3844Y-3.6906
X2.3844Y-4.4406
X2.3844Y-5.1906
X2.5844Y-2.1906
X2.5844Y-2.9406
X2.5844Y-3.6906
X2.5844Y-4.4406
X2.5844Y-5.1906
X2.6344Y-2.2906
X2.6344Y-3.0406
X2.6344Y-3.7906
X2.6344Y-4.5406
X2.6344Y-5.2906
X3.0844Y-2.1031
X3.0844Y-2.8531
X3.0844Y-3.6031
X3.0844Y-4.3531
X3.0844Y-5.1031
X3.1344Y-2.0031
X3.1344Y-2.7531
X3.1344Y-3.5031
X3.1344Y-4.2531
X3.1344Y-5.0031
X3.3344Y-2.0031
X3.3344Y-2.7531
X3.3344Y-3.5031
X3.3344Y-4.2531
X3.3344Y-5.0031
X3.3844Y-2.1031
X3.3844Y-2.8531
X3.3844Y-3.6031
X3.3844Y-4.3531
X3.3844Y-5.1031
X3.8344Y-2.0094
X3.8344Y-2.7594
X3.8344Y-3.5094
X3.8344Y-4.2594
X3.8344Y-5.0094
X3.8844Y-1.9094
X3.8844Y-2.6594
X3.8844Y-3.4094
X3.8844Y-4.1594
X3.8844Y-4.9094
X4.0844Y-1.9094
X4.0844Y-2.6594
X4.0844Y-3.4094
X4.0844Y-4.1594
X4.0844Y-4.9094
X4.1344Y-2.0094
X4.1344Y-2.7594
X4.1344Y-3.5094
X4.1344Y-4.2594
X4.1344Y-5.0094
X4.5844Y-2.1969
X4.5844Y-2.9469
X4.5844Y-3.6969
X4.5844Y-4.4469
X4.5844Y-5.1969
X4.6344Y-2.0969
X4.6344Y-2.8469
X4.6344Y-3.5969
X4.6344Y-4.3469
X4.6344Y-5.0969
X4.8344Y-2.0969
X4.8344Y-2.8469
X4.8344Y-3.5969
X4.8344Y-4.3469
X4.8344Y-5.0969
X4.8844Y-2.1969
X4.8844Y-2.9469
X4.8844Y-3.6969
X4.8844Y-4.4469
X4.8844Y-5.1969
X5.3344Y-2.2906
X5.3344Y-3.0406
X5.3344Y-3.7906
X5.3344Y-4.5406
X5.3844Y-2.1906
X5.3844Y-2.9406
X5.3844Y-3.6906
X5.3844Y-4.4406
X5.5844Y-2.1906
X5.5844Y-2.9406
X5.5844Y-3.6906
X5.5844Y-4.4406
X5.5844Y-5.4281
X5.5844Y-5.7281
X5.6344Y-2.2906
X5.6344Y-3.0406
X5.6344Y-3.7906
X5.6344Y-4.5406
X5.6844Y-5.4781
X5.6844Y-5.6781
T10
X1.7344Y-2.3906
X1.7344Y-3.1406
X1.7344Y-3.8906
X1.7344Y-4.6406
X1.7344Y-5.3906
X2.4844Y-2.3906
X2.4844Y-3.1406
X2.4844Y-3.8906
X2.4844Y-4.6406
X2.4844Y-5.3906
X3.2344Y-2.2031
X3.2344Y-2.9531
X3.2344Y-3.7031
X3.2344Y-4.4531
X3.2344Y-5.2031
X3.9844Y-2.1094
X3.9844Y-2.8594
X3.9844Y-3.6094
X3.9844Y-4.3594
X3.9844Y-5.1094
X4.7344Y-2.2969
X4.7344Y-3.0469
X4.7344Y-3.7969
X4.7344Y-4.5469
X4.7344Y-5.2969
X5.4844Y-2.3906
X5.4844Y-3.1406
X5.4844Y-3.8906
X5.4844Y-4.6406
X5.4844Y-5.5781
T3
G00X6.1928Y-4.1117
M15
G01X6.1731Y-4.1117
M16
G05
G00X6.1928Y-4.2082
M15
G01X6.1731Y-4.2082
M16
G05
G00X6.2518Y-4.0428
M15
G01X6.2321Y-4.0428
M16
G05
G00X6.2518Y-4.2771
M15
G01X6.2321Y-4.2771
M16
G05
G00X6.4093Y-4.0428
M15
G01X6.3896Y-4.0428
M16
G05
G00X6.4093Y-4.2771
M15
G01X6.3896Y-4.2771
M16
G05
G00X6.5274Y-4.0428
M15
G01X6.5077Y-4.0428
M16
G05
G00X6.5274Y-4.2771
M15
G01X6.5077Y-4.2771
M16
G05
T0
M30
