%TF.GenerationSoftware,KiCad,Pcbnew,5.1.9-73d0e3b20d~88~ubuntu18.04.1*%
%TF.CreationDate,2021-03-13T15:22:26+09:00*%
%TF.ProjectId,swallowtail,7377616c-6c6f-4777-9461-696c2e6b6963,rev?*%
%TF.SameCoordinates,Original*%
%TF.FileFunction,Legend,Top*%
%TF.FilePolarity,Positive*%
%FSLAX46Y46*%
G04 Gerber Fmt 4.6, Leading zero omitted, Abs format (unit mm)*
G04 Created by KiCad (PCBNEW 5.1.9-73d0e3b20d~88~ubuntu18.04.1) date 2021-03-13 15:22:26*
%MOMM*%
%LPD*%
G01*
G04 APERTURE LIST*
%ADD10C,0.150000*%
%ADD11C,0.400000*%
%ADD12C,0.500000*%
%ADD13C,3.500000*%
%ADD14C,1.000000*%
%ADD15C,3.000000*%
%ADD16C,0.800000*%
%ADD17C,0.300000*%
%ADD18C,0.010000*%
%ADD19C,0.120000*%
%ADD20C,0.125000*%
G04 APERTURE END LIST*
D10*
X157884952Y-89606380D02*
X157551619Y-89130190D01*
X157313523Y-89606380D02*
X157313523Y-88606380D01*
X157694476Y-88606380D01*
X157789714Y-88654000D01*
X157837333Y-88701619D01*
X157884952Y-88796857D01*
X157884952Y-88939714D01*
X157837333Y-89034952D01*
X157789714Y-89082571D01*
X157694476Y-89130190D01*
X157313523Y-89130190D01*
X158313523Y-89606380D02*
X158313523Y-88939714D01*
X158313523Y-88606380D02*
X158265904Y-88654000D01*
X158313523Y-88701619D01*
X158361142Y-88654000D01*
X158313523Y-88606380D01*
X158313523Y-88701619D01*
X159218285Y-88939714D02*
X159218285Y-89749238D01*
X159170666Y-89844476D01*
X159123047Y-89892095D01*
X159027809Y-89939714D01*
X158884952Y-89939714D01*
X158789714Y-89892095D01*
X159218285Y-89558761D02*
X159123047Y-89606380D01*
X158932571Y-89606380D01*
X158837333Y-89558761D01*
X158789714Y-89511142D01*
X158742095Y-89415904D01*
X158742095Y-89130190D01*
X158789714Y-89034952D01*
X158837333Y-88987333D01*
X158932571Y-88939714D01*
X159123047Y-88939714D01*
X159218285Y-88987333D01*
X159694476Y-89606380D02*
X159694476Y-88606380D01*
X160123047Y-89606380D02*
X160123047Y-89082571D01*
X160075428Y-88987333D01*
X159980190Y-88939714D01*
X159837333Y-88939714D01*
X159742095Y-88987333D01*
X159694476Y-89034952D01*
X160456380Y-88939714D02*
X160837333Y-88939714D01*
X160599238Y-88606380D02*
X160599238Y-89463523D01*
X160646857Y-89558761D01*
X160742095Y-89606380D01*
X160837333Y-89606380D01*
D11*
%TO.C,SW24*%
X134903125Y-113971875D02*
X134903125Y-114671875D01*
X134903125Y-111471875D02*
X136303125Y-111471875D01*
D12*
X145003125Y-116571875D02*
X142303125Y-116571875D01*
D10*
X134703125Y-111621875D02*
X134703125Y-111271875D01*
X134703125Y-111271875D02*
X143103125Y-111271874D01*
X139703125Y-114871875D02*
X134703125Y-114871875D01*
X145203125Y-116771875D02*
X141923125Y-116771875D01*
X145203125Y-113171875D02*
X145203125Y-114171875D01*
X145203125Y-116771875D02*
X145203125Y-116411875D01*
X145003125Y-116411875D02*
X145203125Y-116411875D01*
X144973125Y-114171875D02*
X144973125Y-116411875D01*
X145203125Y-114171875D02*
X145003125Y-114171875D01*
X134903125Y-111621875D02*
X134703125Y-111621875D01*
X134923125Y-113871875D02*
X134923125Y-111621875D01*
X134703125Y-113871875D02*
X134903125Y-113871875D01*
X134703125Y-114871875D02*
X134703125Y-113871875D01*
D13*
X136703125Y-113071875D02*
X143403125Y-113071875D01*
D14*
X135403125Y-111871875D02*
X135403125Y-114371875D01*
D12*
X135003125Y-114571875D02*
X136403125Y-114571875D01*
D15*
X143473125Y-112771875D02*
X143473125Y-115011875D01*
D16*
X144603125Y-116271875D02*
X144603125Y-114471875D01*
D17*
X145103124Y-114071875D02*
X145103125Y-113171876D01*
D10*
X141919443Y-116750404D02*
G75*
G03*
X139703125Y-114871875I-2151318J-291471D01*
G01*
X145203126Y-113171875D02*
G75*
G03*
X143103125Y-111271874I-2000001J-100000D01*
G01*
D14*
X142319443Y-116350404D02*
G75*
G03*
X140103125Y-114471875I-2151318J-291471D01*
G01*
D18*
%TO.C,G\u002A\u002A\u002A*%
G36*
X151955500Y-116490750D02*
G01*
X150241000Y-116490750D01*
X150241000Y-116300250D01*
X151765000Y-116300250D01*
X151765000Y-115728750D01*
X150622000Y-115728750D01*
X150622000Y-115538250D01*
X151955500Y-115538250D01*
X151955500Y-116490750D01*
G37*
X151955500Y-116490750D02*
X150241000Y-116490750D01*
X150241000Y-116300250D01*
X151765000Y-116300250D01*
X151765000Y-115728750D01*
X150622000Y-115728750D01*
X150622000Y-115538250D01*
X151955500Y-115538250D01*
X151955500Y-116490750D01*
G36*
X152336500Y-116300250D02*
G01*
X154051000Y-116300250D01*
X154051000Y-115538250D01*
X154241500Y-115538250D01*
X154241500Y-116490750D01*
X152146000Y-116490750D01*
X152146000Y-115538250D01*
X152336500Y-115538250D01*
X152336500Y-116300250D01*
G37*
X152336500Y-116300250D02*
X154051000Y-116300250D01*
X154051000Y-115538250D01*
X154241500Y-115538250D01*
X154241500Y-116490750D01*
X152146000Y-116490750D01*
X152146000Y-115538250D01*
X152336500Y-115538250D01*
X152336500Y-116300250D01*
G36*
X156146500Y-116490750D02*
G01*
X155956000Y-116490750D01*
X155956000Y-115728750D01*
X154622500Y-115728750D01*
X154622500Y-116300250D01*
X155765500Y-116300250D01*
X155765500Y-116490750D01*
X154432000Y-116490750D01*
X154432000Y-115538250D01*
X156146500Y-115538250D01*
X156146500Y-116490750D01*
G37*
X156146500Y-116490750D02*
X155956000Y-116490750D01*
X155956000Y-115728750D01*
X154622500Y-115728750D01*
X154622500Y-116300250D01*
X155765500Y-116300250D01*
X155765500Y-116490750D01*
X154432000Y-116490750D01*
X154432000Y-115538250D01*
X156146500Y-115538250D01*
X156146500Y-116490750D01*
G36*
X156718000Y-116490750D02*
G01*
X156527500Y-116490750D01*
X156527500Y-115728750D01*
X156432250Y-115728750D01*
X156364784Y-115720882D01*
X156339918Y-115683772D01*
X156337000Y-115633500D01*
X156337000Y-115538250D01*
X156718000Y-115538250D01*
X156718000Y-116490750D01*
G37*
X156718000Y-116490750D02*
X156527500Y-116490750D01*
X156527500Y-115728750D01*
X156432250Y-115728750D01*
X156364784Y-115720882D01*
X156339918Y-115683772D01*
X156337000Y-115633500D01*
X156337000Y-115538250D01*
X156718000Y-115538250D01*
X156718000Y-116490750D01*
G36*
X157099000Y-116490750D02*
G01*
X156908500Y-116490750D01*
X156908500Y-115347750D01*
X156337000Y-115347750D01*
X156337000Y-115157250D01*
X157099000Y-115157250D01*
X157099000Y-116490750D01*
G37*
X157099000Y-116490750D02*
X156908500Y-116490750D01*
X156908500Y-115347750D01*
X156337000Y-115347750D01*
X156337000Y-115157250D01*
X157099000Y-115157250D01*
X157099000Y-116490750D01*
G36*
X157670500Y-116490750D02*
G01*
X157480000Y-116490750D01*
X157480000Y-115728750D01*
X157384750Y-115728750D01*
X157317284Y-115720882D01*
X157292418Y-115683772D01*
X157289500Y-115633500D01*
X157289500Y-115538250D01*
X157670500Y-115538250D01*
X157670500Y-116490750D01*
G37*
X157670500Y-116490750D02*
X157480000Y-116490750D01*
X157480000Y-115728750D01*
X157384750Y-115728750D01*
X157317284Y-115720882D01*
X157292418Y-115683772D01*
X157289500Y-115633500D01*
X157289500Y-115538250D01*
X157670500Y-115538250D01*
X157670500Y-116490750D01*
G36*
X158051500Y-116490750D02*
G01*
X157861000Y-116490750D01*
X157861000Y-115347750D01*
X157289500Y-115347750D01*
X157289500Y-115157250D01*
X158051500Y-115157250D01*
X158051500Y-116490750D01*
G37*
X158051500Y-116490750D02*
X157861000Y-116490750D01*
X157861000Y-115347750D01*
X157289500Y-115347750D01*
X157289500Y-115157250D01*
X158051500Y-115157250D01*
X158051500Y-116490750D01*
G36*
X159956500Y-116490750D02*
G01*
X158242000Y-116490750D01*
X158242000Y-115728750D01*
X158432500Y-115728750D01*
X158432500Y-116300250D01*
X159766000Y-116300250D01*
X159766000Y-115728750D01*
X158432500Y-115728750D01*
X158242000Y-115728750D01*
X158242000Y-115538250D01*
X159956500Y-115538250D01*
X159956500Y-116490750D01*
G37*
X159956500Y-116490750D02*
X158242000Y-116490750D01*
X158242000Y-115728750D01*
X158432500Y-115728750D01*
X158432500Y-116300250D01*
X159766000Y-116300250D01*
X159766000Y-115728750D01*
X158432500Y-115728750D01*
X158242000Y-115728750D01*
X158242000Y-115538250D01*
X159956500Y-115538250D01*
X159956500Y-116490750D01*
G36*
X160337500Y-116300250D02*
G01*
X162052000Y-116300250D01*
X162052000Y-115538250D01*
X162242500Y-115538250D01*
X162242500Y-116490750D01*
X160147000Y-116490750D01*
X160147000Y-115538250D01*
X160337500Y-115538250D01*
X160337500Y-116300250D01*
G37*
X160337500Y-116300250D02*
X162052000Y-116300250D01*
X162052000Y-115538250D01*
X162242500Y-115538250D01*
X162242500Y-116490750D01*
X160147000Y-116490750D01*
X160147000Y-115538250D01*
X160337500Y-115538250D01*
X160337500Y-116300250D01*
G36*
X162814000Y-116300250D02*
G01*
X164147500Y-116300250D01*
X164147500Y-116490750D01*
X162623500Y-116490750D01*
X162623500Y-116109750D01*
X162528250Y-116109750D01*
X162460784Y-116101882D01*
X162435918Y-116064772D01*
X162433000Y-116014500D01*
X162433000Y-115919250D01*
X162814000Y-115919250D01*
X162814000Y-116300250D01*
G37*
X162814000Y-116300250D02*
X164147500Y-116300250D01*
X164147500Y-116490750D01*
X162623500Y-116490750D01*
X162623500Y-116109750D01*
X162528250Y-116109750D01*
X162460784Y-116101882D01*
X162435918Y-116064772D01*
X162433000Y-116014500D01*
X162433000Y-115919250D01*
X162814000Y-115919250D01*
X162814000Y-116300250D01*
G36*
X166052500Y-116490750D02*
G01*
X165862000Y-116490750D01*
X165862000Y-115728750D01*
X164528500Y-115728750D01*
X164528500Y-116300250D01*
X165671500Y-116300250D01*
X165671500Y-116490750D01*
X164338000Y-116490750D01*
X164338000Y-115538250D01*
X166052500Y-115538250D01*
X166052500Y-116490750D01*
G37*
X166052500Y-116490750D02*
X165862000Y-116490750D01*
X165862000Y-115728750D01*
X164528500Y-115728750D01*
X164528500Y-116300250D01*
X165671500Y-116300250D01*
X165671500Y-116490750D01*
X164338000Y-116490750D01*
X164338000Y-115538250D01*
X166052500Y-115538250D01*
X166052500Y-116490750D01*
G36*
X166814500Y-116490750D02*
G01*
X166624000Y-116490750D01*
X166624000Y-115728750D01*
X166433500Y-115728750D01*
X166433500Y-116490750D01*
X166243000Y-116490750D01*
X166243000Y-115538250D01*
X166814500Y-115538250D01*
X166814500Y-116490750D01*
G37*
X166814500Y-116490750D02*
X166624000Y-116490750D01*
X166624000Y-115728750D01*
X166433500Y-115728750D01*
X166433500Y-116490750D01*
X166243000Y-116490750D01*
X166243000Y-115538250D01*
X166814500Y-115538250D01*
X166814500Y-116490750D01*
G36*
X167386000Y-116490750D02*
G01*
X167195500Y-116490750D01*
X167195500Y-115728750D01*
X167100250Y-115728750D01*
X167032784Y-115720882D01*
X167007918Y-115683772D01*
X167005000Y-115633500D01*
X167005000Y-115538250D01*
X167386000Y-115538250D01*
X167386000Y-116490750D01*
G37*
X167386000Y-116490750D02*
X167195500Y-116490750D01*
X167195500Y-115728750D01*
X167100250Y-115728750D01*
X167032784Y-115720882D01*
X167007918Y-115683772D01*
X167005000Y-115633500D01*
X167005000Y-115538250D01*
X167386000Y-115538250D01*
X167386000Y-116490750D01*
G36*
X167767000Y-116490750D02*
G01*
X167576500Y-116490750D01*
X167576500Y-115347750D01*
X167005000Y-115347750D01*
X167005000Y-115157250D01*
X167767000Y-115157250D01*
X167767000Y-116490750D01*
G37*
X167767000Y-116490750D02*
X167576500Y-116490750D01*
X167576500Y-115347750D01*
X167005000Y-115347750D01*
X167005000Y-115157250D01*
X167767000Y-115157250D01*
X167767000Y-116490750D01*
G36*
X151955500Y-115347750D02*
G01*
X150431500Y-115347750D01*
X150431500Y-115919250D01*
X151574500Y-115919250D01*
X151574500Y-116109750D01*
X150241000Y-116109750D01*
X150241000Y-115157250D01*
X151955500Y-115157250D01*
X151955500Y-115347750D01*
G37*
X151955500Y-115347750D02*
X150431500Y-115347750D01*
X150431500Y-115919250D01*
X151574500Y-115919250D01*
X151574500Y-116109750D01*
X150241000Y-116109750D01*
X150241000Y-115157250D01*
X151955500Y-115157250D01*
X151955500Y-115347750D01*
G36*
X152717500Y-115919250D02*
G01*
X152908000Y-115919250D01*
X152908000Y-115538250D01*
X153098500Y-115538250D01*
X153098500Y-116109750D01*
X152527000Y-116109750D01*
X152527000Y-115538250D01*
X152717500Y-115538250D01*
X152717500Y-115919250D01*
G37*
X152717500Y-115919250D02*
X152908000Y-115919250D01*
X152908000Y-115538250D01*
X153098500Y-115538250D01*
X153098500Y-116109750D01*
X152527000Y-116109750D01*
X152527000Y-115538250D01*
X152717500Y-115538250D01*
X152717500Y-115919250D01*
G36*
X153479500Y-115919250D02*
G01*
X153670000Y-115919250D01*
X153670000Y-115538250D01*
X153860500Y-115538250D01*
X153860500Y-116109750D01*
X153289000Y-116109750D01*
X153289000Y-115538250D01*
X153479500Y-115538250D01*
X153479500Y-115919250D01*
G37*
X153479500Y-115919250D02*
X153670000Y-115919250D01*
X153670000Y-115538250D01*
X153860500Y-115538250D01*
X153860500Y-116109750D01*
X153289000Y-116109750D01*
X153289000Y-115538250D01*
X153479500Y-115538250D01*
X153479500Y-115919250D01*
G36*
X155765500Y-116109750D02*
G01*
X154813000Y-116109750D01*
X154813000Y-115919250D01*
X155765500Y-115919250D01*
X155765500Y-116109750D01*
G37*
X155765500Y-116109750D02*
X154813000Y-116109750D01*
X154813000Y-115919250D01*
X155765500Y-115919250D01*
X155765500Y-116109750D01*
G36*
X160718500Y-115919250D02*
G01*
X160909000Y-115919250D01*
X160909000Y-115538250D01*
X161099500Y-115538250D01*
X161099500Y-116109750D01*
X160528000Y-116109750D01*
X160528000Y-115538250D01*
X160718500Y-115538250D01*
X160718500Y-115919250D01*
G37*
X160718500Y-115919250D02*
X160909000Y-115919250D01*
X160909000Y-115538250D01*
X161099500Y-115538250D01*
X161099500Y-116109750D01*
X160528000Y-116109750D01*
X160528000Y-115538250D01*
X160718500Y-115538250D01*
X160718500Y-115919250D01*
G36*
X161480500Y-115919250D02*
G01*
X161671000Y-115919250D01*
X161671000Y-115538250D01*
X161861500Y-115538250D01*
X161861500Y-116109750D01*
X161290000Y-116109750D01*
X161290000Y-115538250D01*
X161480500Y-115538250D01*
X161480500Y-115919250D01*
G37*
X161480500Y-115919250D02*
X161671000Y-115919250D01*
X161671000Y-115538250D01*
X161861500Y-115538250D01*
X161861500Y-116109750D01*
X161290000Y-116109750D01*
X161290000Y-115538250D01*
X161480500Y-115538250D01*
X161480500Y-115919250D01*
G36*
X164147500Y-116109750D02*
G01*
X163004500Y-116109750D01*
X163004500Y-115919250D01*
X164147500Y-115919250D01*
X164147500Y-116109750D01*
G37*
X164147500Y-116109750D02*
X163004500Y-116109750D01*
X163004500Y-115919250D01*
X164147500Y-115919250D01*
X164147500Y-116109750D01*
G36*
X165671500Y-116109750D02*
G01*
X164719000Y-116109750D01*
X164719000Y-115919250D01*
X165671500Y-115919250D01*
X165671500Y-116109750D01*
G37*
X165671500Y-116109750D02*
X164719000Y-116109750D01*
X164719000Y-115919250D01*
X165671500Y-115919250D01*
X165671500Y-116109750D01*
G36*
X162814000Y-115728750D02*
G01*
X162433000Y-115728750D01*
X162433000Y-115633500D01*
X162440867Y-115566034D01*
X162477977Y-115541168D01*
X162528250Y-115538250D01*
X162623500Y-115538250D01*
X162623500Y-115157250D01*
X162814000Y-115157250D01*
X162814000Y-115728750D01*
G37*
X162814000Y-115728750D02*
X162433000Y-115728750D01*
X162433000Y-115633500D01*
X162440867Y-115566034D01*
X162477977Y-115541168D01*
X162528250Y-115538250D01*
X162623500Y-115538250D01*
X162623500Y-115157250D01*
X162814000Y-115157250D01*
X162814000Y-115728750D01*
G36*
X163195000Y-115538250D02*
G01*
X164147500Y-115538250D01*
X164147500Y-115728750D01*
X163004500Y-115728750D01*
X163004500Y-115157250D01*
X163195000Y-115157250D01*
X163195000Y-115538250D01*
G37*
X163195000Y-115538250D02*
X164147500Y-115538250D01*
X164147500Y-115728750D01*
X163004500Y-115728750D01*
X163004500Y-115157250D01*
X163195000Y-115157250D01*
X163195000Y-115538250D01*
G36*
X166814500Y-115347750D02*
G01*
X166243000Y-115347750D01*
X166243000Y-115157250D01*
X166814500Y-115157250D01*
X166814500Y-115347750D01*
G37*
X166814500Y-115347750D02*
X166243000Y-115347750D01*
X166243000Y-115157250D01*
X166814500Y-115157250D01*
X166814500Y-115347750D01*
G36*
X159575500Y-116109750D02*
G01*
X158623000Y-116109750D01*
X158623000Y-115919250D01*
X159575500Y-115919250D01*
X159575500Y-116109750D01*
G37*
X159575500Y-116109750D02*
X158623000Y-116109750D01*
X158623000Y-115919250D01*
X159575500Y-115919250D01*
X159575500Y-116109750D01*
D10*
%TO.C,D1*%
X43653125Y-52387500D02*
X44553125Y-51887500D01*
X44553125Y-51887500D02*
X44553125Y-52887500D01*
X44553125Y-52887500D02*
X43653125Y-52387500D01*
X43553125Y-51887500D02*
X43553125Y-52887500D01*
%TO.C,D2*%
X62703125Y-52387500D02*
X63603125Y-51887500D01*
X63603125Y-51887500D02*
X63603125Y-52887500D01*
X63603125Y-52887500D02*
X62703125Y-52387500D01*
X62603125Y-51887500D02*
X62603125Y-52887500D01*
%TO.C,D3*%
X81753125Y-47625000D02*
X82653125Y-47125000D01*
X82653125Y-47125000D02*
X82653125Y-48125000D01*
X82653125Y-48125000D02*
X81753125Y-47625000D01*
X81653125Y-47125000D02*
X81653125Y-48125000D01*
%TO.C,D4*%
X100803125Y-45243750D02*
X101703125Y-44743750D01*
X101703125Y-44743750D02*
X101703125Y-45743750D01*
X101703125Y-45743750D02*
X100803125Y-45243750D01*
X100703125Y-44743750D02*
X100703125Y-45743750D01*
%TO.C,D5*%
X119853125Y-50006250D02*
X120753125Y-49506250D01*
X120753125Y-49506250D02*
X120753125Y-50506250D01*
X120753125Y-50506250D02*
X119853125Y-50006250D01*
X119753125Y-49506250D02*
X119753125Y-50506250D01*
%TO.C,D6*%
X138903125Y-52387500D02*
X139803125Y-51887500D01*
X139803125Y-51887500D02*
X139803125Y-52887500D01*
X139803125Y-52887500D02*
X138903125Y-52387500D01*
X138803125Y-51887500D02*
X138803125Y-52887500D01*
%TO.C,D7*%
X43653125Y-71437500D02*
X44553125Y-70937500D01*
X44553125Y-70937500D02*
X44553125Y-71937500D01*
X44553125Y-71937500D02*
X43653125Y-71437500D01*
X43553125Y-70937500D02*
X43553125Y-71937500D01*
%TO.C,D8*%
X62703125Y-71437500D02*
X63603125Y-70937500D01*
X63603125Y-70937500D02*
X63603125Y-71937500D01*
X63603125Y-71937500D02*
X62703125Y-71437500D01*
X62603125Y-70937500D02*
X62603125Y-71937500D01*
%TO.C,D9*%
X82359375Y-66675000D02*
X83259375Y-66175000D01*
X83259375Y-66175000D02*
X83259375Y-67175000D01*
X83259375Y-67175000D02*
X82359375Y-66675000D01*
X82259375Y-66175000D02*
X82259375Y-67175000D01*
%TO.C,D10*%
X100803125Y-64293750D02*
X101703125Y-63793750D01*
X101703125Y-63793750D02*
X101703125Y-64793750D01*
X101703125Y-64793750D02*
X100803125Y-64293750D01*
X100703125Y-63793750D02*
X100703125Y-64793750D01*
%TO.C,D11*%
X119853125Y-69056250D02*
X120753125Y-68556250D01*
X120753125Y-68556250D02*
X120753125Y-69556250D01*
X120753125Y-69556250D02*
X119853125Y-69056250D01*
X119753125Y-68556250D02*
X119753125Y-69556250D01*
%TO.C,D12*%
X138903125Y-71437500D02*
X139803125Y-70937500D01*
X139803125Y-70937500D02*
X139803125Y-71937500D01*
X139803125Y-71937500D02*
X138903125Y-71437500D01*
X138803125Y-70937500D02*
X138803125Y-71937500D01*
%TO.C,D13*%
X43653125Y-90487500D02*
X44553125Y-89987500D01*
X44553125Y-89987500D02*
X44553125Y-90987500D01*
X44553125Y-90987500D02*
X43653125Y-90487500D01*
X43553125Y-89987500D02*
X43553125Y-90987500D01*
%TO.C,D14*%
X62703125Y-90487500D02*
X63603125Y-89987500D01*
X63603125Y-89987500D02*
X63603125Y-90987500D01*
X63603125Y-90987500D02*
X62703125Y-90487500D01*
X62603125Y-89987500D02*
X62603125Y-90987500D01*
%TO.C,D15*%
X81753125Y-85725000D02*
X82653125Y-85225000D01*
X82653125Y-85225000D02*
X82653125Y-86225000D01*
X82653125Y-86225000D02*
X81753125Y-85725000D01*
X81653125Y-85225000D02*
X81653125Y-86225000D01*
%TO.C,D16*%
X100803125Y-83343750D02*
X101703125Y-82843750D01*
X101703125Y-82843750D02*
X101703125Y-83843750D01*
X101703125Y-83843750D02*
X100803125Y-83343750D01*
X100703125Y-82843750D02*
X100703125Y-83843750D01*
%TO.C,D17*%
X119853125Y-88106250D02*
X120753125Y-87606250D01*
X120753125Y-87606250D02*
X120753125Y-88606250D01*
X120753125Y-88606250D02*
X119853125Y-88106250D01*
X119753125Y-87606250D02*
X119753125Y-88606250D01*
%TO.C,D18*%
X138903125Y-90487500D02*
X139803125Y-89987500D01*
X139803125Y-89987500D02*
X139803125Y-90987500D01*
X139803125Y-90987500D02*
X138903125Y-90487500D01*
X138803125Y-89987500D02*
X138803125Y-90987500D01*
%TO.C,D19*%
X43653125Y-109537500D02*
X44553125Y-109037500D01*
X44553125Y-109037500D02*
X44553125Y-110037500D01*
X44553125Y-110037500D02*
X43653125Y-109537500D01*
X43553125Y-109037500D02*
X43553125Y-110037500D01*
%TO.C,D20*%
X62703125Y-109537500D02*
X63603125Y-109037500D01*
X63603125Y-109037500D02*
X63603125Y-110037500D01*
X63603125Y-110037500D02*
X62703125Y-109537500D01*
X62603125Y-109037500D02*
X62603125Y-110037500D01*
%TO.C,D21*%
X81753125Y-104775000D02*
X82653125Y-104275000D01*
X82653125Y-104275000D02*
X82653125Y-105275000D01*
X82653125Y-105275000D02*
X81753125Y-104775000D01*
X81653125Y-104275000D02*
X81653125Y-105275000D01*
%TO.C,D22*%
X100803125Y-102393750D02*
X101703125Y-101893750D01*
X101703125Y-101893750D02*
X101703125Y-102893750D01*
X101703125Y-102893750D02*
X100803125Y-102393750D01*
X100703125Y-101893750D02*
X100703125Y-102893750D01*
%TO.C,D23*%
X119853125Y-107156250D02*
X120753125Y-106656250D01*
X120753125Y-106656250D02*
X120753125Y-107656250D01*
X120753125Y-107656250D02*
X119853125Y-107156250D01*
X119753125Y-106656250D02*
X119753125Y-107656250D01*
%TO.C,D24*%
X138903125Y-109537500D02*
X139803125Y-109037500D01*
X139803125Y-109037500D02*
X139803125Y-110037500D01*
X139803125Y-110037500D02*
X138903125Y-109537500D01*
X138803125Y-109037500D02*
X138803125Y-110037500D01*
%TO.C,D25*%
X43653125Y-128587500D02*
X44553125Y-128087500D01*
X44553125Y-128087500D02*
X44553125Y-129087500D01*
X44553125Y-129087500D02*
X43653125Y-128587500D01*
X43553125Y-128087500D02*
X43553125Y-129087500D01*
%TO.C,D26*%
X62703125Y-128587500D02*
X63603125Y-128087500D01*
X63603125Y-128087500D02*
X63603125Y-129087500D01*
X63603125Y-129087500D02*
X62703125Y-128587500D01*
X62603125Y-128087500D02*
X62603125Y-129087500D01*
%TO.C,D27*%
X81753125Y-123825000D02*
X82653125Y-123325000D01*
X82653125Y-123325000D02*
X82653125Y-124325000D01*
X82653125Y-124325000D02*
X81753125Y-123825000D01*
X81653125Y-123325000D02*
X81653125Y-124325000D01*
%TO.C,D28*%
X100803125Y-121443750D02*
X101703125Y-120943750D01*
X101703125Y-120943750D02*
X101703125Y-121943750D01*
X101703125Y-121943750D02*
X100803125Y-121443750D01*
X100703125Y-120943750D02*
X100703125Y-121943750D01*
%TO.C,D29*%
X119853125Y-126206250D02*
X120753125Y-125706250D01*
X120753125Y-125706250D02*
X120753125Y-126706250D01*
X120753125Y-126706250D02*
X119853125Y-126206250D01*
X119753125Y-125706250D02*
X119753125Y-126706250D01*
%TO.C,D30*%
X138903125Y-128587500D02*
X139803125Y-128087500D01*
X139803125Y-128087500D02*
X139803125Y-129087500D01*
X139803125Y-129087500D02*
X138903125Y-128587500D01*
X138803125Y-128087500D02*
X138803125Y-129087500D01*
D19*
%TO.C,LED1*%
X40153125Y-65734375D02*
X40153125Y-67334375D01*
X47953125Y-63634375D02*
X40153125Y-63634375D01*
X40153125Y-67334375D02*
X47953125Y-67334375D01*
%TO.C,LED2*%
X59203125Y-65734375D02*
X59203125Y-67334375D01*
X67003125Y-63634375D02*
X59203125Y-63634375D01*
X59203125Y-67334375D02*
X67003125Y-67334375D01*
%TO.C,LED3*%
X78253125Y-60971875D02*
X78253125Y-62571875D01*
X86053125Y-58871875D02*
X78253125Y-58871875D01*
X78253125Y-62571875D02*
X86053125Y-62571875D01*
%TO.C,LED4*%
X97303125Y-58590625D02*
X97303125Y-60190625D01*
X105103125Y-56490625D02*
X97303125Y-56490625D01*
X97303125Y-60190625D02*
X105103125Y-60190625D01*
%TO.C,LED5*%
X116353125Y-63353125D02*
X116353125Y-64953125D01*
X124153125Y-61253125D02*
X116353125Y-61253125D01*
X116353125Y-64953125D02*
X124153125Y-64953125D01*
%TO.C,LED6*%
X135403125Y-65734375D02*
X135403125Y-67334375D01*
X143203125Y-63634375D02*
X135403125Y-63634375D01*
X135403125Y-67334375D02*
X143203125Y-67334375D01*
%TO.C,LED7*%
X40153125Y-84784375D02*
X40153125Y-86384375D01*
X47953125Y-82684375D02*
X40153125Y-82684375D01*
X40153125Y-86384375D02*
X47953125Y-86384375D01*
%TO.C,LED8*%
X59203125Y-84784375D02*
X59203125Y-86384375D01*
X67003125Y-82684375D02*
X59203125Y-82684375D01*
X59203125Y-86384375D02*
X67003125Y-86384375D01*
%TO.C,LED9*%
X78253125Y-80021875D02*
X78253125Y-81621875D01*
X86053125Y-77921875D02*
X78253125Y-77921875D01*
X78253125Y-81621875D02*
X86053125Y-81621875D01*
%TO.C,LED10*%
X97303125Y-77640625D02*
X97303125Y-79240625D01*
X105103125Y-75540625D02*
X97303125Y-75540625D01*
X97303125Y-79240625D02*
X105103125Y-79240625D01*
%TO.C,LED11*%
X116353125Y-82403125D02*
X116353125Y-84003125D01*
X124153125Y-80303125D02*
X116353125Y-80303125D01*
X116353125Y-84003125D02*
X124153125Y-84003125D01*
%TO.C,LED12*%
X135403125Y-84784375D02*
X135403125Y-86384375D01*
X143203125Y-82684375D02*
X135403125Y-82684375D01*
X135403125Y-86384375D02*
X143203125Y-86384375D01*
%TO.C,LED13*%
X40153125Y-103834375D02*
X40153125Y-105434375D01*
X47953125Y-101734375D02*
X40153125Y-101734375D01*
X40153125Y-105434375D02*
X47953125Y-105434375D01*
%TO.C,LED14*%
X59203125Y-103834375D02*
X59203125Y-105434375D01*
X67003125Y-101734375D02*
X59203125Y-101734375D01*
X59203125Y-105434375D02*
X67003125Y-105434375D01*
%TO.C,LED15*%
X78253125Y-99071875D02*
X78253125Y-100671875D01*
X86053125Y-96971875D02*
X78253125Y-96971875D01*
X78253125Y-100671875D02*
X86053125Y-100671875D01*
%TO.C,LED16*%
X97303125Y-96690625D02*
X97303125Y-98290625D01*
X105103125Y-94590625D02*
X97303125Y-94590625D01*
X97303125Y-98290625D02*
X105103125Y-98290625D01*
%TO.C,LED17*%
X116353125Y-101453125D02*
X116353125Y-103053125D01*
X124153125Y-99353125D02*
X116353125Y-99353125D01*
X116353125Y-103053125D02*
X124153125Y-103053125D01*
%TO.C,LED18*%
X135403125Y-103834375D02*
X135403125Y-105434375D01*
X143203125Y-101734375D02*
X135403125Y-101734375D01*
X135403125Y-105434375D02*
X143203125Y-105434375D01*
%TO.C,LED19*%
X40153125Y-122884375D02*
X40153125Y-124484375D01*
X47953125Y-120784375D02*
X40153125Y-120784375D01*
X40153125Y-124484375D02*
X47953125Y-124484375D01*
%TO.C,LED20*%
X59203125Y-122884375D02*
X59203125Y-124484375D01*
X67003125Y-120784375D02*
X59203125Y-120784375D01*
X59203125Y-124484375D02*
X67003125Y-124484375D01*
%TO.C,LED21*%
X78253125Y-118121875D02*
X78253125Y-119721875D01*
X86053125Y-116021875D02*
X78253125Y-116021875D01*
X78253125Y-119721875D02*
X86053125Y-119721875D01*
%TO.C,LED22*%
X97303125Y-115740625D02*
X97303125Y-117340625D01*
X105103125Y-113640625D02*
X97303125Y-113640625D01*
X97303125Y-117340625D02*
X105103125Y-117340625D01*
%TO.C,LED23*%
X116353125Y-120503125D02*
X116353125Y-122103125D01*
X124153125Y-118403125D02*
X116353125Y-118403125D01*
X116353125Y-122103125D02*
X124153125Y-122103125D01*
%TO.C,LED24*%
X135403125Y-122884375D02*
X135403125Y-124484375D01*
X143203125Y-120784375D02*
X135403125Y-120784375D01*
X135403125Y-124484375D02*
X143203125Y-124484375D01*
%TO.C,LED25*%
X40153125Y-141934375D02*
X40153125Y-143534375D01*
X47953125Y-139834375D02*
X40153125Y-139834375D01*
X40153125Y-143534375D02*
X47953125Y-143534375D01*
%TO.C,LED26*%
X59203125Y-141934375D02*
X59203125Y-143534375D01*
X67003125Y-139834375D02*
X59203125Y-139834375D01*
X59203125Y-143534375D02*
X67003125Y-143534375D01*
%TO.C,LED27*%
X78253125Y-137171875D02*
X78253125Y-138771875D01*
X86053125Y-135071875D02*
X78253125Y-135071875D01*
X78253125Y-138771875D02*
X86053125Y-138771875D01*
%TO.C,LED28*%
X97303125Y-134790625D02*
X97303125Y-136390625D01*
X105103125Y-132690625D02*
X97303125Y-132690625D01*
X97303125Y-136390625D02*
X105103125Y-136390625D01*
%TO.C,LED29*%
X116353125Y-139553125D02*
X116353125Y-141153125D01*
X124153125Y-137453125D02*
X116353125Y-137453125D01*
X116353125Y-141153125D02*
X124153125Y-141153125D01*
%TO.C,LED30*%
X134290625Y-137784375D02*
X132690625Y-137784375D01*
X136390625Y-145584375D02*
X136390625Y-137784375D01*
X132690625Y-137784375D02*
X132690625Y-145584375D01*
D11*
%TO.C,SW29*%
X115853125Y-130640625D02*
X115853125Y-131340625D01*
X115853125Y-128140625D02*
X117253125Y-128140625D01*
D12*
X125953125Y-133240625D02*
X123253125Y-133240625D01*
D10*
X115653125Y-128290625D02*
X115653125Y-127940625D01*
X115653125Y-127940625D02*
X124053125Y-127940624D01*
X120653125Y-131540625D02*
X115653125Y-131540625D01*
X126153125Y-133440625D02*
X122873125Y-133440625D01*
X126153125Y-129840625D02*
X126153125Y-130840625D01*
X126153125Y-133440625D02*
X126153125Y-133080625D01*
X125953125Y-133080625D02*
X126153125Y-133080625D01*
X125923125Y-130840625D02*
X125923125Y-133080625D01*
X126153125Y-130840625D02*
X125953125Y-130840625D01*
X115853125Y-128290625D02*
X115653125Y-128290625D01*
X115873125Y-130540625D02*
X115873125Y-128290625D01*
X115653125Y-130540625D02*
X115853125Y-130540625D01*
X115653125Y-131540625D02*
X115653125Y-130540625D01*
D13*
X117653125Y-129740625D02*
X124353125Y-129740625D01*
D14*
X116353125Y-128540625D02*
X116353125Y-131040625D01*
D12*
X115953125Y-131240625D02*
X117353125Y-131240625D01*
D15*
X124423125Y-129440625D02*
X124423125Y-131680625D01*
D16*
X125553125Y-132940625D02*
X125553125Y-131140625D01*
D17*
X126053124Y-130740625D02*
X126053125Y-129840626D01*
D10*
X122869443Y-133419154D02*
G75*
G03*
X120653125Y-131540625I-2151318J-291471D01*
G01*
X126153126Y-129840625D02*
G75*
G03*
X124053125Y-127940624I-2000001J-100000D01*
G01*
D14*
X123269443Y-133019154D02*
G75*
G03*
X121053125Y-131140625I-2151318J-291471D01*
G01*
D11*
%TO.C,SW4*%
X96803125Y-49678125D02*
X96803125Y-50378125D01*
X96803125Y-47178125D02*
X98203125Y-47178125D01*
D12*
X106903125Y-52278125D02*
X104203125Y-52278125D01*
D10*
X96603125Y-47328125D02*
X96603125Y-46978125D01*
X96603125Y-46978125D02*
X105003125Y-46978124D01*
X101603125Y-50578125D02*
X96603125Y-50578125D01*
X107103125Y-52478125D02*
X103823125Y-52478125D01*
X107103125Y-48878125D02*
X107103125Y-49878125D01*
X107103125Y-52478125D02*
X107103125Y-52118125D01*
X106903125Y-52118125D02*
X107103125Y-52118125D01*
X106873125Y-49878125D02*
X106873125Y-52118125D01*
X107103125Y-49878125D02*
X106903125Y-49878125D01*
X96803125Y-47328125D02*
X96603125Y-47328125D01*
X96823125Y-49578125D02*
X96823125Y-47328125D01*
X96603125Y-49578125D02*
X96803125Y-49578125D01*
X96603125Y-50578125D02*
X96603125Y-49578125D01*
D13*
X98603125Y-48778125D02*
X105303125Y-48778125D01*
D14*
X97303125Y-47578125D02*
X97303125Y-50078125D01*
D12*
X96903125Y-50278125D02*
X98303125Y-50278125D01*
D15*
X105373125Y-48478125D02*
X105373125Y-50718125D01*
D16*
X106503125Y-51978125D02*
X106503125Y-50178125D01*
D17*
X107003124Y-49778125D02*
X107003125Y-48878126D01*
D10*
X103819443Y-52456654D02*
G75*
G03*
X101603125Y-50578125I-2151318J-291471D01*
G01*
X107103126Y-48878125D02*
G75*
G03*
X105003125Y-46978124I-2000001J-100000D01*
G01*
D14*
X104219443Y-52056654D02*
G75*
G03*
X102003125Y-50178125I-2151318J-291471D01*
G01*
D11*
%TO.C,SW30*%
X143203125Y-137284375D02*
X142503125Y-137284375D01*
X145703125Y-137284375D02*
X145703125Y-138684375D01*
D12*
X140603125Y-147384375D02*
X140603125Y-144684375D01*
D10*
X145553125Y-137084375D02*
X145903125Y-137084375D01*
X145903125Y-137084375D02*
X145903126Y-145484375D01*
X142303125Y-142084375D02*
X142303125Y-137084375D01*
X140403125Y-147584375D02*
X140403125Y-144304375D01*
X144003125Y-147584375D02*
X143003125Y-147584375D01*
X140403125Y-147584375D02*
X140763125Y-147584375D01*
X140763125Y-147384375D02*
X140763125Y-147584375D01*
X143003125Y-147354375D02*
X140763125Y-147354375D01*
X143003125Y-147584375D02*
X143003125Y-147384375D01*
X145553125Y-137284375D02*
X145553125Y-137084375D01*
X143303125Y-137304375D02*
X145553125Y-137304375D01*
X143303125Y-137084375D02*
X143303125Y-137284375D01*
X142303125Y-137084375D02*
X143303125Y-137084375D01*
D13*
X144103125Y-139084375D02*
X144103125Y-145784375D01*
D14*
X145303125Y-137784375D02*
X142803125Y-137784375D01*
D12*
X142603125Y-137384375D02*
X142603125Y-138784375D01*
D15*
X144403125Y-145854375D02*
X142163125Y-145854375D01*
D16*
X140903125Y-146984375D02*
X142703125Y-146984375D01*
D17*
X143103125Y-147484374D02*
X144003124Y-147484375D01*
D10*
X140424596Y-144300693D02*
G75*
G03*
X142303125Y-142084375I-291471J2151318D01*
G01*
X144003125Y-147584376D02*
G75*
G03*
X145903126Y-145484375I-100000J2000001D01*
G01*
D14*
X140824596Y-144700693D02*
G75*
G03*
X142703125Y-142484375I-291471J2151318D01*
G01*
D11*
%TO.C,SW25*%
X39653125Y-133021875D02*
X39653125Y-133721875D01*
X39653125Y-130521875D02*
X41053125Y-130521875D01*
D12*
X49753125Y-135621875D02*
X47053125Y-135621875D01*
D10*
X39453125Y-130671875D02*
X39453125Y-130321875D01*
X39453125Y-130321875D02*
X47853125Y-130321874D01*
X44453125Y-133921875D02*
X39453125Y-133921875D01*
X49953125Y-135821875D02*
X46673125Y-135821875D01*
X49953125Y-132221875D02*
X49953125Y-133221875D01*
X49953125Y-135821875D02*
X49953125Y-135461875D01*
X49753125Y-135461875D02*
X49953125Y-135461875D01*
X49723125Y-133221875D02*
X49723125Y-135461875D01*
X49953125Y-133221875D02*
X49753125Y-133221875D01*
X39653125Y-130671875D02*
X39453125Y-130671875D01*
X39673125Y-132921875D02*
X39673125Y-130671875D01*
X39453125Y-132921875D02*
X39653125Y-132921875D01*
X39453125Y-133921875D02*
X39453125Y-132921875D01*
D13*
X41453125Y-132121875D02*
X48153125Y-132121875D01*
D14*
X40153125Y-130921875D02*
X40153125Y-133421875D01*
D12*
X39753125Y-133621875D02*
X41153125Y-133621875D01*
D15*
X48223125Y-131821875D02*
X48223125Y-134061875D01*
D16*
X49353125Y-135321875D02*
X49353125Y-133521875D01*
D17*
X49853124Y-133121875D02*
X49853125Y-132221876D01*
D10*
X46669443Y-135800404D02*
G75*
G03*
X44453125Y-133921875I-2151318J-291471D01*
G01*
X49953126Y-132221875D02*
G75*
G03*
X47853125Y-130321874I-2000001J-100000D01*
G01*
D14*
X47069443Y-135400404D02*
G75*
G03*
X44853125Y-133521875I-2151318J-291471D01*
G01*
D10*
%TO.C,J1*%
X156846500Y-103537135D02*
X168846500Y-103537135D01*
X156846500Y-109537135D02*
X156846500Y-103537135D01*
X168846500Y-109537135D02*
X156846500Y-109537135D01*
X168846500Y-103537135D02*
X168846500Y-109537135D01*
%TO.C,J2*%
X153987500Y-98917135D02*
X153987500Y-96377135D01*
X164147500Y-96377135D02*
X164147500Y-98917135D01*
X153987500Y-96377135D02*
X164147500Y-96377135D01*
X153987500Y-98917135D02*
X164147500Y-98917135D01*
%TO.C,JP2*%
X160210500Y-90408135D02*
X160210500Y-92186135D01*
X157924500Y-90408135D02*
X160210500Y-90408135D01*
X157924500Y-92186135D02*
X157924500Y-90408135D01*
X160210500Y-92186135D02*
X157924500Y-92186135D01*
%TO.C,JP7*%
X163766500Y-95615135D02*
X161988500Y-95615135D01*
X163766500Y-93329135D02*
X163766500Y-95615135D01*
X161988500Y-93329135D02*
X163766500Y-93329135D01*
X161988500Y-95615135D02*
X161988500Y-93329135D01*
%TO.C,JP8*%
X159448500Y-95615135D02*
X159448500Y-93329135D01*
X159448500Y-93329135D02*
X161226500Y-93329135D01*
X161226500Y-93329135D02*
X161226500Y-95615135D01*
X161226500Y-95615135D02*
X159448500Y-95615135D01*
%TO.C,JP9*%
X158686500Y-95615135D02*
X156908500Y-95615135D01*
X158686500Y-93329135D02*
X158686500Y-95615135D01*
X156908500Y-93329135D02*
X158686500Y-93329135D01*
X156908500Y-95615135D02*
X156908500Y-93329135D01*
%TO.C,JP10*%
X154368500Y-95615135D02*
X154368500Y-93329135D01*
X154368500Y-93329135D02*
X156146500Y-93329135D01*
X156146500Y-93329135D02*
X156146500Y-95615135D01*
X156146500Y-95615135D02*
X154368500Y-95615135D01*
%TO.C,RSW1*%
X162246500Y-110740260D02*
X162246500Y-110990260D01*
X156246500Y-110740260D02*
X162246500Y-110740260D01*
X156246500Y-110740260D02*
X156246500Y-110990260D01*
X156246500Y-114240260D02*
X156246500Y-113990260D01*
X162246500Y-114240260D02*
X162246500Y-113990260D01*
X156246500Y-114240260D02*
X162246500Y-114240260D01*
D11*
%TO.C,SW1*%
X39653125Y-56821875D02*
X39653125Y-57521875D01*
X39653125Y-54321875D02*
X41053125Y-54321875D01*
D12*
X49753125Y-59421875D02*
X47053125Y-59421875D01*
D10*
X39453125Y-54471875D02*
X39453125Y-54121875D01*
X39453125Y-54121875D02*
X47853125Y-54121874D01*
X44453125Y-57721875D02*
X39453125Y-57721875D01*
X49953125Y-59621875D02*
X46673125Y-59621875D01*
X49953125Y-56021875D02*
X49953125Y-57021875D01*
X49953125Y-59621875D02*
X49953125Y-59261875D01*
X49753125Y-59261875D02*
X49953125Y-59261875D01*
X49723125Y-57021875D02*
X49723125Y-59261875D01*
X49953125Y-57021875D02*
X49753125Y-57021875D01*
X39653125Y-54471875D02*
X39453125Y-54471875D01*
X39673125Y-56721875D02*
X39673125Y-54471875D01*
X39453125Y-56721875D02*
X39653125Y-56721875D01*
X39453125Y-57721875D02*
X39453125Y-56721875D01*
D13*
X41453125Y-55921875D02*
X48153125Y-55921875D01*
D14*
X40153125Y-54721875D02*
X40153125Y-57221875D01*
D12*
X39753125Y-57421875D02*
X41153125Y-57421875D01*
D15*
X48223125Y-55621875D02*
X48223125Y-57861875D01*
D16*
X49353125Y-59121875D02*
X49353125Y-57321875D01*
D17*
X49853124Y-56921875D02*
X49853125Y-56021876D01*
D10*
X46669443Y-59600404D02*
G75*
G03*
X44453125Y-57721875I-2151318J-291471D01*
G01*
X49953126Y-56021875D02*
G75*
G03*
X47853125Y-54121874I-2000001J-100000D01*
G01*
D14*
X47069443Y-59200404D02*
G75*
G03*
X44853125Y-57321875I-2151318J-291471D01*
G01*
D17*
%TO.C,SW2*%
X68903124Y-56921875D02*
X68903125Y-56021876D01*
D16*
X68403125Y-59121875D02*
X68403125Y-57321875D01*
D15*
X67273125Y-55621875D02*
X67273125Y-57861875D01*
D12*
X58803125Y-57421875D02*
X60203125Y-57421875D01*
D14*
X59203125Y-54721875D02*
X59203125Y-57221875D01*
D13*
X60503125Y-55921875D02*
X67203125Y-55921875D01*
D10*
X58503125Y-57721875D02*
X58503125Y-56721875D01*
X58503125Y-56721875D02*
X58703125Y-56721875D01*
X58723125Y-56721875D02*
X58723125Y-54471875D01*
X58703125Y-54471875D02*
X58503125Y-54471875D01*
X69003125Y-57021875D02*
X68803125Y-57021875D01*
X68773125Y-57021875D02*
X68773125Y-59261875D01*
X68803125Y-59261875D02*
X69003125Y-59261875D01*
X69003125Y-59621875D02*
X69003125Y-59261875D01*
X69003125Y-56021875D02*
X69003125Y-57021875D01*
X69003125Y-59621875D02*
X65723125Y-59621875D01*
X63503125Y-57721875D02*
X58503125Y-57721875D01*
X58503125Y-54121875D02*
X66903125Y-54121874D01*
X58503125Y-54471875D02*
X58503125Y-54121875D01*
D12*
X68803125Y-59421875D02*
X66103125Y-59421875D01*
D11*
X58703125Y-54321875D02*
X60103125Y-54321875D01*
X58703125Y-56821875D02*
X58703125Y-57521875D01*
D14*
X66119443Y-59200404D02*
G75*
G03*
X63903125Y-57321875I-2151318J-291471D01*
G01*
D10*
X69003126Y-56021875D02*
G75*
G03*
X66903125Y-54121874I-2000001J-100000D01*
G01*
X65719443Y-59600404D02*
G75*
G03*
X63503125Y-57721875I-2151318J-291471D01*
G01*
D17*
%TO.C,SW3*%
X87953124Y-52159375D02*
X87953125Y-51259376D01*
D16*
X87453125Y-54359375D02*
X87453125Y-52559375D01*
D15*
X86323125Y-50859375D02*
X86323125Y-53099375D01*
D12*
X77853125Y-52659375D02*
X79253125Y-52659375D01*
D14*
X78253125Y-49959375D02*
X78253125Y-52459375D01*
D13*
X79553125Y-51159375D02*
X86253125Y-51159375D01*
D10*
X77553125Y-52959375D02*
X77553125Y-51959375D01*
X77553125Y-51959375D02*
X77753125Y-51959375D01*
X77773125Y-51959375D02*
X77773125Y-49709375D01*
X77753125Y-49709375D02*
X77553125Y-49709375D01*
X88053125Y-52259375D02*
X87853125Y-52259375D01*
X87823125Y-52259375D02*
X87823125Y-54499375D01*
X87853125Y-54499375D02*
X88053125Y-54499375D01*
X88053125Y-54859375D02*
X88053125Y-54499375D01*
X88053125Y-51259375D02*
X88053125Y-52259375D01*
X88053125Y-54859375D02*
X84773125Y-54859375D01*
X82553125Y-52959375D02*
X77553125Y-52959375D01*
X77553125Y-49359375D02*
X85953125Y-49359374D01*
X77553125Y-49709375D02*
X77553125Y-49359375D01*
D12*
X87853125Y-54659375D02*
X85153125Y-54659375D01*
D11*
X77753125Y-49559375D02*
X79153125Y-49559375D01*
X77753125Y-52059375D02*
X77753125Y-52759375D01*
D14*
X85169443Y-54437904D02*
G75*
G03*
X82953125Y-52559375I-2151318J-291471D01*
G01*
D10*
X88053126Y-51259375D02*
G75*
G03*
X85953125Y-49359374I-2000001J-100000D01*
G01*
X84769443Y-54837904D02*
G75*
G03*
X82553125Y-52959375I-2151318J-291471D01*
G01*
D17*
%TO.C,SW5*%
X126053124Y-54540625D02*
X126053125Y-53640626D01*
D16*
X125553125Y-56740625D02*
X125553125Y-54940625D01*
D15*
X124423125Y-53240625D02*
X124423125Y-55480625D01*
D12*
X115953125Y-55040625D02*
X117353125Y-55040625D01*
D14*
X116353125Y-52340625D02*
X116353125Y-54840625D01*
D13*
X117653125Y-53540625D02*
X124353125Y-53540625D01*
D10*
X115653125Y-55340625D02*
X115653125Y-54340625D01*
X115653125Y-54340625D02*
X115853125Y-54340625D01*
X115873125Y-54340625D02*
X115873125Y-52090625D01*
X115853125Y-52090625D02*
X115653125Y-52090625D01*
X126153125Y-54640625D02*
X125953125Y-54640625D01*
X125923125Y-54640625D02*
X125923125Y-56880625D01*
X125953125Y-56880625D02*
X126153125Y-56880625D01*
X126153125Y-57240625D02*
X126153125Y-56880625D01*
X126153125Y-53640625D02*
X126153125Y-54640625D01*
X126153125Y-57240625D02*
X122873125Y-57240625D01*
X120653125Y-55340625D02*
X115653125Y-55340625D01*
X115653125Y-51740625D02*
X124053125Y-51740624D01*
X115653125Y-52090625D02*
X115653125Y-51740625D01*
D12*
X125953125Y-57040625D02*
X123253125Y-57040625D01*
D11*
X115853125Y-51940625D02*
X117253125Y-51940625D01*
X115853125Y-54440625D02*
X115853125Y-55140625D01*
D14*
X123269443Y-56819154D02*
G75*
G03*
X121053125Y-54940625I-2151318J-291471D01*
G01*
D10*
X126153126Y-53640625D02*
G75*
G03*
X124053125Y-51740624I-2000001J-100000D01*
G01*
X122869443Y-57219154D02*
G75*
G03*
X120653125Y-55340625I-2151318J-291471D01*
G01*
D17*
%TO.C,SW6*%
X145103124Y-56921875D02*
X145103125Y-56021876D01*
D16*
X144603125Y-59121875D02*
X144603125Y-57321875D01*
D15*
X143473125Y-55621875D02*
X143473125Y-57861875D01*
D12*
X135003125Y-57421875D02*
X136403125Y-57421875D01*
D14*
X135403125Y-54721875D02*
X135403125Y-57221875D01*
D13*
X136703125Y-55921875D02*
X143403125Y-55921875D01*
D10*
X134703125Y-57721875D02*
X134703125Y-56721875D01*
X134703125Y-56721875D02*
X134903125Y-56721875D01*
X134923125Y-56721875D02*
X134923125Y-54471875D01*
X134903125Y-54471875D02*
X134703125Y-54471875D01*
X145203125Y-57021875D02*
X145003125Y-57021875D01*
X144973125Y-57021875D02*
X144973125Y-59261875D01*
X145003125Y-59261875D02*
X145203125Y-59261875D01*
X145203125Y-59621875D02*
X145203125Y-59261875D01*
X145203125Y-56021875D02*
X145203125Y-57021875D01*
X145203125Y-59621875D02*
X141923125Y-59621875D01*
X139703125Y-57721875D02*
X134703125Y-57721875D01*
X134703125Y-54121875D02*
X143103125Y-54121874D01*
X134703125Y-54471875D02*
X134703125Y-54121875D01*
D12*
X145003125Y-59421875D02*
X142303125Y-59421875D01*
D11*
X134903125Y-54321875D02*
X136303125Y-54321875D01*
X134903125Y-56821875D02*
X134903125Y-57521875D01*
D14*
X142319443Y-59200404D02*
G75*
G03*
X140103125Y-57321875I-2151318J-291471D01*
G01*
D10*
X145203126Y-56021875D02*
G75*
G03*
X143103125Y-54121874I-2000001J-100000D01*
G01*
X141919443Y-59600404D02*
G75*
G03*
X139703125Y-57721875I-2151318J-291471D01*
G01*
D17*
%TO.C,SW7*%
X49853124Y-75971875D02*
X49853125Y-75071876D01*
D16*
X49353125Y-78171875D02*
X49353125Y-76371875D01*
D15*
X48223125Y-74671875D02*
X48223125Y-76911875D01*
D12*
X39753125Y-76471875D02*
X41153125Y-76471875D01*
D14*
X40153125Y-73771875D02*
X40153125Y-76271875D01*
D13*
X41453125Y-74971875D02*
X48153125Y-74971875D01*
D10*
X39453125Y-76771875D02*
X39453125Y-75771875D01*
X39453125Y-75771875D02*
X39653125Y-75771875D01*
X39673125Y-75771875D02*
X39673125Y-73521875D01*
X39653125Y-73521875D02*
X39453125Y-73521875D01*
X49953125Y-76071875D02*
X49753125Y-76071875D01*
X49723125Y-76071875D02*
X49723125Y-78311875D01*
X49753125Y-78311875D02*
X49953125Y-78311875D01*
X49953125Y-78671875D02*
X49953125Y-78311875D01*
X49953125Y-75071875D02*
X49953125Y-76071875D01*
X49953125Y-78671875D02*
X46673125Y-78671875D01*
X44453125Y-76771875D02*
X39453125Y-76771875D01*
X39453125Y-73171875D02*
X47853125Y-73171874D01*
X39453125Y-73521875D02*
X39453125Y-73171875D01*
D12*
X49753125Y-78471875D02*
X47053125Y-78471875D01*
D11*
X39653125Y-73371875D02*
X41053125Y-73371875D01*
X39653125Y-75871875D02*
X39653125Y-76571875D01*
D14*
X47069443Y-78250404D02*
G75*
G03*
X44853125Y-76371875I-2151318J-291471D01*
G01*
D10*
X49953126Y-75071875D02*
G75*
G03*
X47853125Y-73171874I-2000001J-100000D01*
G01*
X46669443Y-78650404D02*
G75*
G03*
X44453125Y-76771875I-2151318J-291471D01*
G01*
D17*
%TO.C,SW8*%
X68903124Y-75971875D02*
X68903125Y-75071876D01*
D16*
X68403125Y-78171875D02*
X68403125Y-76371875D01*
D15*
X67273125Y-74671875D02*
X67273125Y-76911875D01*
D12*
X58803125Y-76471875D02*
X60203125Y-76471875D01*
D14*
X59203125Y-73771875D02*
X59203125Y-76271875D01*
D13*
X60503125Y-74971875D02*
X67203125Y-74971875D01*
D10*
X58503125Y-76771875D02*
X58503125Y-75771875D01*
X58503125Y-75771875D02*
X58703125Y-75771875D01*
X58723125Y-75771875D02*
X58723125Y-73521875D01*
X58703125Y-73521875D02*
X58503125Y-73521875D01*
X69003125Y-76071875D02*
X68803125Y-76071875D01*
X68773125Y-76071875D02*
X68773125Y-78311875D01*
X68803125Y-78311875D02*
X69003125Y-78311875D01*
X69003125Y-78671875D02*
X69003125Y-78311875D01*
X69003125Y-75071875D02*
X69003125Y-76071875D01*
X69003125Y-78671875D02*
X65723125Y-78671875D01*
X63503125Y-76771875D02*
X58503125Y-76771875D01*
X58503125Y-73171875D02*
X66903125Y-73171874D01*
X58503125Y-73521875D02*
X58503125Y-73171875D01*
D12*
X68803125Y-78471875D02*
X66103125Y-78471875D01*
D11*
X58703125Y-73371875D02*
X60103125Y-73371875D01*
X58703125Y-75871875D02*
X58703125Y-76571875D01*
D14*
X66119443Y-78250404D02*
G75*
G03*
X63903125Y-76371875I-2151318J-291471D01*
G01*
D10*
X69003126Y-75071875D02*
G75*
G03*
X66903125Y-73171874I-2000001J-100000D01*
G01*
X65719443Y-78650404D02*
G75*
G03*
X63503125Y-76771875I-2151318J-291471D01*
G01*
D11*
%TO.C,SW9*%
X77753125Y-71109375D02*
X77753125Y-71809375D01*
X77753125Y-68609375D02*
X79153125Y-68609375D01*
D12*
X87853125Y-73709375D02*
X85153125Y-73709375D01*
D10*
X77553125Y-68759375D02*
X77553125Y-68409375D01*
X77553125Y-68409375D02*
X85953125Y-68409374D01*
X82553125Y-72009375D02*
X77553125Y-72009375D01*
X88053125Y-73909375D02*
X84773125Y-73909375D01*
X88053125Y-70309375D02*
X88053125Y-71309375D01*
X88053125Y-73909375D02*
X88053125Y-73549375D01*
X87853125Y-73549375D02*
X88053125Y-73549375D01*
X87823125Y-71309375D02*
X87823125Y-73549375D01*
X88053125Y-71309375D02*
X87853125Y-71309375D01*
X77753125Y-68759375D02*
X77553125Y-68759375D01*
X77773125Y-71009375D02*
X77773125Y-68759375D01*
X77553125Y-71009375D02*
X77753125Y-71009375D01*
X77553125Y-72009375D02*
X77553125Y-71009375D01*
D13*
X79553125Y-70209375D02*
X86253125Y-70209375D01*
D14*
X78253125Y-69009375D02*
X78253125Y-71509375D01*
D12*
X77853125Y-71709375D02*
X79253125Y-71709375D01*
D15*
X86323125Y-69909375D02*
X86323125Y-72149375D01*
D16*
X87453125Y-73409375D02*
X87453125Y-71609375D01*
D17*
X87953124Y-71209375D02*
X87953125Y-70309376D01*
D10*
X84769443Y-73887904D02*
G75*
G03*
X82553125Y-72009375I-2151318J-291471D01*
G01*
X88053126Y-70309375D02*
G75*
G03*
X85953125Y-68409374I-2000001J-100000D01*
G01*
D14*
X85169443Y-73487904D02*
G75*
G03*
X82953125Y-71609375I-2151318J-291471D01*
G01*
D17*
%TO.C,SW10*%
X107003124Y-68828125D02*
X107003125Y-67928126D01*
D16*
X106503125Y-71028125D02*
X106503125Y-69228125D01*
D15*
X105373125Y-67528125D02*
X105373125Y-69768125D01*
D12*
X96903125Y-69328125D02*
X98303125Y-69328125D01*
D14*
X97303125Y-66628125D02*
X97303125Y-69128125D01*
D13*
X98603125Y-67828125D02*
X105303125Y-67828125D01*
D10*
X96603125Y-69628125D02*
X96603125Y-68628125D01*
X96603125Y-68628125D02*
X96803125Y-68628125D01*
X96823125Y-68628125D02*
X96823125Y-66378125D01*
X96803125Y-66378125D02*
X96603125Y-66378125D01*
X107103125Y-68928125D02*
X106903125Y-68928125D01*
X106873125Y-68928125D02*
X106873125Y-71168125D01*
X106903125Y-71168125D02*
X107103125Y-71168125D01*
X107103125Y-71528125D02*
X107103125Y-71168125D01*
X107103125Y-67928125D02*
X107103125Y-68928125D01*
X107103125Y-71528125D02*
X103823125Y-71528125D01*
X101603125Y-69628125D02*
X96603125Y-69628125D01*
X96603125Y-66028125D02*
X105003125Y-66028124D01*
X96603125Y-66378125D02*
X96603125Y-66028125D01*
D12*
X106903125Y-71328125D02*
X104203125Y-71328125D01*
D11*
X96803125Y-66228125D02*
X98203125Y-66228125D01*
X96803125Y-68728125D02*
X96803125Y-69428125D01*
D14*
X104219443Y-71106654D02*
G75*
G03*
X102003125Y-69228125I-2151318J-291471D01*
G01*
D10*
X107103126Y-67928125D02*
G75*
G03*
X105003125Y-66028124I-2000001J-100000D01*
G01*
X103819443Y-71506654D02*
G75*
G03*
X101603125Y-69628125I-2151318J-291471D01*
G01*
D17*
%TO.C,SW11*%
X126053124Y-73590625D02*
X126053125Y-72690626D01*
D16*
X125553125Y-75790625D02*
X125553125Y-73990625D01*
D15*
X124423125Y-72290625D02*
X124423125Y-74530625D01*
D12*
X115953125Y-74090625D02*
X117353125Y-74090625D01*
D14*
X116353125Y-71390625D02*
X116353125Y-73890625D01*
D13*
X117653125Y-72590625D02*
X124353125Y-72590625D01*
D10*
X115653125Y-74390625D02*
X115653125Y-73390625D01*
X115653125Y-73390625D02*
X115853125Y-73390625D01*
X115873125Y-73390625D02*
X115873125Y-71140625D01*
X115853125Y-71140625D02*
X115653125Y-71140625D01*
X126153125Y-73690625D02*
X125953125Y-73690625D01*
X125923125Y-73690625D02*
X125923125Y-75930625D01*
X125953125Y-75930625D02*
X126153125Y-75930625D01*
X126153125Y-76290625D02*
X126153125Y-75930625D01*
X126153125Y-72690625D02*
X126153125Y-73690625D01*
X126153125Y-76290625D02*
X122873125Y-76290625D01*
X120653125Y-74390625D02*
X115653125Y-74390625D01*
X115653125Y-70790625D02*
X124053125Y-70790624D01*
X115653125Y-71140625D02*
X115653125Y-70790625D01*
D12*
X125953125Y-76090625D02*
X123253125Y-76090625D01*
D11*
X115853125Y-70990625D02*
X117253125Y-70990625D01*
X115853125Y-73490625D02*
X115853125Y-74190625D01*
D14*
X123269443Y-75869154D02*
G75*
G03*
X121053125Y-73990625I-2151318J-291471D01*
G01*
D10*
X126153126Y-72690625D02*
G75*
G03*
X124053125Y-70790624I-2000001J-100000D01*
G01*
X122869443Y-76269154D02*
G75*
G03*
X120653125Y-74390625I-2151318J-291471D01*
G01*
D17*
%TO.C,SW12*%
X145103124Y-75971875D02*
X145103125Y-75071876D01*
D16*
X144603125Y-78171875D02*
X144603125Y-76371875D01*
D15*
X143473125Y-74671875D02*
X143473125Y-76911875D01*
D12*
X135003125Y-76471875D02*
X136403125Y-76471875D01*
D14*
X135403125Y-73771875D02*
X135403125Y-76271875D01*
D13*
X136703125Y-74971875D02*
X143403125Y-74971875D01*
D10*
X134703125Y-76771875D02*
X134703125Y-75771875D01*
X134703125Y-75771875D02*
X134903125Y-75771875D01*
X134923125Y-75771875D02*
X134923125Y-73521875D01*
X134903125Y-73521875D02*
X134703125Y-73521875D01*
X145203125Y-76071875D02*
X145003125Y-76071875D01*
X144973125Y-76071875D02*
X144973125Y-78311875D01*
X145003125Y-78311875D02*
X145203125Y-78311875D01*
X145203125Y-78671875D02*
X145203125Y-78311875D01*
X145203125Y-75071875D02*
X145203125Y-76071875D01*
X145203125Y-78671875D02*
X141923125Y-78671875D01*
X139703125Y-76771875D02*
X134703125Y-76771875D01*
X134703125Y-73171875D02*
X143103125Y-73171874D01*
X134703125Y-73521875D02*
X134703125Y-73171875D01*
D12*
X145003125Y-78471875D02*
X142303125Y-78471875D01*
D11*
X134903125Y-73371875D02*
X136303125Y-73371875D01*
X134903125Y-75871875D02*
X134903125Y-76571875D01*
D14*
X142319443Y-78250404D02*
G75*
G03*
X140103125Y-76371875I-2151318J-291471D01*
G01*
D10*
X145203126Y-75071875D02*
G75*
G03*
X143103125Y-73171874I-2000001J-100000D01*
G01*
X141919443Y-78650404D02*
G75*
G03*
X139703125Y-76771875I-2151318J-291471D01*
G01*
D11*
%TO.C,SW13*%
X39653125Y-94921875D02*
X39653125Y-95621875D01*
X39653125Y-92421875D02*
X41053125Y-92421875D01*
D12*
X49753125Y-97521875D02*
X47053125Y-97521875D01*
D10*
X39453125Y-92571875D02*
X39453125Y-92221875D01*
X39453125Y-92221875D02*
X47853125Y-92221874D01*
X44453125Y-95821875D02*
X39453125Y-95821875D01*
X49953125Y-97721875D02*
X46673125Y-97721875D01*
X49953125Y-94121875D02*
X49953125Y-95121875D01*
X49953125Y-97721875D02*
X49953125Y-97361875D01*
X49753125Y-97361875D02*
X49953125Y-97361875D01*
X49723125Y-95121875D02*
X49723125Y-97361875D01*
X49953125Y-95121875D02*
X49753125Y-95121875D01*
X39653125Y-92571875D02*
X39453125Y-92571875D01*
X39673125Y-94821875D02*
X39673125Y-92571875D01*
X39453125Y-94821875D02*
X39653125Y-94821875D01*
X39453125Y-95821875D02*
X39453125Y-94821875D01*
D13*
X41453125Y-94021875D02*
X48153125Y-94021875D01*
D14*
X40153125Y-92821875D02*
X40153125Y-95321875D01*
D12*
X39753125Y-95521875D02*
X41153125Y-95521875D01*
D15*
X48223125Y-93721875D02*
X48223125Y-95961875D01*
D16*
X49353125Y-97221875D02*
X49353125Y-95421875D01*
D17*
X49853124Y-95021875D02*
X49853125Y-94121876D01*
D10*
X46669443Y-97700404D02*
G75*
G03*
X44453125Y-95821875I-2151318J-291471D01*
G01*
X49953126Y-94121875D02*
G75*
G03*
X47853125Y-92221874I-2000001J-100000D01*
G01*
D14*
X47069443Y-97300404D02*
G75*
G03*
X44853125Y-95421875I-2151318J-291471D01*
G01*
D11*
%TO.C,SW14*%
X58703125Y-94921875D02*
X58703125Y-95621875D01*
X58703125Y-92421875D02*
X60103125Y-92421875D01*
D12*
X68803125Y-97521875D02*
X66103125Y-97521875D01*
D10*
X58503125Y-92571875D02*
X58503125Y-92221875D01*
X58503125Y-92221875D02*
X66903125Y-92221874D01*
X63503125Y-95821875D02*
X58503125Y-95821875D01*
X69003125Y-97721875D02*
X65723125Y-97721875D01*
X69003125Y-94121875D02*
X69003125Y-95121875D01*
X69003125Y-97721875D02*
X69003125Y-97361875D01*
X68803125Y-97361875D02*
X69003125Y-97361875D01*
X68773125Y-95121875D02*
X68773125Y-97361875D01*
X69003125Y-95121875D02*
X68803125Y-95121875D01*
X58703125Y-92571875D02*
X58503125Y-92571875D01*
X58723125Y-94821875D02*
X58723125Y-92571875D01*
X58503125Y-94821875D02*
X58703125Y-94821875D01*
X58503125Y-95821875D02*
X58503125Y-94821875D01*
D13*
X60503125Y-94021875D02*
X67203125Y-94021875D01*
D14*
X59203125Y-92821875D02*
X59203125Y-95321875D01*
D12*
X58803125Y-95521875D02*
X60203125Y-95521875D01*
D15*
X67273125Y-93721875D02*
X67273125Y-95961875D01*
D16*
X68403125Y-97221875D02*
X68403125Y-95421875D01*
D17*
X68903124Y-95021875D02*
X68903125Y-94121876D01*
D10*
X65719443Y-97700404D02*
G75*
G03*
X63503125Y-95821875I-2151318J-291471D01*
G01*
X69003126Y-94121875D02*
G75*
G03*
X66903125Y-92221874I-2000001J-100000D01*
G01*
D14*
X66119443Y-97300404D02*
G75*
G03*
X63903125Y-95421875I-2151318J-291471D01*
G01*
D17*
%TO.C,SW15*%
X87953124Y-90259375D02*
X87953125Y-89359376D01*
D16*
X87453125Y-92459375D02*
X87453125Y-90659375D01*
D15*
X86323125Y-88959375D02*
X86323125Y-91199375D01*
D12*
X77853125Y-90759375D02*
X79253125Y-90759375D01*
D14*
X78253125Y-88059375D02*
X78253125Y-90559375D01*
D13*
X79553125Y-89259375D02*
X86253125Y-89259375D01*
D10*
X77553125Y-91059375D02*
X77553125Y-90059375D01*
X77553125Y-90059375D02*
X77753125Y-90059375D01*
X77773125Y-90059375D02*
X77773125Y-87809375D01*
X77753125Y-87809375D02*
X77553125Y-87809375D01*
X88053125Y-90359375D02*
X87853125Y-90359375D01*
X87823125Y-90359375D02*
X87823125Y-92599375D01*
X87853125Y-92599375D02*
X88053125Y-92599375D01*
X88053125Y-92959375D02*
X88053125Y-92599375D01*
X88053125Y-89359375D02*
X88053125Y-90359375D01*
X88053125Y-92959375D02*
X84773125Y-92959375D01*
X82553125Y-91059375D02*
X77553125Y-91059375D01*
X77553125Y-87459375D02*
X85953125Y-87459374D01*
X77553125Y-87809375D02*
X77553125Y-87459375D01*
D12*
X87853125Y-92759375D02*
X85153125Y-92759375D01*
D11*
X77753125Y-87659375D02*
X79153125Y-87659375D01*
X77753125Y-90159375D02*
X77753125Y-90859375D01*
D14*
X85169443Y-92537904D02*
G75*
G03*
X82953125Y-90659375I-2151318J-291471D01*
G01*
D10*
X88053126Y-89359375D02*
G75*
G03*
X85953125Y-87459374I-2000001J-100000D01*
G01*
X84769443Y-92937904D02*
G75*
G03*
X82553125Y-91059375I-2151318J-291471D01*
G01*
D11*
%TO.C,SW16*%
X96803125Y-87778125D02*
X96803125Y-88478125D01*
X96803125Y-85278125D02*
X98203125Y-85278125D01*
D12*
X106903125Y-90378125D02*
X104203125Y-90378125D01*
D10*
X96603125Y-85428125D02*
X96603125Y-85078125D01*
X96603125Y-85078125D02*
X105003125Y-85078124D01*
X101603125Y-88678125D02*
X96603125Y-88678125D01*
X107103125Y-90578125D02*
X103823125Y-90578125D01*
X107103125Y-86978125D02*
X107103125Y-87978125D01*
X107103125Y-90578125D02*
X107103125Y-90218125D01*
X106903125Y-90218125D02*
X107103125Y-90218125D01*
X106873125Y-87978125D02*
X106873125Y-90218125D01*
X107103125Y-87978125D02*
X106903125Y-87978125D01*
X96803125Y-85428125D02*
X96603125Y-85428125D01*
X96823125Y-87678125D02*
X96823125Y-85428125D01*
X96603125Y-87678125D02*
X96803125Y-87678125D01*
X96603125Y-88678125D02*
X96603125Y-87678125D01*
D13*
X98603125Y-86878125D02*
X105303125Y-86878125D01*
D14*
X97303125Y-85678125D02*
X97303125Y-88178125D01*
D12*
X96903125Y-88378125D02*
X98303125Y-88378125D01*
D15*
X105373125Y-86578125D02*
X105373125Y-88818125D01*
D16*
X106503125Y-90078125D02*
X106503125Y-88278125D01*
D17*
X107003124Y-87878125D02*
X107003125Y-86978126D01*
D10*
X103819443Y-90556654D02*
G75*
G03*
X101603125Y-88678125I-2151318J-291471D01*
G01*
X107103126Y-86978125D02*
G75*
G03*
X105003125Y-85078124I-2000001J-100000D01*
G01*
D14*
X104219443Y-90156654D02*
G75*
G03*
X102003125Y-88278125I-2151318J-291471D01*
G01*
D11*
%TO.C,SW17*%
X115853125Y-92540625D02*
X115853125Y-93240625D01*
X115853125Y-90040625D02*
X117253125Y-90040625D01*
D12*
X125953125Y-95140625D02*
X123253125Y-95140625D01*
D10*
X115653125Y-90190625D02*
X115653125Y-89840625D01*
X115653125Y-89840625D02*
X124053125Y-89840624D01*
X120653125Y-93440625D02*
X115653125Y-93440625D01*
X126153125Y-95340625D02*
X122873125Y-95340625D01*
X126153125Y-91740625D02*
X126153125Y-92740625D01*
X126153125Y-95340625D02*
X126153125Y-94980625D01*
X125953125Y-94980625D02*
X126153125Y-94980625D01*
X125923125Y-92740625D02*
X125923125Y-94980625D01*
X126153125Y-92740625D02*
X125953125Y-92740625D01*
X115853125Y-90190625D02*
X115653125Y-90190625D01*
X115873125Y-92440625D02*
X115873125Y-90190625D01*
X115653125Y-92440625D02*
X115853125Y-92440625D01*
X115653125Y-93440625D02*
X115653125Y-92440625D01*
D13*
X117653125Y-91640625D02*
X124353125Y-91640625D01*
D14*
X116353125Y-90440625D02*
X116353125Y-92940625D01*
D12*
X115953125Y-93140625D02*
X117353125Y-93140625D01*
D15*
X124423125Y-91340625D02*
X124423125Y-93580625D01*
D16*
X125553125Y-94840625D02*
X125553125Y-93040625D01*
D17*
X126053124Y-92640625D02*
X126053125Y-91740626D01*
D10*
X122869443Y-95319154D02*
G75*
G03*
X120653125Y-93440625I-2151318J-291471D01*
G01*
X126153126Y-91740625D02*
G75*
G03*
X124053125Y-89840624I-2000001J-100000D01*
G01*
D14*
X123269443Y-94919154D02*
G75*
G03*
X121053125Y-93040625I-2151318J-291471D01*
G01*
D11*
%TO.C,SW18*%
X134903125Y-94921875D02*
X134903125Y-95621875D01*
X134903125Y-92421875D02*
X136303125Y-92421875D01*
D12*
X145003125Y-97521875D02*
X142303125Y-97521875D01*
D10*
X134703125Y-92571875D02*
X134703125Y-92221875D01*
X134703125Y-92221875D02*
X143103125Y-92221874D01*
X139703125Y-95821875D02*
X134703125Y-95821875D01*
X145203125Y-97721875D02*
X141923125Y-97721875D01*
X145203125Y-94121875D02*
X145203125Y-95121875D01*
X145203125Y-97721875D02*
X145203125Y-97361875D01*
X145003125Y-97361875D02*
X145203125Y-97361875D01*
X144973125Y-95121875D02*
X144973125Y-97361875D01*
X145203125Y-95121875D02*
X145003125Y-95121875D01*
X134903125Y-92571875D02*
X134703125Y-92571875D01*
X134923125Y-94821875D02*
X134923125Y-92571875D01*
X134703125Y-94821875D02*
X134903125Y-94821875D01*
X134703125Y-95821875D02*
X134703125Y-94821875D01*
D13*
X136703125Y-94021875D02*
X143403125Y-94021875D01*
D14*
X135403125Y-92821875D02*
X135403125Y-95321875D01*
D12*
X135003125Y-95521875D02*
X136403125Y-95521875D01*
D15*
X143473125Y-93721875D02*
X143473125Y-95961875D01*
D16*
X144603125Y-97221875D02*
X144603125Y-95421875D01*
D17*
X145103124Y-95021875D02*
X145103125Y-94121876D01*
D10*
X141919443Y-97700404D02*
G75*
G03*
X139703125Y-95821875I-2151318J-291471D01*
G01*
X145203126Y-94121875D02*
G75*
G03*
X143103125Y-92221874I-2000001J-100000D01*
G01*
D14*
X142319443Y-97300404D02*
G75*
G03*
X140103125Y-95421875I-2151318J-291471D01*
G01*
D11*
%TO.C,SW19*%
X39653125Y-113971875D02*
X39653125Y-114671875D01*
X39653125Y-111471875D02*
X41053125Y-111471875D01*
D12*
X49753125Y-116571875D02*
X47053125Y-116571875D01*
D10*
X39453125Y-111621875D02*
X39453125Y-111271875D01*
X39453125Y-111271875D02*
X47853125Y-111271874D01*
X44453125Y-114871875D02*
X39453125Y-114871875D01*
X49953125Y-116771875D02*
X46673125Y-116771875D01*
X49953125Y-113171875D02*
X49953125Y-114171875D01*
X49953125Y-116771875D02*
X49953125Y-116411875D01*
X49753125Y-116411875D02*
X49953125Y-116411875D01*
X49723125Y-114171875D02*
X49723125Y-116411875D01*
X49953125Y-114171875D02*
X49753125Y-114171875D01*
X39653125Y-111621875D02*
X39453125Y-111621875D01*
X39673125Y-113871875D02*
X39673125Y-111621875D01*
X39453125Y-113871875D02*
X39653125Y-113871875D01*
X39453125Y-114871875D02*
X39453125Y-113871875D01*
D13*
X41453125Y-113071875D02*
X48153125Y-113071875D01*
D14*
X40153125Y-111871875D02*
X40153125Y-114371875D01*
D12*
X39753125Y-114571875D02*
X41153125Y-114571875D01*
D15*
X48223125Y-112771875D02*
X48223125Y-115011875D01*
D16*
X49353125Y-116271875D02*
X49353125Y-114471875D01*
D17*
X49853124Y-114071875D02*
X49853125Y-113171876D01*
D10*
X46669443Y-116750404D02*
G75*
G03*
X44453125Y-114871875I-2151318J-291471D01*
G01*
X49953126Y-113171875D02*
G75*
G03*
X47853125Y-111271874I-2000001J-100000D01*
G01*
D14*
X47069443Y-116350404D02*
G75*
G03*
X44853125Y-114471875I-2151318J-291471D01*
G01*
D11*
%TO.C,SW20*%
X58703125Y-113971875D02*
X58703125Y-114671875D01*
X58703125Y-111471875D02*
X60103125Y-111471875D01*
D12*
X68803125Y-116571875D02*
X66103125Y-116571875D01*
D10*
X58503125Y-111621875D02*
X58503125Y-111271875D01*
X58503125Y-111271875D02*
X66903125Y-111271874D01*
X63503125Y-114871875D02*
X58503125Y-114871875D01*
X69003125Y-116771875D02*
X65723125Y-116771875D01*
X69003125Y-113171875D02*
X69003125Y-114171875D01*
X69003125Y-116771875D02*
X69003125Y-116411875D01*
X68803125Y-116411875D02*
X69003125Y-116411875D01*
X68773125Y-114171875D02*
X68773125Y-116411875D01*
X69003125Y-114171875D02*
X68803125Y-114171875D01*
X58703125Y-111621875D02*
X58503125Y-111621875D01*
X58723125Y-113871875D02*
X58723125Y-111621875D01*
X58503125Y-113871875D02*
X58703125Y-113871875D01*
X58503125Y-114871875D02*
X58503125Y-113871875D01*
D13*
X60503125Y-113071875D02*
X67203125Y-113071875D01*
D14*
X59203125Y-111871875D02*
X59203125Y-114371875D01*
D12*
X58803125Y-114571875D02*
X60203125Y-114571875D01*
D15*
X67273125Y-112771875D02*
X67273125Y-115011875D01*
D16*
X68403125Y-116271875D02*
X68403125Y-114471875D01*
D17*
X68903124Y-114071875D02*
X68903125Y-113171876D01*
D10*
X65719443Y-116750404D02*
G75*
G03*
X63503125Y-114871875I-2151318J-291471D01*
G01*
X69003126Y-113171875D02*
G75*
G03*
X66903125Y-111271874I-2000001J-100000D01*
G01*
D14*
X66119443Y-116350404D02*
G75*
G03*
X63903125Y-114471875I-2151318J-291471D01*
G01*
D11*
%TO.C,SW21*%
X77753125Y-109209375D02*
X77753125Y-109909375D01*
X77753125Y-106709375D02*
X79153125Y-106709375D01*
D12*
X87853125Y-111809375D02*
X85153125Y-111809375D01*
D10*
X77553125Y-106859375D02*
X77553125Y-106509375D01*
X77553125Y-106509375D02*
X85953125Y-106509374D01*
X82553125Y-110109375D02*
X77553125Y-110109375D01*
X88053125Y-112009375D02*
X84773125Y-112009375D01*
X88053125Y-108409375D02*
X88053125Y-109409375D01*
X88053125Y-112009375D02*
X88053125Y-111649375D01*
X87853125Y-111649375D02*
X88053125Y-111649375D01*
X87823125Y-109409375D02*
X87823125Y-111649375D01*
X88053125Y-109409375D02*
X87853125Y-109409375D01*
X77753125Y-106859375D02*
X77553125Y-106859375D01*
X77773125Y-109109375D02*
X77773125Y-106859375D01*
X77553125Y-109109375D02*
X77753125Y-109109375D01*
X77553125Y-110109375D02*
X77553125Y-109109375D01*
D13*
X79553125Y-108309375D02*
X86253125Y-108309375D01*
D14*
X78253125Y-107109375D02*
X78253125Y-109609375D01*
D12*
X77853125Y-109809375D02*
X79253125Y-109809375D01*
D15*
X86323125Y-108009375D02*
X86323125Y-110249375D01*
D16*
X87453125Y-111509375D02*
X87453125Y-109709375D01*
D17*
X87953124Y-109309375D02*
X87953125Y-108409376D01*
D10*
X84769443Y-111987904D02*
G75*
G03*
X82553125Y-110109375I-2151318J-291471D01*
G01*
X88053126Y-108409375D02*
G75*
G03*
X85953125Y-106509374I-2000001J-100000D01*
G01*
D14*
X85169443Y-111587904D02*
G75*
G03*
X82953125Y-109709375I-2151318J-291471D01*
G01*
D17*
%TO.C,SW22*%
X107003124Y-106928125D02*
X107003125Y-106028126D01*
D16*
X106503125Y-109128125D02*
X106503125Y-107328125D01*
D15*
X105373125Y-105628125D02*
X105373125Y-107868125D01*
D12*
X96903125Y-107428125D02*
X98303125Y-107428125D01*
D14*
X97303125Y-104728125D02*
X97303125Y-107228125D01*
D13*
X98603125Y-105928125D02*
X105303125Y-105928125D01*
D10*
X96603125Y-107728125D02*
X96603125Y-106728125D01*
X96603125Y-106728125D02*
X96803125Y-106728125D01*
X96823125Y-106728125D02*
X96823125Y-104478125D01*
X96803125Y-104478125D02*
X96603125Y-104478125D01*
X107103125Y-107028125D02*
X106903125Y-107028125D01*
X106873125Y-107028125D02*
X106873125Y-109268125D01*
X106903125Y-109268125D02*
X107103125Y-109268125D01*
X107103125Y-109628125D02*
X107103125Y-109268125D01*
X107103125Y-106028125D02*
X107103125Y-107028125D01*
X107103125Y-109628125D02*
X103823125Y-109628125D01*
X101603125Y-107728125D02*
X96603125Y-107728125D01*
X96603125Y-104128125D02*
X105003125Y-104128124D01*
X96603125Y-104478125D02*
X96603125Y-104128125D01*
D12*
X106903125Y-109428125D02*
X104203125Y-109428125D01*
D11*
X96803125Y-104328125D02*
X98203125Y-104328125D01*
X96803125Y-106828125D02*
X96803125Y-107528125D01*
D14*
X104219443Y-109206654D02*
G75*
G03*
X102003125Y-107328125I-2151318J-291471D01*
G01*
D10*
X107103126Y-106028125D02*
G75*
G03*
X105003125Y-104128124I-2000001J-100000D01*
G01*
X103819443Y-109606654D02*
G75*
G03*
X101603125Y-107728125I-2151318J-291471D01*
G01*
D11*
%TO.C,SW23*%
X115853125Y-111590625D02*
X115853125Y-112290625D01*
X115853125Y-109090625D02*
X117253125Y-109090625D01*
D12*
X125953125Y-114190625D02*
X123253125Y-114190625D01*
D10*
X115653125Y-109240625D02*
X115653125Y-108890625D01*
X115653125Y-108890625D02*
X124053125Y-108890624D01*
X120653125Y-112490625D02*
X115653125Y-112490625D01*
X126153125Y-114390625D02*
X122873125Y-114390625D01*
X126153125Y-110790625D02*
X126153125Y-111790625D01*
X126153125Y-114390625D02*
X126153125Y-114030625D01*
X125953125Y-114030625D02*
X126153125Y-114030625D01*
X125923125Y-111790625D02*
X125923125Y-114030625D01*
X126153125Y-111790625D02*
X125953125Y-111790625D01*
X115853125Y-109240625D02*
X115653125Y-109240625D01*
X115873125Y-111490625D02*
X115873125Y-109240625D01*
X115653125Y-111490625D02*
X115853125Y-111490625D01*
X115653125Y-112490625D02*
X115653125Y-111490625D01*
D13*
X117653125Y-110690625D02*
X124353125Y-110690625D01*
D14*
X116353125Y-109490625D02*
X116353125Y-111990625D01*
D12*
X115953125Y-112190625D02*
X117353125Y-112190625D01*
D15*
X124423125Y-110390625D02*
X124423125Y-112630625D01*
D16*
X125553125Y-113890625D02*
X125553125Y-112090625D01*
D17*
X126053124Y-111690625D02*
X126053125Y-110790626D01*
D10*
X122869443Y-114369154D02*
G75*
G03*
X120653125Y-112490625I-2151318J-291471D01*
G01*
X126153126Y-110790625D02*
G75*
G03*
X124053125Y-108890624I-2000001J-100000D01*
G01*
D14*
X123269443Y-113969154D02*
G75*
G03*
X121053125Y-112090625I-2151318J-291471D01*
G01*
D17*
%TO.C,SW26*%
X68903124Y-133121875D02*
X68903125Y-132221876D01*
D16*
X68403125Y-135321875D02*
X68403125Y-133521875D01*
D15*
X67273125Y-131821875D02*
X67273125Y-134061875D01*
D12*
X58803125Y-133621875D02*
X60203125Y-133621875D01*
D14*
X59203125Y-130921875D02*
X59203125Y-133421875D01*
D13*
X60503125Y-132121875D02*
X67203125Y-132121875D01*
D10*
X58503125Y-133921875D02*
X58503125Y-132921875D01*
X58503125Y-132921875D02*
X58703125Y-132921875D01*
X58723125Y-132921875D02*
X58723125Y-130671875D01*
X58703125Y-130671875D02*
X58503125Y-130671875D01*
X69003125Y-133221875D02*
X68803125Y-133221875D01*
X68773125Y-133221875D02*
X68773125Y-135461875D01*
X68803125Y-135461875D02*
X69003125Y-135461875D01*
X69003125Y-135821875D02*
X69003125Y-135461875D01*
X69003125Y-132221875D02*
X69003125Y-133221875D01*
X69003125Y-135821875D02*
X65723125Y-135821875D01*
X63503125Y-133921875D02*
X58503125Y-133921875D01*
X58503125Y-130321875D02*
X66903125Y-130321874D01*
X58503125Y-130671875D02*
X58503125Y-130321875D01*
D12*
X68803125Y-135621875D02*
X66103125Y-135621875D01*
D11*
X58703125Y-130521875D02*
X60103125Y-130521875D01*
X58703125Y-133021875D02*
X58703125Y-133721875D01*
D14*
X66119443Y-135400404D02*
G75*
G03*
X63903125Y-133521875I-2151318J-291471D01*
G01*
D10*
X69003126Y-132221875D02*
G75*
G03*
X66903125Y-130321874I-2000001J-100000D01*
G01*
X65719443Y-135800404D02*
G75*
G03*
X63503125Y-133921875I-2151318J-291471D01*
G01*
D17*
%TO.C,SW27*%
X87953124Y-128359375D02*
X87953125Y-127459376D01*
D16*
X87453125Y-130559375D02*
X87453125Y-128759375D01*
D15*
X86323125Y-127059375D02*
X86323125Y-129299375D01*
D12*
X77853125Y-128859375D02*
X79253125Y-128859375D01*
D14*
X78253125Y-126159375D02*
X78253125Y-128659375D01*
D13*
X79553125Y-127359375D02*
X86253125Y-127359375D01*
D10*
X77553125Y-129159375D02*
X77553125Y-128159375D01*
X77553125Y-128159375D02*
X77753125Y-128159375D01*
X77773125Y-128159375D02*
X77773125Y-125909375D01*
X77753125Y-125909375D02*
X77553125Y-125909375D01*
X88053125Y-128459375D02*
X87853125Y-128459375D01*
X87823125Y-128459375D02*
X87823125Y-130699375D01*
X87853125Y-130699375D02*
X88053125Y-130699375D01*
X88053125Y-131059375D02*
X88053125Y-130699375D01*
X88053125Y-127459375D02*
X88053125Y-128459375D01*
X88053125Y-131059375D02*
X84773125Y-131059375D01*
X82553125Y-129159375D02*
X77553125Y-129159375D01*
X77553125Y-125559375D02*
X85953125Y-125559374D01*
X77553125Y-125909375D02*
X77553125Y-125559375D01*
D12*
X87853125Y-130859375D02*
X85153125Y-130859375D01*
D11*
X77753125Y-125759375D02*
X79153125Y-125759375D01*
X77753125Y-128259375D02*
X77753125Y-128959375D01*
D14*
X85169443Y-130637904D02*
G75*
G03*
X82953125Y-128759375I-2151318J-291471D01*
G01*
D10*
X88053126Y-127459375D02*
G75*
G03*
X85953125Y-125559374I-2000001J-100000D01*
G01*
X84769443Y-131037904D02*
G75*
G03*
X82553125Y-129159375I-2151318J-291471D01*
G01*
D17*
%TO.C,SW28*%
X107003124Y-125978125D02*
X107003125Y-125078126D01*
D16*
X106503125Y-128178125D02*
X106503125Y-126378125D01*
D15*
X105373125Y-124678125D02*
X105373125Y-126918125D01*
D12*
X96903125Y-126478125D02*
X98303125Y-126478125D01*
D14*
X97303125Y-123778125D02*
X97303125Y-126278125D01*
D13*
X98603125Y-124978125D02*
X105303125Y-124978125D01*
D10*
X96603125Y-126778125D02*
X96603125Y-125778125D01*
X96603125Y-125778125D02*
X96803125Y-125778125D01*
X96823125Y-125778125D02*
X96823125Y-123528125D01*
X96803125Y-123528125D02*
X96603125Y-123528125D01*
X107103125Y-126078125D02*
X106903125Y-126078125D01*
X106873125Y-126078125D02*
X106873125Y-128318125D01*
X106903125Y-128318125D02*
X107103125Y-128318125D01*
X107103125Y-128678125D02*
X107103125Y-128318125D01*
X107103125Y-125078125D02*
X107103125Y-126078125D01*
X107103125Y-128678125D02*
X103823125Y-128678125D01*
X101603125Y-126778125D02*
X96603125Y-126778125D01*
X96603125Y-123178125D02*
X105003125Y-123178124D01*
X96603125Y-123528125D02*
X96603125Y-123178125D01*
D12*
X106903125Y-128478125D02*
X104203125Y-128478125D01*
D11*
X96803125Y-123378125D02*
X98203125Y-123378125D01*
X96803125Y-125878125D02*
X96803125Y-126578125D01*
D14*
X104219443Y-128256654D02*
G75*
G03*
X102003125Y-126378125I-2151318J-291471D01*
G01*
D10*
X107103126Y-125078125D02*
G75*
G03*
X105003125Y-123178124I-2000001J-100000D01*
G01*
X103819443Y-128656654D02*
G75*
G03*
X101603125Y-126778125I-2151318J-291471D01*
G01*
%TO.C,U1*%
X150812500Y-63484135D02*
X153352500Y-63484135D01*
X153352500Y-63484135D02*
X153352500Y-93964135D01*
X153352500Y-93964135D02*
X150812500Y-93964135D01*
X150812500Y-93964135D02*
X150812500Y-63484135D01*
X166032500Y-63484135D02*
X168572500Y-63484135D01*
X168572500Y-63484135D02*
X168572500Y-93964135D01*
X168572500Y-93964135D02*
X166032500Y-93964135D01*
X166032500Y-93964135D02*
X166032500Y-63484135D01*
%TO.C,J1*%
X161848880Y-107549039D02*
X161848880Y-106977611D01*
X162848880Y-107263325D02*
X161848880Y-107263325D01*
X162848880Y-106072849D02*
X162372690Y-106406182D01*
X162848880Y-106644277D02*
X161848880Y-106644277D01*
X161848880Y-106263325D01*
X161896500Y-106168087D01*
X161944119Y-106120468D01*
X162039357Y-106072849D01*
X162182214Y-106072849D01*
X162277452Y-106120468D01*
X162325071Y-106168087D01*
X162372690Y-106263325D01*
X162372690Y-106644277D01*
X162848880Y-105072849D02*
X162372690Y-105406182D01*
X162848880Y-105644277D02*
X161848880Y-105644277D01*
X161848880Y-105263325D01*
X161896500Y-105168087D01*
X161944119Y-105120468D01*
X162039357Y-105072849D01*
X162182214Y-105072849D01*
X162277452Y-105120468D01*
X162325071Y-105168087D01*
X162372690Y-105263325D01*
X162372690Y-105644277D01*
X162801261Y-104691896D02*
X162848880Y-104549039D01*
X162848880Y-104310944D01*
X162801261Y-104215706D01*
X162753642Y-104168087D01*
X162658404Y-104120468D01*
X162563166Y-104120468D01*
X162467928Y-104168087D01*
X162420309Y-104215706D01*
X162372690Y-104310944D01*
X162325071Y-104501420D01*
X162277452Y-104596658D01*
X162229833Y-104644277D01*
X162134595Y-104691896D01*
X162039357Y-104691896D01*
X161944119Y-104644277D01*
X161896500Y-104596658D01*
X161848880Y-104501420D01*
X161848880Y-104263325D01*
X161896500Y-104120468D01*
%TO.C,RSW1*%
X157794119Y-112942640D02*
X157460785Y-112466450D01*
X157222690Y-112942640D02*
X157222690Y-111942640D01*
X157603642Y-111942640D01*
X157698880Y-111990260D01*
X157746500Y-112037879D01*
X157794119Y-112133117D01*
X157794119Y-112275974D01*
X157746500Y-112371212D01*
X157698880Y-112418831D01*
X157603642Y-112466450D01*
X157222690Y-112466450D01*
X158222690Y-112418831D02*
X158556023Y-112418831D01*
X158698880Y-112942640D02*
X158222690Y-112942640D01*
X158222690Y-111942640D01*
X158698880Y-111942640D01*
X159079833Y-112895021D02*
X159222690Y-112942640D01*
X159460785Y-112942640D01*
X159556023Y-112895021D01*
X159603642Y-112847402D01*
X159651261Y-112752164D01*
X159651261Y-112656926D01*
X159603642Y-112561688D01*
X159556023Y-112514069D01*
X159460785Y-112466450D01*
X159270309Y-112418831D01*
X159175071Y-112371212D01*
X159127452Y-112323593D01*
X159079833Y-112228355D01*
X159079833Y-112133117D01*
X159127452Y-112037879D01*
X159175071Y-111990260D01*
X159270309Y-111942640D01*
X159508404Y-111942640D01*
X159651261Y-111990260D01*
X160079833Y-112418831D02*
X160413166Y-112418831D01*
X160556023Y-112942640D02*
X160079833Y-112942640D01*
X160079833Y-111942640D01*
X160556023Y-111942640D01*
X160841738Y-111942640D02*
X161413166Y-111942640D01*
X161127452Y-112942640D02*
X161127452Y-111942640D01*
%TO.C,U1*%
D20*
X164265147Y-82873420D02*
X164098480Y-82516277D01*
X163979433Y-82873420D02*
X163979433Y-82123420D01*
X164169909Y-82123420D01*
X164217528Y-82159135D01*
X164241338Y-82194849D01*
X164265147Y-82266277D01*
X164265147Y-82373420D01*
X164241338Y-82444849D01*
X164217528Y-82480563D01*
X164169909Y-82516277D01*
X163979433Y-82516277D01*
X164574671Y-82123420D02*
X164669909Y-82123420D01*
X164717528Y-82159135D01*
X164765147Y-82230563D01*
X164788957Y-82373420D01*
X164788957Y-82623420D01*
X164765147Y-82766277D01*
X164717528Y-82837706D01*
X164669909Y-82873420D01*
X164574671Y-82873420D01*
X164527052Y-82837706D01*
X164479433Y-82766277D01*
X164455623Y-82623420D01*
X164455623Y-82373420D01*
X164479433Y-82230563D01*
X164527052Y-82159135D01*
X164574671Y-82123420D01*
X164955623Y-82123420D02*
X165074671Y-82873420D01*
X165169909Y-82337706D01*
X165265147Y-82873420D01*
X165384195Y-82123420D01*
X165836576Y-82873420D02*
X165550861Y-82873420D01*
X165693719Y-82873420D02*
X165693719Y-82123420D01*
X165646100Y-82230563D01*
X165598480Y-82301992D01*
X165550861Y-82337706D01*
X149148480Y-85349992D02*
X149124671Y-85385706D01*
X149053242Y-85421420D01*
X149005623Y-85421420D01*
X148934195Y-85385706D01*
X148886576Y-85314277D01*
X148862766Y-85242849D01*
X148838957Y-85099992D01*
X148838957Y-84992849D01*
X148862766Y-84849992D01*
X148886576Y-84778563D01*
X148934195Y-84707135D01*
X149005623Y-84671420D01*
X149053242Y-84671420D01*
X149124671Y-84707135D01*
X149148480Y-84742849D01*
X149458004Y-84671420D02*
X149553242Y-84671420D01*
X149600861Y-84707135D01*
X149648480Y-84778563D01*
X149672290Y-84921420D01*
X149672290Y-85171420D01*
X149648480Y-85314277D01*
X149600861Y-85385706D01*
X149553242Y-85421420D01*
X149458004Y-85421420D01*
X149410385Y-85385706D01*
X149362766Y-85314277D01*
X149338957Y-85171420D01*
X149338957Y-84921420D01*
X149362766Y-84778563D01*
X149410385Y-84707135D01*
X149458004Y-84671420D01*
X150124671Y-85421420D02*
X149886576Y-85421420D01*
X149886576Y-84671420D01*
X150505623Y-84921420D02*
X150505623Y-85421420D01*
X150386576Y-84635706D02*
X150267528Y-85171420D01*
X150577052Y-85171420D01*
X164215147Y-85421420D02*
X164048480Y-85064277D01*
X163929433Y-85421420D02*
X163929433Y-84671420D01*
X164119909Y-84671420D01*
X164167528Y-84707135D01*
X164191338Y-84742849D01*
X164215147Y-84814277D01*
X164215147Y-84921420D01*
X164191338Y-84992849D01*
X164167528Y-85028563D01*
X164119909Y-85064277D01*
X163929433Y-85064277D01*
X164524671Y-84671420D02*
X164619909Y-84671420D01*
X164667528Y-84707135D01*
X164715147Y-84778563D01*
X164738957Y-84921420D01*
X164738957Y-85171420D01*
X164715147Y-85314277D01*
X164667528Y-85385706D01*
X164619909Y-85421420D01*
X164524671Y-85421420D01*
X164477052Y-85385706D01*
X164429433Y-85314277D01*
X164405623Y-85171420D01*
X164405623Y-84921420D01*
X164429433Y-84778563D01*
X164477052Y-84707135D01*
X164524671Y-84671420D01*
X164905623Y-84671420D02*
X165024671Y-85421420D01*
X165119909Y-84885706D01*
X165215147Y-85421420D01*
X165334195Y-84671420D01*
X165500861Y-84742849D02*
X165524671Y-84707135D01*
X165572290Y-84671420D01*
X165691338Y-84671420D01*
X165738957Y-84707135D01*
X165762766Y-84742849D01*
X165786576Y-84814277D01*
X165786576Y-84885706D01*
X165762766Y-84992849D01*
X165477052Y-85421420D01*
X165786576Y-85421420D01*
X149148480Y-87945492D02*
X149124671Y-87981206D01*
X149053242Y-88016920D01*
X149005623Y-88016920D01*
X148934195Y-87981206D01*
X148886576Y-87909777D01*
X148862766Y-87838349D01*
X148838957Y-87695492D01*
X148838957Y-87588349D01*
X148862766Y-87445492D01*
X148886576Y-87374063D01*
X148934195Y-87302635D01*
X149005623Y-87266920D01*
X149053242Y-87266920D01*
X149124671Y-87302635D01*
X149148480Y-87338349D01*
X149458004Y-87266920D02*
X149553242Y-87266920D01*
X149600861Y-87302635D01*
X149648480Y-87374063D01*
X149672290Y-87516920D01*
X149672290Y-87766920D01*
X149648480Y-87909777D01*
X149600861Y-87981206D01*
X149553242Y-88016920D01*
X149458004Y-88016920D01*
X149410385Y-87981206D01*
X149362766Y-87909777D01*
X149338957Y-87766920D01*
X149338957Y-87516920D01*
X149362766Y-87374063D01*
X149410385Y-87302635D01*
X149458004Y-87266920D01*
X150124671Y-88016920D02*
X149886576Y-88016920D01*
X149886576Y-87266920D01*
X150529433Y-87266920D02*
X150291338Y-87266920D01*
X150267528Y-87624063D01*
X150291338Y-87588349D01*
X150338957Y-87552635D01*
X150458004Y-87552635D01*
X150505623Y-87588349D01*
X150529433Y-87624063D01*
X150553242Y-87695492D01*
X150553242Y-87874063D01*
X150529433Y-87945492D01*
X150505623Y-87981206D01*
X150458004Y-88016920D01*
X150338957Y-88016920D01*
X150291338Y-87981206D01*
X150267528Y-87945492D01*
X164215147Y-88016920D02*
X164048480Y-87659777D01*
X163929433Y-88016920D02*
X163929433Y-87266920D01*
X164119909Y-87266920D01*
X164167528Y-87302635D01*
X164191338Y-87338349D01*
X164215147Y-87409777D01*
X164215147Y-87516920D01*
X164191338Y-87588349D01*
X164167528Y-87624063D01*
X164119909Y-87659777D01*
X163929433Y-87659777D01*
X164524671Y-87266920D02*
X164619909Y-87266920D01*
X164667528Y-87302635D01*
X164715147Y-87374063D01*
X164738957Y-87516920D01*
X164738957Y-87766920D01*
X164715147Y-87909777D01*
X164667528Y-87981206D01*
X164619909Y-88016920D01*
X164524671Y-88016920D01*
X164477052Y-87981206D01*
X164429433Y-87909777D01*
X164405623Y-87766920D01*
X164405623Y-87516920D01*
X164429433Y-87374063D01*
X164477052Y-87302635D01*
X164524671Y-87266920D01*
X164905623Y-87266920D02*
X165024671Y-88016920D01*
X165119909Y-87481206D01*
X165215147Y-88016920D01*
X165334195Y-87266920D01*
X165477052Y-87266920D02*
X165786576Y-87266920D01*
X165619909Y-87552635D01*
X165691338Y-87552635D01*
X165738957Y-87588349D01*
X165762766Y-87624063D01*
X165786576Y-87695492D01*
X165786576Y-87874063D01*
X165762766Y-87945492D01*
X165738957Y-87981206D01*
X165691338Y-88016920D01*
X165548480Y-88016920D01*
X165500861Y-87981206D01*
X165477052Y-87945492D01*
X149493719Y-90128563D02*
X149565147Y-90164277D01*
X149588957Y-90199992D01*
X149612766Y-90271420D01*
X149612766Y-90378563D01*
X149588957Y-90449992D01*
X149565147Y-90485706D01*
X149517528Y-90521420D01*
X149327052Y-90521420D01*
X149327052Y-89771420D01*
X149493719Y-89771420D01*
X149541338Y-89807135D01*
X149565147Y-89842849D01*
X149588957Y-89914277D01*
X149588957Y-89985706D01*
X149565147Y-90057135D01*
X149541338Y-90092849D01*
X149493719Y-90128563D01*
X149327052Y-90128563D01*
X149803242Y-89842849D02*
X149827052Y-89807135D01*
X149874671Y-89771420D01*
X149993719Y-89771420D01*
X150041338Y-89807135D01*
X150065147Y-89842849D01*
X150088957Y-89914277D01*
X150088957Y-89985706D01*
X150065147Y-90092849D01*
X149779433Y-90521420D01*
X150088957Y-90521420D01*
X164643719Y-90100563D02*
X164715147Y-90136277D01*
X164738957Y-90171992D01*
X164762766Y-90243420D01*
X164762766Y-90350563D01*
X164738957Y-90421992D01*
X164715147Y-90457706D01*
X164667528Y-90493420D01*
X164477052Y-90493420D01*
X164477052Y-89743420D01*
X164643719Y-89743420D01*
X164691338Y-89779135D01*
X164715147Y-89814849D01*
X164738957Y-89886277D01*
X164738957Y-89957706D01*
X164715147Y-90029135D01*
X164691338Y-90064849D01*
X164643719Y-90100563D01*
X164477052Y-90100563D01*
X165191338Y-89993420D02*
X165191338Y-90493420D01*
X165072290Y-89707706D02*
X164953242Y-90243420D01*
X165262766Y-90243420D01*
X164643719Y-92704063D02*
X164715147Y-92739777D01*
X164738957Y-92775492D01*
X164762766Y-92846920D01*
X164762766Y-92954063D01*
X164738957Y-93025492D01*
X164715147Y-93061206D01*
X164667528Y-93096920D01*
X164477052Y-93096920D01*
X164477052Y-92346920D01*
X164643719Y-92346920D01*
X164691338Y-92382635D01*
X164715147Y-92418349D01*
X164738957Y-92489777D01*
X164738957Y-92561206D01*
X164715147Y-92632635D01*
X164691338Y-92668349D01*
X164643719Y-92704063D01*
X164477052Y-92704063D01*
X165215147Y-92346920D02*
X164977052Y-92346920D01*
X164953242Y-92704063D01*
X164977052Y-92668349D01*
X165024671Y-92632635D01*
X165143719Y-92632635D01*
X165191338Y-92668349D01*
X165215147Y-92704063D01*
X165238957Y-92775492D01*
X165238957Y-92954063D01*
X165215147Y-93025492D01*
X165191338Y-93061206D01*
X165143719Y-93096920D01*
X165024671Y-93096920D01*
X164977052Y-93061206D01*
X164953242Y-93025492D01*
X149393719Y-92678563D02*
X149465147Y-92714277D01*
X149488957Y-92749992D01*
X149512766Y-92821420D01*
X149512766Y-92928563D01*
X149488957Y-92999992D01*
X149465147Y-93035706D01*
X149417528Y-93071420D01*
X149227052Y-93071420D01*
X149227052Y-92321420D01*
X149393719Y-92321420D01*
X149441338Y-92357135D01*
X149465147Y-92392849D01*
X149488957Y-92464277D01*
X149488957Y-92535706D01*
X149465147Y-92607135D01*
X149441338Y-92642849D01*
X149393719Y-92678563D01*
X149227052Y-92678563D01*
X149941338Y-92321420D02*
X149846100Y-92321420D01*
X149798480Y-92357135D01*
X149774671Y-92392849D01*
X149727052Y-92499992D01*
X149703242Y-92642849D01*
X149703242Y-92928563D01*
X149727052Y-92999992D01*
X149750861Y-93035706D01*
X149798480Y-93071420D01*
X149893719Y-93071420D01*
X149941338Y-93035706D01*
X149965147Y-92999992D01*
X149988957Y-92928563D01*
X149988957Y-92749992D01*
X149965147Y-92678563D01*
X149941338Y-92642849D01*
X149893719Y-92607135D01*
X149798480Y-92607135D01*
X149750861Y-92642849D01*
X149727052Y-92678563D01*
X149703242Y-92749992D01*
X149198480Y-75199992D02*
X149174671Y-75235706D01*
X149103242Y-75271420D01*
X149055623Y-75271420D01*
X148984195Y-75235706D01*
X148936576Y-75164277D01*
X148912766Y-75092849D01*
X148888957Y-74949992D01*
X148888957Y-74842849D01*
X148912766Y-74699992D01*
X148936576Y-74628563D01*
X148984195Y-74557135D01*
X149055623Y-74521420D01*
X149103242Y-74521420D01*
X149174671Y-74557135D01*
X149198480Y-74592849D01*
X149508004Y-74521420D02*
X149603242Y-74521420D01*
X149650861Y-74557135D01*
X149698480Y-74628563D01*
X149722290Y-74771420D01*
X149722290Y-75021420D01*
X149698480Y-75164277D01*
X149650861Y-75235706D01*
X149603242Y-75271420D01*
X149508004Y-75271420D01*
X149460385Y-75235706D01*
X149412766Y-75164277D01*
X149388957Y-75021420D01*
X149388957Y-74771420D01*
X149412766Y-74628563D01*
X149460385Y-74557135D01*
X149508004Y-74521420D01*
X150174671Y-75271420D02*
X149936576Y-75271420D01*
X149936576Y-74521420D01*
X150436576Y-74521420D02*
X150484195Y-74521420D01*
X150531814Y-74557135D01*
X150555623Y-74592849D01*
X150579433Y-74664277D01*
X150603242Y-74807135D01*
X150603242Y-74985706D01*
X150579433Y-75128563D01*
X150555623Y-75199992D01*
X150531814Y-75235706D01*
X150484195Y-75271420D01*
X150436576Y-75271420D01*
X150388957Y-75235706D01*
X150365147Y-75199992D01*
X150341338Y-75128563D01*
X150317528Y-74985706D01*
X150317528Y-74807135D01*
X150341338Y-74664277D01*
X150365147Y-74592849D01*
X150388957Y-74557135D01*
X150436576Y-74521420D01*
X164499957Y-75217706D02*
X164571385Y-75253420D01*
X164690433Y-75253420D01*
X164738052Y-75217706D01*
X164761861Y-75181992D01*
X164785671Y-75110563D01*
X164785671Y-75039135D01*
X164761861Y-74967706D01*
X164738052Y-74931992D01*
X164690433Y-74896277D01*
X164595195Y-74860563D01*
X164547576Y-74824849D01*
X164523766Y-74789135D01*
X164499957Y-74717706D01*
X164499957Y-74646277D01*
X164523766Y-74574849D01*
X164547576Y-74539135D01*
X164595195Y-74503420D01*
X164714242Y-74503420D01*
X164785671Y-74539135D01*
X164999957Y-75253420D02*
X164999957Y-74503420D01*
X165119004Y-74503420D01*
X165190433Y-74539135D01*
X165238052Y-74610563D01*
X165261861Y-74681992D01*
X165285671Y-74824849D01*
X165285671Y-74931992D01*
X165261861Y-75074849D01*
X165238052Y-75146277D01*
X165190433Y-75217706D01*
X165119004Y-75253420D01*
X164999957Y-75253420D01*
X165476147Y-75039135D02*
X165714242Y-75039135D01*
X165428528Y-75253420D02*
X165595195Y-74503420D01*
X165761861Y-75253420D01*
X149248480Y-77721992D02*
X149224671Y-77757706D01*
X149153242Y-77793420D01*
X149105623Y-77793420D01*
X149034195Y-77757706D01*
X148986576Y-77686277D01*
X148962766Y-77614849D01*
X148938957Y-77471992D01*
X148938957Y-77364849D01*
X148962766Y-77221992D01*
X148986576Y-77150563D01*
X149034195Y-77079135D01*
X149105623Y-77043420D01*
X149153242Y-77043420D01*
X149224671Y-77079135D01*
X149248480Y-77114849D01*
X149558004Y-77043420D02*
X149653242Y-77043420D01*
X149700861Y-77079135D01*
X149748480Y-77150563D01*
X149772290Y-77293420D01*
X149772290Y-77543420D01*
X149748480Y-77686277D01*
X149700861Y-77757706D01*
X149653242Y-77793420D01*
X149558004Y-77793420D01*
X149510385Y-77757706D01*
X149462766Y-77686277D01*
X149438957Y-77543420D01*
X149438957Y-77293420D01*
X149462766Y-77150563D01*
X149510385Y-77079135D01*
X149558004Y-77043420D01*
X150224671Y-77793420D02*
X149986576Y-77793420D01*
X149986576Y-77043420D01*
X150653242Y-77793420D02*
X150367528Y-77793420D01*
X150510385Y-77793420D02*
X150510385Y-77043420D01*
X150462766Y-77150563D01*
X150415147Y-77221992D01*
X150367528Y-77257706D01*
X164511861Y-77757706D02*
X164583290Y-77793420D01*
X164702338Y-77793420D01*
X164749957Y-77757706D01*
X164773766Y-77721992D01*
X164797576Y-77650563D01*
X164797576Y-77579135D01*
X164773766Y-77507706D01*
X164749957Y-77471992D01*
X164702338Y-77436277D01*
X164607100Y-77400563D01*
X164559480Y-77364849D01*
X164535671Y-77329135D01*
X164511861Y-77257706D01*
X164511861Y-77186277D01*
X164535671Y-77114849D01*
X164559480Y-77079135D01*
X164607100Y-77043420D01*
X164726147Y-77043420D01*
X164797576Y-77079135D01*
X165297576Y-77721992D02*
X165273766Y-77757706D01*
X165202338Y-77793420D01*
X165154719Y-77793420D01*
X165083290Y-77757706D01*
X165035671Y-77686277D01*
X165011861Y-77614849D01*
X164988052Y-77471992D01*
X164988052Y-77364849D01*
X165011861Y-77221992D01*
X165035671Y-77150563D01*
X165083290Y-77079135D01*
X165154719Y-77043420D01*
X165202338Y-77043420D01*
X165273766Y-77079135D01*
X165297576Y-77114849D01*
X165749957Y-77793420D02*
X165511861Y-77793420D01*
X165511861Y-77043420D01*
X149198480Y-80261992D02*
X149174671Y-80297706D01*
X149103242Y-80333420D01*
X149055623Y-80333420D01*
X148984195Y-80297706D01*
X148936576Y-80226277D01*
X148912766Y-80154849D01*
X148888957Y-80011992D01*
X148888957Y-79904849D01*
X148912766Y-79761992D01*
X148936576Y-79690563D01*
X148984195Y-79619135D01*
X149055623Y-79583420D01*
X149103242Y-79583420D01*
X149174671Y-79619135D01*
X149198480Y-79654849D01*
X149508004Y-79583420D02*
X149603242Y-79583420D01*
X149650861Y-79619135D01*
X149698480Y-79690563D01*
X149722290Y-79833420D01*
X149722290Y-80083420D01*
X149698480Y-80226277D01*
X149650861Y-80297706D01*
X149603242Y-80333420D01*
X149508004Y-80333420D01*
X149460385Y-80297706D01*
X149412766Y-80226277D01*
X149388957Y-80083420D01*
X149388957Y-79833420D01*
X149412766Y-79690563D01*
X149460385Y-79619135D01*
X149508004Y-79583420D01*
X150174671Y-80333420D02*
X149936576Y-80333420D01*
X149936576Y-79583420D01*
X150317528Y-79654849D02*
X150341338Y-79619135D01*
X150388957Y-79583420D01*
X150508004Y-79583420D01*
X150555623Y-79619135D01*
X150579433Y-79654849D01*
X150603242Y-79726277D01*
X150603242Y-79797706D01*
X150579433Y-79904849D01*
X150293719Y-80333420D01*
X150603242Y-80333420D01*
X164215147Y-80371420D02*
X164048480Y-80014277D01*
X163929433Y-80371420D02*
X163929433Y-79621420D01*
X164119909Y-79621420D01*
X164167528Y-79657135D01*
X164191338Y-79692849D01*
X164215147Y-79764277D01*
X164215147Y-79871420D01*
X164191338Y-79942849D01*
X164167528Y-79978563D01*
X164119909Y-80014277D01*
X163929433Y-80014277D01*
X164524671Y-79621420D02*
X164619909Y-79621420D01*
X164667528Y-79657135D01*
X164715147Y-79728563D01*
X164738957Y-79871420D01*
X164738957Y-80121420D01*
X164715147Y-80264277D01*
X164667528Y-80335706D01*
X164619909Y-80371420D01*
X164524671Y-80371420D01*
X164477052Y-80335706D01*
X164429433Y-80264277D01*
X164405623Y-80121420D01*
X164405623Y-79871420D01*
X164429433Y-79728563D01*
X164477052Y-79657135D01*
X164524671Y-79621420D01*
X164905623Y-79621420D02*
X165024671Y-80371420D01*
X165119909Y-79835706D01*
X165215147Y-80371420D01*
X165334195Y-79621420D01*
X165619909Y-79621420D02*
X165667528Y-79621420D01*
X165715147Y-79657135D01*
X165738957Y-79692849D01*
X165762766Y-79764277D01*
X165786576Y-79907135D01*
X165786576Y-80085706D01*
X165762766Y-80228563D01*
X165738957Y-80299992D01*
X165715147Y-80335706D01*
X165667528Y-80371420D01*
X165619909Y-80371420D01*
X165572290Y-80335706D01*
X165548480Y-80299992D01*
X165524671Y-80228563D01*
X165500861Y-80085706D01*
X165500861Y-79907135D01*
X165524671Y-79764277D01*
X165548480Y-79692849D01*
X165572290Y-79657135D01*
X165619909Y-79621420D01*
X149098480Y-82849992D02*
X149074671Y-82885706D01*
X149003242Y-82921420D01*
X148955623Y-82921420D01*
X148884195Y-82885706D01*
X148836576Y-82814277D01*
X148812766Y-82742849D01*
X148788957Y-82599992D01*
X148788957Y-82492849D01*
X148812766Y-82349992D01*
X148836576Y-82278563D01*
X148884195Y-82207135D01*
X148955623Y-82171420D01*
X149003242Y-82171420D01*
X149074671Y-82207135D01*
X149098480Y-82242849D01*
X149408004Y-82171420D02*
X149503242Y-82171420D01*
X149550861Y-82207135D01*
X149598480Y-82278563D01*
X149622290Y-82421420D01*
X149622290Y-82671420D01*
X149598480Y-82814277D01*
X149550861Y-82885706D01*
X149503242Y-82921420D01*
X149408004Y-82921420D01*
X149360385Y-82885706D01*
X149312766Y-82814277D01*
X149288957Y-82671420D01*
X149288957Y-82421420D01*
X149312766Y-82278563D01*
X149360385Y-82207135D01*
X149408004Y-82171420D01*
X150074671Y-82921420D02*
X149836576Y-82921420D01*
X149836576Y-82171420D01*
X150193719Y-82171420D02*
X150503242Y-82171420D01*
X150336576Y-82457135D01*
X150408004Y-82457135D01*
X150455623Y-82492849D01*
X150479433Y-82528563D01*
X150503242Y-82599992D01*
X150503242Y-82778563D01*
X150479433Y-82849992D01*
X150455623Y-82885706D01*
X150408004Y-82921420D01*
X150265147Y-82921420D01*
X150217528Y-82885706D01*
X150193719Y-82849992D01*
X164726147Y-72062635D02*
X164678528Y-72026920D01*
X164607100Y-72026920D01*
X164535671Y-72062635D01*
X164488052Y-72134063D01*
X164464242Y-72205492D01*
X164440433Y-72348349D01*
X164440433Y-72455492D01*
X164464242Y-72598349D01*
X164488052Y-72669777D01*
X164535671Y-72741206D01*
X164607100Y-72776920D01*
X164654719Y-72776920D01*
X164726147Y-72741206D01*
X164749957Y-72705492D01*
X164749957Y-72455492D01*
X164654719Y-72455492D01*
X164964242Y-72776920D02*
X164964242Y-72026920D01*
X165249957Y-72776920D01*
X165249957Y-72026920D01*
X165488052Y-72776920D02*
X165488052Y-72026920D01*
X165607100Y-72026920D01*
X165678528Y-72062635D01*
X165726147Y-72134063D01*
X165749957Y-72205492D01*
X165773766Y-72348349D01*
X165773766Y-72455492D01*
X165749957Y-72598349D01*
X165726147Y-72669777D01*
X165678528Y-72741206D01*
X165607100Y-72776920D01*
X165488052Y-72776920D01*
X149263933Y-71963420D02*
X149430600Y-72713420D01*
X149597266Y-71963420D01*
X150049647Y-72641992D02*
X150025838Y-72677706D01*
X149954409Y-72713420D01*
X149906790Y-72713420D01*
X149835361Y-72677706D01*
X149787742Y-72606277D01*
X149763933Y-72534849D01*
X149740123Y-72391992D01*
X149740123Y-72284849D01*
X149763933Y-72141992D01*
X149787742Y-72070563D01*
X149835361Y-71999135D01*
X149906790Y-71963420D01*
X149954409Y-71963420D01*
X150025838Y-71999135D01*
X150049647Y-72034849D01*
X150549647Y-72641992D02*
X150525838Y-72677706D01*
X150454409Y-72713420D01*
X150406790Y-72713420D01*
X150335361Y-72677706D01*
X150287742Y-72606277D01*
X150263933Y-72534849D01*
X150240123Y-72391992D01*
X150240123Y-72284849D01*
X150263933Y-72141992D01*
X150287742Y-72070563D01*
X150335361Y-71999135D01*
X150406790Y-71963420D01*
X150454409Y-71963420D01*
X150525838Y-71999135D01*
X150549647Y-72034849D01*
X164789647Y-69522635D02*
X164742028Y-69486920D01*
X164670600Y-69486920D01*
X164599171Y-69522635D01*
X164551552Y-69594063D01*
X164527742Y-69665492D01*
X164503933Y-69808349D01*
X164503933Y-69915492D01*
X164527742Y-70058349D01*
X164551552Y-70129777D01*
X164599171Y-70201206D01*
X164670600Y-70236920D01*
X164718219Y-70236920D01*
X164789647Y-70201206D01*
X164813457Y-70165492D01*
X164813457Y-69915492D01*
X164718219Y-69915492D01*
X165027742Y-70236920D02*
X165027742Y-69486920D01*
X165313457Y-70236920D01*
X165313457Y-69486920D01*
X165551552Y-70236920D02*
X165551552Y-69486920D01*
X165670600Y-69486920D01*
X165742028Y-69522635D01*
X165789647Y-69594063D01*
X165813457Y-69665492D01*
X165837266Y-69808349D01*
X165837266Y-69915492D01*
X165813457Y-70058349D01*
X165789647Y-70129777D01*
X165742028Y-70201206D01*
X165670600Y-70236920D01*
X165551552Y-70236920D01*
X149656790Y-70236920D02*
X149490123Y-69879777D01*
X149371076Y-70236920D02*
X149371076Y-69486920D01*
X149561552Y-69486920D01*
X149609171Y-69522635D01*
X149632980Y-69558349D01*
X149656790Y-69629777D01*
X149656790Y-69736920D01*
X149632980Y-69808349D01*
X149609171Y-69844063D01*
X149561552Y-69879777D01*
X149371076Y-69879777D01*
X149847266Y-70201206D02*
X149918695Y-70236920D01*
X150037742Y-70236920D01*
X150085361Y-70201206D01*
X150109171Y-70165492D01*
X150132980Y-70094063D01*
X150132980Y-70022635D01*
X150109171Y-69951206D01*
X150085361Y-69915492D01*
X150037742Y-69879777D01*
X149942504Y-69844063D01*
X149894885Y-69808349D01*
X149871076Y-69772635D01*
X149847266Y-69701206D01*
X149847266Y-69629777D01*
X149871076Y-69558349D01*
X149894885Y-69522635D01*
X149942504Y-69486920D01*
X150061552Y-69486920D01*
X150132980Y-69522635D01*
X150275838Y-69486920D02*
X150561552Y-69486920D01*
X150418695Y-70236920D02*
X150418695Y-69486920D01*
X164246100Y-67621420D02*
X164246100Y-66871420D01*
X164365147Y-66871420D01*
X164436576Y-66907135D01*
X164484195Y-66978563D01*
X164508004Y-67049992D01*
X164531814Y-67192849D01*
X164531814Y-67299992D01*
X164508004Y-67442849D01*
X164484195Y-67514277D01*
X164436576Y-67585706D01*
X164365147Y-67621420D01*
X164246100Y-67621420D01*
X164722290Y-67407135D02*
X164960385Y-67407135D01*
X164674671Y-67621420D02*
X164841338Y-66871420D01*
X165008004Y-67621420D01*
X165103242Y-66871420D02*
X165388957Y-66871420D01*
X165246100Y-67621420D02*
X165246100Y-66871420D01*
X165531814Y-67407135D02*
X165769909Y-67407135D01*
X165484195Y-67621420D02*
X165650861Y-66871420D01*
X165817528Y-67621420D01*
X149549647Y-66919135D02*
X149502028Y-66883420D01*
X149430600Y-66883420D01*
X149359171Y-66919135D01*
X149311552Y-66990563D01*
X149287742Y-67061992D01*
X149263933Y-67204849D01*
X149263933Y-67311992D01*
X149287742Y-67454849D01*
X149311552Y-67526277D01*
X149359171Y-67597706D01*
X149430600Y-67633420D01*
X149478219Y-67633420D01*
X149549647Y-67597706D01*
X149573457Y-67561992D01*
X149573457Y-67311992D01*
X149478219Y-67311992D01*
X149787742Y-67633420D02*
X149787742Y-66883420D01*
X150073457Y-67633420D01*
X150073457Y-66883420D01*
X150311552Y-67633420D02*
X150311552Y-66883420D01*
X150430600Y-66883420D01*
X150502028Y-66919135D01*
X150549647Y-66990563D01*
X150573457Y-67061992D01*
X150597266Y-67204849D01*
X150597266Y-67311992D01*
X150573457Y-67454849D01*
X150549647Y-67526277D01*
X150502028Y-67597706D01*
X150430600Y-67633420D01*
X150311552Y-67633420D01*
X164824671Y-65093420D02*
X164586576Y-65093420D01*
X164586576Y-64343420D01*
X164991338Y-64700563D02*
X165158004Y-64700563D01*
X165229433Y-65093420D02*
X164991338Y-65093420D01*
X164991338Y-64343420D01*
X165229433Y-64343420D01*
X165443719Y-65093420D02*
X165443719Y-64343420D01*
X165562766Y-64343420D01*
X165634195Y-64379135D01*
X165681814Y-64450563D01*
X165705623Y-64521992D01*
X165729433Y-64664849D01*
X165729433Y-64771992D01*
X165705623Y-64914849D01*
X165681814Y-64986277D01*
X165634195Y-65057706D01*
X165562766Y-65093420D01*
X165443719Y-65093420D01*
X149585361Y-65093420D02*
X149418695Y-64736277D01*
X149299647Y-65093420D02*
X149299647Y-64343420D01*
X149490123Y-64343420D01*
X149537742Y-64379135D01*
X149561552Y-64414849D01*
X149585361Y-64486277D01*
X149585361Y-64593420D01*
X149561552Y-64664849D01*
X149537742Y-64700563D01*
X149490123Y-64736277D01*
X149299647Y-64736277D01*
X149775838Y-64879135D02*
X150013933Y-64879135D01*
X149728219Y-65093420D02*
X149894885Y-64343420D01*
X150061552Y-65093420D01*
X150180600Y-64343420D02*
X150299647Y-65093420D01*
X150394885Y-64557706D01*
X150490123Y-65093420D01*
X150609171Y-64343420D01*
D10*
%TD*%
M02*
