%TF.GenerationSoftware,KiCad,Pcbnew,5.1.9-73d0e3b20d~88~ubuntu18.04.1*%
%TF.CreationDate,2021-03-13T15:22:26+09:00*%
%TF.ProjectId,swallowtail,7377616c-6c6f-4777-9461-696c2e6b6963,rev?*%
%TF.SameCoordinates,Original*%
%TF.FileFunction,Legend,Bot*%
%TF.FilePolarity,Positive*%
%FSLAX46Y46*%
G04 Gerber Fmt 4.6, Leading zero omitted, Abs format (unit mm)*
G04 Created by KiCad (PCBNEW 5.1.9-73d0e3b20d~88~ubuntu18.04.1) date 2021-03-13 15:22:26*
%MOMM*%
%LPD*%
G01*
G04 APERTURE LIST*
%ADD10C,0.150000*%
%ADD11C,0.300000*%
%ADD12C,0.800000*%
%ADD13C,3.000000*%
%ADD14C,0.500000*%
%ADD15C,1.000000*%
%ADD16C,3.500000*%
%ADD17C,0.400000*%
%ADD18C,0.010000*%
%ADD19C,0.120000*%
%ADD20C,0.125000*%
G04 APERTURE END LIST*
D10*
X159948476Y-89860380D02*
X160424666Y-89860380D01*
X160424666Y-88860380D01*
X159234190Y-89812761D02*
X159329428Y-89860380D01*
X159519904Y-89860380D01*
X159615142Y-89812761D01*
X159662761Y-89717523D01*
X159662761Y-89336571D01*
X159615142Y-89241333D01*
X159519904Y-89193714D01*
X159329428Y-89193714D01*
X159234190Y-89241333D01*
X159186571Y-89336571D01*
X159186571Y-89431809D01*
X159662761Y-89527047D01*
X158900857Y-89193714D02*
X158519904Y-89193714D01*
X158758000Y-89860380D02*
X158758000Y-89003238D01*
X158710380Y-88908000D01*
X158615142Y-88860380D01*
X158519904Y-88860380D01*
X158329428Y-89193714D02*
X157948476Y-89193714D01*
X158186571Y-88860380D02*
X158186571Y-89717523D01*
X158138952Y-89812761D01*
X158043714Y-89860380D01*
X157948476Y-89860380D01*
D11*
%TO.C,SW24*%
X133503125Y-114071874D02*
X133503125Y-113171875D01*
D12*
X134003125Y-116271875D02*
X134003125Y-114471876D01*
D13*
X135133125Y-112771875D02*
X135133125Y-115011875D01*
D14*
X143603125Y-114571875D02*
X142203125Y-114571875D01*
D15*
X143203125Y-111871875D02*
X143203125Y-114371875D01*
D16*
X141903125Y-113071875D02*
X135203125Y-113071875D01*
D10*
X143903125Y-114871875D02*
X143903125Y-113871875D01*
X143903125Y-113871875D02*
X143703125Y-113871875D01*
X143683125Y-113871875D02*
X143683125Y-111621875D01*
X143703125Y-111621875D02*
X143903125Y-111621875D01*
X133403125Y-114171875D02*
X133603125Y-114171875D01*
X133633125Y-114171875D02*
X133633125Y-116411875D01*
X133603125Y-116411875D02*
X133403125Y-116411875D01*
X133403125Y-116771875D02*
X133403125Y-116411875D01*
X133403125Y-113171875D02*
X133403125Y-114171875D01*
X133403125Y-116771875D02*
X136683125Y-116771875D01*
X138903125Y-114871875D02*
X143903125Y-114871875D01*
X143903125Y-111271875D02*
X135503124Y-111271875D01*
X143903125Y-111621875D02*
X143903125Y-111271875D01*
D14*
X133603125Y-116571875D02*
X136303125Y-116571875D01*
D17*
X143703125Y-111471875D02*
X142303125Y-111471875D01*
X143703125Y-113971875D02*
X143703125Y-114671875D01*
D15*
X136286807Y-116350404D02*
G75*
G02*
X138503125Y-114471875I2151318J-291471D01*
G01*
D10*
X133403125Y-113171876D02*
G75*
G02*
X135503124Y-111271875I2000000J-99999D01*
G01*
X136686807Y-116750404D02*
G75*
G02*
X138903125Y-114871875I2151318J-291471D01*
G01*
D18*
%TO.C,G\u002A\u002A\u002A*%
G36*
X166052500Y-116490750D02*
G01*
X167767000Y-116490750D01*
X167767000Y-116300250D01*
X166243000Y-116300250D01*
X166243000Y-115728750D01*
X167386000Y-115728750D01*
X167386000Y-115538250D01*
X166052500Y-115538250D01*
X166052500Y-116490750D01*
G37*
X166052500Y-116490750D02*
X167767000Y-116490750D01*
X167767000Y-116300250D01*
X166243000Y-116300250D01*
X166243000Y-115728750D01*
X167386000Y-115728750D01*
X167386000Y-115538250D01*
X166052500Y-115538250D01*
X166052500Y-116490750D01*
G36*
X165671500Y-116300250D02*
G01*
X163957000Y-116300250D01*
X163957000Y-115538250D01*
X163766500Y-115538250D01*
X163766500Y-116490750D01*
X165862000Y-116490750D01*
X165862000Y-115538250D01*
X165671500Y-115538250D01*
X165671500Y-116300250D01*
G37*
X165671500Y-116300250D02*
X163957000Y-116300250D01*
X163957000Y-115538250D01*
X163766500Y-115538250D01*
X163766500Y-116490750D01*
X165862000Y-116490750D01*
X165862000Y-115538250D01*
X165671500Y-115538250D01*
X165671500Y-116300250D01*
G36*
X161861500Y-116490750D02*
G01*
X162052000Y-116490750D01*
X162052000Y-115728750D01*
X163385500Y-115728750D01*
X163385500Y-116300250D01*
X162242500Y-116300250D01*
X162242500Y-116490750D01*
X163576000Y-116490750D01*
X163576000Y-115538250D01*
X161861500Y-115538250D01*
X161861500Y-116490750D01*
G37*
X161861500Y-116490750D02*
X162052000Y-116490750D01*
X162052000Y-115728750D01*
X163385500Y-115728750D01*
X163385500Y-116300250D01*
X162242500Y-116300250D01*
X162242500Y-116490750D01*
X163576000Y-116490750D01*
X163576000Y-115538250D01*
X161861500Y-115538250D01*
X161861500Y-116490750D01*
G36*
X161290000Y-116490750D02*
G01*
X161480500Y-116490750D01*
X161480500Y-115728750D01*
X161575750Y-115728750D01*
X161643216Y-115720882D01*
X161668082Y-115683772D01*
X161671000Y-115633500D01*
X161671000Y-115538250D01*
X161290000Y-115538250D01*
X161290000Y-116490750D01*
G37*
X161290000Y-116490750D02*
X161480500Y-116490750D01*
X161480500Y-115728750D01*
X161575750Y-115728750D01*
X161643216Y-115720882D01*
X161668082Y-115683772D01*
X161671000Y-115633500D01*
X161671000Y-115538250D01*
X161290000Y-115538250D01*
X161290000Y-116490750D01*
G36*
X160909000Y-116490750D02*
G01*
X161099500Y-116490750D01*
X161099500Y-115347750D01*
X161671000Y-115347750D01*
X161671000Y-115157250D01*
X160909000Y-115157250D01*
X160909000Y-116490750D01*
G37*
X160909000Y-116490750D02*
X161099500Y-116490750D01*
X161099500Y-115347750D01*
X161671000Y-115347750D01*
X161671000Y-115157250D01*
X160909000Y-115157250D01*
X160909000Y-116490750D01*
G36*
X160337500Y-116490750D02*
G01*
X160528000Y-116490750D01*
X160528000Y-115728750D01*
X160623250Y-115728750D01*
X160690716Y-115720882D01*
X160715582Y-115683772D01*
X160718500Y-115633500D01*
X160718500Y-115538250D01*
X160337500Y-115538250D01*
X160337500Y-116490750D01*
G37*
X160337500Y-116490750D02*
X160528000Y-116490750D01*
X160528000Y-115728750D01*
X160623250Y-115728750D01*
X160690716Y-115720882D01*
X160715582Y-115683772D01*
X160718500Y-115633500D01*
X160718500Y-115538250D01*
X160337500Y-115538250D01*
X160337500Y-116490750D01*
G36*
X159956500Y-116490750D02*
G01*
X160147000Y-116490750D01*
X160147000Y-115347750D01*
X160718500Y-115347750D01*
X160718500Y-115157250D01*
X159956500Y-115157250D01*
X159956500Y-116490750D01*
G37*
X159956500Y-116490750D02*
X160147000Y-116490750D01*
X160147000Y-115347750D01*
X160718500Y-115347750D01*
X160718500Y-115157250D01*
X159956500Y-115157250D01*
X159956500Y-116490750D01*
G36*
X158051500Y-116490750D02*
G01*
X159766000Y-116490750D01*
X159766000Y-115728750D01*
X159575500Y-115728750D01*
X159575500Y-116300250D01*
X158242000Y-116300250D01*
X158242000Y-115728750D01*
X159575500Y-115728750D01*
X159766000Y-115728750D01*
X159766000Y-115538250D01*
X158051500Y-115538250D01*
X158051500Y-116490750D01*
G37*
X158051500Y-116490750D02*
X159766000Y-116490750D01*
X159766000Y-115728750D01*
X159575500Y-115728750D01*
X159575500Y-116300250D01*
X158242000Y-116300250D01*
X158242000Y-115728750D01*
X159575500Y-115728750D01*
X159766000Y-115728750D01*
X159766000Y-115538250D01*
X158051500Y-115538250D01*
X158051500Y-116490750D01*
G36*
X157670500Y-116300250D02*
G01*
X155956000Y-116300250D01*
X155956000Y-115538250D01*
X155765500Y-115538250D01*
X155765500Y-116490750D01*
X157861000Y-116490750D01*
X157861000Y-115538250D01*
X157670500Y-115538250D01*
X157670500Y-116300250D01*
G37*
X157670500Y-116300250D02*
X155956000Y-116300250D01*
X155956000Y-115538250D01*
X155765500Y-115538250D01*
X155765500Y-116490750D01*
X157861000Y-116490750D01*
X157861000Y-115538250D01*
X157670500Y-115538250D01*
X157670500Y-116300250D01*
G36*
X155194000Y-116300250D02*
G01*
X153860500Y-116300250D01*
X153860500Y-116490750D01*
X155384500Y-116490750D01*
X155384500Y-116109750D01*
X155479750Y-116109750D01*
X155547216Y-116101882D01*
X155572082Y-116064772D01*
X155575000Y-116014500D01*
X155575000Y-115919250D01*
X155194000Y-115919250D01*
X155194000Y-116300250D01*
G37*
X155194000Y-116300250D02*
X153860500Y-116300250D01*
X153860500Y-116490750D01*
X155384500Y-116490750D01*
X155384500Y-116109750D01*
X155479750Y-116109750D01*
X155547216Y-116101882D01*
X155572082Y-116064772D01*
X155575000Y-116014500D01*
X155575000Y-115919250D01*
X155194000Y-115919250D01*
X155194000Y-116300250D01*
G36*
X151955500Y-116490750D02*
G01*
X152146000Y-116490750D01*
X152146000Y-115728750D01*
X153479500Y-115728750D01*
X153479500Y-116300250D01*
X152336500Y-116300250D01*
X152336500Y-116490750D01*
X153670000Y-116490750D01*
X153670000Y-115538250D01*
X151955500Y-115538250D01*
X151955500Y-116490750D01*
G37*
X151955500Y-116490750D02*
X152146000Y-116490750D01*
X152146000Y-115728750D01*
X153479500Y-115728750D01*
X153479500Y-116300250D01*
X152336500Y-116300250D01*
X152336500Y-116490750D01*
X153670000Y-116490750D01*
X153670000Y-115538250D01*
X151955500Y-115538250D01*
X151955500Y-116490750D01*
G36*
X151193500Y-116490750D02*
G01*
X151384000Y-116490750D01*
X151384000Y-115728750D01*
X151574500Y-115728750D01*
X151574500Y-116490750D01*
X151765000Y-116490750D01*
X151765000Y-115538250D01*
X151193500Y-115538250D01*
X151193500Y-116490750D01*
G37*
X151193500Y-116490750D02*
X151384000Y-116490750D01*
X151384000Y-115728750D01*
X151574500Y-115728750D01*
X151574500Y-116490750D01*
X151765000Y-116490750D01*
X151765000Y-115538250D01*
X151193500Y-115538250D01*
X151193500Y-116490750D01*
G36*
X150622000Y-116490750D02*
G01*
X150812500Y-116490750D01*
X150812500Y-115728750D01*
X150907750Y-115728750D01*
X150975216Y-115720882D01*
X151000082Y-115683772D01*
X151003000Y-115633500D01*
X151003000Y-115538250D01*
X150622000Y-115538250D01*
X150622000Y-116490750D01*
G37*
X150622000Y-116490750D02*
X150812500Y-116490750D01*
X150812500Y-115728750D01*
X150907750Y-115728750D01*
X150975216Y-115720882D01*
X151000082Y-115683772D01*
X151003000Y-115633500D01*
X151003000Y-115538250D01*
X150622000Y-115538250D01*
X150622000Y-116490750D01*
G36*
X150241000Y-116490750D02*
G01*
X150431500Y-116490750D01*
X150431500Y-115347750D01*
X151003000Y-115347750D01*
X151003000Y-115157250D01*
X150241000Y-115157250D01*
X150241000Y-116490750D01*
G37*
X150241000Y-116490750D02*
X150431500Y-116490750D01*
X150431500Y-115347750D01*
X151003000Y-115347750D01*
X151003000Y-115157250D01*
X150241000Y-115157250D01*
X150241000Y-116490750D01*
G36*
X166052500Y-115347750D02*
G01*
X167576500Y-115347750D01*
X167576500Y-115919250D01*
X166433500Y-115919250D01*
X166433500Y-116109750D01*
X167767000Y-116109750D01*
X167767000Y-115157250D01*
X166052500Y-115157250D01*
X166052500Y-115347750D01*
G37*
X166052500Y-115347750D02*
X167576500Y-115347750D01*
X167576500Y-115919250D01*
X166433500Y-115919250D01*
X166433500Y-116109750D01*
X167767000Y-116109750D01*
X167767000Y-115157250D01*
X166052500Y-115157250D01*
X166052500Y-115347750D01*
G36*
X165290500Y-115919250D02*
G01*
X165100000Y-115919250D01*
X165100000Y-115538250D01*
X164909500Y-115538250D01*
X164909500Y-116109750D01*
X165481000Y-116109750D01*
X165481000Y-115538250D01*
X165290500Y-115538250D01*
X165290500Y-115919250D01*
G37*
X165290500Y-115919250D02*
X165100000Y-115919250D01*
X165100000Y-115538250D01*
X164909500Y-115538250D01*
X164909500Y-116109750D01*
X165481000Y-116109750D01*
X165481000Y-115538250D01*
X165290500Y-115538250D01*
X165290500Y-115919250D01*
G36*
X164528500Y-115919250D02*
G01*
X164338000Y-115919250D01*
X164338000Y-115538250D01*
X164147500Y-115538250D01*
X164147500Y-116109750D01*
X164719000Y-116109750D01*
X164719000Y-115538250D01*
X164528500Y-115538250D01*
X164528500Y-115919250D01*
G37*
X164528500Y-115919250D02*
X164338000Y-115919250D01*
X164338000Y-115538250D01*
X164147500Y-115538250D01*
X164147500Y-116109750D01*
X164719000Y-116109750D01*
X164719000Y-115538250D01*
X164528500Y-115538250D01*
X164528500Y-115919250D01*
G36*
X162242500Y-116109750D02*
G01*
X163195000Y-116109750D01*
X163195000Y-115919250D01*
X162242500Y-115919250D01*
X162242500Y-116109750D01*
G37*
X162242500Y-116109750D02*
X163195000Y-116109750D01*
X163195000Y-115919250D01*
X162242500Y-115919250D01*
X162242500Y-116109750D01*
G36*
X157289500Y-115919250D02*
G01*
X157099000Y-115919250D01*
X157099000Y-115538250D01*
X156908500Y-115538250D01*
X156908500Y-116109750D01*
X157480000Y-116109750D01*
X157480000Y-115538250D01*
X157289500Y-115538250D01*
X157289500Y-115919250D01*
G37*
X157289500Y-115919250D02*
X157099000Y-115919250D01*
X157099000Y-115538250D01*
X156908500Y-115538250D01*
X156908500Y-116109750D01*
X157480000Y-116109750D01*
X157480000Y-115538250D01*
X157289500Y-115538250D01*
X157289500Y-115919250D01*
G36*
X156527500Y-115919250D02*
G01*
X156337000Y-115919250D01*
X156337000Y-115538250D01*
X156146500Y-115538250D01*
X156146500Y-116109750D01*
X156718000Y-116109750D01*
X156718000Y-115538250D01*
X156527500Y-115538250D01*
X156527500Y-115919250D01*
G37*
X156527500Y-115919250D02*
X156337000Y-115919250D01*
X156337000Y-115538250D01*
X156146500Y-115538250D01*
X156146500Y-116109750D01*
X156718000Y-116109750D01*
X156718000Y-115538250D01*
X156527500Y-115538250D01*
X156527500Y-115919250D01*
G36*
X153860500Y-116109750D02*
G01*
X155003500Y-116109750D01*
X155003500Y-115919250D01*
X153860500Y-115919250D01*
X153860500Y-116109750D01*
G37*
X153860500Y-116109750D02*
X155003500Y-116109750D01*
X155003500Y-115919250D01*
X153860500Y-115919250D01*
X153860500Y-116109750D01*
G36*
X152336500Y-116109750D02*
G01*
X153289000Y-116109750D01*
X153289000Y-115919250D01*
X152336500Y-115919250D01*
X152336500Y-116109750D01*
G37*
X152336500Y-116109750D02*
X153289000Y-116109750D01*
X153289000Y-115919250D01*
X152336500Y-115919250D01*
X152336500Y-116109750D01*
G36*
X155194000Y-115728750D02*
G01*
X155575000Y-115728750D01*
X155575000Y-115633500D01*
X155567133Y-115566034D01*
X155530023Y-115541168D01*
X155479750Y-115538250D01*
X155384500Y-115538250D01*
X155384500Y-115157250D01*
X155194000Y-115157250D01*
X155194000Y-115728750D01*
G37*
X155194000Y-115728750D02*
X155575000Y-115728750D01*
X155575000Y-115633500D01*
X155567133Y-115566034D01*
X155530023Y-115541168D01*
X155479750Y-115538250D01*
X155384500Y-115538250D01*
X155384500Y-115157250D01*
X155194000Y-115157250D01*
X155194000Y-115728750D01*
G36*
X154813000Y-115538250D02*
G01*
X153860500Y-115538250D01*
X153860500Y-115728750D01*
X155003500Y-115728750D01*
X155003500Y-115157250D01*
X154813000Y-115157250D01*
X154813000Y-115538250D01*
G37*
X154813000Y-115538250D02*
X153860500Y-115538250D01*
X153860500Y-115728750D01*
X155003500Y-115728750D01*
X155003500Y-115157250D01*
X154813000Y-115157250D01*
X154813000Y-115538250D01*
G36*
X151193500Y-115347750D02*
G01*
X151765000Y-115347750D01*
X151765000Y-115157250D01*
X151193500Y-115157250D01*
X151193500Y-115347750D01*
G37*
X151193500Y-115347750D02*
X151765000Y-115347750D01*
X151765000Y-115157250D01*
X151193500Y-115157250D01*
X151193500Y-115347750D01*
G36*
X158432500Y-116109750D02*
G01*
X159385000Y-116109750D01*
X159385000Y-115919250D01*
X158432500Y-115919250D01*
X158432500Y-116109750D01*
G37*
X158432500Y-116109750D02*
X159385000Y-116109750D01*
X159385000Y-115919250D01*
X158432500Y-115919250D01*
X158432500Y-116109750D01*
D10*
%TO.C,D1*%
X44553125Y-52887500D02*
X44553125Y-51887500D01*
X44553125Y-51887500D02*
X43653125Y-52387500D01*
X43653125Y-52387500D02*
X44553125Y-52887500D01*
X43553125Y-52887500D02*
X43553125Y-51887500D01*
%TO.C,D2*%
X63603125Y-52887500D02*
X63603125Y-51887500D01*
X63603125Y-51887500D02*
X62703125Y-52387500D01*
X62703125Y-52387500D02*
X63603125Y-52887500D01*
X62603125Y-52887500D02*
X62603125Y-51887500D01*
%TO.C,D3*%
X82653125Y-48125000D02*
X82653125Y-47125000D01*
X82653125Y-47125000D02*
X81753125Y-47625000D01*
X81753125Y-47625000D02*
X82653125Y-48125000D01*
X81653125Y-48125000D02*
X81653125Y-47125000D01*
%TO.C,D4*%
X101703125Y-45743750D02*
X101703125Y-44743750D01*
X101703125Y-44743750D02*
X100803125Y-45243750D01*
X100803125Y-45243750D02*
X101703125Y-45743750D01*
X100703125Y-45743750D02*
X100703125Y-44743750D01*
%TO.C,D5*%
X120753125Y-50506250D02*
X120753125Y-49506250D01*
X120753125Y-49506250D02*
X119853125Y-50006250D01*
X119853125Y-50006250D02*
X120753125Y-50506250D01*
X119753125Y-50506250D02*
X119753125Y-49506250D01*
%TO.C,D6*%
X139803125Y-52887500D02*
X139803125Y-51887500D01*
X139803125Y-51887500D02*
X138903125Y-52387500D01*
X138903125Y-52387500D02*
X139803125Y-52887500D01*
X138803125Y-52887500D02*
X138803125Y-51887500D01*
%TO.C,D7*%
X44553125Y-71937500D02*
X44553125Y-70937500D01*
X44553125Y-70937500D02*
X43653125Y-71437500D01*
X43653125Y-71437500D02*
X44553125Y-71937500D01*
X43553125Y-71937500D02*
X43553125Y-70937500D01*
%TO.C,D8*%
X63603125Y-71937500D02*
X63603125Y-70937500D01*
X63603125Y-70937500D02*
X62703125Y-71437500D01*
X62703125Y-71437500D02*
X63603125Y-71937500D01*
X62603125Y-71937500D02*
X62603125Y-70937500D01*
%TO.C,D9*%
X83259375Y-67175000D02*
X83259375Y-66175000D01*
X83259375Y-66175000D02*
X82359375Y-66675000D01*
X82359375Y-66675000D02*
X83259375Y-67175000D01*
X82259375Y-67175000D02*
X82259375Y-66175000D01*
%TO.C,D10*%
X101703125Y-64793750D02*
X101703125Y-63793750D01*
X101703125Y-63793750D02*
X100803125Y-64293750D01*
X100803125Y-64293750D02*
X101703125Y-64793750D01*
X100703125Y-64793750D02*
X100703125Y-63793750D01*
%TO.C,D11*%
X120753125Y-69556250D02*
X120753125Y-68556250D01*
X120753125Y-68556250D02*
X119853125Y-69056250D01*
X119853125Y-69056250D02*
X120753125Y-69556250D01*
X119753125Y-69556250D02*
X119753125Y-68556250D01*
%TO.C,D12*%
X139803125Y-71937500D02*
X139803125Y-70937500D01*
X139803125Y-70937500D02*
X138903125Y-71437500D01*
X138903125Y-71437500D02*
X139803125Y-71937500D01*
X138803125Y-71937500D02*
X138803125Y-70937500D01*
%TO.C,D13*%
X44553125Y-90987500D02*
X44553125Y-89987500D01*
X44553125Y-89987500D02*
X43653125Y-90487500D01*
X43653125Y-90487500D02*
X44553125Y-90987500D01*
X43553125Y-90987500D02*
X43553125Y-89987500D01*
%TO.C,D14*%
X63603125Y-90987500D02*
X63603125Y-89987500D01*
X63603125Y-89987500D02*
X62703125Y-90487500D01*
X62703125Y-90487500D02*
X63603125Y-90987500D01*
X62603125Y-90987500D02*
X62603125Y-89987500D01*
%TO.C,D15*%
X82653125Y-86225000D02*
X82653125Y-85225000D01*
X82653125Y-85225000D02*
X81753125Y-85725000D01*
X81753125Y-85725000D02*
X82653125Y-86225000D01*
X81653125Y-86225000D02*
X81653125Y-85225000D01*
%TO.C,D16*%
X101703125Y-83843750D02*
X101703125Y-82843750D01*
X101703125Y-82843750D02*
X100803125Y-83343750D01*
X100803125Y-83343750D02*
X101703125Y-83843750D01*
X100703125Y-83843750D02*
X100703125Y-82843750D01*
%TO.C,D17*%
X120753125Y-88606250D02*
X120753125Y-87606250D01*
X120753125Y-87606250D02*
X119853125Y-88106250D01*
X119853125Y-88106250D02*
X120753125Y-88606250D01*
X119753125Y-88606250D02*
X119753125Y-87606250D01*
%TO.C,D18*%
X139803125Y-90987500D02*
X139803125Y-89987500D01*
X139803125Y-89987500D02*
X138903125Y-90487500D01*
X138903125Y-90487500D02*
X139803125Y-90987500D01*
X138803125Y-90987500D02*
X138803125Y-89987500D01*
%TO.C,D19*%
X44553125Y-110037500D02*
X44553125Y-109037500D01*
X44553125Y-109037500D02*
X43653125Y-109537500D01*
X43653125Y-109537500D02*
X44553125Y-110037500D01*
X43553125Y-110037500D02*
X43553125Y-109037500D01*
%TO.C,D20*%
X63603125Y-110037500D02*
X63603125Y-109037500D01*
X63603125Y-109037500D02*
X62703125Y-109537500D01*
X62703125Y-109537500D02*
X63603125Y-110037500D01*
X62603125Y-110037500D02*
X62603125Y-109037500D01*
%TO.C,D21*%
X82653125Y-105275000D02*
X82653125Y-104275000D01*
X82653125Y-104275000D02*
X81753125Y-104775000D01*
X81753125Y-104775000D02*
X82653125Y-105275000D01*
X81653125Y-105275000D02*
X81653125Y-104275000D01*
%TO.C,D22*%
X101703125Y-102893750D02*
X101703125Y-101893750D01*
X101703125Y-101893750D02*
X100803125Y-102393750D01*
X100803125Y-102393750D02*
X101703125Y-102893750D01*
X100703125Y-102893750D02*
X100703125Y-101893750D01*
%TO.C,D23*%
X120753125Y-107656250D02*
X120753125Y-106656250D01*
X120753125Y-106656250D02*
X119853125Y-107156250D01*
X119853125Y-107156250D02*
X120753125Y-107656250D01*
X119753125Y-107656250D02*
X119753125Y-106656250D01*
%TO.C,D24*%
X139803125Y-110037500D02*
X139803125Y-109037500D01*
X139803125Y-109037500D02*
X138903125Y-109537500D01*
X138903125Y-109537500D02*
X139803125Y-110037500D01*
X138803125Y-110037500D02*
X138803125Y-109037500D01*
%TO.C,D25*%
X44553125Y-129087500D02*
X44553125Y-128087500D01*
X44553125Y-128087500D02*
X43653125Y-128587500D01*
X43653125Y-128587500D02*
X44553125Y-129087500D01*
X43553125Y-129087500D02*
X43553125Y-128087500D01*
%TO.C,D26*%
X63603125Y-129087500D02*
X63603125Y-128087500D01*
X63603125Y-128087500D02*
X62703125Y-128587500D01*
X62703125Y-128587500D02*
X63603125Y-129087500D01*
X62603125Y-129087500D02*
X62603125Y-128087500D01*
%TO.C,D27*%
X82653125Y-124325000D02*
X82653125Y-123325000D01*
X82653125Y-123325000D02*
X81753125Y-123825000D01*
X81753125Y-123825000D02*
X82653125Y-124325000D01*
X81653125Y-124325000D02*
X81653125Y-123325000D01*
%TO.C,D28*%
X101703125Y-121943750D02*
X101703125Y-120943750D01*
X101703125Y-120943750D02*
X100803125Y-121443750D01*
X100803125Y-121443750D02*
X101703125Y-121943750D01*
X100703125Y-121943750D02*
X100703125Y-120943750D01*
%TO.C,D29*%
X120753125Y-126706250D02*
X120753125Y-125706250D01*
X120753125Y-125706250D02*
X119853125Y-126206250D01*
X119853125Y-126206250D02*
X120753125Y-126706250D01*
X119753125Y-126706250D02*
X119753125Y-125706250D01*
%TO.C,D30*%
X139803125Y-129087500D02*
X139803125Y-128087500D01*
X139803125Y-128087500D02*
X138903125Y-128587500D01*
X138903125Y-128587500D02*
X139803125Y-129087500D01*
X138803125Y-129087500D02*
X138803125Y-128087500D01*
D19*
%TO.C,LED1*%
X47953125Y-65734375D02*
X47953125Y-67334375D01*
X47953125Y-67334375D02*
X40153125Y-67334375D01*
X40153125Y-63634375D02*
X47953125Y-63634375D01*
%TO.C,LED2*%
X67003125Y-65734375D02*
X67003125Y-67334375D01*
X67003125Y-67334375D02*
X59203125Y-67334375D01*
X59203125Y-63634375D02*
X67003125Y-63634375D01*
%TO.C,LED3*%
X86053125Y-60971875D02*
X86053125Y-62571875D01*
X86053125Y-62571875D02*
X78253125Y-62571875D01*
X78253125Y-58871875D02*
X86053125Y-58871875D01*
%TO.C,LED4*%
X105103125Y-58590625D02*
X105103125Y-60190625D01*
X105103125Y-60190625D02*
X97303125Y-60190625D01*
X97303125Y-56490625D02*
X105103125Y-56490625D01*
%TO.C,LED5*%
X124153125Y-63353125D02*
X124153125Y-64953125D01*
X124153125Y-64953125D02*
X116353125Y-64953125D01*
X116353125Y-61253125D02*
X124153125Y-61253125D01*
%TO.C,LED6*%
X143203125Y-65734375D02*
X143203125Y-67334375D01*
X143203125Y-67334375D02*
X135403125Y-67334375D01*
X135403125Y-63634375D02*
X143203125Y-63634375D01*
%TO.C,LED7*%
X47953125Y-84784375D02*
X47953125Y-86384375D01*
X47953125Y-86384375D02*
X40153125Y-86384375D01*
X40153125Y-82684375D02*
X47953125Y-82684375D01*
%TO.C,LED8*%
X67003125Y-84784375D02*
X67003125Y-86384375D01*
X67003125Y-86384375D02*
X59203125Y-86384375D01*
X59203125Y-82684375D02*
X67003125Y-82684375D01*
%TO.C,LED9*%
X86053125Y-80021875D02*
X86053125Y-81621875D01*
X86053125Y-81621875D02*
X78253125Y-81621875D01*
X78253125Y-77921875D02*
X86053125Y-77921875D01*
%TO.C,LED10*%
X105103125Y-77640625D02*
X105103125Y-79240625D01*
X105103125Y-79240625D02*
X97303125Y-79240625D01*
X97303125Y-75540625D02*
X105103125Y-75540625D01*
%TO.C,LED11*%
X124153125Y-82403125D02*
X124153125Y-84003125D01*
X124153125Y-84003125D02*
X116353125Y-84003125D01*
X116353125Y-80303125D02*
X124153125Y-80303125D01*
%TO.C,LED12*%
X143203125Y-84784375D02*
X143203125Y-86384375D01*
X143203125Y-86384375D02*
X135403125Y-86384375D01*
X135403125Y-82684375D02*
X143203125Y-82684375D01*
%TO.C,LED13*%
X47953125Y-103834375D02*
X47953125Y-105434375D01*
X47953125Y-105434375D02*
X40153125Y-105434375D01*
X40153125Y-101734375D02*
X47953125Y-101734375D01*
%TO.C,LED14*%
X67003125Y-103834375D02*
X67003125Y-105434375D01*
X67003125Y-105434375D02*
X59203125Y-105434375D01*
X59203125Y-101734375D02*
X67003125Y-101734375D01*
%TO.C,LED15*%
X86053125Y-99071875D02*
X86053125Y-100671875D01*
X86053125Y-100671875D02*
X78253125Y-100671875D01*
X78253125Y-96971875D02*
X86053125Y-96971875D01*
%TO.C,LED16*%
X105103125Y-96690625D02*
X105103125Y-98290625D01*
X105103125Y-98290625D02*
X97303125Y-98290625D01*
X97303125Y-94590625D02*
X105103125Y-94590625D01*
%TO.C,LED17*%
X124153125Y-101453125D02*
X124153125Y-103053125D01*
X124153125Y-103053125D02*
X116353125Y-103053125D01*
X116353125Y-99353125D02*
X124153125Y-99353125D01*
%TO.C,LED18*%
X143203125Y-103834375D02*
X143203125Y-105434375D01*
X143203125Y-105434375D02*
X135403125Y-105434375D01*
X135403125Y-101734375D02*
X143203125Y-101734375D01*
%TO.C,LED19*%
X47953125Y-122884375D02*
X47953125Y-124484375D01*
X47953125Y-124484375D02*
X40153125Y-124484375D01*
X40153125Y-120784375D02*
X47953125Y-120784375D01*
%TO.C,LED20*%
X67003125Y-122884375D02*
X67003125Y-124484375D01*
X67003125Y-124484375D02*
X59203125Y-124484375D01*
X59203125Y-120784375D02*
X67003125Y-120784375D01*
%TO.C,LED21*%
X86053125Y-118121875D02*
X86053125Y-119721875D01*
X86053125Y-119721875D02*
X78253125Y-119721875D01*
X78253125Y-116021875D02*
X86053125Y-116021875D01*
%TO.C,LED22*%
X105103125Y-115740625D02*
X105103125Y-117340625D01*
X105103125Y-117340625D02*
X97303125Y-117340625D01*
X97303125Y-113640625D02*
X105103125Y-113640625D01*
%TO.C,LED23*%
X124153125Y-120503125D02*
X124153125Y-122103125D01*
X124153125Y-122103125D02*
X116353125Y-122103125D01*
X116353125Y-118403125D02*
X124153125Y-118403125D01*
%TO.C,LED24*%
X143203125Y-122884375D02*
X143203125Y-124484375D01*
X143203125Y-124484375D02*
X135403125Y-124484375D01*
X135403125Y-120784375D02*
X143203125Y-120784375D01*
%TO.C,LED25*%
X47953125Y-141934375D02*
X47953125Y-143534375D01*
X47953125Y-143534375D02*
X40153125Y-143534375D01*
X40153125Y-139834375D02*
X47953125Y-139834375D01*
%TO.C,LED26*%
X67003125Y-141934375D02*
X67003125Y-143534375D01*
X67003125Y-143534375D02*
X59203125Y-143534375D01*
X59203125Y-139834375D02*
X67003125Y-139834375D01*
%TO.C,LED27*%
X86053125Y-137171875D02*
X86053125Y-138771875D01*
X86053125Y-138771875D02*
X78253125Y-138771875D01*
X78253125Y-135071875D02*
X86053125Y-135071875D01*
%TO.C,LED28*%
X105103125Y-134790625D02*
X105103125Y-136390625D01*
X105103125Y-136390625D02*
X97303125Y-136390625D01*
X97303125Y-132690625D02*
X105103125Y-132690625D01*
%TO.C,LED29*%
X124153125Y-139553125D02*
X124153125Y-141153125D01*
X124153125Y-141153125D02*
X116353125Y-141153125D01*
X116353125Y-137453125D02*
X124153125Y-137453125D01*
%TO.C,LED30*%
X134290625Y-145584375D02*
X132690625Y-145584375D01*
X132690625Y-145584375D02*
X132690625Y-137784375D01*
X136390625Y-137784375D02*
X136390625Y-145584375D01*
D11*
%TO.C,SW29*%
X114453125Y-130740624D02*
X114453125Y-129840625D01*
D12*
X114953125Y-132940625D02*
X114953125Y-131140626D01*
D13*
X116083125Y-129440625D02*
X116083125Y-131680625D01*
D14*
X124553125Y-131240625D02*
X123153125Y-131240625D01*
D15*
X124153125Y-128540625D02*
X124153125Y-131040625D01*
D16*
X122853125Y-129740625D02*
X116153125Y-129740625D01*
D10*
X124853125Y-131540625D02*
X124853125Y-130540625D01*
X124853125Y-130540625D02*
X124653125Y-130540625D01*
X124633125Y-130540625D02*
X124633125Y-128290625D01*
X124653125Y-128290625D02*
X124853125Y-128290625D01*
X114353125Y-130840625D02*
X114553125Y-130840625D01*
X114583125Y-130840625D02*
X114583125Y-133080625D01*
X114553125Y-133080625D02*
X114353125Y-133080625D01*
X114353125Y-133440625D02*
X114353125Y-133080625D01*
X114353125Y-129840625D02*
X114353125Y-130840625D01*
X114353125Y-133440625D02*
X117633125Y-133440625D01*
X119853125Y-131540625D02*
X124853125Y-131540625D01*
X124853125Y-127940625D02*
X116453124Y-127940625D01*
X124853125Y-128290625D02*
X124853125Y-127940625D01*
D14*
X114553125Y-133240625D02*
X117253125Y-133240625D01*
D17*
X124653125Y-128140625D02*
X123253125Y-128140625D01*
X124653125Y-130640625D02*
X124653125Y-131340625D01*
D15*
X117236807Y-133019154D02*
G75*
G02*
X119453125Y-131140625I2151318J-291471D01*
G01*
D10*
X114353125Y-129840626D02*
G75*
G02*
X116453124Y-127940625I2000000J-99999D01*
G01*
X117636807Y-133419154D02*
G75*
G02*
X119853125Y-131540625I2151318J-291471D01*
G01*
D11*
%TO.C,SW4*%
X95403125Y-49778124D02*
X95403125Y-48878125D01*
D12*
X95903125Y-51978125D02*
X95903125Y-50178126D01*
D13*
X97033125Y-48478125D02*
X97033125Y-50718125D01*
D14*
X105503125Y-50278125D02*
X104103125Y-50278125D01*
D15*
X105103125Y-47578125D02*
X105103125Y-50078125D01*
D16*
X103803125Y-48778125D02*
X97103125Y-48778125D01*
D10*
X105803125Y-50578125D02*
X105803125Y-49578125D01*
X105803125Y-49578125D02*
X105603125Y-49578125D01*
X105583125Y-49578125D02*
X105583125Y-47328125D01*
X105603125Y-47328125D02*
X105803125Y-47328125D01*
X95303125Y-49878125D02*
X95503125Y-49878125D01*
X95533125Y-49878125D02*
X95533125Y-52118125D01*
X95503125Y-52118125D02*
X95303125Y-52118125D01*
X95303125Y-52478125D02*
X95303125Y-52118125D01*
X95303125Y-48878125D02*
X95303125Y-49878125D01*
X95303125Y-52478125D02*
X98583125Y-52478125D01*
X100803125Y-50578125D02*
X105803125Y-50578125D01*
X105803125Y-46978125D02*
X97403124Y-46978125D01*
X105803125Y-47328125D02*
X105803125Y-46978125D01*
D14*
X95503125Y-52278125D02*
X98203125Y-52278125D01*
D17*
X105603125Y-47178125D02*
X104203125Y-47178125D01*
X105603125Y-49678125D02*
X105603125Y-50378125D01*
D15*
X98186807Y-52056654D02*
G75*
G02*
X100403125Y-50178125I2151318J-291471D01*
G01*
D10*
X95303125Y-48878126D02*
G75*
G02*
X97403124Y-46978125I2000000J-99999D01*
G01*
X98586807Y-52456654D02*
G75*
G02*
X100803125Y-50578125I2151318J-291471D01*
G01*
D11*
%TO.C,SW30*%
X143103126Y-135884375D02*
X144003125Y-135884375D01*
D12*
X140903125Y-136384375D02*
X142703124Y-136384375D01*
D13*
X144403125Y-137514375D02*
X142163125Y-137514375D01*
D14*
X142603125Y-145984375D02*
X142603125Y-144584375D01*
D15*
X145303125Y-145584375D02*
X142803125Y-145584375D01*
D16*
X144103125Y-144284375D02*
X144103125Y-137584375D01*
D10*
X142303125Y-146284375D02*
X143303125Y-146284375D01*
X143303125Y-146284375D02*
X143303125Y-146084375D01*
X143303125Y-146064375D02*
X145553125Y-146064375D01*
X145553125Y-146084375D02*
X145553125Y-146284375D01*
X143003125Y-135784375D02*
X143003125Y-135984375D01*
X143003125Y-136014375D02*
X140763125Y-136014375D01*
X140763125Y-135984375D02*
X140763125Y-135784375D01*
X140403125Y-135784375D02*
X140763125Y-135784375D01*
X144003125Y-135784375D02*
X143003125Y-135784375D01*
X140403125Y-135784375D02*
X140403125Y-139064375D01*
X142303125Y-141284375D02*
X142303125Y-146284375D01*
X145903125Y-146284375D02*
X145903125Y-137884374D01*
X145553125Y-146284375D02*
X145903125Y-146284375D01*
D14*
X140603125Y-135984375D02*
X140603125Y-138684375D01*
D17*
X145703125Y-146084375D02*
X145703125Y-144684375D01*
X143203125Y-146084375D02*
X142503125Y-146084375D01*
D15*
X140824596Y-138668057D02*
G75*
G02*
X142703125Y-140884375I-291471J-2151318D01*
G01*
D10*
X144003124Y-135784375D02*
G75*
G02*
X145903125Y-137884374I-99999J-2000000D01*
G01*
X140424596Y-139068057D02*
G75*
G02*
X142303125Y-141284375I-291471J-2151318D01*
G01*
D11*
%TO.C,SW25*%
X38253125Y-133121874D02*
X38253125Y-132221875D01*
D12*
X38753125Y-135321875D02*
X38753125Y-133521876D01*
D13*
X39883125Y-131821875D02*
X39883125Y-134061875D01*
D14*
X48353125Y-133621875D02*
X46953125Y-133621875D01*
D15*
X47953125Y-130921875D02*
X47953125Y-133421875D01*
D16*
X46653125Y-132121875D02*
X39953125Y-132121875D01*
D10*
X48653125Y-133921875D02*
X48653125Y-132921875D01*
X48653125Y-132921875D02*
X48453125Y-132921875D01*
X48433125Y-132921875D02*
X48433125Y-130671875D01*
X48453125Y-130671875D02*
X48653125Y-130671875D01*
X38153125Y-133221875D02*
X38353125Y-133221875D01*
X38383125Y-133221875D02*
X38383125Y-135461875D01*
X38353125Y-135461875D02*
X38153125Y-135461875D01*
X38153125Y-135821875D02*
X38153125Y-135461875D01*
X38153125Y-132221875D02*
X38153125Y-133221875D01*
X38153125Y-135821875D02*
X41433125Y-135821875D01*
X43653125Y-133921875D02*
X48653125Y-133921875D01*
X48653125Y-130321875D02*
X40253124Y-130321875D01*
X48653125Y-130671875D02*
X48653125Y-130321875D01*
D14*
X38353125Y-135621875D02*
X41053125Y-135621875D01*
D17*
X48453125Y-130521875D02*
X47053125Y-130521875D01*
X48453125Y-133021875D02*
X48453125Y-133721875D01*
D15*
X41036807Y-135400404D02*
G75*
G02*
X43253125Y-133521875I2151318J-291471D01*
G01*
D10*
X38153125Y-132221876D02*
G75*
G02*
X40253124Y-130321875I2000000J-99999D01*
G01*
X41436807Y-135800404D02*
G75*
G02*
X43653125Y-133921875I2151318J-291471D01*
G01*
%TO.C,J1*%
X168846500Y-101787135D02*
X168846500Y-107787135D01*
X168846500Y-107787135D02*
X156846500Y-107787135D01*
X156846500Y-107787135D02*
X156846500Y-101787135D01*
X156846500Y-101787135D02*
X168846500Y-101787135D01*
%TO.C,J2*%
X153987500Y-98917135D02*
X153987500Y-96377135D01*
X164147500Y-98917135D02*
X153987500Y-98917135D01*
X164147500Y-96377135D02*
X164147500Y-98917135D01*
X153987500Y-96377135D02*
X164147500Y-96377135D01*
%TO.C,JP1*%
X160210500Y-90408135D02*
X157924500Y-90408135D01*
X157924500Y-90408135D02*
X157924500Y-92186135D01*
X157924500Y-92186135D02*
X160210500Y-92186135D01*
X160210500Y-92186135D02*
X160210500Y-90408135D01*
%TO.C,JP3*%
X161988500Y-95615135D02*
X163766500Y-95615135D01*
X161988500Y-93329135D02*
X161988500Y-95615135D01*
X163766500Y-93329135D02*
X161988500Y-93329135D01*
X163766500Y-95615135D02*
X163766500Y-93329135D01*
%TO.C,JP4*%
X161226500Y-95615135D02*
X161226500Y-93329135D01*
X161226500Y-93329135D02*
X159448500Y-93329135D01*
X159448500Y-93329135D02*
X159448500Y-95615135D01*
X159448500Y-95615135D02*
X161226500Y-95615135D01*
%TO.C,JP5*%
X156908500Y-95615135D02*
X158686500Y-95615135D01*
X156908500Y-93329135D02*
X156908500Y-95615135D01*
X158686500Y-93329135D02*
X156908500Y-93329135D01*
X158686500Y-95615135D02*
X158686500Y-93329135D01*
%TO.C,JP6*%
X156146500Y-95615135D02*
X156146500Y-93329135D01*
X156146500Y-93329135D02*
X154368500Y-93329135D01*
X154368500Y-93329135D02*
X154368500Y-95615135D01*
X154368500Y-95615135D02*
X156146500Y-95615135D01*
%TO.C,RSW1*%
X162246500Y-110740260D02*
X162246500Y-110990260D01*
X156246500Y-110740260D02*
X162246500Y-110740260D01*
X156246500Y-110990260D02*
X156246500Y-110740260D01*
X156246500Y-114240260D02*
X156246500Y-113990260D01*
X162246500Y-114240260D02*
X156246500Y-114240260D01*
X162246500Y-113990260D02*
X162246500Y-114240260D01*
D11*
%TO.C,SW1*%
X38253125Y-56921874D02*
X38253125Y-56021875D01*
D12*
X38753125Y-59121875D02*
X38753125Y-57321876D01*
D13*
X39883125Y-55621875D02*
X39883125Y-57861875D01*
D14*
X48353125Y-57421875D02*
X46953125Y-57421875D01*
D15*
X47953125Y-54721875D02*
X47953125Y-57221875D01*
D16*
X46653125Y-55921875D02*
X39953125Y-55921875D01*
D10*
X48653125Y-57721875D02*
X48653125Y-56721875D01*
X48653125Y-56721875D02*
X48453125Y-56721875D01*
X48433125Y-56721875D02*
X48433125Y-54471875D01*
X48453125Y-54471875D02*
X48653125Y-54471875D01*
X38153125Y-57021875D02*
X38353125Y-57021875D01*
X38383125Y-57021875D02*
X38383125Y-59261875D01*
X38353125Y-59261875D02*
X38153125Y-59261875D01*
X38153125Y-59621875D02*
X38153125Y-59261875D01*
X38153125Y-56021875D02*
X38153125Y-57021875D01*
X38153125Y-59621875D02*
X41433125Y-59621875D01*
X43653125Y-57721875D02*
X48653125Y-57721875D01*
X48653125Y-54121875D02*
X40253124Y-54121875D01*
X48653125Y-54471875D02*
X48653125Y-54121875D01*
D14*
X38353125Y-59421875D02*
X41053125Y-59421875D01*
D17*
X48453125Y-54321875D02*
X47053125Y-54321875D01*
X48453125Y-56821875D02*
X48453125Y-57521875D01*
D15*
X41036807Y-59200404D02*
G75*
G02*
X43253125Y-57321875I2151318J-291471D01*
G01*
D10*
X38153125Y-56021876D02*
G75*
G02*
X40253124Y-54121875I2000000J-99999D01*
G01*
X41436807Y-59600404D02*
G75*
G02*
X43653125Y-57721875I2151318J-291471D01*
G01*
D17*
%TO.C,SW2*%
X67503125Y-56821875D02*
X67503125Y-57521875D01*
X67503125Y-54321875D02*
X66103125Y-54321875D01*
D14*
X57403125Y-59421875D02*
X60103125Y-59421875D01*
D10*
X67703125Y-54471875D02*
X67703125Y-54121875D01*
X67703125Y-54121875D02*
X59303124Y-54121875D01*
X62703125Y-57721875D02*
X67703125Y-57721875D01*
X57203125Y-59621875D02*
X60483125Y-59621875D01*
X57203125Y-56021875D02*
X57203125Y-57021875D01*
X57203125Y-59621875D02*
X57203125Y-59261875D01*
X57403125Y-59261875D02*
X57203125Y-59261875D01*
X57433125Y-57021875D02*
X57433125Y-59261875D01*
X57203125Y-57021875D02*
X57403125Y-57021875D01*
X67503125Y-54471875D02*
X67703125Y-54471875D01*
X67483125Y-56721875D02*
X67483125Y-54471875D01*
X67703125Y-56721875D02*
X67503125Y-56721875D01*
X67703125Y-57721875D02*
X67703125Y-56721875D01*
D16*
X65703125Y-55921875D02*
X59003125Y-55921875D01*
D15*
X67003125Y-54721875D02*
X67003125Y-57221875D01*
D14*
X67403125Y-57421875D02*
X66003125Y-57421875D01*
D13*
X58933125Y-55621875D02*
X58933125Y-57861875D01*
D12*
X57803125Y-59121875D02*
X57803125Y-57321876D01*
D11*
X57303125Y-56921874D02*
X57303125Y-56021875D01*
D10*
X60486807Y-59600404D02*
G75*
G02*
X62703125Y-57721875I2151318J-291471D01*
G01*
X57203125Y-56021876D02*
G75*
G02*
X59303124Y-54121875I2000000J-99999D01*
G01*
D15*
X60086807Y-59200404D02*
G75*
G02*
X62303125Y-57321875I2151318J-291471D01*
G01*
D17*
%TO.C,SW3*%
X86553125Y-52059375D02*
X86553125Y-52759375D01*
X86553125Y-49559375D02*
X85153125Y-49559375D01*
D14*
X76453125Y-54659375D02*
X79153125Y-54659375D01*
D10*
X86753125Y-49709375D02*
X86753125Y-49359375D01*
X86753125Y-49359375D02*
X78353124Y-49359375D01*
X81753125Y-52959375D02*
X86753125Y-52959375D01*
X76253125Y-54859375D02*
X79533125Y-54859375D01*
X76253125Y-51259375D02*
X76253125Y-52259375D01*
X76253125Y-54859375D02*
X76253125Y-54499375D01*
X76453125Y-54499375D02*
X76253125Y-54499375D01*
X76483125Y-52259375D02*
X76483125Y-54499375D01*
X76253125Y-52259375D02*
X76453125Y-52259375D01*
X86553125Y-49709375D02*
X86753125Y-49709375D01*
X86533125Y-51959375D02*
X86533125Y-49709375D01*
X86753125Y-51959375D02*
X86553125Y-51959375D01*
X86753125Y-52959375D02*
X86753125Y-51959375D01*
D16*
X84753125Y-51159375D02*
X78053125Y-51159375D01*
D15*
X86053125Y-49959375D02*
X86053125Y-52459375D01*
D14*
X86453125Y-52659375D02*
X85053125Y-52659375D01*
D13*
X77983125Y-50859375D02*
X77983125Y-53099375D01*
D12*
X76853125Y-54359375D02*
X76853125Y-52559376D01*
D11*
X76353125Y-52159374D02*
X76353125Y-51259375D01*
D10*
X79536807Y-54837904D02*
G75*
G02*
X81753125Y-52959375I2151318J-291471D01*
G01*
X76253125Y-51259376D02*
G75*
G02*
X78353124Y-49359375I2000000J-99999D01*
G01*
D15*
X79136807Y-54437904D02*
G75*
G02*
X81353125Y-52559375I2151318J-291471D01*
G01*
D17*
%TO.C,SW5*%
X124653125Y-54440625D02*
X124653125Y-55140625D01*
X124653125Y-51940625D02*
X123253125Y-51940625D01*
D14*
X114553125Y-57040625D02*
X117253125Y-57040625D01*
D10*
X124853125Y-52090625D02*
X124853125Y-51740625D01*
X124853125Y-51740625D02*
X116453124Y-51740625D01*
X119853125Y-55340625D02*
X124853125Y-55340625D01*
X114353125Y-57240625D02*
X117633125Y-57240625D01*
X114353125Y-53640625D02*
X114353125Y-54640625D01*
X114353125Y-57240625D02*
X114353125Y-56880625D01*
X114553125Y-56880625D02*
X114353125Y-56880625D01*
X114583125Y-54640625D02*
X114583125Y-56880625D01*
X114353125Y-54640625D02*
X114553125Y-54640625D01*
X124653125Y-52090625D02*
X124853125Y-52090625D01*
X124633125Y-54340625D02*
X124633125Y-52090625D01*
X124853125Y-54340625D02*
X124653125Y-54340625D01*
X124853125Y-55340625D02*
X124853125Y-54340625D01*
D16*
X122853125Y-53540625D02*
X116153125Y-53540625D01*
D15*
X124153125Y-52340625D02*
X124153125Y-54840625D01*
D14*
X124553125Y-55040625D02*
X123153125Y-55040625D01*
D13*
X116083125Y-53240625D02*
X116083125Y-55480625D01*
D12*
X114953125Y-56740625D02*
X114953125Y-54940626D01*
D11*
X114453125Y-54540624D02*
X114453125Y-53640625D01*
D10*
X117636807Y-57219154D02*
G75*
G02*
X119853125Y-55340625I2151318J-291471D01*
G01*
X114353125Y-53640626D02*
G75*
G02*
X116453124Y-51740625I2000000J-99999D01*
G01*
D15*
X117236807Y-56819154D02*
G75*
G02*
X119453125Y-54940625I2151318J-291471D01*
G01*
D17*
%TO.C,SW6*%
X143703125Y-56821875D02*
X143703125Y-57521875D01*
X143703125Y-54321875D02*
X142303125Y-54321875D01*
D14*
X133603125Y-59421875D02*
X136303125Y-59421875D01*
D10*
X143903125Y-54471875D02*
X143903125Y-54121875D01*
X143903125Y-54121875D02*
X135503124Y-54121875D01*
X138903125Y-57721875D02*
X143903125Y-57721875D01*
X133403125Y-59621875D02*
X136683125Y-59621875D01*
X133403125Y-56021875D02*
X133403125Y-57021875D01*
X133403125Y-59621875D02*
X133403125Y-59261875D01*
X133603125Y-59261875D02*
X133403125Y-59261875D01*
X133633125Y-57021875D02*
X133633125Y-59261875D01*
X133403125Y-57021875D02*
X133603125Y-57021875D01*
X143703125Y-54471875D02*
X143903125Y-54471875D01*
X143683125Y-56721875D02*
X143683125Y-54471875D01*
X143903125Y-56721875D02*
X143703125Y-56721875D01*
X143903125Y-57721875D02*
X143903125Y-56721875D01*
D16*
X141903125Y-55921875D02*
X135203125Y-55921875D01*
D15*
X143203125Y-54721875D02*
X143203125Y-57221875D01*
D14*
X143603125Y-57421875D02*
X142203125Y-57421875D01*
D13*
X135133125Y-55621875D02*
X135133125Y-57861875D01*
D12*
X134003125Y-59121875D02*
X134003125Y-57321876D01*
D11*
X133503125Y-56921874D02*
X133503125Y-56021875D01*
D10*
X136686807Y-59600404D02*
G75*
G02*
X138903125Y-57721875I2151318J-291471D01*
G01*
X133403125Y-56021876D02*
G75*
G02*
X135503124Y-54121875I2000000J-99999D01*
G01*
D15*
X136286807Y-59200404D02*
G75*
G02*
X138503125Y-57321875I2151318J-291471D01*
G01*
D17*
%TO.C,SW7*%
X48453125Y-75871875D02*
X48453125Y-76571875D01*
X48453125Y-73371875D02*
X47053125Y-73371875D01*
D14*
X38353125Y-78471875D02*
X41053125Y-78471875D01*
D10*
X48653125Y-73521875D02*
X48653125Y-73171875D01*
X48653125Y-73171875D02*
X40253124Y-73171875D01*
X43653125Y-76771875D02*
X48653125Y-76771875D01*
X38153125Y-78671875D02*
X41433125Y-78671875D01*
X38153125Y-75071875D02*
X38153125Y-76071875D01*
X38153125Y-78671875D02*
X38153125Y-78311875D01*
X38353125Y-78311875D02*
X38153125Y-78311875D01*
X38383125Y-76071875D02*
X38383125Y-78311875D01*
X38153125Y-76071875D02*
X38353125Y-76071875D01*
X48453125Y-73521875D02*
X48653125Y-73521875D01*
X48433125Y-75771875D02*
X48433125Y-73521875D01*
X48653125Y-75771875D02*
X48453125Y-75771875D01*
X48653125Y-76771875D02*
X48653125Y-75771875D01*
D16*
X46653125Y-74971875D02*
X39953125Y-74971875D01*
D15*
X47953125Y-73771875D02*
X47953125Y-76271875D01*
D14*
X48353125Y-76471875D02*
X46953125Y-76471875D01*
D13*
X39883125Y-74671875D02*
X39883125Y-76911875D01*
D12*
X38753125Y-78171875D02*
X38753125Y-76371876D01*
D11*
X38253125Y-75971874D02*
X38253125Y-75071875D01*
D10*
X41436807Y-78650404D02*
G75*
G02*
X43653125Y-76771875I2151318J-291471D01*
G01*
X38153125Y-75071876D02*
G75*
G02*
X40253124Y-73171875I2000000J-99999D01*
G01*
D15*
X41036807Y-78250404D02*
G75*
G02*
X43253125Y-76371875I2151318J-291471D01*
G01*
D17*
%TO.C,SW8*%
X67503125Y-75871875D02*
X67503125Y-76571875D01*
X67503125Y-73371875D02*
X66103125Y-73371875D01*
D14*
X57403125Y-78471875D02*
X60103125Y-78471875D01*
D10*
X67703125Y-73521875D02*
X67703125Y-73171875D01*
X67703125Y-73171875D02*
X59303124Y-73171875D01*
X62703125Y-76771875D02*
X67703125Y-76771875D01*
X57203125Y-78671875D02*
X60483125Y-78671875D01*
X57203125Y-75071875D02*
X57203125Y-76071875D01*
X57203125Y-78671875D02*
X57203125Y-78311875D01*
X57403125Y-78311875D02*
X57203125Y-78311875D01*
X57433125Y-76071875D02*
X57433125Y-78311875D01*
X57203125Y-76071875D02*
X57403125Y-76071875D01*
X67503125Y-73521875D02*
X67703125Y-73521875D01*
X67483125Y-75771875D02*
X67483125Y-73521875D01*
X67703125Y-75771875D02*
X67503125Y-75771875D01*
X67703125Y-76771875D02*
X67703125Y-75771875D01*
D16*
X65703125Y-74971875D02*
X59003125Y-74971875D01*
D15*
X67003125Y-73771875D02*
X67003125Y-76271875D01*
D14*
X67403125Y-76471875D02*
X66003125Y-76471875D01*
D13*
X58933125Y-74671875D02*
X58933125Y-76911875D01*
D12*
X57803125Y-78171875D02*
X57803125Y-76371876D01*
D11*
X57303125Y-75971874D02*
X57303125Y-75071875D01*
D10*
X60486807Y-78650404D02*
G75*
G02*
X62703125Y-76771875I2151318J-291471D01*
G01*
X57203125Y-75071876D02*
G75*
G02*
X59303124Y-73171875I2000000J-99999D01*
G01*
D15*
X60086807Y-78250404D02*
G75*
G02*
X62303125Y-76371875I2151318J-291471D01*
G01*
D11*
%TO.C,SW9*%
X76353125Y-71209374D02*
X76353125Y-70309375D01*
D12*
X76853125Y-73409375D02*
X76853125Y-71609376D01*
D13*
X77983125Y-69909375D02*
X77983125Y-72149375D01*
D14*
X86453125Y-71709375D02*
X85053125Y-71709375D01*
D15*
X86053125Y-69009375D02*
X86053125Y-71509375D01*
D16*
X84753125Y-70209375D02*
X78053125Y-70209375D01*
D10*
X86753125Y-72009375D02*
X86753125Y-71009375D01*
X86753125Y-71009375D02*
X86553125Y-71009375D01*
X86533125Y-71009375D02*
X86533125Y-68759375D01*
X86553125Y-68759375D02*
X86753125Y-68759375D01*
X76253125Y-71309375D02*
X76453125Y-71309375D01*
X76483125Y-71309375D02*
X76483125Y-73549375D01*
X76453125Y-73549375D02*
X76253125Y-73549375D01*
X76253125Y-73909375D02*
X76253125Y-73549375D01*
X76253125Y-70309375D02*
X76253125Y-71309375D01*
X76253125Y-73909375D02*
X79533125Y-73909375D01*
X81753125Y-72009375D02*
X86753125Y-72009375D01*
X86753125Y-68409375D02*
X78353124Y-68409375D01*
X86753125Y-68759375D02*
X86753125Y-68409375D01*
D14*
X76453125Y-73709375D02*
X79153125Y-73709375D01*
D17*
X86553125Y-68609375D02*
X85153125Y-68609375D01*
X86553125Y-71109375D02*
X86553125Y-71809375D01*
D15*
X79136807Y-73487904D02*
G75*
G02*
X81353125Y-71609375I2151318J-291471D01*
G01*
D10*
X76253125Y-70309376D02*
G75*
G02*
X78353124Y-68409375I2000000J-99999D01*
G01*
X79536807Y-73887904D02*
G75*
G02*
X81753125Y-72009375I2151318J-291471D01*
G01*
D17*
%TO.C,SW10*%
X105603125Y-68728125D02*
X105603125Y-69428125D01*
X105603125Y-66228125D02*
X104203125Y-66228125D01*
D14*
X95503125Y-71328125D02*
X98203125Y-71328125D01*
D10*
X105803125Y-66378125D02*
X105803125Y-66028125D01*
X105803125Y-66028125D02*
X97403124Y-66028125D01*
X100803125Y-69628125D02*
X105803125Y-69628125D01*
X95303125Y-71528125D02*
X98583125Y-71528125D01*
X95303125Y-67928125D02*
X95303125Y-68928125D01*
X95303125Y-71528125D02*
X95303125Y-71168125D01*
X95503125Y-71168125D02*
X95303125Y-71168125D01*
X95533125Y-68928125D02*
X95533125Y-71168125D01*
X95303125Y-68928125D02*
X95503125Y-68928125D01*
X105603125Y-66378125D02*
X105803125Y-66378125D01*
X105583125Y-68628125D02*
X105583125Y-66378125D01*
X105803125Y-68628125D02*
X105603125Y-68628125D01*
X105803125Y-69628125D02*
X105803125Y-68628125D01*
D16*
X103803125Y-67828125D02*
X97103125Y-67828125D01*
D15*
X105103125Y-66628125D02*
X105103125Y-69128125D01*
D14*
X105503125Y-69328125D02*
X104103125Y-69328125D01*
D13*
X97033125Y-67528125D02*
X97033125Y-69768125D01*
D12*
X95903125Y-71028125D02*
X95903125Y-69228126D01*
D11*
X95403125Y-68828124D02*
X95403125Y-67928125D01*
D10*
X98586807Y-71506654D02*
G75*
G02*
X100803125Y-69628125I2151318J-291471D01*
G01*
X95303125Y-67928126D02*
G75*
G02*
X97403124Y-66028125I2000000J-99999D01*
G01*
D15*
X98186807Y-71106654D02*
G75*
G02*
X100403125Y-69228125I2151318J-291471D01*
G01*
D17*
%TO.C,SW11*%
X124653125Y-73490625D02*
X124653125Y-74190625D01*
X124653125Y-70990625D02*
X123253125Y-70990625D01*
D14*
X114553125Y-76090625D02*
X117253125Y-76090625D01*
D10*
X124853125Y-71140625D02*
X124853125Y-70790625D01*
X124853125Y-70790625D02*
X116453124Y-70790625D01*
X119853125Y-74390625D02*
X124853125Y-74390625D01*
X114353125Y-76290625D02*
X117633125Y-76290625D01*
X114353125Y-72690625D02*
X114353125Y-73690625D01*
X114353125Y-76290625D02*
X114353125Y-75930625D01*
X114553125Y-75930625D02*
X114353125Y-75930625D01*
X114583125Y-73690625D02*
X114583125Y-75930625D01*
X114353125Y-73690625D02*
X114553125Y-73690625D01*
X124653125Y-71140625D02*
X124853125Y-71140625D01*
X124633125Y-73390625D02*
X124633125Y-71140625D01*
X124853125Y-73390625D02*
X124653125Y-73390625D01*
X124853125Y-74390625D02*
X124853125Y-73390625D01*
D16*
X122853125Y-72590625D02*
X116153125Y-72590625D01*
D15*
X124153125Y-71390625D02*
X124153125Y-73890625D01*
D14*
X124553125Y-74090625D02*
X123153125Y-74090625D01*
D13*
X116083125Y-72290625D02*
X116083125Y-74530625D01*
D12*
X114953125Y-75790625D02*
X114953125Y-73990626D01*
D11*
X114453125Y-73590624D02*
X114453125Y-72690625D01*
D10*
X117636807Y-76269154D02*
G75*
G02*
X119853125Y-74390625I2151318J-291471D01*
G01*
X114353125Y-72690626D02*
G75*
G02*
X116453124Y-70790625I2000000J-99999D01*
G01*
D15*
X117236807Y-75869154D02*
G75*
G02*
X119453125Y-73990625I2151318J-291471D01*
G01*
D17*
%TO.C,SW12*%
X143703125Y-75871875D02*
X143703125Y-76571875D01*
X143703125Y-73371875D02*
X142303125Y-73371875D01*
D14*
X133603125Y-78471875D02*
X136303125Y-78471875D01*
D10*
X143903125Y-73521875D02*
X143903125Y-73171875D01*
X143903125Y-73171875D02*
X135503124Y-73171875D01*
X138903125Y-76771875D02*
X143903125Y-76771875D01*
X133403125Y-78671875D02*
X136683125Y-78671875D01*
X133403125Y-75071875D02*
X133403125Y-76071875D01*
X133403125Y-78671875D02*
X133403125Y-78311875D01*
X133603125Y-78311875D02*
X133403125Y-78311875D01*
X133633125Y-76071875D02*
X133633125Y-78311875D01*
X133403125Y-76071875D02*
X133603125Y-76071875D01*
X143703125Y-73521875D02*
X143903125Y-73521875D01*
X143683125Y-75771875D02*
X143683125Y-73521875D01*
X143903125Y-75771875D02*
X143703125Y-75771875D01*
X143903125Y-76771875D02*
X143903125Y-75771875D01*
D16*
X141903125Y-74971875D02*
X135203125Y-74971875D01*
D15*
X143203125Y-73771875D02*
X143203125Y-76271875D01*
D14*
X143603125Y-76471875D02*
X142203125Y-76471875D01*
D13*
X135133125Y-74671875D02*
X135133125Y-76911875D01*
D12*
X134003125Y-78171875D02*
X134003125Y-76371876D01*
D11*
X133503125Y-75971874D02*
X133503125Y-75071875D01*
D10*
X136686807Y-78650404D02*
G75*
G02*
X138903125Y-76771875I2151318J-291471D01*
G01*
X133403125Y-75071876D02*
G75*
G02*
X135503124Y-73171875I2000000J-99999D01*
G01*
D15*
X136286807Y-78250404D02*
G75*
G02*
X138503125Y-76371875I2151318J-291471D01*
G01*
D11*
%TO.C,SW13*%
X38253125Y-95021874D02*
X38253125Y-94121875D01*
D12*
X38753125Y-97221875D02*
X38753125Y-95421876D01*
D13*
X39883125Y-93721875D02*
X39883125Y-95961875D01*
D14*
X48353125Y-95521875D02*
X46953125Y-95521875D01*
D15*
X47953125Y-92821875D02*
X47953125Y-95321875D01*
D16*
X46653125Y-94021875D02*
X39953125Y-94021875D01*
D10*
X48653125Y-95821875D02*
X48653125Y-94821875D01*
X48653125Y-94821875D02*
X48453125Y-94821875D01*
X48433125Y-94821875D02*
X48433125Y-92571875D01*
X48453125Y-92571875D02*
X48653125Y-92571875D01*
X38153125Y-95121875D02*
X38353125Y-95121875D01*
X38383125Y-95121875D02*
X38383125Y-97361875D01*
X38353125Y-97361875D02*
X38153125Y-97361875D01*
X38153125Y-97721875D02*
X38153125Y-97361875D01*
X38153125Y-94121875D02*
X38153125Y-95121875D01*
X38153125Y-97721875D02*
X41433125Y-97721875D01*
X43653125Y-95821875D02*
X48653125Y-95821875D01*
X48653125Y-92221875D02*
X40253124Y-92221875D01*
X48653125Y-92571875D02*
X48653125Y-92221875D01*
D14*
X38353125Y-97521875D02*
X41053125Y-97521875D01*
D17*
X48453125Y-92421875D02*
X47053125Y-92421875D01*
X48453125Y-94921875D02*
X48453125Y-95621875D01*
D15*
X41036807Y-97300404D02*
G75*
G02*
X43253125Y-95421875I2151318J-291471D01*
G01*
D10*
X38153125Y-94121876D02*
G75*
G02*
X40253124Y-92221875I2000000J-99999D01*
G01*
X41436807Y-97700404D02*
G75*
G02*
X43653125Y-95821875I2151318J-291471D01*
G01*
D11*
%TO.C,SW14*%
X57303125Y-95021874D02*
X57303125Y-94121875D01*
D12*
X57803125Y-97221875D02*
X57803125Y-95421876D01*
D13*
X58933125Y-93721875D02*
X58933125Y-95961875D01*
D14*
X67403125Y-95521875D02*
X66003125Y-95521875D01*
D15*
X67003125Y-92821875D02*
X67003125Y-95321875D01*
D16*
X65703125Y-94021875D02*
X59003125Y-94021875D01*
D10*
X67703125Y-95821875D02*
X67703125Y-94821875D01*
X67703125Y-94821875D02*
X67503125Y-94821875D01*
X67483125Y-94821875D02*
X67483125Y-92571875D01*
X67503125Y-92571875D02*
X67703125Y-92571875D01*
X57203125Y-95121875D02*
X57403125Y-95121875D01*
X57433125Y-95121875D02*
X57433125Y-97361875D01*
X57403125Y-97361875D02*
X57203125Y-97361875D01*
X57203125Y-97721875D02*
X57203125Y-97361875D01*
X57203125Y-94121875D02*
X57203125Y-95121875D01*
X57203125Y-97721875D02*
X60483125Y-97721875D01*
X62703125Y-95821875D02*
X67703125Y-95821875D01*
X67703125Y-92221875D02*
X59303124Y-92221875D01*
X67703125Y-92571875D02*
X67703125Y-92221875D01*
D14*
X57403125Y-97521875D02*
X60103125Y-97521875D01*
D17*
X67503125Y-92421875D02*
X66103125Y-92421875D01*
X67503125Y-94921875D02*
X67503125Y-95621875D01*
D15*
X60086807Y-97300404D02*
G75*
G02*
X62303125Y-95421875I2151318J-291471D01*
G01*
D10*
X57203125Y-94121876D02*
G75*
G02*
X59303124Y-92221875I2000000J-99999D01*
G01*
X60486807Y-97700404D02*
G75*
G02*
X62703125Y-95821875I2151318J-291471D01*
G01*
D17*
%TO.C,SW15*%
X86553125Y-90159375D02*
X86553125Y-90859375D01*
X86553125Y-87659375D02*
X85153125Y-87659375D01*
D14*
X76453125Y-92759375D02*
X79153125Y-92759375D01*
D10*
X86753125Y-87809375D02*
X86753125Y-87459375D01*
X86753125Y-87459375D02*
X78353124Y-87459375D01*
X81753125Y-91059375D02*
X86753125Y-91059375D01*
X76253125Y-92959375D02*
X79533125Y-92959375D01*
X76253125Y-89359375D02*
X76253125Y-90359375D01*
X76253125Y-92959375D02*
X76253125Y-92599375D01*
X76453125Y-92599375D02*
X76253125Y-92599375D01*
X76483125Y-90359375D02*
X76483125Y-92599375D01*
X76253125Y-90359375D02*
X76453125Y-90359375D01*
X86553125Y-87809375D02*
X86753125Y-87809375D01*
X86533125Y-90059375D02*
X86533125Y-87809375D01*
X86753125Y-90059375D02*
X86553125Y-90059375D01*
X86753125Y-91059375D02*
X86753125Y-90059375D01*
D16*
X84753125Y-89259375D02*
X78053125Y-89259375D01*
D15*
X86053125Y-88059375D02*
X86053125Y-90559375D01*
D14*
X86453125Y-90759375D02*
X85053125Y-90759375D01*
D13*
X77983125Y-88959375D02*
X77983125Y-91199375D01*
D12*
X76853125Y-92459375D02*
X76853125Y-90659376D01*
D11*
X76353125Y-90259374D02*
X76353125Y-89359375D01*
D10*
X79536807Y-92937904D02*
G75*
G02*
X81753125Y-91059375I2151318J-291471D01*
G01*
X76253125Y-89359376D02*
G75*
G02*
X78353124Y-87459375I2000000J-99999D01*
G01*
D15*
X79136807Y-92537904D02*
G75*
G02*
X81353125Y-90659375I2151318J-291471D01*
G01*
D11*
%TO.C,SW16*%
X95403125Y-87878124D02*
X95403125Y-86978125D01*
D12*
X95903125Y-90078125D02*
X95903125Y-88278126D01*
D13*
X97033125Y-86578125D02*
X97033125Y-88818125D01*
D14*
X105503125Y-88378125D02*
X104103125Y-88378125D01*
D15*
X105103125Y-85678125D02*
X105103125Y-88178125D01*
D16*
X103803125Y-86878125D02*
X97103125Y-86878125D01*
D10*
X105803125Y-88678125D02*
X105803125Y-87678125D01*
X105803125Y-87678125D02*
X105603125Y-87678125D01*
X105583125Y-87678125D02*
X105583125Y-85428125D01*
X105603125Y-85428125D02*
X105803125Y-85428125D01*
X95303125Y-87978125D02*
X95503125Y-87978125D01*
X95533125Y-87978125D02*
X95533125Y-90218125D01*
X95503125Y-90218125D02*
X95303125Y-90218125D01*
X95303125Y-90578125D02*
X95303125Y-90218125D01*
X95303125Y-86978125D02*
X95303125Y-87978125D01*
X95303125Y-90578125D02*
X98583125Y-90578125D01*
X100803125Y-88678125D02*
X105803125Y-88678125D01*
X105803125Y-85078125D02*
X97403124Y-85078125D01*
X105803125Y-85428125D02*
X105803125Y-85078125D01*
D14*
X95503125Y-90378125D02*
X98203125Y-90378125D01*
D17*
X105603125Y-85278125D02*
X104203125Y-85278125D01*
X105603125Y-87778125D02*
X105603125Y-88478125D01*
D15*
X98186807Y-90156654D02*
G75*
G02*
X100403125Y-88278125I2151318J-291471D01*
G01*
D10*
X95303125Y-86978126D02*
G75*
G02*
X97403124Y-85078125I2000000J-99999D01*
G01*
X98586807Y-90556654D02*
G75*
G02*
X100803125Y-88678125I2151318J-291471D01*
G01*
D11*
%TO.C,SW17*%
X114453125Y-92640624D02*
X114453125Y-91740625D01*
D12*
X114953125Y-94840625D02*
X114953125Y-93040626D01*
D13*
X116083125Y-91340625D02*
X116083125Y-93580625D01*
D14*
X124553125Y-93140625D02*
X123153125Y-93140625D01*
D15*
X124153125Y-90440625D02*
X124153125Y-92940625D01*
D16*
X122853125Y-91640625D02*
X116153125Y-91640625D01*
D10*
X124853125Y-93440625D02*
X124853125Y-92440625D01*
X124853125Y-92440625D02*
X124653125Y-92440625D01*
X124633125Y-92440625D02*
X124633125Y-90190625D01*
X124653125Y-90190625D02*
X124853125Y-90190625D01*
X114353125Y-92740625D02*
X114553125Y-92740625D01*
X114583125Y-92740625D02*
X114583125Y-94980625D01*
X114553125Y-94980625D02*
X114353125Y-94980625D01*
X114353125Y-95340625D02*
X114353125Y-94980625D01*
X114353125Y-91740625D02*
X114353125Y-92740625D01*
X114353125Y-95340625D02*
X117633125Y-95340625D01*
X119853125Y-93440625D02*
X124853125Y-93440625D01*
X124853125Y-89840625D02*
X116453124Y-89840625D01*
X124853125Y-90190625D02*
X124853125Y-89840625D01*
D14*
X114553125Y-95140625D02*
X117253125Y-95140625D01*
D17*
X124653125Y-90040625D02*
X123253125Y-90040625D01*
X124653125Y-92540625D02*
X124653125Y-93240625D01*
D15*
X117236807Y-94919154D02*
G75*
G02*
X119453125Y-93040625I2151318J-291471D01*
G01*
D10*
X114353125Y-91740626D02*
G75*
G02*
X116453124Y-89840625I2000000J-99999D01*
G01*
X117636807Y-95319154D02*
G75*
G02*
X119853125Y-93440625I2151318J-291471D01*
G01*
D11*
%TO.C,SW18*%
X133503125Y-95021874D02*
X133503125Y-94121875D01*
D12*
X134003125Y-97221875D02*
X134003125Y-95421876D01*
D13*
X135133125Y-93721875D02*
X135133125Y-95961875D01*
D14*
X143603125Y-95521875D02*
X142203125Y-95521875D01*
D15*
X143203125Y-92821875D02*
X143203125Y-95321875D01*
D16*
X141903125Y-94021875D02*
X135203125Y-94021875D01*
D10*
X143903125Y-95821875D02*
X143903125Y-94821875D01*
X143903125Y-94821875D02*
X143703125Y-94821875D01*
X143683125Y-94821875D02*
X143683125Y-92571875D01*
X143703125Y-92571875D02*
X143903125Y-92571875D01*
X133403125Y-95121875D02*
X133603125Y-95121875D01*
X133633125Y-95121875D02*
X133633125Y-97361875D01*
X133603125Y-97361875D02*
X133403125Y-97361875D01*
X133403125Y-97721875D02*
X133403125Y-97361875D01*
X133403125Y-94121875D02*
X133403125Y-95121875D01*
X133403125Y-97721875D02*
X136683125Y-97721875D01*
X138903125Y-95821875D02*
X143903125Y-95821875D01*
X143903125Y-92221875D02*
X135503124Y-92221875D01*
X143903125Y-92571875D02*
X143903125Y-92221875D01*
D14*
X133603125Y-97521875D02*
X136303125Y-97521875D01*
D17*
X143703125Y-92421875D02*
X142303125Y-92421875D01*
X143703125Y-94921875D02*
X143703125Y-95621875D01*
D15*
X136286807Y-97300404D02*
G75*
G02*
X138503125Y-95421875I2151318J-291471D01*
G01*
D10*
X133403125Y-94121876D02*
G75*
G02*
X135503124Y-92221875I2000000J-99999D01*
G01*
X136686807Y-97700404D02*
G75*
G02*
X138903125Y-95821875I2151318J-291471D01*
G01*
D11*
%TO.C,SW19*%
X38253125Y-114071874D02*
X38253125Y-113171875D01*
D12*
X38753125Y-116271875D02*
X38753125Y-114471876D01*
D13*
X39883125Y-112771875D02*
X39883125Y-115011875D01*
D14*
X48353125Y-114571875D02*
X46953125Y-114571875D01*
D15*
X47953125Y-111871875D02*
X47953125Y-114371875D01*
D16*
X46653125Y-113071875D02*
X39953125Y-113071875D01*
D10*
X48653125Y-114871875D02*
X48653125Y-113871875D01*
X48653125Y-113871875D02*
X48453125Y-113871875D01*
X48433125Y-113871875D02*
X48433125Y-111621875D01*
X48453125Y-111621875D02*
X48653125Y-111621875D01*
X38153125Y-114171875D02*
X38353125Y-114171875D01*
X38383125Y-114171875D02*
X38383125Y-116411875D01*
X38353125Y-116411875D02*
X38153125Y-116411875D01*
X38153125Y-116771875D02*
X38153125Y-116411875D01*
X38153125Y-113171875D02*
X38153125Y-114171875D01*
X38153125Y-116771875D02*
X41433125Y-116771875D01*
X43653125Y-114871875D02*
X48653125Y-114871875D01*
X48653125Y-111271875D02*
X40253124Y-111271875D01*
X48653125Y-111621875D02*
X48653125Y-111271875D01*
D14*
X38353125Y-116571875D02*
X41053125Y-116571875D01*
D17*
X48453125Y-111471875D02*
X47053125Y-111471875D01*
X48453125Y-113971875D02*
X48453125Y-114671875D01*
D15*
X41036807Y-116350404D02*
G75*
G02*
X43253125Y-114471875I2151318J-291471D01*
G01*
D10*
X38153125Y-113171876D02*
G75*
G02*
X40253124Y-111271875I2000000J-99999D01*
G01*
X41436807Y-116750404D02*
G75*
G02*
X43653125Y-114871875I2151318J-291471D01*
G01*
D11*
%TO.C,SW20*%
X57303125Y-114071874D02*
X57303125Y-113171875D01*
D12*
X57803125Y-116271875D02*
X57803125Y-114471876D01*
D13*
X58933125Y-112771875D02*
X58933125Y-115011875D01*
D14*
X67403125Y-114571875D02*
X66003125Y-114571875D01*
D15*
X67003125Y-111871875D02*
X67003125Y-114371875D01*
D16*
X65703125Y-113071875D02*
X59003125Y-113071875D01*
D10*
X67703125Y-114871875D02*
X67703125Y-113871875D01*
X67703125Y-113871875D02*
X67503125Y-113871875D01*
X67483125Y-113871875D02*
X67483125Y-111621875D01*
X67503125Y-111621875D02*
X67703125Y-111621875D01*
X57203125Y-114171875D02*
X57403125Y-114171875D01*
X57433125Y-114171875D02*
X57433125Y-116411875D01*
X57403125Y-116411875D02*
X57203125Y-116411875D01*
X57203125Y-116771875D02*
X57203125Y-116411875D01*
X57203125Y-113171875D02*
X57203125Y-114171875D01*
X57203125Y-116771875D02*
X60483125Y-116771875D01*
X62703125Y-114871875D02*
X67703125Y-114871875D01*
X67703125Y-111271875D02*
X59303124Y-111271875D01*
X67703125Y-111621875D02*
X67703125Y-111271875D01*
D14*
X57403125Y-116571875D02*
X60103125Y-116571875D01*
D17*
X67503125Y-111471875D02*
X66103125Y-111471875D01*
X67503125Y-113971875D02*
X67503125Y-114671875D01*
D15*
X60086807Y-116350404D02*
G75*
G02*
X62303125Y-114471875I2151318J-291471D01*
G01*
D10*
X57203125Y-113171876D02*
G75*
G02*
X59303124Y-111271875I2000000J-99999D01*
G01*
X60486807Y-116750404D02*
G75*
G02*
X62703125Y-114871875I2151318J-291471D01*
G01*
D11*
%TO.C,SW21*%
X76353125Y-109309374D02*
X76353125Y-108409375D01*
D12*
X76853125Y-111509375D02*
X76853125Y-109709376D01*
D13*
X77983125Y-108009375D02*
X77983125Y-110249375D01*
D14*
X86453125Y-109809375D02*
X85053125Y-109809375D01*
D15*
X86053125Y-107109375D02*
X86053125Y-109609375D01*
D16*
X84753125Y-108309375D02*
X78053125Y-108309375D01*
D10*
X86753125Y-110109375D02*
X86753125Y-109109375D01*
X86753125Y-109109375D02*
X86553125Y-109109375D01*
X86533125Y-109109375D02*
X86533125Y-106859375D01*
X86553125Y-106859375D02*
X86753125Y-106859375D01*
X76253125Y-109409375D02*
X76453125Y-109409375D01*
X76483125Y-109409375D02*
X76483125Y-111649375D01*
X76453125Y-111649375D02*
X76253125Y-111649375D01*
X76253125Y-112009375D02*
X76253125Y-111649375D01*
X76253125Y-108409375D02*
X76253125Y-109409375D01*
X76253125Y-112009375D02*
X79533125Y-112009375D01*
X81753125Y-110109375D02*
X86753125Y-110109375D01*
X86753125Y-106509375D02*
X78353124Y-106509375D01*
X86753125Y-106859375D02*
X86753125Y-106509375D01*
D14*
X76453125Y-111809375D02*
X79153125Y-111809375D01*
D17*
X86553125Y-106709375D02*
X85153125Y-106709375D01*
X86553125Y-109209375D02*
X86553125Y-109909375D01*
D15*
X79136807Y-111587904D02*
G75*
G02*
X81353125Y-109709375I2151318J-291471D01*
G01*
D10*
X76253125Y-108409376D02*
G75*
G02*
X78353124Y-106509375I2000000J-99999D01*
G01*
X79536807Y-111987904D02*
G75*
G02*
X81753125Y-110109375I2151318J-291471D01*
G01*
D17*
%TO.C,SW22*%
X105603125Y-106828125D02*
X105603125Y-107528125D01*
X105603125Y-104328125D02*
X104203125Y-104328125D01*
D14*
X95503125Y-109428125D02*
X98203125Y-109428125D01*
D10*
X105803125Y-104478125D02*
X105803125Y-104128125D01*
X105803125Y-104128125D02*
X97403124Y-104128125D01*
X100803125Y-107728125D02*
X105803125Y-107728125D01*
X95303125Y-109628125D02*
X98583125Y-109628125D01*
X95303125Y-106028125D02*
X95303125Y-107028125D01*
X95303125Y-109628125D02*
X95303125Y-109268125D01*
X95503125Y-109268125D02*
X95303125Y-109268125D01*
X95533125Y-107028125D02*
X95533125Y-109268125D01*
X95303125Y-107028125D02*
X95503125Y-107028125D01*
X105603125Y-104478125D02*
X105803125Y-104478125D01*
X105583125Y-106728125D02*
X105583125Y-104478125D01*
X105803125Y-106728125D02*
X105603125Y-106728125D01*
X105803125Y-107728125D02*
X105803125Y-106728125D01*
D16*
X103803125Y-105928125D02*
X97103125Y-105928125D01*
D15*
X105103125Y-104728125D02*
X105103125Y-107228125D01*
D14*
X105503125Y-107428125D02*
X104103125Y-107428125D01*
D13*
X97033125Y-105628125D02*
X97033125Y-107868125D01*
D12*
X95903125Y-109128125D02*
X95903125Y-107328126D01*
D11*
X95403125Y-106928124D02*
X95403125Y-106028125D01*
D10*
X98586807Y-109606654D02*
G75*
G02*
X100803125Y-107728125I2151318J-291471D01*
G01*
X95303125Y-106028126D02*
G75*
G02*
X97403124Y-104128125I2000000J-99999D01*
G01*
D15*
X98186807Y-109206654D02*
G75*
G02*
X100403125Y-107328125I2151318J-291471D01*
G01*
D11*
%TO.C,SW23*%
X114453125Y-111690624D02*
X114453125Y-110790625D01*
D12*
X114953125Y-113890625D02*
X114953125Y-112090626D01*
D13*
X116083125Y-110390625D02*
X116083125Y-112630625D01*
D14*
X124553125Y-112190625D02*
X123153125Y-112190625D01*
D15*
X124153125Y-109490625D02*
X124153125Y-111990625D01*
D16*
X122853125Y-110690625D02*
X116153125Y-110690625D01*
D10*
X124853125Y-112490625D02*
X124853125Y-111490625D01*
X124853125Y-111490625D02*
X124653125Y-111490625D01*
X124633125Y-111490625D02*
X124633125Y-109240625D01*
X124653125Y-109240625D02*
X124853125Y-109240625D01*
X114353125Y-111790625D02*
X114553125Y-111790625D01*
X114583125Y-111790625D02*
X114583125Y-114030625D01*
X114553125Y-114030625D02*
X114353125Y-114030625D01*
X114353125Y-114390625D02*
X114353125Y-114030625D01*
X114353125Y-110790625D02*
X114353125Y-111790625D01*
X114353125Y-114390625D02*
X117633125Y-114390625D01*
X119853125Y-112490625D02*
X124853125Y-112490625D01*
X124853125Y-108890625D02*
X116453124Y-108890625D01*
X124853125Y-109240625D02*
X124853125Y-108890625D01*
D14*
X114553125Y-114190625D02*
X117253125Y-114190625D01*
D17*
X124653125Y-109090625D02*
X123253125Y-109090625D01*
X124653125Y-111590625D02*
X124653125Y-112290625D01*
D15*
X117236807Y-113969154D02*
G75*
G02*
X119453125Y-112090625I2151318J-291471D01*
G01*
D10*
X114353125Y-110790626D02*
G75*
G02*
X116453124Y-108890625I2000000J-99999D01*
G01*
X117636807Y-114369154D02*
G75*
G02*
X119853125Y-112490625I2151318J-291471D01*
G01*
D17*
%TO.C,SW26*%
X67503125Y-133021875D02*
X67503125Y-133721875D01*
X67503125Y-130521875D02*
X66103125Y-130521875D01*
D14*
X57403125Y-135621875D02*
X60103125Y-135621875D01*
D10*
X67703125Y-130671875D02*
X67703125Y-130321875D01*
X67703125Y-130321875D02*
X59303124Y-130321875D01*
X62703125Y-133921875D02*
X67703125Y-133921875D01*
X57203125Y-135821875D02*
X60483125Y-135821875D01*
X57203125Y-132221875D02*
X57203125Y-133221875D01*
X57203125Y-135821875D02*
X57203125Y-135461875D01*
X57403125Y-135461875D02*
X57203125Y-135461875D01*
X57433125Y-133221875D02*
X57433125Y-135461875D01*
X57203125Y-133221875D02*
X57403125Y-133221875D01*
X67503125Y-130671875D02*
X67703125Y-130671875D01*
X67483125Y-132921875D02*
X67483125Y-130671875D01*
X67703125Y-132921875D02*
X67503125Y-132921875D01*
X67703125Y-133921875D02*
X67703125Y-132921875D01*
D16*
X65703125Y-132121875D02*
X59003125Y-132121875D01*
D15*
X67003125Y-130921875D02*
X67003125Y-133421875D01*
D14*
X67403125Y-133621875D02*
X66003125Y-133621875D01*
D13*
X58933125Y-131821875D02*
X58933125Y-134061875D01*
D12*
X57803125Y-135321875D02*
X57803125Y-133521876D01*
D11*
X57303125Y-133121874D02*
X57303125Y-132221875D01*
D10*
X60486807Y-135800404D02*
G75*
G02*
X62703125Y-133921875I2151318J-291471D01*
G01*
X57203125Y-132221876D02*
G75*
G02*
X59303124Y-130321875I2000000J-99999D01*
G01*
D15*
X60086807Y-135400404D02*
G75*
G02*
X62303125Y-133521875I2151318J-291471D01*
G01*
D17*
%TO.C,SW27*%
X86553125Y-128259375D02*
X86553125Y-128959375D01*
X86553125Y-125759375D02*
X85153125Y-125759375D01*
D14*
X76453125Y-130859375D02*
X79153125Y-130859375D01*
D10*
X86753125Y-125909375D02*
X86753125Y-125559375D01*
X86753125Y-125559375D02*
X78353124Y-125559375D01*
X81753125Y-129159375D02*
X86753125Y-129159375D01*
X76253125Y-131059375D02*
X79533125Y-131059375D01*
X76253125Y-127459375D02*
X76253125Y-128459375D01*
X76253125Y-131059375D02*
X76253125Y-130699375D01*
X76453125Y-130699375D02*
X76253125Y-130699375D01*
X76483125Y-128459375D02*
X76483125Y-130699375D01*
X76253125Y-128459375D02*
X76453125Y-128459375D01*
X86553125Y-125909375D02*
X86753125Y-125909375D01*
X86533125Y-128159375D02*
X86533125Y-125909375D01*
X86753125Y-128159375D02*
X86553125Y-128159375D01*
X86753125Y-129159375D02*
X86753125Y-128159375D01*
D16*
X84753125Y-127359375D02*
X78053125Y-127359375D01*
D15*
X86053125Y-126159375D02*
X86053125Y-128659375D01*
D14*
X86453125Y-128859375D02*
X85053125Y-128859375D01*
D13*
X77983125Y-127059375D02*
X77983125Y-129299375D01*
D12*
X76853125Y-130559375D02*
X76853125Y-128759376D01*
D11*
X76353125Y-128359374D02*
X76353125Y-127459375D01*
D10*
X79536807Y-131037904D02*
G75*
G02*
X81753125Y-129159375I2151318J-291471D01*
G01*
X76253125Y-127459376D02*
G75*
G02*
X78353124Y-125559375I2000000J-99999D01*
G01*
D15*
X79136807Y-130637904D02*
G75*
G02*
X81353125Y-128759375I2151318J-291471D01*
G01*
D17*
%TO.C,SW28*%
X105603125Y-125878125D02*
X105603125Y-126578125D01*
X105603125Y-123378125D02*
X104203125Y-123378125D01*
D14*
X95503125Y-128478125D02*
X98203125Y-128478125D01*
D10*
X105803125Y-123528125D02*
X105803125Y-123178125D01*
X105803125Y-123178125D02*
X97403124Y-123178125D01*
X100803125Y-126778125D02*
X105803125Y-126778125D01*
X95303125Y-128678125D02*
X98583125Y-128678125D01*
X95303125Y-125078125D02*
X95303125Y-126078125D01*
X95303125Y-128678125D02*
X95303125Y-128318125D01*
X95503125Y-128318125D02*
X95303125Y-128318125D01*
X95533125Y-126078125D02*
X95533125Y-128318125D01*
X95303125Y-126078125D02*
X95503125Y-126078125D01*
X105603125Y-123528125D02*
X105803125Y-123528125D01*
X105583125Y-125778125D02*
X105583125Y-123528125D01*
X105803125Y-125778125D02*
X105603125Y-125778125D01*
X105803125Y-126778125D02*
X105803125Y-125778125D01*
D16*
X103803125Y-124978125D02*
X97103125Y-124978125D01*
D15*
X105103125Y-123778125D02*
X105103125Y-126278125D01*
D14*
X105503125Y-126478125D02*
X104103125Y-126478125D01*
D13*
X97033125Y-124678125D02*
X97033125Y-126918125D01*
D12*
X95903125Y-128178125D02*
X95903125Y-126378126D01*
D11*
X95403125Y-125978124D02*
X95403125Y-125078125D01*
D10*
X98586807Y-128656654D02*
G75*
G02*
X100803125Y-126778125I2151318J-291471D01*
G01*
X95303125Y-125078126D02*
G75*
G02*
X97403124Y-123178125I2000000J-99999D01*
G01*
D15*
X98186807Y-128256654D02*
G75*
G02*
X100403125Y-126378125I2151318J-291471D01*
G01*
D10*
%TO.C,U1*%
X149486100Y-95234135D02*
X149486100Y-64754135D01*
X152026100Y-95234135D02*
X149486100Y-95234135D01*
X152026100Y-64754135D02*
X152026100Y-95234135D01*
X149486100Y-64754135D02*
X152026100Y-64754135D01*
X164726100Y-95234135D02*
X164726100Y-64754135D01*
X167266100Y-95234135D02*
X164726100Y-95234135D01*
X167266100Y-64754135D02*
X167266100Y-95234135D01*
X164726100Y-64754135D02*
X167266100Y-64754135D01*
%TO.C,J1*%
X161885380Y-103949730D02*
X161885380Y-104521158D01*
X162885380Y-104235444D02*
X161885380Y-104235444D01*
X162885380Y-105425920D02*
X162409190Y-105092587D01*
X162885380Y-104854492D02*
X161885380Y-104854492D01*
X161885380Y-105235444D01*
X161933000Y-105330682D01*
X161980619Y-105378301D01*
X162075857Y-105425920D01*
X162218714Y-105425920D01*
X162313952Y-105378301D01*
X162361571Y-105330682D01*
X162409190Y-105235444D01*
X162409190Y-104854492D01*
X162885380Y-106425920D02*
X162409190Y-106092587D01*
X162885380Y-105854492D02*
X161885380Y-105854492D01*
X161885380Y-106235444D01*
X161933000Y-106330682D01*
X161980619Y-106378301D01*
X162075857Y-106425920D01*
X162218714Y-106425920D01*
X162313952Y-106378301D01*
X162361571Y-106330682D01*
X162409190Y-106235444D01*
X162409190Y-105854492D01*
X162837761Y-106806873D02*
X162885380Y-106949730D01*
X162885380Y-107187825D01*
X162837761Y-107283063D01*
X162790142Y-107330682D01*
X162694904Y-107378301D01*
X162599666Y-107378301D01*
X162504428Y-107330682D01*
X162456809Y-107283063D01*
X162409190Y-107187825D01*
X162361571Y-106997349D01*
X162313952Y-106902111D01*
X162266333Y-106854492D01*
X162171095Y-106806873D01*
X162075857Y-106806873D01*
X161980619Y-106854492D01*
X161933000Y-106902111D01*
X161885380Y-106997349D01*
X161885380Y-107235444D01*
X161933000Y-107378301D01*
%TO.C,RSW1*%
X160825880Y-112942640D02*
X161159214Y-112466450D01*
X161397309Y-112942640D02*
X161397309Y-111942640D01*
X161016357Y-111942640D01*
X160921119Y-111990260D01*
X160873500Y-112037879D01*
X160825880Y-112133117D01*
X160825880Y-112275974D01*
X160873500Y-112371212D01*
X160921119Y-112418831D01*
X161016357Y-112466450D01*
X161397309Y-112466450D01*
X160397309Y-112418831D02*
X160063976Y-112418831D01*
X159921119Y-112942640D02*
X160397309Y-112942640D01*
X160397309Y-111942640D01*
X159921119Y-111942640D01*
X159540166Y-112895021D02*
X159397309Y-112942640D01*
X159159214Y-112942640D01*
X159063976Y-112895021D01*
X159016357Y-112847402D01*
X158968738Y-112752164D01*
X158968738Y-112656926D01*
X159016357Y-112561688D01*
X159063976Y-112514069D01*
X159159214Y-112466450D01*
X159349690Y-112418831D01*
X159444928Y-112371212D01*
X159492547Y-112323593D01*
X159540166Y-112228355D01*
X159540166Y-112133117D01*
X159492547Y-112037879D01*
X159444928Y-111990260D01*
X159349690Y-111942640D01*
X159111595Y-111942640D01*
X158968738Y-111990260D01*
X158540166Y-112418831D02*
X158206833Y-112418831D01*
X158063976Y-112942640D02*
X158540166Y-112942640D01*
X158540166Y-111942640D01*
X158063976Y-111942640D01*
X157778261Y-111942640D02*
X157206833Y-111942640D01*
X157492547Y-112942640D02*
X157492547Y-111942640D01*
%TO.C,U1*%
D20*
X164182338Y-66426920D02*
X164349004Y-66069777D01*
X164468052Y-66426920D02*
X164468052Y-65676920D01*
X164277576Y-65676920D01*
X164229957Y-65712635D01*
X164206147Y-65748349D01*
X164182338Y-65819777D01*
X164182338Y-65926920D01*
X164206147Y-65998349D01*
X164229957Y-66034063D01*
X164277576Y-66069777D01*
X164468052Y-66069777D01*
X163991861Y-66212635D02*
X163753766Y-66212635D01*
X164039480Y-66426920D02*
X163872814Y-65676920D01*
X163706147Y-66426920D01*
X163587100Y-65676920D02*
X163468052Y-66426920D01*
X163372814Y-65891206D01*
X163277576Y-66426920D01*
X163158528Y-65676920D01*
X148918528Y-66426920D02*
X149156623Y-66426920D01*
X149156623Y-65676920D01*
X148751861Y-66034063D02*
X148585195Y-66034063D01*
X148513766Y-66426920D02*
X148751861Y-66426920D01*
X148751861Y-65676920D01*
X148513766Y-65676920D01*
X148299480Y-66426920D02*
X148299480Y-65676920D01*
X148180433Y-65676920D01*
X148109004Y-65712635D01*
X148061385Y-65784063D01*
X148037576Y-65855492D01*
X148013766Y-65998349D01*
X148013766Y-66105492D01*
X148037576Y-66248349D01*
X148061385Y-66319777D01*
X148109004Y-66391206D01*
X148180433Y-66426920D01*
X148299480Y-66426920D01*
X164154552Y-68189135D02*
X164202171Y-68153420D01*
X164273600Y-68153420D01*
X164345028Y-68189135D01*
X164392647Y-68260563D01*
X164416457Y-68331992D01*
X164440266Y-68474849D01*
X164440266Y-68581992D01*
X164416457Y-68724849D01*
X164392647Y-68796277D01*
X164345028Y-68867706D01*
X164273600Y-68903420D01*
X164225980Y-68903420D01*
X164154552Y-68867706D01*
X164130742Y-68831992D01*
X164130742Y-68581992D01*
X164225980Y-68581992D01*
X163916457Y-68903420D02*
X163916457Y-68153420D01*
X163630742Y-68903420D01*
X163630742Y-68153420D01*
X163392647Y-68903420D02*
X163392647Y-68153420D01*
X163273600Y-68153420D01*
X163202171Y-68189135D01*
X163154552Y-68260563D01*
X163130742Y-68331992D01*
X163106933Y-68474849D01*
X163106933Y-68581992D01*
X163130742Y-68724849D01*
X163154552Y-68796277D01*
X163202171Y-68867706D01*
X163273600Y-68903420D01*
X163392647Y-68903420D01*
X149196100Y-69071420D02*
X149196100Y-68321420D01*
X149077052Y-68321420D01*
X149005623Y-68357135D01*
X148958004Y-68428563D01*
X148934195Y-68499992D01*
X148910385Y-68642849D01*
X148910385Y-68749992D01*
X148934195Y-68892849D01*
X148958004Y-68964277D01*
X149005623Y-69035706D01*
X149077052Y-69071420D01*
X149196100Y-69071420D01*
X148719909Y-68857135D02*
X148481814Y-68857135D01*
X148767528Y-69071420D02*
X148600861Y-68321420D01*
X148434195Y-69071420D01*
X148338957Y-68321420D02*
X148053242Y-68321420D01*
X148196100Y-69071420D02*
X148196100Y-68321420D01*
X147910385Y-68857135D02*
X147672290Y-68857135D01*
X147958004Y-69071420D02*
X147791338Y-68321420D01*
X147624671Y-69071420D01*
X164110909Y-71506920D02*
X164277576Y-71149777D01*
X164396623Y-71506920D02*
X164396623Y-70756920D01*
X164206147Y-70756920D01*
X164158528Y-70792635D01*
X164134719Y-70828349D01*
X164110909Y-70899777D01*
X164110909Y-71006920D01*
X164134719Y-71078349D01*
X164158528Y-71114063D01*
X164206147Y-71149777D01*
X164396623Y-71149777D01*
X163920433Y-71471206D02*
X163849004Y-71506920D01*
X163729957Y-71506920D01*
X163682338Y-71471206D01*
X163658528Y-71435492D01*
X163634719Y-71364063D01*
X163634719Y-71292635D01*
X163658528Y-71221206D01*
X163682338Y-71185492D01*
X163729957Y-71149777D01*
X163825195Y-71114063D01*
X163872814Y-71078349D01*
X163896623Y-71042635D01*
X163920433Y-70971206D01*
X163920433Y-70899777D01*
X163896623Y-70828349D01*
X163872814Y-70792635D01*
X163825195Y-70756920D01*
X163706147Y-70756920D01*
X163634719Y-70792635D01*
X163491861Y-70756920D02*
X163206147Y-70756920D01*
X163349004Y-71506920D02*
X163349004Y-70756920D01*
X148978052Y-70792635D02*
X149025671Y-70756920D01*
X149097100Y-70756920D01*
X149168528Y-70792635D01*
X149216147Y-70864063D01*
X149239957Y-70935492D01*
X149263766Y-71078349D01*
X149263766Y-71185492D01*
X149239957Y-71328349D01*
X149216147Y-71399777D01*
X149168528Y-71471206D01*
X149097100Y-71506920D01*
X149049480Y-71506920D01*
X148978052Y-71471206D01*
X148954242Y-71435492D01*
X148954242Y-71185492D01*
X149049480Y-71185492D01*
X148739957Y-71506920D02*
X148739957Y-70756920D01*
X148454242Y-71506920D01*
X148454242Y-70756920D01*
X148216147Y-71506920D02*
X148216147Y-70756920D01*
X148097100Y-70756920D01*
X148025671Y-70792635D01*
X147978052Y-70864063D01*
X147954242Y-70935492D01*
X147930433Y-71078349D01*
X147930433Y-71185492D01*
X147954242Y-71328349D01*
X147978052Y-71399777D01*
X148025671Y-71471206D01*
X148097100Y-71506920D01*
X148216147Y-71506920D01*
X164440266Y-73296920D02*
X164273600Y-74046920D01*
X164106933Y-73296920D01*
X163654552Y-73975492D02*
X163678361Y-74011206D01*
X163749790Y-74046920D01*
X163797409Y-74046920D01*
X163868838Y-74011206D01*
X163916457Y-73939777D01*
X163940266Y-73868349D01*
X163964076Y-73725492D01*
X163964076Y-73618349D01*
X163940266Y-73475492D01*
X163916457Y-73404063D01*
X163868838Y-73332635D01*
X163797409Y-73296920D01*
X163749790Y-73296920D01*
X163678361Y-73332635D01*
X163654552Y-73368349D01*
X163154552Y-73975492D02*
X163178361Y-74011206D01*
X163249790Y-74046920D01*
X163297409Y-74046920D01*
X163368838Y-74011206D01*
X163416457Y-73939777D01*
X163440266Y-73868349D01*
X163464076Y-73725492D01*
X163464076Y-73618349D01*
X163440266Y-73475492D01*
X163416457Y-73404063D01*
X163368838Y-73332635D01*
X163297409Y-73296920D01*
X163249790Y-73296920D01*
X163178361Y-73332635D01*
X163154552Y-73368349D01*
X148978052Y-73332635D02*
X149025671Y-73296920D01*
X149097100Y-73296920D01*
X149168528Y-73332635D01*
X149216147Y-73404063D01*
X149239957Y-73475492D01*
X149263766Y-73618349D01*
X149263766Y-73725492D01*
X149239957Y-73868349D01*
X149216147Y-73939777D01*
X149168528Y-74011206D01*
X149097100Y-74046920D01*
X149049480Y-74046920D01*
X148978052Y-74011206D01*
X148954242Y-73975492D01*
X148954242Y-73725492D01*
X149049480Y-73725492D01*
X148739957Y-74046920D02*
X148739957Y-73296920D01*
X148454242Y-74046920D01*
X148454242Y-73296920D01*
X148216147Y-74046920D02*
X148216147Y-73296920D01*
X148097100Y-73296920D01*
X148025671Y-73332635D01*
X147978052Y-73404063D01*
X147954242Y-73475492D01*
X147930433Y-73618349D01*
X147930433Y-73725492D01*
X147954242Y-73868349D01*
X147978052Y-73939777D01*
X148025671Y-74011206D01*
X148097100Y-74046920D01*
X148216147Y-74046920D01*
X164193719Y-84099992D02*
X164217528Y-84135706D01*
X164288957Y-84171420D01*
X164336576Y-84171420D01*
X164408004Y-84135706D01*
X164455623Y-84064277D01*
X164479433Y-83992849D01*
X164503242Y-83849992D01*
X164503242Y-83742849D01*
X164479433Y-83599992D01*
X164455623Y-83528563D01*
X164408004Y-83457135D01*
X164336576Y-83421420D01*
X164288957Y-83421420D01*
X164217528Y-83457135D01*
X164193719Y-83492849D01*
X163884195Y-83421420D02*
X163788957Y-83421420D01*
X163741338Y-83457135D01*
X163693719Y-83528563D01*
X163669909Y-83671420D01*
X163669909Y-83921420D01*
X163693719Y-84064277D01*
X163741338Y-84135706D01*
X163788957Y-84171420D01*
X163884195Y-84171420D01*
X163931814Y-84135706D01*
X163979433Y-84064277D01*
X164003242Y-83921420D01*
X164003242Y-83671420D01*
X163979433Y-83528563D01*
X163931814Y-83457135D01*
X163884195Y-83421420D01*
X163217528Y-84171420D02*
X163455623Y-84171420D01*
X163455623Y-83421420D01*
X163098480Y-83421420D02*
X162788957Y-83421420D01*
X162955623Y-83707135D01*
X162884195Y-83707135D01*
X162836576Y-83742849D01*
X162812766Y-83778563D01*
X162788957Y-83849992D01*
X162788957Y-84028563D01*
X162812766Y-84099992D01*
X162836576Y-84135706D01*
X162884195Y-84171420D01*
X163027052Y-84171420D01*
X163074671Y-84135706D01*
X163098480Y-84099992D01*
X148977052Y-81603420D02*
X149143719Y-81246277D01*
X149262766Y-81603420D02*
X149262766Y-80853420D01*
X149072290Y-80853420D01*
X149024671Y-80889135D01*
X149000861Y-80924849D01*
X148977052Y-80996277D01*
X148977052Y-81103420D01*
X149000861Y-81174849D01*
X149024671Y-81210563D01*
X149072290Y-81246277D01*
X149262766Y-81246277D01*
X148667528Y-80853420D02*
X148572290Y-80853420D01*
X148524671Y-80889135D01*
X148477052Y-80960563D01*
X148453242Y-81103420D01*
X148453242Y-81353420D01*
X148477052Y-81496277D01*
X148524671Y-81567706D01*
X148572290Y-81603420D01*
X148667528Y-81603420D01*
X148715147Y-81567706D01*
X148762766Y-81496277D01*
X148786576Y-81353420D01*
X148786576Y-81103420D01*
X148762766Y-80960563D01*
X148715147Y-80889135D01*
X148667528Y-80853420D01*
X148286576Y-80853420D02*
X148167528Y-81603420D01*
X148072290Y-81067706D01*
X147977052Y-81603420D01*
X147858004Y-80853420D01*
X147572290Y-80853420D02*
X147524671Y-80853420D01*
X147477052Y-80889135D01*
X147453242Y-80924849D01*
X147429433Y-80996277D01*
X147405623Y-81139135D01*
X147405623Y-81317706D01*
X147429433Y-81460563D01*
X147453242Y-81531992D01*
X147477052Y-81567706D01*
X147524671Y-81603420D01*
X147572290Y-81603420D01*
X147619909Y-81567706D01*
X147643719Y-81531992D01*
X147667528Y-81460563D01*
X147691338Y-81317706D01*
X147691338Y-81139135D01*
X147667528Y-80996277D01*
X147643719Y-80924849D01*
X147619909Y-80889135D01*
X147572290Y-80853420D01*
X164193719Y-81599992D02*
X164217528Y-81635706D01*
X164288957Y-81671420D01*
X164336576Y-81671420D01*
X164408004Y-81635706D01*
X164455623Y-81564277D01*
X164479433Y-81492849D01*
X164503242Y-81349992D01*
X164503242Y-81242849D01*
X164479433Y-81099992D01*
X164455623Y-81028563D01*
X164408004Y-80957135D01*
X164336576Y-80921420D01*
X164288957Y-80921420D01*
X164217528Y-80957135D01*
X164193719Y-80992849D01*
X163884195Y-80921420D02*
X163788957Y-80921420D01*
X163741338Y-80957135D01*
X163693719Y-81028563D01*
X163669909Y-81171420D01*
X163669909Y-81421420D01*
X163693719Y-81564277D01*
X163741338Y-81635706D01*
X163788957Y-81671420D01*
X163884195Y-81671420D01*
X163931814Y-81635706D01*
X163979433Y-81564277D01*
X164003242Y-81421420D01*
X164003242Y-81171420D01*
X163979433Y-81028563D01*
X163931814Y-80957135D01*
X163884195Y-80921420D01*
X163217528Y-81671420D02*
X163455623Y-81671420D01*
X163455623Y-80921420D01*
X163074671Y-80992849D02*
X163050861Y-80957135D01*
X163003242Y-80921420D01*
X162884195Y-80921420D01*
X162836576Y-80957135D01*
X162812766Y-80992849D01*
X162788957Y-81064277D01*
X162788957Y-81135706D01*
X162812766Y-81242849D01*
X163098480Y-81671420D01*
X162788957Y-81671420D01*
X149192338Y-79091206D02*
X149120909Y-79126920D01*
X149001861Y-79126920D01*
X148954242Y-79091206D01*
X148930433Y-79055492D01*
X148906623Y-78984063D01*
X148906623Y-78912635D01*
X148930433Y-78841206D01*
X148954242Y-78805492D01*
X149001861Y-78769777D01*
X149097100Y-78734063D01*
X149144719Y-78698349D01*
X149168528Y-78662635D01*
X149192338Y-78591206D01*
X149192338Y-78519777D01*
X149168528Y-78448349D01*
X149144719Y-78412635D01*
X149097100Y-78376920D01*
X148978052Y-78376920D01*
X148906623Y-78412635D01*
X148406623Y-79055492D02*
X148430433Y-79091206D01*
X148501861Y-79126920D01*
X148549480Y-79126920D01*
X148620909Y-79091206D01*
X148668528Y-79019777D01*
X148692338Y-78948349D01*
X148716147Y-78805492D01*
X148716147Y-78698349D01*
X148692338Y-78555492D01*
X148668528Y-78484063D01*
X148620909Y-78412635D01*
X148549480Y-78376920D01*
X148501861Y-78376920D01*
X148430433Y-78412635D01*
X148406623Y-78448349D01*
X147954242Y-79126920D02*
X148192338Y-79126920D01*
X148192338Y-78376920D01*
X164193719Y-79055492D02*
X164217528Y-79091206D01*
X164288957Y-79126920D01*
X164336576Y-79126920D01*
X164408004Y-79091206D01*
X164455623Y-79019777D01*
X164479433Y-78948349D01*
X164503242Y-78805492D01*
X164503242Y-78698349D01*
X164479433Y-78555492D01*
X164455623Y-78484063D01*
X164408004Y-78412635D01*
X164336576Y-78376920D01*
X164288957Y-78376920D01*
X164217528Y-78412635D01*
X164193719Y-78448349D01*
X163884195Y-78376920D02*
X163788957Y-78376920D01*
X163741338Y-78412635D01*
X163693719Y-78484063D01*
X163669909Y-78626920D01*
X163669909Y-78876920D01*
X163693719Y-79019777D01*
X163741338Y-79091206D01*
X163788957Y-79126920D01*
X163884195Y-79126920D01*
X163931814Y-79091206D01*
X163979433Y-79019777D01*
X164003242Y-78876920D01*
X164003242Y-78626920D01*
X163979433Y-78484063D01*
X163931814Y-78412635D01*
X163884195Y-78376920D01*
X163217528Y-79126920D02*
X163455623Y-79126920D01*
X163455623Y-78376920D01*
X162788957Y-79126920D02*
X163074671Y-79126920D01*
X162931814Y-79126920D02*
X162931814Y-78376920D01*
X162979433Y-78484063D01*
X163027052Y-78555492D01*
X163074671Y-78591206D01*
X149204242Y-76551206D02*
X149132814Y-76586920D01*
X149013766Y-76586920D01*
X148966147Y-76551206D01*
X148942338Y-76515492D01*
X148918528Y-76444063D01*
X148918528Y-76372635D01*
X148942338Y-76301206D01*
X148966147Y-76265492D01*
X149013766Y-76229777D01*
X149109004Y-76194063D01*
X149156623Y-76158349D01*
X149180433Y-76122635D01*
X149204242Y-76051206D01*
X149204242Y-75979777D01*
X149180433Y-75908349D01*
X149156623Y-75872635D01*
X149109004Y-75836920D01*
X148989957Y-75836920D01*
X148918528Y-75872635D01*
X148704242Y-76586920D02*
X148704242Y-75836920D01*
X148585195Y-75836920D01*
X148513766Y-75872635D01*
X148466147Y-75944063D01*
X148442338Y-76015492D01*
X148418528Y-76158349D01*
X148418528Y-76265492D01*
X148442338Y-76408349D01*
X148466147Y-76479777D01*
X148513766Y-76551206D01*
X148585195Y-76586920D01*
X148704242Y-76586920D01*
X148228052Y-76372635D02*
X147989957Y-76372635D01*
X148275671Y-76586920D02*
X148109004Y-75836920D01*
X147942338Y-76586920D01*
X164193719Y-76549992D02*
X164217528Y-76585706D01*
X164288957Y-76621420D01*
X164336576Y-76621420D01*
X164408004Y-76585706D01*
X164455623Y-76514277D01*
X164479433Y-76442849D01*
X164503242Y-76299992D01*
X164503242Y-76192849D01*
X164479433Y-76049992D01*
X164455623Y-75978563D01*
X164408004Y-75907135D01*
X164336576Y-75871420D01*
X164288957Y-75871420D01*
X164217528Y-75907135D01*
X164193719Y-75942849D01*
X163884195Y-75871420D02*
X163788957Y-75871420D01*
X163741338Y-75907135D01*
X163693719Y-75978563D01*
X163669909Y-76121420D01*
X163669909Y-76371420D01*
X163693719Y-76514277D01*
X163741338Y-76585706D01*
X163788957Y-76621420D01*
X163884195Y-76621420D01*
X163931814Y-76585706D01*
X163979433Y-76514277D01*
X164003242Y-76371420D01*
X164003242Y-76121420D01*
X163979433Y-75978563D01*
X163931814Y-75907135D01*
X163884195Y-75871420D01*
X163217528Y-76621420D02*
X163455623Y-76621420D01*
X163455623Y-75871420D01*
X162955623Y-75871420D02*
X162908004Y-75871420D01*
X162860385Y-75907135D01*
X162836576Y-75942849D01*
X162812766Y-76014277D01*
X162788957Y-76157135D01*
X162788957Y-76335706D01*
X162812766Y-76478563D01*
X162836576Y-76549992D01*
X162860385Y-76585706D01*
X162908004Y-76621420D01*
X162955623Y-76621420D01*
X163003242Y-76585706D01*
X163027052Y-76549992D01*
X163050861Y-76478563D01*
X163074671Y-76335706D01*
X163074671Y-76157135D01*
X163050861Y-76014277D01*
X163027052Y-75942849D01*
X163003242Y-75907135D01*
X162955623Y-75871420D01*
X164293480Y-93910563D02*
X164222052Y-93946277D01*
X164198242Y-93981992D01*
X164174433Y-94053420D01*
X164174433Y-94160563D01*
X164198242Y-94231992D01*
X164222052Y-94267706D01*
X164269671Y-94303420D01*
X164460147Y-94303420D01*
X164460147Y-93553420D01*
X164293480Y-93553420D01*
X164245861Y-93589135D01*
X164222052Y-93624849D01*
X164198242Y-93696277D01*
X164198242Y-93767706D01*
X164222052Y-93839135D01*
X164245861Y-93874849D01*
X164293480Y-93910563D01*
X164460147Y-93910563D01*
X163745861Y-93553420D02*
X163841100Y-93553420D01*
X163888719Y-93589135D01*
X163912528Y-93624849D01*
X163960147Y-93731992D01*
X163983957Y-93874849D01*
X163983957Y-94160563D01*
X163960147Y-94231992D01*
X163936338Y-94267706D01*
X163888719Y-94303420D01*
X163793480Y-94303420D01*
X163745861Y-94267706D01*
X163722052Y-94231992D01*
X163698242Y-94160563D01*
X163698242Y-93981992D01*
X163722052Y-93910563D01*
X163745861Y-93874849D01*
X163793480Y-93839135D01*
X163888719Y-93839135D01*
X163936338Y-93874849D01*
X163960147Y-93910563D01*
X163983957Y-93981992D01*
X148799480Y-93974063D02*
X148728052Y-94009777D01*
X148704242Y-94045492D01*
X148680433Y-94116920D01*
X148680433Y-94224063D01*
X148704242Y-94295492D01*
X148728052Y-94331206D01*
X148775671Y-94366920D01*
X148966147Y-94366920D01*
X148966147Y-93616920D01*
X148799480Y-93616920D01*
X148751861Y-93652635D01*
X148728052Y-93688349D01*
X148704242Y-93759777D01*
X148704242Y-93831206D01*
X148728052Y-93902635D01*
X148751861Y-93938349D01*
X148799480Y-93974063D01*
X148966147Y-93974063D01*
X148228052Y-93616920D02*
X148466147Y-93616920D01*
X148489957Y-93974063D01*
X148466147Y-93938349D01*
X148418528Y-93902635D01*
X148299480Y-93902635D01*
X148251861Y-93938349D01*
X148228052Y-93974063D01*
X148204242Y-94045492D01*
X148204242Y-94224063D01*
X148228052Y-94295492D01*
X148251861Y-94331206D01*
X148299480Y-94366920D01*
X148418528Y-94366920D01*
X148466147Y-94331206D01*
X148489957Y-94295492D01*
X148799480Y-91434063D02*
X148728052Y-91469777D01*
X148704242Y-91505492D01*
X148680433Y-91576920D01*
X148680433Y-91684063D01*
X148704242Y-91755492D01*
X148728052Y-91791206D01*
X148775671Y-91826920D01*
X148966147Y-91826920D01*
X148966147Y-91076920D01*
X148799480Y-91076920D01*
X148751861Y-91112635D01*
X148728052Y-91148349D01*
X148704242Y-91219777D01*
X148704242Y-91291206D01*
X148728052Y-91362635D01*
X148751861Y-91398349D01*
X148799480Y-91434063D01*
X148966147Y-91434063D01*
X148251861Y-91326920D02*
X148251861Y-91826920D01*
X148370909Y-91041206D02*
X148489957Y-91576920D01*
X148180433Y-91576920D01*
X164356980Y-91307063D02*
X164285552Y-91342777D01*
X164261742Y-91378492D01*
X164237933Y-91449920D01*
X164237933Y-91557063D01*
X164261742Y-91628492D01*
X164285552Y-91664206D01*
X164333171Y-91699920D01*
X164523647Y-91699920D01*
X164523647Y-90949920D01*
X164356980Y-90949920D01*
X164309361Y-90985635D01*
X164285552Y-91021349D01*
X164261742Y-91092777D01*
X164261742Y-91164206D01*
X164285552Y-91235635D01*
X164309361Y-91271349D01*
X164356980Y-91307063D01*
X164523647Y-91307063D01*
X164047457Y-91021349D02*
X164023647Y-90985635D01*
X163976028Y-90949920D01*
X163856980Y-90949920D01*
X163809361Y-90985635D01*
X163785552Y-91021349D01*
X163761742Y-91092777D01*
X163761742Y-91164206D01*
X163785552Y-91271349D01*
X164071266Y-91699920D01*
X163761742Y-91699920D01*
X148977052Y-89321420D02*
X149143719Y-88964277D01*
X149262766Y-89321420D02*
X149262766Y-88571420D01*
X149072290Y-88571420D01*
X149024671Y-88607135D01*
X149000861Y-88642849D01*
X148977052Y-88714277D01*
X148977052Y-88821420D01*
X149000861Y-88892849D01*
X149024671Y-88928563D01*
X149072290Y-88964277D01*
X149262766Y-88964277D01*
X148667528Y-88571420D02*
X148572290Y-88571420D01*
X148524671Y-88607135D01*
X148477052Y-88678563D01*
X148453242Y-88821420D01*
X148453242Y-89071420D01*
X148477052Y-89214277D01*
X148524671Y-89285706D01*
X148572290Y-89321420D01*
X148667528Y-89321420D01*
X148715147Y-89285706D01*
X148762766Y-89214277D01*
X148786576Y-89071420D01*
X148786576Y-88821420D01*
X148762766Y-88678563D01*
X148715147Y-88607135D01*
X148667528Y-88571420D01*
X148286576Y-88571420D02*
X148167528Y-89321420D01*
X148072290Y-88785706D01*
X147977052Y-89321420D01*
X147858004Y-88571420D01*
X147715147Y-88571420D02*
X147405623Y-88571420D01*
X147572290Y-88857135D01*
X147500861Y-88857135D01*
X147453242Y-88892849D01*
X147429433Y-88928563D01*
X147405623Y-88999992D01*
X147405623Y-89178563D01*
X147429433Y-89249992D01*
X147453242Y-89285706D01*
X147500861Y-89321420D01*
X147643719Y-89321420D01*
X147691338Y-89285706D01*
X147715147Y-89249992D01*
X164193719Y-89249992D02*
X164217528Y-89285706D01*
X164288957Y-89321420D01*
X164336576Y-89321420D01*
X164408004Y-89285706D01*
X164455623Y-89214277D01*
X164479433Y-89142849D01*
X164503242Y-88999992D01*
X164503242Y-88892849D01*
X164479433Y-88749992D01*
X164455623Y-88678563D01*
X164408004Y-88607135D01*
X164336576Y-88571420D01*
X164288957Y-88571420D01*
X164217528Y-88607135D01*
X164193719Y-88642849D01*
X163884195Y-88571420D02*
X163788957Y-88571420D01*
X163741338Y-88607135D01*
X163693719Y-88678563D01*
X163669909Y-88821420D01*
X163669909Y-89071420D01*
X163693719Y-89214277D01*
X163741338Y-89285706D01*
X163788957Y-89321420D01*
X163884195Y-89321420D01*
X163931814Y-89285706D01*
X163979433Y-89214277D01*
X164003242Y-89071420D01*
X164003242Y-88821420D01*
X163979433Y-88678563D01*
X163931814Y-88607135D01*
X163884195Y-88571420D01*
X163217528Y-89321420D02*
X163455623Y-89321420D01*
X163455623Y-88571420D01*
X162812766Y-88571420D02*
X163050861Y-88571420D01*
X163074671Y-88928563D01*
X163050861Y-88892849D01*
X163003242Y-88857135D01*
X162884195Y-88857135D01*
X162836576Y-88892849D01*
X162812766Y-88928563D01*
X162788957Y-88999992D01*
X162788957Y-89178563D01*
X162812766Y-89249992D01*
X162836576Y-89285706D01*
X162884195Y-89321420D01*
X163003242Y-89321420D01*
X163050861Y-89285706D01*
X163074671Y-89249992D01*
X148977052Y-86810420D02*
X149143719Y-86453277D01*
X149262766Y-86810420D02*
X149262766Y-86060420D01*
X149072290Y-86060420D01*
X149024671Y-86096135D01*
X149000861Y-86131849D01*
X148977052Y-86203277D01*
X148977052Y-86310420D01*
X149000861Y-86381849D01*
X149024671Y-86417563D01*
X149072290Y-86453277D01*
X149262766Y-86453277D01*
X148667528Y-86060420D02*
X148572290Y-86060420D01*
X148524671Y-86096135D01*
X148477052Y-86167563D01*
X148453242Y-86310420D01*
X148453242Y-86560420D01*
X148477052Y-86703277D01*
X148524671Y-86774706D01*
X148572290Y-86810420D01*
X148667528Y-86810420D01*
X148715147Y-86774706D01*
X148762766Y-86703277D01*
X148786576Y-86560420D01*
X148786576Y-86310420D01*
X148762766Y-86167563D01*
X148715147Y-86096135D01*
X148667528Y-86060420D01*
X148286576Y-86060420D02*
X148167528Y-86810420D01*
X148072290Y-86274706D01*
X147977052Y-86810420D01*
X147858004Y-86060420D01*
X147691338Y-86131849D02*
X147667528Y-86096135D01*
X147619909Y-86060420D01*
X147500861Y-86060420D01*
X147453242Y-86096135D01*
X147429433Y-86131849D01*
X147405623Y-86203277D01*
X147405623Y-86274706D01*
X147429433Y-86381849D01*
X147715147Y-86810420D01*
X147405623Y-86810420D01*
X164143719Y-86611992D02*
X164167528Y-86647706D01*
X164238957Y-86683420D01*
X164286576Y-86683420D01*
X164358004Y-86647706D01*
X164405623Y-86576277D01*
X164429433Y-86504849D01*
X164453242Y-86361992D01*
X164453242Y-86254849D01*
X164429433Y-86111992D01*
X164405623Y-86040563D01*
X164358004Y-85969135D01*
X164286576Y-85933420D01*
X164238957Y-85933420D01*
X164167528Y-85969135D01*
X164143719Y-86004849D01*
X163834195Y-85933420D02*
X163738957Y-85933420D01*
X163691338Y-85969135D01*
X163643719Y-86040563D01*
X163619909Y-86183420D01*
X163619909Y-86433420D01*
X163643719Y-86576277D01*
X163691338Y-86647706D01*
X163738957Y-86683420D01*
X163834195Y-86683420D01*
X163881814Y-86647706D01*
X163929433Y-86576277D01*
X163953242Y-86433420D01*
X163953242Y-86183420D01*
X163929433Y-86040563D01*
X163881814Y-85969135D01*
X163834195Y-85933420D01*
X163167528Y-86683420D02*
X163405623Y-86683420D01*
X163405623Y-85933420D01*
X162786576Y-86183420D02*
X162786576Y-86683420D01*
X162905623Y-85897706D02*
X163024671Y-86433420D01*
X162715147Y-86433420D01*
X148977052Y-84206920D02*
X149143719Y-83849777D01*
X149262766Y-84206920D02*
X149262766Y-83456920D01*
X149072290Y-83456920D01*
X149024671Y-83492635D01*
X149000861Y-83528349D01*
X148977052Y-83599777D01*
X148977052Y-83706920D01*
X149000861Y-83778349D01*
X149024671Y-83814063D01*
X149072290Y-83849777D01*
X149262766Y-83849777D01*
X148667528Y-83456920D02*
X148572290Y-83456920D01*
X148524671Y-83492635D01*
X148477052Y-83564063D01*
X148453242Y-83706920D01*
X148453242Y-83956920D01*
X148477052Y-84099777D01*
X148524671Y-84171206D01*
X148572290Y-84206920D01*
X148667528Y-84206920D01*
X148715147Y-84171206D01*
X148762766Y-84099777D01*
X148786576Y-83956920D01*
X148786576Y-83706920D01*
X148762766Y-83564063D01*
X148715147Y-83492635D01*
X148667528Y-83456920D01*
X148286576Y-83456920D02*
X148167528Y-84206920D01*
X148072290Y-83671206D01*
X147977052Y-84206920D01*
X147858004Y-83456920D01*
X147405623Y-84206920D02*
X147691338Y-84206920D01*
X147548480Y-84206920D02*
X147548480Y-83456920D01*
X147596100Y-83564063D01*
X147643719Y-83635492D01*
X147691338Y-83671206D01*
D10*
%TD*%
M02*
