<?xml version="1.0" encoding="UTF-8" standalone="no"?>
<svg
   xmlns:dc="http://purl.org/dc/elements/1.1/"
   xmlns:cc="http://creativecommons.org/ns#"
   xmlns:rdf="http://www.w3.org/1999/02/22-rdf-syntax-ns#"
   xmlns:svg="http://www.w3.org/2000/svg"
   xmlns="http://www.w3.org/2000/svg"
   xmlns:sodipodi="http://sodipodi.sourceforge.net/DTD/sodipodi-0.dtd"
   xmlns:inkscape="http://www.inkscape.org/namespaces/inkscape"
   width="139mm"
   height="125mm"
   viewBox="20 -145 139 125"
   version="1.1"
   id="svg6"
   sodipodi:docname="bottom_plate.svg"
   inkscape:version="0.92.3 (2405546, 2018-03-11)">
  <metadata
     id="metadata12">
    <rdf:RDF>
      <cc:Work
         rdf:about="">
        <dc:format>image/svg+xml</dc:format>
        <dc:type
           rdf:resource="http://purl.org/dc/dcmitype/StillImage" />
      </cc:Work>
    </rdf:RDF>
  </metadata>
  <defs
     id="defs10" />
  <sodipodi:namedview
     pagecolor="#ffffff"
     bordercolor="#666666"
     borderopacity="1"
     objecttolerance="10"
     gridtolerance="10"
     guidetolerance="10"
     inkscape:pageopacity="0"
     inkscape:pageshadow="2"
     inkscape:window-width="1699"
     inkscape:window-height="1421"
     id="namedview8"
     showgrid="false"
     inkscape:zoom="0.70710678"
     inkscape:cx="185.88785"
     inkscape:cy="306.00289"
     inkscape:window-x="1517"
     inkscape:window-y="261"
     inkscape:window-maximized="0"
     inkscape:current-layer="svg6" />
  <title
     id="title2">OpenSCAD Model</title>
  <path
     d=" M 149.887,-20.0805 L 149.95,-20.0846 L 150.012,-20.0927 L 150.074,-20.1047 L 150.135,-20.1205 L 150.194,-20.1402  L 150.253,-20.1635 L 150.309,-20.1904 L 150.364,-20.2209 L 150.417,-20.2547 L 150.468,-20.2919 L 150.516,-20.3321  L 150.562,-20.3752 L 150.605,-20.4212 L 150.645,-20.4697 L 150.681,-20.5207 L 150.715,-20.5738 L 150.745,-20.629  L 150.772,-20.6859 L 150.794,-20.7444 L 150.814,-20.8042 L 158.351,-47.0912 L 158.367,-47.1521 L 158.378,-47.2139  L 158.386,-47.2762 L 158.39,-47.3389 L 158.39,-47.4018 L 158.385,-47.4644 L 158.375,-47.5402 L 156.057,-60.7115  L 156.046,-60.7894 L 156.04,-60.8552 L 156.039,-60.9126 L 156.039,-116.965 L 156.037,-117.028 L 156.031,-117.09  L 156.021,-117.152 L 156.008,-117.214 L 155.99,-117.274 L 155.969,-117.333 L 155.944,-117.391 L 155.915,-117.447  L 155.883,-117.501 L 155.848,-117.553 L 155.809,-117.602 L 155.768,-117.65 L 155.724,-117.694 L 155.676,-117.736  L 155.627,-117.774 L 155.575,-117.809 L 155.521,-117.841 L 155.465,-117.87 L 155.407,-117.895 L 155.348,-117.916  L 155.288,-117.934 L 155.226,-117.947 L 155.164,-117.957 L 155.102,-117.963 L 155.039,-117.965 L 135.624,-117.965  L 135.545,-117.967 L 135.483,-117.973 L 135.421,-117.983 L 135.359,-117.997 L 135.299,-118.014 L 135.24,-118.036  L 135.182,-118.061 L 135.126,-118.089 L 135.072,-118.121 L 135.021,-118.156 L 134.971,-118.195 L 134.924,-118.236  L 134.879,-118.281 L 134.838,-118.328 L 134.799,-118.378 L 134.764,-118.429 L 134.732,-118.483 L 134.704,-118.539  L 134.679,-118.597 L 134.657,-118.656 L 134.64,-118.716 L 134.626,-118.778 L 134.616,-118.84 L 134.61,-118.902  L 134.608,-118.981 L 134.608,-136.015 L 134.606,-136.078 L 134.6,-136.14 L 134.59,-136.202 L 134.577,-136.264  L 134.559,-136.324 L 134.538,-136.383 L 134.513,-136.441 L 134.484,-136.497 L 134.452,-136.551 L 134.417,-136.603  L 134.378,-136.652 L 134.337,-136.7 L 134.293,-136.744 L 134.245,-136.785 L 134.196,-136.824 L 134.144,-136.859  L 134.09,-136.891 L 134.034,-136.92 L 133.976,-136.945 L 133.917,-136.966 L 133.857,-136.984 L 133.795,-136.997  L 133.733,-137.007 L 133.671,-137.013 L 133.608,-137.015 L 116.574,-137.015 L 116.495,-137.017 L 116.433,-137.023  L 116.371,-137.033 L 116.309,-137.047 L 116.249,-137.064 L 116.19,-137.086 L 116.132,-137.111 L 116.076,-137.139  L 116.022,-137.171 L 115.971,-137.206 L 115.921,-137.245 L 115.874,-137.286 L 115.829,-137.331 L 115.788,-137.378  L 115.749,-137.428 L 115.714,-137.479 L 115.682,-137.533 L 115.654,-137.589 L 115.629,-137.647 L 115.607,-137.706  L 115.59,-137.766 L 115.576,-137.828 L 115.566,-137.89 L 115.56,-137.952 L 115.558,-138.031 L 115.558,-138.396  L 115.556,-138.459 L 115.55,-138.521 L 115.54,-138.583 L 115.527,-138.645 L 115.509,-138.705 L 115.488,-138.764  L 115.463,-138.822 L 115.434,-138.878 L 115.402,-138.932 L 115.367,-138.984 L 115.329,-139.033 L 115.287,-139.081  L 115.243,-139.125 L 115.195,-139.167 L 115.146,-139.205 L 115.094,-139.24 L 115.04,-139.272 L 114.984,-139.301  L 114.926,-139.326 L 114.867,-139.347 L 114.807,-139.365 L 114.745,-139.378 L 114.683,-139.388 L 114.621,-139.394  L 114.558,-139.396 L 97.5239,-139.396 L 97.4451,-139.398 L 97.3827,-139.404 L 97.3207,-139.414 L 97.2594,-139.428  L 97.1992,-139.445 L 97.1401,-139.467 L 97.0824,-139.492 L 97.0264,-139.52 L 96.9725,-139.552 L 96.9206,-139.587  L 96.8708,-139.626 L 96.8238,-139.667 L 96.7794,-139.712 L 96.7379,-139.759 L 96.6993,-139.809 L 96.664,-139.86  L 96.6322,-139.914 L 96.6036,-139.97 L 96.5787,-140.028 L 96.5574,-140.087 L 96.5399,-140.147 L 96.5262,-140.209  L 96.5164,-140.271 L 96.5105,-140.333 L 96.508,-140.412 L 96.508,-143.158 L 96.506,-143.221 L 96.5001,-143.283  L 96.4903,-143.345 L 96.4766,-143.407 L 96.459,-143.467 L 96.4378,-143.526 L 96.4128,-143.584 L 96.3843,-143.64  L 96.3523,-143.694 L 96.317,-143.746 L 96.2785,-143.795 L 96.237,-143.843 L 96.1925,-143.887 L 96.1454,-143.928  L 96.0958,-143.967 L 96.0438,-144.002 L 95.9897,-144.034 L 95.9338,-144.063 L 95.8761,-144.088 L 95.817,-144.109  L 95.7567,-144.127 L 95.6954,-144.14 L 95.6333,-144.15 L 95.5708,-144.156 L 95.508,-144.158 L 78.456,-144.158  L 78.3932,-144.156 L 78.3307,-144.15 L 78.2686,-144.14 L 78.2073,-144.127 L 78.147,-144.109 L 78.0879,-144.088  L 78.0302,-144.063 L 77.9742,-144.034 L 77.9202,-144.002 L 77.8682,-143.967 L 77.8186,-143.928 L 77.7715,-143.887  L 77.727,-143.843 L 77.6855,-143.795 L 77.647,-143.746 L 77.6117,-143.694 L 77.5797,-143.64 L 77.5512,-143.584  L 77.5262,-143.526 L 77.5049,-143.467 L 77.4874,-143.407 L 77.4737,-143.345 L 77.4639,-143.283 L 77.458,-143.221  L 77.456,-143.158 L 77.456,-142.793 L 77.4535,-142.714 L 77.4476,-142.652 L 77.4378,-142.59 L 77.4241,-142.528  L 77.4066,-142.468 L 77.3853,-142.409 L 77.3604,-142.351 L 77.3318,-142.295 L 77.2999,-142.241 L 77.2647,-142.19  L 77.226,-142.14 L 77.1846,-142.093 L 77.1402,-142.048 L 77.0932,-142.007 L 77.0434,-141.968 L 76.9915,-141.933  L 76.9376,-141.901 L 76.8816,-141.873 L 76.8239,-141.848 L 76.7648,-141.826 L 76.7046,-141.809 L 76.6433,-141.795  L 76.5813,-141.785 L 76.5188,-141.779 L 76.4401,-141.777 L 59.406,-141.777 L 59.3432,-141.775 L 59.2807,-141.769  L 59.2186,-141.759 L 59.1573,-141.746 L 59.097,-141.728 L 59.0379,-141.707 L 58.9802,-141.682 L 58.9242,-141.653  L 58.8702,-141.621 L 58.8182,-141.586 L 58.7686,-141.548 L 58.7215,-141.506 L 58.677,-141.462 L 58.6355,-141.414  L 58.597,-141.365 L 58.5617,-141.313 L 58.5297,-141.259 L 58.5012,-141.203 L 58.4762,-141.145 L 58.4549,-141.086  L 58.4374,-141.026 L 58.4237,-140.964 L 58.4139,-140.902 L 58.408,-140.84 L 58.406,-140.777 L 58.406,-135.649  L 58.4035,-135.57 L 58.3976,-135.508 L 58.3878,-135.446 L 58.3741,-135.384 L 58.3566,-135.324 L 58.3353,-135.265  L 58.3103,-135.207 L 58.2818,-135.151 L 58.2499,-135.097 L 58.2147,-135.046 L 58.176,-134.996 L 58.1346,-134.949  L 58.0902,-134.904 L 58.0432,-134.863 L 57.9934,-134.824 L 57.9415,-134.789 L 57.8876,-134.757 L 57.8316,-134.729  L 57.7739,-134.704 L 57.7148,-134.682 L 57.6546,-134.665 L 57.5933,-134.651 L 57.5313,-134.641 L 57.4688,-134.635  L 57.3901,-134.633 L 21.306,-134.633 L 21.2432,-134.631 L 21.1807,-134.625 L 21.1186,-134.615 L 21.0573,-134.602  L 20.997,-134.584 L 20.9379,-134.563 L 20.8802,-134.538 L 20.8242,-134.509 L 20.7702,-134.477 L 20.7182,-134.442  L 20.6686,-134.404 L 20.6215,-134.362 L 20.577,-134.318 L 20.5355,-134.27 L 20.497,-134.221 L 20.4617,-134.169  L 20.4297,-134.115 L 20.4012,-134.059 L 20.3762,-134.001 L 20.3549,-133.942 L 20.3374,-133.882 L 20.3237,-133.82  L 20.3139,-133.758 L 20.308,-133.696 L 20.306,-133.633 L 20.306,-40.382 L 20.308,-40.3192 L 20.3139,-40.2567  L 20.3237,-40.1946 L 20.3374,-40.1333 L 20.3549,-40.073 L 20.3762,-40.0139 L 20.4012,-39.9562 L 20.4297,-39.9002  L 20.4617,-39.8462 L 20.497,-39.7942 L 20.5355,-39.7446 L 20.577,-39.6974 L 20.6215,-39.653 L 20.6686,-39.6115  L 20.7182,-39.573 L 20.7702,-39.5377 L 20.8242,-39.5057 L 20.8802,-39.4772 L 20.9379,-39.4522 L 20.997,-39.4309  L 21.0573,-39.4134 L 21.1186,-39.3997 L 21.1807,-39.3899 L 21.2432,-39.384 L 21.306,-39.382 L 57.408,-39.382  L 57.4708,-39.384 L 57.5333,-39.3899 L 57.5954,-39.3997 L 57.6567,-39.4134 L 57.717,-39.4309 L 57.7761,-39.4522  L 57.8338,-39.4772 L 57.8897,-39.5057 L 57.9438,-39.5377 L 57.9958,-39.573 L 58.0454,-39.6115 L 58.0925,-39.653  L 58.137,-39.6974 L 58.1785,-39.7446 L 58.217,-39.7942 L 58.2523,-39.8462 L 58.2843,-39.9002 L 58.3128,-39.9562  L 58.3378,-40.0139 L 58.359,-40.073 L 58.3766,-40.1333 L 58.3903,-40.1946 L 58.4001,-40.2567 L 58.406,-40.3192  L 58.408,-40.382 L 58.408,-45.5091 L 58.4105,-45.5878 L 58.4164,-45.6503 L 58.4262,-45.7123 L 58.4399,-45.7736  L 58.4574,-45.8338 L 58.4787,-45.8929 L 58.5036,-45.9506 L 58.5322,-46.0066 L 58.564,-46.0605 L 58.5993,-46.1124  L 58.6379,-46.1622 L 58.6794,-46.2092 L 58.7238,-46.2536 L 58.7708,-46.295 L 58.8206,-46.3337 L 58.8725,-46.3689  L 58.9264,-46.4008 L 58.9824,-46.4294 L 59.0401,-46.4543 L 59.0992,-46.4756 L 59.1594,-46.4931 L 59.2207,-46.5068  L 59.2827,-46.5166 L 59.3451,-46.5225 L 59.4239,-46.525 L 90.7271,-46.525 L 90.8058,-46.5225 L 90.8683,-46.5166  L 90.9302,-46.5068 L 90.9916,-46.4931 L 91.0518,-46.4756 L 91.1109,-46.4543 L 91.1686,-46.4293 L 91.2246,-46.4008  L 91.2785,-46.3689 L 91.3304,-46.3336 L 91.3802,-46.295 L 91.4272,-46.2536 L 91.4716,-46.2092 L 91.5131,-46.1621  L 91.5517,-46.1124 L 91.5869,-46.0605 L 91.6189,-46.0065 L 91.6473,-45.9506 L 91.6723,-45.8929 L 91.6936,-45.8338  L 91.7111,-45.7735 L 91.7248,-45.7123 L 91.7346,-45.6503 L 91.7405,-45.5878 L 91.743,-45.509 L 91.743,-40.381  L 91.745,-40.3182 L 91.7509,-40.2556 L 91.7607,-40.1936 L 91.7744,-40.1323 L 91.7919,-40.072 L 91.8132,-40.0129  L 91.8382,-39.9552 L 91.8667,-39.8992 L 91.8987,-39.8452 L 91.934,-39.7932 L 91.9725,-39.7436 L 92.014,-39.6964  L 92.0585,-39.652 L 92.1056,-39.6105 L 92.1552,-39.572 L 92.2072,-39.5367 L 92.2612,-39.5047 L 92.3172,-39.4762  L 92.3749,-39.4512 L 92.434,-39.4299 L 92.4943,-39.4124 L 92.5556,-39.3987 L 92.6177,-39.3889 L 92.6802,-39.3829  L 92.743,-39.381 L 110.795,-39.381 L 113.088,-39.382 L 113.163,-39.3796 L 113.263,-39.3695 L 131.178,-36.8513  L 131.256,-36.8379 L 131.316,-36.8234 L 131.377,-36.8049 L 131.436,-36.7829 L 131.493,-36.7572 L 131.548,-36.7279  L 131.602,-36.6952 L 131.653,-36.6592 L 131.702,-36.6199 L 131.749,-36.5777 L 131.793,-36.5327 L 131.833,-36.4852  L 131.871,-36.4349 L 131.906,-36.3825 L 131.937,-36.3281 L 131.965,-36.2718 L 131.989,-36.2136 L 132.009,-36.1544  L 132.026,-36.0938 L 132.039,-36.0324 L 132.048,-35.9704 L 132.053,-35.9001 L 132.055,-35.8663 L 132.212,-25.8352  L 132.215,-25.7725 L 132.222,-25.71 L 132.233,-25.6481 L 132.248,-25.5871 L 132.266,-25.527 L 132.288,-25.4682  L 132.314,-25.411 L 132.344,-25.3555 L 132.376,-25.3019 L 132.413,-25.2505 L 132.452,-25.2015 L 132.494,-25.155  L 132.539,-25.1113 L 132.587,-25.0705 L 132.637,-25.0328 L 132.69,-24.9983 L 132.744,-24.9672 L 132.801,-24.9395  L 132.859,-24.9155 L 132.937,-24.8897 L 149.577,-20.1186 L 149.638,-20.1032 L 149.699,-20.0916 L 149.762,-20.084  L 149.824,-20.0802 z M 115.385,-116.878 L 115.217,-116.918 L 115.058,-116.984 L 114.91,-117.074 L 114.779,-117.186 L 114.667,-117.317  L 114.577,-117.465 L 114.511,-117.624 L 114.471,-117.792 L 114.457,-117.964 L 114.471,-118.136 L 114.511,-118.304  L 114.577,-118.463 L 114.667,-118.611 L 114.779,-118.742 L 114.91,-118.854 L 115.058,-118.944 L 115.217,-119.01  L 115.385,-119.05 L 115.557,-119.064 L 115.729,-119.05 L 115.897,-119.01 L 116.056,-118.944 L 116.204,-118.854  L 116.335,-118.742 L 116.447,-118.611 L 116.537,-118.463 L 116.603,-118.304 L 116.643,-118.136 L 116.657,-117.964  L 116.643,-117.792 L 116.603,-117.624 L 116.537,-117.465 L 116.447,-117.317 L 116.335,-117.186 L 116.204,-117.074  L 116.056,-116.984 L 115.897,-116.918 L 115.729,-116.878 L 115.557,-116.864 z M 39.1849,-114.496 L 39.0171,-114.536 L 38.8576,-114.602 L 38.7104,-114.692 L 38.5792,-114.804 L 38.4671,-114.935  L 38.3769,-115.083 L 38.3108,-115.242 L 38.2705,-115.41 L 38.257,-115.582 L 38.2705,-115.754 L 38.3108,-115.922  L 38.3769,-116.081 L 38.4671,-116.229 L 38.5792,-116.36 L 38.7104,-116.472 L 38.8576,-116.562 L 39.0171,-116.628  L 39.1849,-116.668 L 39.357,-116.682 L 39.5291,-116.668 L 39.6969,-116.628 L 39.8564,-116.562 L 40.0036,-116.472  L 40.1348,-116.36 L 40.2469,-116.229 L 40.3371,-116.081 L 40.4032,-115.922 L 40.4435,-115.754 L 40.457,-115.582  L 40.4435,-115.41 L 40.4032,-115.242 L 40.3371,-115.083 L 40.2469,-114.935 L 40.1348,-114.804 L 40.0036,-114.692  L 39.8564,-114.602 L 39.6969,-114.536 L 39.5291,-114.496 L 39.357,-114.482 z M 77.2849,-102.59 L 77.1171,-102.63 L 76.9576,-102.696 L 76.8104,-102.786 L 76.6792,-102.898 L 76.5671,-103.029  L 76.4769,-103.177 L 76.4108,-103.336 L 76.3705,-103.504 L 76.357,-103.676 L 76.3705,-103.848 L 76.4108,-104.016  L 76.4769,-104.175 L 76.5671,-104.323 L 76.6792,-104.454 L 76.8104,-104.566 L 76.9576,-104.656 L 77.1171,-104.722  L 77.2849,-104.762 L 77.457,-104.776 L 77.6291,-104.762 L 77.7969,-104.722 L 77.9564,-104.656 L 78.1036,-104.566  L 78.2348,-104.454 L 78.3469,-104.323 L 78.4371,-104.175 L 78.5032,-104.016 L 78.5435,-103.848 L 78.557,-103.676  L 78.5435,-103.504 L 78.5032,-103.336 L 78.4371,-103.177 L 78.3469,-103.029 L 78.2348,-102.898 L 78.1036,-102.786  L 77.9564,-102.696 L 77.7969,-102.63 L 77.6291,-102.59 L 77.457,-102.576 z M 138.01,-78.821 L 137.843,-78.8613 L 137.683,-78.9274 L 137.536,-79.0176 L 137.405,-79.1297 L 137.293,-79.2609  L 137.202,-79.4081 L 137.136,-79.5676 L 137.096,-79.7354 L 137.082,-79.9075 L 137.096,-80.0796 L 137.136,-80.2474  L 137.202,-80.4069 L 137.293,-80.5541 L 137.405,-80.6853 L 137.536,-80.7974 L 137.683,-80.8876 L 137.843,-80.9537  L 138.01,-80.994 L 138.182,-81.0075 L 138.355,-80.994 L 138.522,-80.9537 L 138.682,-80.8876 L 138.829,-80.7974  L 138.96,-80.6853 L 139.072,-80.5541 L 139.163,-80.4069 L 139.229,-80.2474 L 139.269,-80.0796 L 139.282,-79.9075  L 139.269,-79.7354 L 139.229,-79.5676 L 139.163,-79.4081 L 139.072,-79.2609 L 138.96,-79.1297 L 138.829,-79.0176  L 138.682,-78.9274 L 138.522,-78.8613 L 138.355,-78.821 L 138.182,-78.8075 z M 152.352,-78.821 L 152.185,-78.8613 L 152.025,-78.9274 L 151.878,-79.0176 L 151.747,-79.1297 L 151.635,-79.2609  L 151.544,-79.4081 L 151.478,-79.5676 L 151.438,-79.7354 L 151.424,-79.9075 L 151.438,-80.0796 L 151.478,-80.2474  L 151.544,-80.4069 L 151.635,-80.5541 L 151.747,-80.6853 L 151.878,-80.7974 L 152.025,-80.8876 L 152.185,-80.9537  L 152.352,-80.994 L 152.524,-81.0075 L 152.697,-80.994 L 152.864,-80.9537 L 153.024,-80.8876 L 153.171,-80.7974  L 153.302,-80.6853 L 153.414,-80.5541 L 153.505,-80.4069 L 153.571,-80.2474 L 153.611,-80.0796 L 153.624,-79.9075  L 153.611,-79.7354 L 153.571,-79.5676 L 153.505,-79.4081 L 153.414,-79.2609 L 153.302,-79.1297 L 153.171,-79.0176  L 153.024,-78.9274 L 152.864,-78.8613 L 152.697,-78.821 L 152.524,-78.8075 z M 115.385,-78.7775 L 115.217,-78.8178 L 115.058,-78.8839 L 114.91,-78.9741 L 114.779,-79.0862 L 114.667,-79.2174  L 114.577,-79.3646 L 114.511,-79.5241 L 114.471,-79.6919 L 114.457,-79.864 L 114.471,-80.0361 L 114.511,-80.2039  L 114.577,-80.3634 L 114.667,-80.5105 L 114.779,-80.6418 L 114.91,-80.7539 L 115.058,-80.8441 L 115.217,-80.9102  L 115.385,-80.9504 L 115.557,-80.964 L 115.729,-80.9504 L 115.897,-80.9102 L 116.056,-80.8441 L 116.204,-80.7539  L 116.335,-80.6418 L 116.447,-80.5105 L 116.537,-80.3634 L 116.603,-80.2039 L 116.643,-80.0361 L 116.657,-79.864  L 116.643,-79.6919 L 116.603,-79.5241 L 116.537,-79.3646 L 116.447,-79.2174 L 116.335,-79.0862 L 116.204,-78.9741  L 116.056,-78.8839 L 115.897,-78.8178 L 115.729,-78.7775 L 115.557,-78.764 z M 39.1849,-57.3465 L 39.0171,-57.3868 L 38.8576,-57.4529 L 38.7104,-57.5431 L 38.5792,-57.6552 L 38.4671,-57.7864  L 38.3769,-57.9336 L 38.3108,-58.0931 L 38.2705,-58.2609 L 38.257,-58.433 L 38.2705,-58.6051 L 38.3108,-58.7729  L 38.3769,-58.9324 L 38.4671,-59.0796 L 38.5792,-59.2108 L 38.7104,-59.3229 L 38.8576,-59.4131 L 39.0171,-59.4792  L 39.1849,-59.5195 L 39.357,-59.533 L 39.5291,-59.5195 L 39.6969,-59.4792 L 39.8564,-59.4131 L 40.0036,-59.3229  L 40.1348,-59.2108 L 40.2469,-59.0796 L 40.3371,-58.9324 L 40.4032,-58.7729 L 40.4435,-58.6051 L 40.457,-58.433  L 40.4435,-58.2609 L 40.4032,-58.0931 L 40.3371,-57.9336 L 40.2469,-57.7864 L 40.1348,-57.6552 L 40.0036,-57.5431  L 39.8564,-57.4529 L 39.6969,-57.3868 L 39.5291,-57.3465 L 39.357,-57.333 z M 134.214,-40.7638 L 134.046,-40.8041 L 133.886,-40.8701 L 133.739,-40.9603 L 133.608,-41.0724 L 133.496,-41.2037  L 133.406,-41.3508 L 133.34,-41.5103 L 133.299,-41.6782 L 133.286,-41.8502 L 133.299,-42.0223 L 133.34,-42.1902  L 133.406,-42.3496 L 133.496,-42.4968 L 133.608,-42.6281 L 133.739,-42.7402 L 133.886,-42.8304 L 134.046,-42.8964  L 134.214,-42.9367 L 134.386,-42.9502 L 134.558,-42.9367 L 134.726,-42.8964 L 134.885,-42.8304 L 135.032,-42.7402  L 135.164,-42.6281 L 135.276,-42.4968 L 135.366,-42.3496 L 135.432,-42.1902 L 135.472,-42.0223 L 135.486,-41.8502  L 135.472,-41.6782 L 135.432,-41.5103 L 135.366,-41.3508 L 135.276,-41.2037 L 135.164,-41.0724 L 135.032,-40.9603  L 134.885,-40.8701 L 134.726,-40.8041 L 134.558,-40.7638 L 134.386,-40.7502 z "
     id="path4"
     style="fill:none;stroke-width:0.1;stroke-miterlimit:4;stroke-dasharray:none"
     stroke-width="0.5"
     stroke="black"
     fill="lightgray" />
</svg>
