<?xml version="1.0" encoding="UTF-8" standalone="no"?>
<svg
   xmlns:dc="http://purl.org/dc/elements/1.1/"
   xmlns:cc="http://creativecommons.org/ns#"
   xmlns:rdf="http://www.w3.org/1999/02/22-rdf-syntax-ns#"
   xmlns:svg="http://www.w3.org/2000/svg"
   xmlns="http://www.w3.org/2000/svg"
   xmlns:sodipodi="http://sodipodi.sourceforge.net/DTD/sodipodi-0.dtd"
   xmlns:inkscape="http://www.inkscape.org/namespaces/inkscape"
   width="23mm"
   height="58mm"
   viewBox="134 -118 23 58"
   version="1.1"
   id="svg6"
   sodipodi:docname="oled_plate.svg"
   inkscape:version="0.92.3 (2405546, 2018-03-11)">
  <metadata
     id="metadata12">
    <rdf:RDF>
      <cc:Work
         rdf:about="">
        <dc:format>image/svg+xml</dc:format>
        <dc:type
           rdf:resource="http://purl.org/dc/dcmitype/StillImage" />
      </cc:Work>
    </rdf:RDF>
  </metadata>
  <defs
     id="defs10" />
  <sodipodi:namedview
     pagecolor="#ffffff"
     bordercolor="#666666"
     borderopacity="1"
     objecttolerance="10"
     gridtolerance="10"
     guidetolerance="10"
     inkscape:pageopacity="0"
     inkscape:pageshadow="2"
     inkscape:window-width="1959"
     inkscape:window-height="1139"
     id="namedview8"
     showgrid="false"
     inkscape:zoom="1.0765805"
     inkscape:cx="43.464567"
     inkscape:cy="109.6063"
     inkscape:window-x="1725"
     inkscape:window-y="651"
     inkscape:window-maximized="0"
     inkscape:current-layer="svg6" />
  <title
     id="title2">OpenSCAD Model</title>
  <path
     d=" M 155.102,-60.815 L 155.164,-60.8209 L 155.226,-60.8307 L 155.288,-60.8444 L 155.348,-60.8619 L 155.407,-60.8832  L 155.465,-60.9082 L 155.521,-60.9367 L 155.575,-60.9687 L 155.627,-61.004 L 155.676,-61.0425 L 155.724,-61.084  L 155.768,-61.1284 L 155.809,-61.1756 L 155.848,-61.2252 L 155.883,-61.2772 L 155.915,-61.3312 L 155.944,-61.3872  L 155.969,-61.4449 L 155.99,-61.504 L 156.008,-61.5643 L 156.021,-61.6256 L 156.031,-61.6877 L 156.037,-61.7502  L 156.039,-61.813 L 156.039,-116.965 L 156.037,-117.028 L 156.031,-117.09 L 156.021,-117.152 L 156.008,-117.214  L 155.99,-117.274 L 155.969,-117.333 L 155.944,-117.391 L 155.915,-117.447 L 155.883,-117.501 L 155.848,-117.553  L 155.809,-117.602 L 155.768,-117.65 L 155.724,-117.694 L 155.676,-117.736 L 155.627,-117.774 L 155.575,-117.809  L 155.521,-117.841 L 155.465,-117.87 L 155.407,-117.895 L 155.348,-117.916 L 155.288,-117.934 L 155.226,-117.947  L 155.164,-117.957 L 155.102,-117.963 L 155.039,-117.965 L 135.608,-117.965 L 135.545,-117.963 L 135.483,-117.957  L 135.421,-117.947 L 135.359,-117.934 L 135.299,-117.916 L 135.24,-117.895 L 135.182,-117.87 L 135.126,-117.841  L 135.072,-117.809 L 135.02,-117.774 L 134.971,-117.736 L 134.923,-117.694 L 134.879,-117.65 L 134.837,-117.602  L 134.799,-117.553 L 134.764,-117.501 L 134.732,-117.447 L 134.703,-117.391 L 134.678,-117.333 L 134.657,-117.274  L 134.639,-117.214 L 134.626,-117.152 L 134.616,-117.09 L 134.61,-117.028 L 134.608,-116.965 L 134.608,-61.813  L 134.61,-61.7502 L 134.616,-61.6877 L 134.626,-61.6256 L 134.639,-61.5643 L 134.657,-61.504 L 134.678,-61.4449  L 134.703,-61.3872 L 134.732,-61.3312 L 134.764,-61.2772 L 134.799,-61.2252 L 134.837,-61.1756 L 134.879,-61.1284  L 134.923,-61.084 L 134.971,-61.0425 L 135.02,-61.004 L 135.072,-60.9687 L 135.126,-60.9367 L 135.182,-60.9082  L 135.24,-60.8832 L 135.299,-60.8619 L 135.359,-60.8444 L 135.421,-60.8307 L 135.483,-60.8209 L 135.545,-60.815  L 135.608,-60.813 L 155.039,-60.813 z M 138.01,-78.821 L 137.843,-78.8613 L 137.683,-78.9274 L 137.536,-79.0176 L 137.405,-79.1297 L 137.293,-79.2609  L 137.202,-79.4081 L 137.136,-79.5676 L 137.096,-79.7354 L 137.082,-79.9075 L 137.096,-80.0796 L 137.136,-80.2474  L 137.202,-80.4069 L 137.293,-80.5541 L 137.405,-80.6853 L 137.536,-80.7974 L 137.683,-80.8876 L 137.843,-80.9537  L 138.01,-80.994 L 138.182,-81.0075 L 138.355,-80.994 L 138.522,-80.9537 L 138.682,-80.8876 L 138.829,-80.7974  L 138.96,-80.6853 L 139.072,-80.5541 L 139.163,-80.4069 L 139.229,-80.2474 L 139.269,-80.0796 L 139.282,-79.9075  L 139.269,-79.7354 L 139.229,-79.5676 L 139.163,-79.4081 L 139.072,-79.2609 L 138.96,-79.1297 L 138.829,-79.0176  L 138.682,-78.9274 L 138.522,-78.8613 L 138.355,-78.821 L 138.182,-78.8075 z M 152.352,-78.821 L 152.185,-78.8613 L 152.025,-78.9274 L 151.878,-79.0176 L 151.747,-79.1297 L 151.635,-79.2609  L 151.544,-79.4081 L 151.478,-79.5676 L 151.438,-79.7354 L 151.424,-79.9075 L 151.438,-80.0796 L 151.478,-80.2474  L 151.544,-80.4069 L 151.635,-80.5541 L 151.747,-80.6853 L 151.878,-80.7974 L 152.025,-80.8876 L 152.185,-80.9537  L 152.352,-80.994 L 152.524,-81.0075 L 152.697,-80.994 L 152.864,-80.9537 L 153.024,-80.8876 L 153.171,-80.7974  L 153.302,-80.6853 L 153.414,-80.5541 L 153.505,-80.4069 L 153.571,-80.2474 L 153.611,-80.0796 L 153.624,-79.9075  L 153.611,-79.7354 L 153.571,-79.5676 L 153.505,-79.4081 L 153.414,-79.2609 L 153.302,-79.1297 L 153.171,-79.0176  L 153.024,-78.9274 L 152.864,-78.8613 L 152.697,-78.821 L 152.524,-78.8075 z "
     stroke="black"
     fill="lightgray"
     stroke-width="0.5"
     id="path4"
     style="fill:none;stroke-width:0.1;stroke-miterlimit:4;stroke-dasharray:none" />
</svg>
