G04 #@! TF.GenerationSoftware,KiCad,Pcbnew,5.1.10-88a1d61d58~88~ubuntu18.04.1*
G04 #@! TF.CreationDate,2021-07-03T13:59:34+09:00*
G04 #@! TF.ProjectId,swallowtail,7377616c-6c6f-4777-9461-696c2e6b6963,rev?*
G04 #@! TF.SameCoordinates,Original*
G04 #@! TF.FileFunction,Profile,NP*
%FSLAX46Y46*%
G04 Gerber Fmt 4.6, Leading zero omitted, Abs format (unit mm)*
G04 Created by KiCad (PCBNEW 5.1.10-88a1d61d58~88~ubuntu18.04.1) date 2021-07-03 13:59:34*
%MOMM*%
%LPD*%
G01*
G04 APERTURE LIST*
G04 #@! TA.AperFunction,Profile*
%ADD10C,0.050000*%
G04 #@! TD*
G04 #@! TA.AperFunction,Profile*
%ADD11C,0.200000*%
G04 #@! TD*
G04 APERTURE END LIST*
D10*
X38576196Y-152400640D02*
G75*
G03*
X38576196Y-152400640I-1666666J0D01*
G01*
X34409530Y-152400640D02*
X39409530Y-152400640D01*
X36909530Y-149900640D02*
X36909530Y-154900640D01*
X158316223Y-156279063D02*
X159308517Y-152818521D01*
X159308517Y-152818521D02*
X156352637Y-151970937D01*
X158316223Y-156279063D02*
X155360343Y-155431479D01*
X155360343Y-155431479D02*
X156352637Y-151970937D01*
X137878539Y-150381456D02*
X141443504Y-150882479D01*
X141443504Y-150882479D02*
X141871461Y-147837404D01*
X137878539Y-150381456D02*
X138306496Y-147336381D01*
X138306496Y-147336381D02*
X141871461Y-147837404D01*
X143475000Y-127746930D02*
X143475000Y-124671930D01*
X139875000Y-86571930D02*
X143475000Y-86571930D01*
X139875000Y-124671930D02*
X143475000Y-124671930D01*
X143475000Y-89646930D02*
X143475000Y-86571930D01*
X139875000Y-70600000D02*
X143475000Y-70600000D01*
X139875000Y-108696930D02*
X143475000Y-108696930D01*
X143475000Y-70600000D02*
X143475000Y-67525000D01*
X139875000Y-108696930D02*
X139875000Y-105621930D01*
X139875000Y-67525000D02*
X143475000Y-67525000D01*
X139875000Y-70600000D02*
X139875000Y-67525000D01*
X139875000Y-105621930D02*
X143475000Y-105621930D01*
X139875000Y-127746930D02*
X139875000Y-124671930D01*
X139875000Y-89646930D02*
X143475000Y-89646930D01*
X139875000Y-127746930D02*
X143475000Y-127746930D01*
X139875000Y-89646930D02*
X139875000Y-86571930D01*
X143475000Y-108696930D02*
X143475000Y-105621930D01*
X124425000Y-87271930D02*
X124425000Y-84196930D01*
X120825000Y-125371930D02*
X120825000Y-122296930D01*
X120825000Y-125371930D02*
X124425000Y-125371930D01*
X120825000Y-87271930D02*
X120825000Y-84196930D01*
X120825000Y-87271930D02*
X124425000Y-87271930D01*
X120825000Y-65150000D02*
X124425000Y-65150000D01*
X120825000Y-68225000D02*
X120825000Y-65150000D01*
X120825000Y-106321930D02*
X124425000Y-106321930D01*
X120825000Y-106321930D02*
X120825000Y-103246930D01*
X124425000Y-125371930D02*
X124425000Y-122296930D01*
X120825000Y-103246930D02*
X124425000Y-103246930D01*
X124425000Y-106321930D02*
X124425000Y-103246930D01*
X124425000Y-68225000D02*
X124425000Y-65150000D01*
X120825000Y-84196930D02*
X124425000Y-84196930D01*
X120825000Y-122296930D02*
X124425000Y-122296930D01*
X120825000Y-68225000D02*
X124425000Y-68225000D01*
X101775000Y-120596930D02*
X101775000Y-117521930D01*
X116075000Y-149171930D02*
X116075000Y-146096930D01*
X101775000Y-79421930D02*
X105375000Y-79421930D01*
X105375000Y-63450000D02*
X105375000Y-60375000D01*
X105375000Y-101546930D02*
X105375000Y-98471930D01*
X101775000Y-117521930D02*
X105375000Y-117521930D01*
X116075000Y-146096930D02*
X119675000Y-146096930D01*
X101775000Y-63450000D02*
X105375000Y-63450000D01*
X105375000Y-120596930D02*
X105375000Y-117521930D01*
X119675000Y-149171930D02*
X119675000Y-146096930D01*
X101775000Y-63450000D02*
X101775000Y-60375000D01*
X105375000Y-82496930D02*
X105375000Y-79421930D01*
X101775000Y-101546930D02*
X105375000Y-101546930D01*
X116075000Y-149171930D02*
X119675000Y-149171930D01*
X101775000Y-120596930D02*
X105375000Y-120596930D01*
X101775000Y-82496930D02*
X105375000Y-82496930D01*
X101775000Y-101546930D02*
X101775000Y-98471930D01*
X101775000Y-82496930D02*
X101775000Y-79421930D01*
X101775000Y-60375000D02*
X105375000Y-60375000D01*
X101775000Y-98471930D02*
X105375000Y-98471930D01*
X82725000Y-122996930D02*
X86325000Y-122996930D01*
X82725000Y-84896930D02*
X82725000Y-81821930D01*
X82725000Y-84896930D02*
X86325000Y-84896930D01*
X82725000Y-62775000D02*
X86325000Y-62775000D01*
X82725000Y-103946930D02*
X86325000Y-103946930D01*
X82725000Y-142046930D02*
X86325000Y-142046930D01*
X82725000Y-100871930D02*
X86325000Y-100871930D01*
X82725000Y-81821930D02*
X86325000Y-81821930D01*
X82725000Y-142046930D02*
X82725000Y-138971930D01*
X82725000Y-138971930D02*
X86325000Y-138971930D01*
X86325000Y-122996930D02*
X86325000Y-119921930D01*
X86325000Y-84896930D02*
X86325000Y-81821930D01*
X86325000Y-65850000D02*
X86325000Y-62775000D01*
X86325000Y-142046930D02*
X86325000Y-138971930D01*
X82725000Y-65850000D02*
X82725000Y-62775000D01*
X82725000Y-65850000D02*
X86325000Y-65850000D01*
X82725000Y-103946930D02*
X82725000Y-100871930D01*
X82725000Y-122996930D02*
X82725000Y-119921930D01*
X86325000Y-103946930D02*
X86325000Y-100871930D01*
X82725000Y-119921930D02*
X86325000Y-119921930D01*
X63675000Y-127046930D02*
X67275000Y-127046930D01*
X63675000Y-146096930D02*
X67275000Y-146096930D01*
X63675000Y-92021930D02*
X67275000Y-92021930D01*
X63675000Y-107996930D02*
X67275000Y-107996930D01*
X63675000Y-149171930D02*
X67275000Y-149171930D01*
X63675000Y-88946930D02*
X67275000Y-88946930D01*
X63675000Y-130121930D02*
X67275000Y-130121930D01*
X63675000Y-111071930D02*
X63675000Y-107996930D01*
X63675000Y-72975000D02*
X63675000Y-69900000D01*
X67275000Y-92021930D02*
X67275000Y-88946930D01*
X63675000Y-92021930D02*
X63675000Y-88946930D01*
X63675000Y-130121930D02*
X63675000Y-127046930D01*
X67275000Y-111071930D02*
X67275000Y-107996930D01*
X63675000Y-149171930D02*
X63675000Y-146096930D01*
X63675000Y-69900000D02*
X67275000Y-69900000D01*
X63675000Y-111071930D02*
X67275000Y-111071930D01*
X67275000Y-130121930D02*
X67275000Y-127046930D01*
X67275000Y-72975000D02*
X67275000Y-69900000D01*
X67275000Y-149171930D02*
X67275000Y-146096930D01*
X63675000Y-72975000D02*
X67275000Y-72975000D01*
X44625000Y-146096930D02*
X48225000Y-146096930D01*
X44625000Y-149171930D02*
X48225000Y-149171930D01*
X44625000Y-149171930D02*
X44625000Y-146096930D01*
X48225000Y-149171930D02*
X48225000Y-146096930D01*
X44625000Y-127046930D02*
X48225000Y-127046930D01*
X44625000Y-130121930D02*
X44625000Y-127046930D01*
X48225000Y-130121930D02*
X48225000Y-127046930D01*
X44625000Y-130121930D02*
X48225000Y-130121930D01*
X44625000Y-111071930D02*
X48225000Y-111071930D01*
X44625000Y-107996930D02*
X48225000Y-107996930D01*
X48225000Y-111071930D02*
X48225000Y-107996930D01*
X44625000Y-111071930D02*
X44625000Y-107996930D01*
X44625000Y-92021930D02*
X44625000Y-88946930D01*
X44625000Y-88946930D02*
X48225000Y-88946930D01*
X48225000Y-92021930D02*
X48225000Y-88946930D01*
X44625000Y-92021930D02*
X48225000Y-92021930D01*
X44625000Y-69900000D02*
X48225000Y-69900000D01*
X44625000Y-72975000D02*
X44625000Y-69900000D01*
X48225000Y-72975000D02*
X48225000Y-69900000D01*
X44625000Y-72975000D02*
X48225000Y-72975000D01*
D11*
X108321200Y-146073700D02*
X108331000Y-146135700D01*
X108307500Y-146012500D02*
X108321200Y-146073700D01*
X112833400Y-47943000D02*
X112788900Y-47899000D01*
X148032400Y-155003100D02*
X148089400Y-155028800D01*
X147973400Y-154981100D02*
X148032400Y-155003100D01*
X171822400Y-73839000D02*
X171760400Y-73829000D01*
X109152000Y-152387300D02*
X109214100Y-152397100D01*
X109090700Y-152373600D02*
X109152000Y-152387300D01*
X74191800Y-152386300D02*
X74253100Y-152372600D01*
X93361200Y-49960000D02*
X93301000Y-49977000D01*
X93036500Y-50009000D02*
X76002400Y-50009000D01*
X75695600Y-145310400D02*
X75755800Y-145292900D01*
X75636500Y-145331700D02*
X75695600Y-145310400D01*
X74813400Y-151991800D02*
X74848700Y-151939800D01*
X113467200Y-52160001D02*
X113420200Y-52119001D01*
X152220400Y-73821000D02*
X152141400Y-73819000D01*
X75010300Y-50884000D02*
X75004400Y-50946001D01*
X151328400Y-73303000D02*
X151300400Y-73247000D01*
X74253100Y-152372600D02*
X74313400Y-152355100D01*
X108913600Y-152309800D02*
X108971300Y-152334800D01*
X108857600Y-152281300D02*
X108913600Y-152309800D01*
X113678800Y-52294000D02*
X113622800Y-52266001D01*
X172540400Y-74395000D02*
X172511400Y-74339000D01*
X37593400Y-152355100D02*
X37653700Y-152372600D01*
X152141400Y-73819000D02*
X152079400Y-73813000D01*
X172642400Y-130996600D02*
X172636400Y-130930800D01*
X172635400Y-130873400D02*
X172635400Y-74821000D01*
X150513400Y-54820000D02*
X150453400Y-54802001D01*
X166358400Y-171702000D02*
X166420400Y-171705800D01*
X166295400Y-171694400D02*
X166358400Y-171702000D01*
X108339400Y-151405000D02*
X108341400Y-151467800D01*
X108339400Y-146277000D02*
X108339400Y-151405000D01*
X167410400Y-170981800D02*
X174947400Y-144694800D01*
X112741800Y-47858000D02*
X112692200Y-47819000D01*
X74994000Y-56278001D02*
X74984200Y-56340000D01*
X131690400Y-52546000D02*
X131636400Y-52514000D01*
X94052400Y-48993000D02*
X94049900Y-49072000D01*
X151155400Y-55462000D02*
X151134400Y-55403001D01*
X113122600Y-51577000D02*
X113112800Y-51515000D01*
X151134400Y-55403001D02*
X151109400Y-55345001D01*
X131403400Y-52421000D02*
X131341400Y-52408000D01*
X132146400Y-53265000D02*
X132136400Y-53203000D01*
X74953000Y-56462000D02*
X74931700Y-56521000D01*
X172171400Y-73977000D02*
X172117400Y-73945000D01*
X75158100Y-50473000D02*
X75126100Y-50527000D01*
X75693400Y-50058000D02*
X75634300Y-50079000D01*
X75126100Y-50527000D02*
X75097600Y-50583001D01*
X114041500Y-52388000D02*
X113979100Y-52382000D01*
X74878200Y-56635000D02*
X74846300Y-56689001D01*
X113009200Y-48202000D02*
X112980700Y-48146000D01*
X74731000Y-56837000D02*
X74686600Y-56882000D01*
X94367900Y-47899000D02*
X94323400Y-47943000D01*
X172633400Y-74758000D02*
X172627400Y-74696000D01*
X167341400Y-171157000D02*
X167368400Y-171100100D01*
X94020500Y-49258000D02*
X94003000Y-49318000D01*
X74999900Y-56216000D02*
X74994000Y-56278001D01*
X113175100Y-51758000D02*
X113153800Y-51699000D01*
X94415000Y-47858000D02*
X94367900Y-47899000D01*
X74428000Y-57057001D02*
X74370300Y-57082000D01*
X74589800Y-56962000D02*
X74537900Y-56997000D01*
X113104400Y-51374001D02*
X113104400Y-48628000D01*
X75002400Y-51009000D02*
X75002400Y-56137000D01*
X113104400Y-48628000D02*
X113102400Y-48565000D01*
X75466600Y-50165001D02*
X75414600Y-50200000D01*
X75273400Y-50324000D02*
X75231900Y-50372000D01*
X75072600Y-50641001D02*
X75051300Y-50700000D01*
X74127700Y-57145000D02*
X74065200Y-57151000D01*
X74772400Y-56790001D02*
X74731000Y-56837000D01*
X74251000Y-57121000D02*
X74189700Y-57135000D01*
X74484000Y-57029000D02*
X74428000Y-57057001D01*
X150841400Y-55001000D02*
X150792400Y-54962000D01*
X74931700Y-56521000D02*
X74906700Y-56579000D01*
X113295700Y-51977000D02*
X113260400Y-51926000D01*
X75877100Y-50017000D02*
X75815000Y-50027000D01*
X131742400Y-52581001D02*
X131690400Y-52546000D01*
X94052400Y-48628000D02*
X94052400Y-48993000D01*
X94743400Y-47677000D02*
X94684300Y-47698000D01*
X75365000Y-50238000D02*
X75317900Y-50280001D01*
X75002400Y-56137000D02*
X74999900Y-56216000D01*
X94464600Y-47819000D02*
X94415000Y-47858000D01*
X74311200Y-57104000D02*
X74251000Y-57121000D01*
X74906700Y-56579000D02*
X74878200Y-56635000D01*
X75097600Y-50583001D02*
X75072600Y-50641001D01*
X172272400Y-74050000D02*
X172223400Y-74012000D01*
X113112800Y-51515000D02*
X113106900Y-51453000D01*
X75414600Y-50200000D02*
X75365000Y-50238000D01*
X151300400Y-73247000D02*
X151275400Y-73189000D01*
X113106900Y-51453000D02*
X113104400Y-51374001D01*
X74686600Y-56882000D02*
X74639600Y-56923000D01*
X151275400Y-73189000D02*
X151253400Y-73130000D01*
X113086700Y-48441000D02*
X113073000Y-48379001D01*
X75051300Y-50700000D02*
X75033800Y-50760000D01*
X74537900Y-56997000D02*
X74484000Y-57029000D01*
X172636400Y-130930800D02*
X172635400Y-130873400D01*
X166670400Y-171681300D02*
X166731400Y-171665500D01*
X166790400Y-171645800D02*
X166849400Y-171622500D01*
X113979100Y-52382000D02*
X113917100Y-52372000D01*
X132059400Y-52964000D02*
X132030400Y-52908000D01*
X75520600Y-50133000D02*
X75466600Y-50165001D01*
X131522400Y-52460000D02*
X131463400Y-52439001D01*
X151567400Y-73591000D02*
X151520400Y-73550000D01*
X174982400Y-144509800D02*
X174986400Y-144447100D01*
X37902400Y-57153001D02*
X37839600Y-57155001D01*
X149286400Y-166787700D02*
X149340400Y-166818800D01*
X149233400Y-166753200D02*
X149286400Y-166787700D01*
X94803700Y-47659000D02*
X94743400Y-47677000D01*
X151722400Y-73697000D02*
X151668400Y-73665000D01*
X94684300Y-47698000D02*
X94626600Y-47723000D01*
X151434400Y-73458000D02*
X151395400Y-73408000D01*
X75128600Y-145779400D02*
X75160400Y-145725500D01*
X75100000Y-145835400D02*
X75128600Y-145779400D01*
X75817100Y-145279200D02*
X75879100Y-145269400D01*
X75755800Y-145292900D02*
X75817100Y-145279200D01*
X167201400Y-171364800D02*
X167241400Y-171316300D01*
X93639800Y-49818000D02*
X93587900Y-49853000D01*
X36972600Y-151772100D02*
X36997600Y-151829800D01*
X174986400Y-144447100D02*
X174986400Y-144384200D01*
X74486100Y-152280300D02*
X74540200Y-152248300D01*
X37366600Y-57309001D02*
X37314600Y-57344000D01*
X112980700Y-48146000D02*
X112948700Y-48092000D01*
X172479400Y-74285000D02*
X172444400Y-74233000D01*
X74639600Y-56923000D02*
X74589800Y-56962000D01*
X108290000Y-145952200D02*
X108307500Y-146012500D01*
X108268700Y-145893100D02*
X108290000Y-145952200D01*
X172627400Y-74696000D02*
X172617400Y-74634000D01*
X174947400Y-144694800D02*
X174963400Y-144633900D01*
X151222400Y-73008000D02*
X151212400Y-72946000D01*
X112913400Y-48040000D02*
X112874900Y-47991000D01*
X93822400Y-49646000D02*
X93781000Y-49693000D01*
X112104400Y-47628000D02*
X95052400Y-47628000D01*
X75815000Y-50027000D02*
X75753700Y-50040001D01*
X37217900Y-152133000D02*
X37265000Y-152174500D01*
X172364400Y-74136000D02*
X172320400Y-74092000D01*
X94243400Y-48040000D02*
X94208100Y-48092000D01*
X174986400Y-144384200D02*
X174981400Y-144321600D01*
X113334300Y-52027000D02*
X113295700Y-51977000D01*
X112874900Y-47991000D02*
X112833400Y-47943000D01*
X93781000Y-49693000D02*
X93736600Y-49738000D01*
X112472500Y-47698000D02*
X112413400Y-47677000D01*
X108610400Y-152089600D02*
X108654900Y-152134000D01*
X108568900Y-152042400D02*
X108610400Y-152089600D01*
X108530400Y-151992800D02*
X108568900Y-152042400D01*
X108495100Y-151940800D02*
X108530400Y-151992800D01*
X74986700Y-151591400D02*
X74996500Y-151529300D01*
X108109500Y-145623900D02*
X108148100Y-145673600D01*
X108068000Y-145576800D02*
X108109500Y-145623900D01*
X37653700Y-57184001D02*
X37593400Y-57202000D01*
X114120300Y-52390000D02*
X114041500Y-52388000D01*
X36920100Y-151591400D02*
X36933800Y-151652700D01*
X36920100Y-57966000D02*
X36910300Y-58028001D01*
X94626600Y-47723000D02*
X94570600Y-47752000D01*
X37777100Y-152396100D02*
X37839600Y-152402000D01*
X74641800Y-152174500D02*
X74688900Y-152133000D01*
X37420600Y-152280300D02*
X37476600Y-152308800D01*
X152017400Y-73803000D02*
X151955400Y-73789000D01*
X74934200Y-151772100D02*
X74955400Y-151713000D01*
X93177700Y-50001000D02*
X93115200Y-50007000D01*
X93301000Y-49977000D02*
X93239700Y-49991000D01*
X151236400Y-73070000D02*
X151222400Y-73008000D01*
X112291800Y-47646000D02*
X112229700Y-47636000D01*
X112530200Y-47723000D02*
X112472500Y-47698000D01*
X132030400Y-52908000D02*
X131998400Y-52854000D01*
X172565400Y-74453000D02*
X172540400Y-74395000D01*
X75367200Y-145491000D02*
X75417000Y-145452300D01*
X75320200Y-145532400D02*
X75367200Y-145491000D01*
X113622800Y-52266001D02*
X113568900Y-52234000D01*
X113795600Y-52341000D02*
X113736500Y-52319001D01*
X75075100Y-145893100D02*
X75100000Y-145835400D01*
X75053800Y-145952200D02*
X75075100Y-145893100D01*
X75578800Y-145356600D02*
X75636500Y-145331700D01*
X75522800Y-145385200D02*
X75578800Y-145356600D01*
X74909200Y-151829800D02*
X74934200Y-151772100D01*
X148561400Y-155514200D02*
X148585400Y-155572400D01*
X148533400Y-155457900D02*
X148561400Y-155514200D01*
X107464700Y-145269400D02*
X107526600Y-145279200D01*
X107402200Y-145263500D02*
X107464700Y-145269400D01*
X112167200Y-47630000D02*
X112104400Y-47628000D01*
X75012800Y-146135700D02*
X75022600Y-146073700D01*
X75006900Y-146198200D02*
X75012800Y-146135700D01*
X149183399Y-166715500D02*
X149233400Y-166753200D01*
X149135399Y-166674700D02*
X149183399Y-166715500D01*
X149397399Y-166846500D02*
X149455400Y-166870500D01*
X149340400Y-166818800D02*
X149397399Y-166846500D01*
X151204400Y-55771000D02*
X151202400Y-55708001D01*
X37653700Y-152372600D02*
X37715000Y-152386300D01*
X37534300Y-152333800D02*
X37593400Y-152355100D01*
X36910300Y-151529300D02*
X36920100Y-151591400D01*
X112948700Y-48092000D02*
X112913400Y-48040000D01*
X93956800Y-49435000D02*
X93928200Y-49491000D01*
X94044000Y-49134000D02*
X94034200Y-49196001D01*
X75317900Y-50280001D02*
X75273400Y-50324000D01*
X36904400Y-151466800D02*
X36910300Y-151529300D01*
X76002400Y-50009000D02*
X75939600Y-50011001D01*
X94281900Y-47991000D02*
X94243400Y-48040000D01*
X75468900Y-145417100D02*
X75522800Y-145385200D01*
X75417000Y-145452300D02*
X75468900Y-145417100D01*
X74774900Y-152041400D02*
X74813400Y-151991800D01*
X93587900Y-49853000D02*
X93534000Y-49885000D01*
X37902400Y-152404000D02*
X74004400Y-152404000D01*
X147912400Y-154962600D02*
X147973400Y-154981100D01*
X147852400Y-154948100D02*
X147912400Y-154962600D01*
X148345400Y-155208300D02*
X148389400Y-155253300D01*
X148298400Y-155166100D02*
X148345400Y-155208300D01*
X108409600Y-151773100D02*
X108434600Y-151830800D01*
X108388300Y-151714000D02*
X108409600Y-151773100D01*
X172003400Y-73891000D02*
X171944400Y-73870000D01*
X109030400Y-152356100D02*
X109090700Y-152373600D01*
X108971300Y-152334800D02*
X109030400Y-152356100D01*
X108336900Y-146198200D02*
X108339400Y-146277000D01*
X108331000Y-146135700D02*
X108336900Y-146198200D01*
X75195700Y-145673600D02*
X75234300Y-145623800D01*
X75160400Y-145725500D02*
X75195700Y-145673600D01*
X37265000Y-152174500D02*
X37314600Y-152213000D01*
X166234400Y-171682800D02*
X166295400Y-171694400D01*
X166173400Y-171667400D02*
X166234400Y-171682800D01*
X75275800Y-145576800D02*
X75320200Y-145532400D01*
X75234300Y-145623800D02*
X75275800Y-145576800D01*
X37026100Y-151885800D02*
X37058100Y-151939800D01*
X37058100Y-151939800D02*
X37093400Y-151991800D01*
X171944400Y-73870000D02*
X171884400Y-73852000D01*
X148940400Y-166430500D02*
X148972400Y-166484100D01*
X148910400Y-166375000D02*
X148940400Y-166430500D01*
X37420600Y-57277000D02*
X37366600Y-57309001D01*
X107323500Y-145261000D02*
X107402200Y-145263500D01*
X76020300Y-145261000D02*
X107323500Y-145261000D01*
X37314600Y-57344000D02*
X37265000Y-57382000D01*
X74973000Y-151652700D02*
X74986700Y-151591400D01*
X74811100Y-56740000D02*
X74772400Y-56790001D01*
X37534300Y-57223000D02*
X37476600Y-57248000D01*
X108463100Y-151886800D02*
X108495100Y-151940800D01*
X108434600Y-151830800D02*
X108463100Y-151886800D01*
X37839600Y-152402000D02*
X37902400Y-152404000D01*
X148884400Y-166317800D02*
X148910400Y-166375000D01*
X148862399Y-166259000D02*
X148884400Y-166317800D01*
X74848700Y-151939800D02*
X74880700Y-151885800D01*
X93534000Y-49885000D02*
X93478000Y-49913000D01*
X75002400Y-151466800D02*
X75004400Y-151404000D01*
X74996500Y-151529300D02*
X75002400Y-151466800D01*
X150204400Y-54771000D02*
X133170400Y-54771000D01*
X149009400Y-166535500D02*
X149048400Y-166584500D01*
X148972400Y-166484100D02*
X149009400Y-166535500D01*
X37093400Y-151991800D02*
X37131900Y-152041400D01*
X113055400Y-48319000D02*
X113034200Y-48260000D01*
X37476600Y-152308800D02*
X37534300Y-152333800D01*
X93115200Y-50007000D02*
X93036500Y-50009000D01*
X167013400Y-171531300D02*
X167064400Y-171494100D01*
X151668400Y-73665000D02*
X151617400Y-73630000D01*
X149090400Y-166631000D02*
X149135399Y-166674700D01*
X149048400Y-166584500D02*
X149090400Y-166631000D01*
X151395400Y-73408000D02*
X151360400Y-73357000D01*
X148808399Y-165950800D02*
X148811400Y-166013500D01*
X148651400Y-155919700D02*
X148808399Y-165950800D01*
X113375800Y-52074000D02*
X113334300Y-52027000D01*
X113917100Y-52372000D02*
X113855800Y-52358000D01*
X94003000Y-49318000D02*
X93981700Y-49377000D01*
X132384400Y-54408000D02*
X132345400Y-54358000D01*
X172653400Y-131074500D02*
X172642400Y-130996600D01*
X113420200Y-52119001D02*
X113375800Y-52074000D01*
X148649400Y-155885900D02*
X148651400Y-155919700D01*
X148644400Y-155815600D02*
X148649400Y-155885900D01*
X166905400Y-171595600D02*
X166960400Y-171565100D01*
X94034200Y-49196001D02*
X94020500Y-49258000D01*
X108243700Y-145835400D02*
X108268700Y-145893100D01*
X108215300Y-145779500D02*
X108243700Y-145835400D01*
X113855800Y-52358000D02*
X113795600Y-52341000D01*
X74846300Y-56689001D02*
X74811100Y-56740000D01*
X94989600Y-47630000D02*
X94927100Y-47636000D01*
X73986500Y-57153001D02*
X37902400Y-57153001D01*
X151360400Y-73357000D02*
X151328400Y-73303000D01*
X94323400Y-47943000D02*
X94281900Y-47991000D01*
X113153800Y-51699000D02*
X113136300Y-51639000D01*
X75004400Y-146276900D02*
X75006900Y-146198200D01*
X75004400Y-151404000D02*
X75004400Y-146276900D01*
X148144400Y-155058100D02*
X148198400Y-155090800D01*
X148089400Y-155028800D02*
X148144400Y-155058100D01*
X75036300Y-146012400D02*
X75053800Y-145952200D01*
X75022600Y-146073700D02*
X75036300Y-146012400D01*
X36972600Y-57785001D02*
X36951300Y-57844000D01*
X37265000Y-57382000D02*
X37217900Y-57424000D01*
X37593400Y-57202000D02*
X37534300Y-57223000D01*
X36904400Y-58090000D02*
X36902400Y-58153001D01*
X37314600Y-152213000D02*
X37366600Y-152248300D01*
X151186400Y-55584000D02*
X151173400Y-55522000D01*
X93928200Y-49491000D02*
X93896300Y-49545000D01*
X36902400Y-151404000D02*
X36904400Y-151466800D01*
X37839600Y-57155001D02*
X37777100Y-57161000D01*
X150453400Y-54802001D02*
X150391399Y-54789000D01*
X37093400Y-57565000D02*
X37058100Y-57617001D01*
X94570600Y-47752000D02*
X94516600Y-47784000D01*
X37476600Y-57248000D02*
X37420600Y-57277000D01*
X93689600Y-49779000D02*
X93639800Y-49818000D01*
X151520400Y-73550000D02*
X151475400Y-73505000D01*
X113200000Y-51816000D02*
X113175100Y-51758000D01*
X36902400Y-58153001D02*
X36902400Y-151404000D01*
X37131900Y-57516001D02*
X37093400Y-57565000D01*
X167241400Y-171316300D02*
X167277400Y-171265300D01*
X108702000Y-152175500D02*
X108751600Y-152214000D01*
X108654900Y-152134000D02*
X108702000Y-152175500D01*
X149533400Y-166896300D02*
X166173400Y-171667400D01*
X149455400Y-166870500D02*
X149533400Y-166896300D01*
X37026100Y-57671000D02*
X36997600Y-57727000D01*
X36910300Y-58028001D02*
X36904400Y-58090000D01*
X151617400Y-73630000D02*
X151567400Y-73591000D01*
X148502400Y-155403500D02*
X148533400Y-155457900D01*
X148467400Y-155351100D02*
X148502400Y-155403500D01*
X148818400Y-166076000D02*
X148829400Y-166137900D01*
X148811400Y-166013500D02*
X148818400Y-166076000D01*
X37173400Y-57468001D02*
X37131900Y-57516001D01*
X37058100Y-57617001D02*
X37026100Y-57671000D01*
X93861100Y-49596000D02*
X93822400Y-49646000D01*
X36933800Y-57904000D02*
X36920100Y-57966000D01*
X93981700Y-49377000D02*
X93956800Y-49435000D01*
X167390400Y-171041600D02*
X167410400Y-170981800D01*
X75193400Y-50421000D02*
X75158100Y-50473000D01*
X151206400Y-72884000D02*
X151204400Y-72805000D01*
X74592200Y-152213000D02*
X74641800Y-152174500D01*
X113136300Y-51639000D02*
X113122600Y-51577000D01*
X147774400Y-154934700D02*
X147852400Y-154948100D01*
X129859400Y-152416500D02*
X147774400Y-154934700D01*
X75020100Y-50822000D02*
X75010300Y-50884000D01*
X107926800Y-145452400D02*
X107976600Y-145491000D01*
X107874900Y-145417100D02*
X107926800Y-145452400D01*
X37217900Y-57424000D02*
X37173400Y-57468001D01*
X151202400Y-55708001D02*
X151196400Y-55646000D01*
X148635399Y-155753600D02*
X148644400Y-155815600D01*
X148622400Y-155692200D02*
X148635399Y-155753600D01*
X75753700Y-50040001D02*
X75693400Y-50058000D01*
X36951300Y-151713000D02*
X36972600Y-151772100D01*
X107707300Y-145331700D02*
X107765000Y-145356700D01*
X107648200Y-145310400D02*
X107707300Y-145331700D01*
X151212400Y-72946000D02*
X151206400Y-72884000D01*
X166420400Y-171705800D02*
X166483400Y-171705500D01*
X36951300Y-57844000D02*
X36933800Y-57904000D01*
X148844399Y-166198900D02*
X148862399Y-166259000D01*
X148829400Y-166137900D02*
X148844399Y-166198900D01*
X37131900Y-152041400D02*
X37173400Y-152088600D01*
X107821000Y-145385200D02*
X107874900Y-145417100D01*
X107765000Y-145356700D02*
X107821000Y-145385200D01*
X37715000Y-152386300D02*
X37777100Y-152396100D01*
X127391400Y-152405000D02*
X129684400Y-152404000D01*
X109339400Y-152405000D02*
X127391400Y-152405000D01*
X113073000Y-48379001D02*
X113055400Y-48319000D01*
X36997600Y-151829800D02*
X37026100Y-151885800D01*
X93736600Y-49738000D02*
X93689600Y-49779000D01*
X151196400Y-55646000D02*
X151186400Y-55584000D01*
X75033800Y-50760000D02*
X75020100Y-50822000D01*
X37777100Y-57161000D02*
X37715000Y-57171000D01*
X151048400Y-55235000D02*
X151013400Y-55183000D01*
X37366600Y-152248300D02*
X37420600Y-152280300D01*
X166960400Y-171565100D02*
X167013400Y-171531300D01*
X171635400Y-73821000D02*
X152220400Y-73821000D01*
X109276600Y-152403100D02*
X109339400Y-152405000D01*
X109214100Y-152397100D02*
X109276600Y-152403100D01*
X95052400Y-47628000D02*
X94989600Y-47630000D01*
X172405400Y-74184000D02*
X172364400Y-74136000D01*
X37715000Y-57171000D02*
X37653700Y-57184001D01*
X152079400Y-73813000D02*
X152017400Y-73803000D01*
X172117400Y-73945000D02*
X172061400Y-73916000D01*
X151778400Y-73725000D02*
X151722400Y-73697000D01*
X93420300Y-49938000D02*
X93361200Y-49960000D01*
X172586400Y-74512000D02*
X172565400Y-74453000D01*
X36997600Y-57727000D02*
X36972600Y-57785001D01*
X75939600Y-50011001D02*
X75877100Y-50017000D01*
X94516600Y-47784000D02*
X94464600Y-47819000D01*
X74004400Y-152404000D02*
X74067200Y-152402000D01*
X74733400Y-152088600D02*
X74774900Y-152041400D01*
X167368400Y-171100100D02*
X167390400Y-171041600D01*
X151895400Y-73772000D02*
X151836400Y-73750000D01*
X74688900Y-152133000D02*
X74733400Y-152088600D01*
X151836400Y-73750000D02*
X151778400Y-73725000D01*
X93896300Y-49545000D02*
X93861100Y-49596000D01*
X93478000Y-49913000D02*
X93420300Y-49938000D01*
X131463400Y-52439001D02*
X131403400Y-52421000D01*
X133091400Y-54769000D02*
X133029400Y-54763000D01*
X166849400Y-171622500D02*
X166905400Y-171595600D01*
X151253400Y-73130000D02*
X151236400Y-73070000D01*
X113228600Y-51872000D02*
X113200000Y-51816000D01*
X94060300Y-48503000D02*
X94054400Y-48565000D01*
X107588000Y-145292900D02*
X107648200Y-145310400D01*
X107526600Y-145279200D02*
X107588000Y-145292900D01*
X148605399Y-155631600D02*
X148622400Y-155692200D01*
X148585400Y-155572400D02*
X148605399Y-155631600D01*
X74370300Y-57082000D02*
X74311200Y-57104000D01*
X74065200Y-57151000D02*
X73986500Y-57153001D01*
X113736500Y-52319001D02*
X113678800Y-52294000D01*
X74955400Y-151713000D02*
X74973000Y-151652700D01*
X112640200Y-47784000D02*
X112586100Y-47752000D01*
X113096500Y-48503000D02*
X113086700Y-48441000D01*
X108347300Y-151530400D02*
X108357100Y-151592400D01*
X108341400Y-151467800D02*
X108347300Y-151530400D01*
X75231900Y-50372000D02*
X75193400Y-50421000D01*
X148249399Y-155126800D02*
X148298400Y-155166100D01*
X148198400Y-155090800D02*
X148249399Y-155126800D01*
X75004400Y-50946001D02*
X75002400Y-51009000D01*
X174963400Y-144633900D02*
X174974400Y-144572100D01*
X113568900Y-52234000D02*
X113517000Y-52199000D01*
X167064400Y-171494100D02*
X167112400Y-171453900D01*
X108803600Y-152249300D02*
X108857600Y-152281300D01*
X108751600Y-152214000D02*
X108803600Y-152249300D01*
X108370800Y-151653700D02*
X108388300Y-151714000D01*
X108357100Y-151592400D02*
X108370800Y-151653700D01*
X74067200Y-152402000D02*
X74129700Y-152396100D01*
X74129700Y-152396100D02*
X74191800Y-152386300D01*
X167277400Y-171265300D02*
X167311400Y-171212200D01*
X108023600Y-145532400D02*
X108068000Y-145576800D01*
X107976600Y-145491000D02*
X108023600Y-145532400D01*
X113517000Y-52199000D02*
X113467200Y-52160001D01*
X93239700Y-49991000D02*
X93177700Y-50001000D01*
X150933400Y-55086000D02*
X150889400Y-55042000D01*
X132567400Y-54580000D02*
X132517400Y-54541000D01*
X74313400Y-152355100D02*
X74372500Y-152333800D01*
X94865000Y-47646000D02*
X94803700Y-47659000D01*
X112229700Y-47636000D02*
X112167200Y-47630000D01*
X133170400Y-54771000D02*
X133091400Y-54769000D01*
X132618400Y-54615000D02*
X132567400Y-54580000D01*
X94054400Y-48565000D02*
X94052400Y-48628000D01*
X131217400Y-52392000D02*
X131154400Y-52390000D01*
X132136400Y-53203000D02*
X132123400Y-53141001D01*
X151173400Y-55522000D02*
X151155400Y-55462000D01*
X94122600Y-48260000D02*
X94101300Y-48319000D01*
X151109400Y-55345001D02*
X151080400Y-55289000D01*
X36933800Y-151652700D02*
X36951300Y-151713000D01*
X132672400Y-54647000D02*
X132618400Y-54615000D01*
X172223400Y-74012000D02*
X172171400Y-73977000D01*
X171760400Y-73829000D02*
X171698400Y-73823000D01*
X132310400Y-54307001D02*
X132278400Y-54253000D01*
X172320400Y-74092000D02*
X172272400Y-74050000D01*
X172444400Y-74233000D02*
X172405400Y-74184000D01*
X74372500Y-152333800D02*
X74430200Y-152308800D01*
X132905400Y-54739000D02*
X132845400Y-54722000D01*
X172604400Y-74572000D02*
X172586400Y-74512000D01*
X150572400Y-54841000D02*
X150513400Y-54820000D01*
X151080400Y-55289000D02*
X151048400Y-55235000D01*
X171698400Y-73823000D02*
X171635400Y-73821000D01*
X167158400Y-171410800D02*
X167201400Y-171364800D01*
X150686400Y-54895000D02*
X150630399Y-54866000D01*
X172617400Y-74634000D02*
X172604400Y-74572000D01*
X132154400Y-53390000D02*
X132152400Y-53327000D01*
X132345400Y-54358000D02*
X132310400Y-54307001D01*
X132786400Y-54700000D02*
X132728400Y-54675000D01*
X131636400Y-52514000D02*
X131580400Y-52485000D01*
X131883400Y-52705000D02*
X131839400Y-52661000D01*
X94208100Y-48092000D02*
X94176100Y-48146000D01*
X132154400Y-53755000D02*
X132154400Y-53390000D01*
X112413400Y-47677000D02*
X112353100Y-47659000D01*
X132105400Y-53081001D02*
X132084400Y-53022000D01*
X131341400Y-52408000D02*
X131279400Y-52398001D01*
X150740400Y-54927001D02*
X150686400Y-54895000D01*
X150889400Y-55042000D02*
X150841400Y-55001000D01*
X131963400Y-52802001D02*
X131925400Y-52753000D01*
X113102400Y-48565000D02*
X113096500Y-48503000D01*
X131998400Y-52854000D02*
X131963400Y-52802001D01*
X132172400Y-53958001D02*
X132162400Y-53896000D01*
X151475400Y-73505000D02*
X151434400Y-73458000D01*
X150630399Y-54866000D02*
X150572400Y-54841000D01*
X151955400Y-73789000D02*
X151895400Y-73772000D01*
X167112400Y-171453900D02*
X167158400Y-171410800D01*
X132517400Y-54541000D02*
X132470400Y-54500000D01*
X74430200Y-152308800D02*
X74486100Y-152280300D01*
X132728400Y-54675000D02*
X132672400Y-54647000D01*
X132967400Y-54753000D02*
X132905400Y-54739000D01*
X132278400Y-54253000D02*
X132250400Y-54197000D01*
X94147600Y-48202000D02*
X94122600Y-48260000D01*
X166483400Y-171705500D02*
X166546400Y-171701400D01*
X132162400Y-53896000D02*
X132156400Y-53834000D01*
X132470400Y-54500000D02*
X132425400Y-54455000D01*
X132156400Y-53834000D02*
X132154400Y-53755000D01*
X166608400Y-171693300D02*
X166670400Y-171681300D01*
X174981400Y-144321600D02*
X174971400Y-144245800D01*
X131154400Y-52390000D02*
X114120300Y-52390000D01*
X94176100Y-48146000D02*
X94147600Y-48202000D01*
X131791400Y-52619001D02*
X131742400Y-52581001D01*
X112353100Y-47659000D02*
X112291800Y-47646000D01*
X131279400Y-52398001D02*
X131217400Y-52392000D01*
X174971400Y-144245800D02*
X172653400Y-131074500D01*
X151013400Y-55183000D02*
X150974400Y-55134000D01*
X132152400Y-53327000D02*
X132146400Y-53265000D01*
X150329400Y-54779000D02*
X150267399Y-54773001D01*
X172511400Y-74339000D02*
X172479400Y-74285000D01*
X174974400Y-144572100D02*
X174982400Y-144509800D01*
X132123400Y-53141001D02*
X132105400Y-53081001D01*
X150391399Y-54789000D02*
X150329400Y-54779000D01*
X171884400Y-73852000D02*
X171822400Y-73839000D01*
X166546400Y-171701400D02*
X166608400Y-171693300D01*
X131580400Y-52485000D02*
X131522400Y-52460000D01*
X132225400Y-54139000D02*
X132203400Y-54080000D01*
X94101300Y-48319000D02*
X94083800Y-48379001D01*
X94083800Y-48379001D02*
X94070100Y-48441000D01*
X132425400Y-54455000D02*
X132384400Y-54408000D01*
X131839400Y-52661000D02*
X131791400Y-52619001D01*
X132084400Y-53022000D02*
X132059400Y-52964000D01*
X133029400Y-54763000D02*
X132967400Y-54753000D01*
X150974400Y-55134000D02*
X150933400Y-55086000D01*
X132186400Y-54020000D02*
X132172400Y-53958001D01*
X94070100Y-48441000D02*
X94060300Y-48503000D01*
X167311400Y-171212200D02*
X167341400Y-171157000D01*
X132845400Y-54722000D02*
X132786400Y-54700000D01*
X74540200Y-152248300D02*
X74592200Y-152213000D01*
X150792400Y-54962000D02*
X150740400Y-54927001D01*
X112586100Y-47752000D02*
X112530200Y-47723000D01*
X132203400Y-54080000D02*
X132186400Y-54020000D01*
X131925400Y-52753000D02*
X131883400Y-52705000D01*
X113034200Y-48260000D02*
X113009200Y-48202000D01*
X74970500Y-56402000D02*
X74953000Y-56462000D01*
X132250400Y-54197000D02*
X132225400Y-54139000D01*
X74189700Y-57135000D02*
X74127700Y-57145000D01*
X150267399Y-54773001D02*
X150204400Y-54771000D01*
X74880700Y-151885800D02*
X74909200Y-151829800D01*
X108183300Y-145725500D02*
X108215300Y-145779500D01*
X108148100Y-145673600D02*
X108183300Y-145725500D01*
X112788900Y-47899000D02*
X112741800Y-47858000D01*
X172635400Y-74821000D02*
X172633400Y-74758000D01*
X94049900Y-49072000D02*
X94044000Y-49134000D01*
X94927100Y-47636000D02*
X94865000Y-47646000D01*
X151204400Y-72805000D02*
X151204400Y-55771000D01*
X172061400Y-73916000D02*
X172003400Y-73891000D01*
X166731400Y-171665500D02*
X166790400Y-171645800D01*
X112692200Y-47819000D02*
X112640200Y-47784000D01*
X75941500Y-145263500D02*
X76020300Y-145261000D01*
X75879100Y-145269400D02*
X75941500Y-145263500D01*
X37173400Y-152088600D02*
X37217900Y-152133000D01*
X113260400Y-51926000D02*
X113228600Y-51872000D01*
X75634300Y-50079000D02*
X75576600Y-50104000D01*
X74984200Y-56340000D02*
X74970500Y-56402000D01*
X129759400Y-152406400D02*
X129859400Y-152416500D01*
X129684400Y-152404000D02*
X129759400Y-152406400D01*
X148429400Y-155300800D02*
X148467400Y-155351100D01*
X148389400Y-155253300D02*
X148429400Y-155300800D01*
X75576600Y-50104000D02*
X75520600Y-50133000D01*
M02*
