G04 #@! TF.GenerationSoftware,KiCad,Pcbnew,5.1.10-88a1d61d58~88~ubuntu18.04.1*
G04 #@! TF.CreationDate,2021-07-03T13:59:34+09:00*
G04 #@! TF.ProjectId,swallowtail,7377616c-6c6f-4777-9461-696c2e6b6963,rev?*
G04 #@! TF.SameCoordinates,Original*
G04 #@! TF.FileFunction,Legend,Bot*
G04 #@! TF.FilePolarity,Positive*
%FSLAX46Y46*%
G04 Gerber Fmt 4.6, Leading zero omitted, Abs format (unit mm)*
G04 Created by KiCad (PCBNEW 5.1.10-88a1d61d58~88~ubuntu18.04.1) date 2021-07-03 13:59:34*
%MOMM*%
%LPD*%
G01*
G04 APERTURE LIST*
%ADD10C,0.150000*%
%ADD11C,0.010000*%
%ADD12C,0.120000*%
%ADD13C,0.300000*%
%ADD14C,0.800000*%
%ADD15C,3.000000*%
%ADD16C,0.500000*%
%ADD17C,1.000000*%
%ADD18C,3.500000*%
%ADD19C,0.400000*%
%ADD20C,0.125000*%
G04 APERTURE END LIST*
D10*
X162940476Y-103152380D02*
X163416666Y-103152380D01*
X163416666Y-102152380D01*
X162226190Y-103104761D02*
X162321428Y-103152380D01*
X162511904Y-103152380D01*
X162607142Y-103104761D01*
X162654761Y-103009523D01*
X162654761Y-102628571D01*
X162607142Y-102533333D01*
X162511904Y-102485714D01*
X162321428Y-102485714D01*
X162226190Y-102533333D01*
X162178571Y-102628571D01*
X162178571Y-102723809D01*
X162654761Y-102819047D01*
X161892857Y-102485714D02*
X161511904Y-102485714D01*
X161750000Y-103152380D02*
X161750000Y-102295238D01*
X161702380Y-102200000D01*
X161607142Y-102152380D01*
X161511904Y-102152380D01*
X161321428Y-102485714D02*
X160940476Y-102485714D01*
X161178571Y-102152380D02*
X161178571Y-103009523D01*
X161130952Y-103104761D01*
X161035714Y-103152380D01*
X160940476Y-103152380D01*
D11*
G04 #@! TO.C,G\u002A\u002A\u002A*
G36*
X162592430Y-82248750D02*
G01*
X162592430Y-80534250D01*
X162401930Y-80534250D01*
X162401930Y-82058250D01*
X161830430Y-82058250D01*
X161830430Y-80915250D01*
X161639930Y-80915250D01*
X161639930Y-82248750D01*
X162592430Y-82248750D01*
G37*
X162592430Y-82248750D02*
X162592430Y-80534250D01*
X162401930Y-80534250D01*
X162401930Y-82058250D01*
X161830430Y-82058250D01*
X161830430Y-80915250D01*
X161639930Y-80915250D01*
X161639930Y-82248750D01*
X162592430Y-82248750D01*
G36*
X162401930Y-82629750D02*
G01*
X162401930Y-84344250D01*
X161639930Y-84344250D01*
X161639930Y-84534750D01*
X162592430Y-84534750D01*
X162592430Y-82439250D01*
X161639930Y-82439250D01*
X161639930Y-82629750D01*
X162401930Y-82629750D01*
G37*
X162401930Y-82629750D02*
X162401930Y-84344250D01*
X161639930Y-84344250D01*
X161639930Y-84534750D01*
X162592430Y-84534750D01*
X162592430Y-82439250D01*
X161639930Y-82439250D01*
X161639930Y-82629750D01*
X162401930Y-82629750D01*
G36*
X162592430Y-86439750D02*
G01*
X162592430Y-86249250D01*
X161830430Y-86249250D01*
X161830430Y-84915750D01*
X162401930Y-84915750D01*
X162401930Y-86058750D01*
X162592430Y-86058750D01*
X162592430Y-84725250D01*
X161639930Y-84725250D01*
X161639930Y-86439750D01*
X162592430Y-86439750D01*
G37*
X162592430Y-86439750D02*
X162592430Y-86249250D01*
X161830430Y-86249250D01*
X161830430Y-84915750D01*
X162401930Y-84915750D01*
X162401930Y-86058750D01*
X162592430Y-86058750D01*
X162592430Y-84725250D01*
X161639930Y-84725250D01*
X161639930Y-86439750D01*
X162592430Y-86439750D01*
G36*
X162592430Y-87011250D02*
G01*
X162592430Y-86820750D01*
X161830430Y-86820750D01*
X161830430Y-86725500D01*
X161822562Y-86658034D01*
X161785452Y-86633168D01*
X161735180Y-86630250D01*
X161639930Y-86630250D01*
X161639930Y-87011250D01*
X162592430Y-87011250D01*
G37*
X162592430Y-87011250D02*
X162592430Y-86820750D01*
X161830430Y-86820750D01*
X161830430Y-86725500D01*
X161822562Y-86658034D01*
X161785452Y-86633168D01*
X161735180Y-86630250D01*
X161639930Y-86630250D01*
X161639930Y-87011250D01*
X162592430Y-87011250D01*
G36*
X162592430Y-87392250D02*
G01*
X162592430Y-87201750D01*
X161449430Y-87201750D01*
X161449430Y-86630250D01*
X161258930Y-86630250D01*
X161258930Y-87392250D01*
X162592430Y-87392250D01*
G37*
X162592430Y-87392250D02*
X162592430Y-87201750D01*
X161449430Y-87201750D01*
X161449430Y-86630250D01*
X161258930Y-86630250D01*
X161258930Y-87392250D01*
X162592430Y-87392250D01*
G36*
X162592430Y-87963750D02*
G01*
X162592430Y-87773250D01*
X161830430Y-87773250D01*
X161830430Y-87678000D01*
X161822562Y-87610534D01*
X161785452Y-87585668D01*
X161735180Y-87582750D01*
X161639930Y-87582750D01*
X161639930Y-87963750D01*
X162592430Y-87963750D01*
G37*
X162592430Y-87963750D02*
X162592430Y-87773250D01*
X161830430Y-87773250D01*
X161830430Y-87678000D01*
X161822562Y-87610534D01*
X161785452Y-87585668D01*
X161735180Y-87582750D01*
X161639930Y-87582750D01*
X161639930Y-87963750D01*
X162592430Y-87963750D01*
G36*
X162592430Y-88344750D02*
G01*
X162592430Y-88154250D01*
X161449430Y-88154250D01*
X161449430Y-87582750D01*
X161258930Y-87582750D01*
X161258930Y-88344750D01*
X162592430Y-88344750D01*
G37*
X162592430Y-88344750D02*
X162592430Y-88154250D01*
X161449430Y-88154250D01*
X161449430Y-87582750D01*
X161258930Y-87582750D01*
X161258930Y-88344750D01*
X162592430Y-88344750D01*
G36*
X162592430Y-90249750D02*
G01*
X162592430Y-88535250D01*
X161830430Y-88535250D01*
X161830430Y-88725750D01*
X162401930Y-88725750D01*
X162401930Y-90059250D01*
X161830430Y-90059250D01*
X161830430Y-88725750D01*
X161830430Y-88535250D01*
X161639930Y-88535250D01*
X161639930Y-90249750D01*
X162592430Y-90249750D01*
G37*
X162592430Y-90249750D02*
X162592430Y-88535250D01*
X161830430Y-88535250D01*
X161830430Y-88725750D01*
X162401930Y-88725750D01*
X162401930Y-90059250D01*
X161830430Y-90059250D01*
X161830430Y-88725750D01*
X161830430Y-88535250D01*
X161639930Y-88535250D01*
X161639930Y-90249750D01*
X162592430Y-90249750D01*
G36*
X162401930Y-90630750D02*
G01*
X162401930Y-92345250D01*
X161639930Y-92345250D01*
X161639930Y-92535750D01*
X162592430Y-92535750D01*
X162592430Y-90440250D01*
X161639930Y-90440250D01*
X161639930Y-90630750D01*
X162401930Y-90630750D01*
G37*
X162401930Y-90630750D02*
X162401930Y-92345250D01*
X161639930Y-92345250D01*
X161639930Y-92535750D01*
X162592430Y-92535750D01*
X162592430Y-90440250D01*
X161639930Y-90440250D01*
X161639930Y-90630750D01*
X162401930Y-90630750D01*
G36*
X162401930Y-93107250D02*
G01*
X162401930Y-94440750D01*
X162592430Y-94440750D01*
X162592430Y-92916750D01*
X162211430Y-92916750D01*
X162211430Y-92821500D01*
X162203562Y-92754034D01*
X162166452Y-92729168D01*
X162116180Y-92726250D01*
X162020930Y-92726250D01*
X162020930Y-93107250D01*
X162401930Y-93107250D01*
G37*
X162401930Y-93107250D02*
X162401930Y-94440750D01*
X162592430Y-94440750D01*
X162592430Y-92916750D01*
X162211430Y-92916750D01*
X162211430Y-92821500D01*
X162203562Y-92754034D01*
X162166452Y-92729168D01*
X162116180Y-92726250D01*
X162020930Y-92726250D01*
X162020930Y-93107250D01*
X162401930Y-93107250D01*
G36*
X162592430Y-96345750D02*
G01*
X162592430Y-96155250D01*
X161830430Y-96155250D01*
X161830430Y-94821750D01*
X162401930Y-94821750D01*
X162401930Y-95964750D01*
X162592430Y-95964750D01*
X162592430Y-94631250D01*
X161639930Y-94631250D01*
X161639930Y-96345750D01*
X162592430Y-96345750D01*
G37*
X162592430Y-96345750D02*
X162592430Y-96155250D01*
X161830430Y-96155250D01*
X161830430Y-94821750D01*
X162401930Y-94821750D01*
X162401930Y-95964750D01*
X162592430Y-95964750D01*
X162592430Y-94631250D01*
X161639930Y-94631250D01*
X161639930Y-96345750D01*
X162592430Y-96345750D01*
G36*
X162592430Y-97107750D02*
G01*
X162592430Y-96917250D01*
X161830430Y-96917250D01*
X161830430Y-96726750D01*
X162592430Y-96726750D01*
X162592430Y-96536250D01*
X161639930Y-96536250D01*
X161639930Y-97107750D01*
X162592430Y-97107750D01*
G37*
X162592430Y-97107750D02*
X162592430Y-96917250D01*
X161830430Y-96917250D01*
X161830430Y-96726750D01*
X162592430Y-96726750D01*
X162592430Y-96536250D01*
X161639930Y-96536250D01*
X161639930Y-97107750D01*
X162592430Y-97107750D01*
G36*
X162592430Y-97679250D02*
G01*
X162592430Y-97488750D01*
X161830430Y-97488750D01*
X161830430Y-97393500D01*
X161822562Y-97326034D01*
X161785452Y-97301168D01*
X161735180Y-97298250D01*
X161639930Y-97298250D01*
X161639930Y-97679250D01*
X162592430Y-97679250D01*
G37*
X162592430Y-97679250D02*
X162592430Y-97488750D01*
X161830430Y-97488750D01*
X161830430Y-97393500D01*
X161822562Y-97326034D01*
X161785452Y-97301168D01*
X161735180Y-97298250D01*
X161639930Y-97298250D01*
X161639930Y-97679250D01*
X162592430Y-97679250D01*
G36*
X162592430Y-98060250D02*
G01*
X162592430Y-97869750D01*
X161449430Y-97869750D01*
X161449430Y-97298250D01*
X161258930Y-97298250D01*
X161258930Y-98060250D01*
X162592430Y-98060250D01*
G37*
X162592430Y-98060250D02*
X162592430Y-97869750D01*
X161449430Y-97869750D01*
X161449430Y-97298250D01*
X161258930Y-97298250D01*
X161258930Y-98060250D01*
X162592430Y-98060250D01*
G36*
X161449430Y-82248750D02*
G01*
X161449430Y-80724750D01*
X162020930Y-80724750D01*
X162020930Y-81867750D01*
X162211430Y-81867750D01*
X162211430Y-80534250D01*
X161258930Y-80534250D01*
X161258930Y-82248750D01*
X161449430Y-82248750D01*
G37*
X161449430Y-82248750D02*
X161449430Y-80724750D01*
X162020930Y-80724750D01*
X162020930Y-81867750D01*
X162211430Y-81867750D01*
X162211430Y-80534250D01*
X161258930Y-80534250D01*
X161258930Y-82248750D01*
X161449430Y-82248750D01*
G36*
X162020930Y-83010750D02*
G01*
X162020930Y-83201250D01*
X161639930Y-83201250D01*
X161639930Y-83391750D01*
X162211430Y-83391750D01*
X162211430Y-82820250D01*
X161639930Y-82820250D01*
X161639930Y-83010750D01*
X162020930Y-83010750D01*
G37*
X162020930Y-83010750D02*
X162020930Y-83201250D01*
X161639930Y-83201250D01*
X161639930Y-83391750D01*
X162211430Y-83391750D01*
X162211430Y-82820250D01*
X161639930Y-82820250D01*
X161639930Y-83010750D01*
X162020930Y-83010750D01*
G36*
X162020930Y-83772750D02*
G01*
X162020930Y-83963250D01*
X161639930Y-83963250D01*
X161639930Y-84153750D01*
X162211430Y-84153750D01*
X162211430Y-83582250D01*
X161639930Y-83582250D01*
X161639930Y-83772750D01*
X162020930Y-83772750D01*
G37*
X162020930Y-83772750D02*
X162020930Y-83963250D01*
X161639930Y-83963250D01*
X161639930Y-84153750D01*
X162211430Y-84153750D01*
X162211430Y-83582250D01*
X161639930Y-83582250D01*
X161639930Y-83772750D01*
X162020930Y-83772750D01*
G36*
X162211430Y-86058750D02*
G01*
X162211430Y-85106250D01*
X162020930Y-85106250D01*
X162020930Y-86058750D01*
X162211430Y-86058750D01*
G37*
X162211430Y-86058750D02*
X162211430Y-85106250D01*
X162020930Y-85106250D01*
X162020930Y-86058750D01*
X162211430Y-86058750D01*
G36*
X162020930Y-91011750D02*
G01*
X162020930Y-91202250D01*
X161639930Y-91202250D01*
X161639930Y-91392750D01*
X162211430Y-91392750D01*
X162211430Y-90821250D01*
X161639930Y-90821250D01*
X161639930Y-91011750D01*
X162020930Y-91011750D01*
G37*
X162020930Y-91011750D02*
X162020930Y-91202250D01*
X161639930Y-91202250D01*
X161639930Y-91392750D01*
X162211430Y-91392750D01*
X162211430Y-90821250D01*
X161639930Y-90821250D01*
X161639930Y-91011750D01*
X162020930Y-91011750D01*
G36*
X162020930Y-91773750D02*
G01*
X162020930Y-91964250D01*
X161639930Y-91964250D01*
X161639930Y-92154750D01*
X162211430Y-92154750D01*
X162211430Y-91583250D01*
X161639930Y-91583250D01*
X161639930Y-91773750D01*
X162020930Y-91773750D01*
G37*
X162020930Y-91773750D02*
X162020930Y-91964250D01*
X161639930Y-91964250D01*
X161639930Y-92154750D01*
X162211430Y-92154750D01*
X162211430Y-91583250D01*
X161639930Y-91583250D01*
X161639930Y-91773750D01*
X162020930Y-91773750D01*
G36*
X162211430Y-94440750D02*
G01*
X162211430Y-93297750D01*
X162020930Y-93297750D01*
X162020930Y-94440750D01*
X162211430Y-94440750D01*
G37*
X162211430Y-94440750D02*
X162211430Y-93297750D01*
X162020930Y-93297750D01*
X162020930Y-94440750D01*
X162211430Y-94440750D01*
G36*
X162211430Y-95964750D02*
G01*
X162211430Y-95012250D01*
X162020930Y-95012250D01*
X162020930Y-95964750D01*
X162211430Y-95964750D01*
G37*
X162211430Y-95964750D02*
X162211430Y-95012250D01*
X162020930Y-95012250D01*
X162020930Y-95964750D01*
X162211430Y-95964750D01*
G36*
X161830430Y-93107250D02*
G01*
X161830430Y-92726250D01*
X161735180Y-92726250D01*
X161667714Y-92734117D01*
X161642848Y-92771227D01*
X161639930Y-92821500D01*
X161639930Y-92916750D01*
X161258930Y-92916750D01*
X161258930Y-93107250D01*
X161830430Y-93107250D01*
G37*
X161830430Y-93107250D02*
X161830430Y-92726250D01*
X161735180Y-92726250D01*
X161667714Y-92734117D01*
X161642848Y-92771227D01*
X161639930Y-92821500D01*
X161639930Y-92916750D01*
X161258930Y-92916750D01*
X161258930Y-93107250D01*
X161830430Y-93107250D01*
G36*
X161639930Y-93488250D02*
G01*
X161639930Y-94440750D01*
X161830430Y-94440750D01*
X161830430Y-93297750D01*
X161258930Y-93297750D01*
X161258930Y-93488250D01*
X161639930Y-93488250D01*
G37*
X161639930Y-93488250D02*
X161639930Y-94440750D01*
X161830430Y-94440750D01*
X161830430Y-93297750D01*
X161258930Y-93297750D01*
X161258930Y-93488250D01*
X161639930Y-93488250D01*
G36*
X161449430Y-97107750D02*
G01*
X161449430Y-96536250D01*
X161258930Y-96536250D01*
X161258930Y-97107750D01*
X161449430Y-97107750D01*
G37*
X161449430Y-97107750D02*
X161449430Y-96536250D01*
X161258930Y-96536250D01*
X161258930Y-97107750D01*
X161449430Y-97107750D01*
G36*
X162211430Y-89868750D02*
G01*
X162211430Y-88916250D01*
X162020930Y-88916250D01*
X162020930Y-89868750D01*
X162211430Y-89868750D01*
G37*
X162211430Y-89868750D02*
X162211430Y-88916250D01*
X162020930Y-88916250D01*
X162020930Y-89868750D01*
X162211430Y-89868750D01*
D12*
G04 #@! TO.C,LED1*
X145584970Y-69306540D02*
X145584970Y-70906540D01*
X145584970Y-70906540D02*
X137784970Y-70906540D01*
X137784970Y-67206540D02*
X145584970Y-67206540D01*
G04 #@! TO.C,LED2*
X126534890Y-66925280D02*
X126534890Y-68525280D01*
X126534890Y-68525280D02*
X118734890Y-68525280D01*
X118734890Y-64825280D02*
X126534890Y-64825280D01*
G04 #@! TO.C,LED3*
X107484810Y-62162760D02*
X107484810Y-63762760D01*
X107484810Y-63762760D02*
X99684810Y-63762760D01*
X99684810Y-60062760D02*
X107484810Y-60062760D01*
G04 #@! TO.C,LED4*
X88434730Y-64544020D02*
X88434730Y-66144020D01*
X88434730Y-66144020D02*
X80634730Y-66144020D01*
X80634730Y-62444020D02*
X88434730Y-62444020D01*
G04 #@! TO.C,LED5*
X69384650Y-71687800D02*
X69384650Y-73287800D01*
X69384650Y-73287800D02*
X61584650Y-73287800D01*
X61584650Y-69587800D02*
X69384650Y-69587800D01*
G04 #@! TO.C,LED6*
X50334570Y-71687800D02*
X50334570Y-73287800D01*
X50334570Y-73287800D02*
X42534570Y-73287800D01*
X42534570Y-69587800D02*
X50334570Y-69587800D01*
G04 #@! TO.C,LED7*
X50334570Y-90737880D02*
X50334570Y-92337880D01*
X50334570Y-92337880D02*
X42534570Y-92337880D01*
X42534570Y-88637880D02*
X50334570Y-88637880D01*
G04 #@! TO.C,LED8*
X69384650Y-90737880D02*
X69384650Y-92337880D01*
X69384650Y-92337880D02*
X61584650Y-92337880D01*
X61584650Y-88637880D02*
X69384650Y-88637880D01*
G04 #@! TO.C,LED9*
X88434730Y-83594100D02*
X88434730Y-85194100D01*
X88434730Y-85194100D02*
X80634730Y-85194100D01*
X80634730Y-81494100D02*
X88434730Y-81494100D01*
G04 #@! TO.C,LED10*
X107484810Y-81212840D02*
X107484810Y-82812840D01*
X107484810Y-82812840D02*
X99684810Y-82812840D01*
X99684810Y-79112840D02*
X107484810Y-79112840D01*
G04 #@! TO.C,LED11*
X126534890Y-85975360D02*
X126534890Y-87575360D01*
X126534890Y-87575360D02*
X118734890Y-87575360D01*
X118734890Y-83875360D02*
X126534890Y-83875360D01*
G04 #@! TO.C,LED12*
X145584970Y-88356620D02*
X145584970Y-89956620D01*
X145584970Y-89956620D02*
X137784970Y-89956620D01*
X137784970Y-86256620D02*
X145584970Y-86256620D01*
G04 #@! TO.C,LED13*
X145584970Y-107406700D02*
X145584970Y-109006700D01*
X145584970Y-109006700D02*
X137784970Y-109006700D01*
X137784970Y-105306700D02*
X145584970Y-105306700D01*
G04 #@! TO.C,LED14*
X126534890Y-105025440D02*
X126534890Y-106625440D01*
X126534890Y-106625440D02*
X118734890Y-106625440D01*
X118734890Y-102925440D02*
X126534890Y-102925440D01*
G04 #@! TO.C,LED15*
X107484810Y-100262920D02*
X107484810Y-101862920D01*
X107484810Y-101862920D02*
X99684810Y-101862920D01*
X99684810Y-98162920D02*
X107484810Y-98162920D01*
G04 #@! TO.C,LED16*
X88434730Y-102644180D02*
X88434730Y-104244180D01*
X88434730Y-104244180D02*
X80634730Y-104244180D01*
X80634730Y-100544180D02*
X88434730Y-100544180D01*
G04 #@! TO.C,LED17*
X69384650Y-109787960D02*
X69384650Y-111387960D01*
X69384650Y-111387960D02*
X61584650Y-111387960D01*
X61584650Y-107687960D02*
X69384650Y-107687960D01*
G04 #@! TO.C,LED18*
X50334570Y-109787960D02*
X50334570Y-111387960D01*
X50334570Y-111387960D02*
X42534570Y-111387960D01*
X42534570Y-107687960D02*
X50334570Y-107687960D01*
G04 #@! TO.C,LED19*
X50334570Y-128838040D02*
X50334570Y-130438040D01*
X50334570Y-130438040D02*
X42534570Y-130438040D01*
X42534570Y-126738040D02*
X50334570Y-126738040D01*
G04 #@! TO.C,LED20*
X69384650Y-128838040D02*
X69384650Y-130438040D01*
X69384650Y-130438040D02*
X61584650Y-130438040D01*
X61584650Y-126738040D02*
X69384650Y-126738040D01*
G04 #@! TO.C,LED21*
X88434730Y-121694260D02*
X88434730Y-123294260D01*
X88434730Y-123294260D02*
X80634730Y-123294260D01*
X80634730Y-119594260D02*
X88434730Y-119594260D01*
G04 #@! TO.C,LED22*
X107484810Y-119313000D02*
X107484810Y-120913000D01*
X107484810Y-120913000D02*
X99684810Y-120913000D01*
X99684810Y-117213000D02*
X107484810Y-117213000D01*
G04 #@! TO.C,LED23*
X126534890Y-124075520D02*
X126534890Y-125675520D01*
X126534890Y-125675520D02*
X118734890Y-125675520D01*
X118734890Y-121975520D02*
X126534890Y-121975520D01*
G04 #@! TO.C,LED24*
X145584970Y-126456780D02*
X145584970Y-128056780D01*
X145584970Y-128056780D02*
X137784970Y-128056780D01*
X137784970Y-124356780D02*
X145584970Y-124356780D01*
G04 #@! TO.C,LED25*
X156009699Y-157805011D02*
X154471680Y-157363992D01*
X154471680Y-157363992D02*
X156621652Y-149866150D01*
X160178320Y-150886008D02*
X158028348Y-158383850D01*
G04 #@! TO.C,LED26*
X143697910Y-149904880D02*
X143475233Y-151489309D01*
X143475233Y-151489309D02*
X135751142Y-150403759D01*
X136266083Y-146739767D02*
X143990174Y-147825317D01*
G04 #@! TO.C,LED27*
X121772370Y-147888120D02*
X121772370Y-149488120D01*
X121772370Y-149488120D02*
X113972370Y-149488120D01*
X113972370Y-145788120D02*
X121772370Y-145788120D01*
G04 #@! TO.C,LED28*
X88434730Y-140744340D02*
X88434730Y-142344340D01*
X88434730Y-142344340D02*
X80634730Y-142344340D01*
X80634730Y-138644340D02*
X88434730Y-138644340D01*
G04 #@! TO.C,LED29*
X69384650Y-147888120D02*
X69384650Y-149488120D01*
X69384650Y-149488120D02*
X61584650Y-149488120D01*
X61584650Y-145788120D02*
X69384650Y-145788120D01*
G04 #@! TO.C,LED30*
X50334570Y-147888120D02*
X50334570Y-149488120D01*
X50334570Y-149488120D02*
X42534570Y-149488120D01*
X42534570Y-145788120D02*
X50334570Y-145788120D01*
D13*
G04 #@! TO.C,SW6*
X135884385Y-60493764D02*
X135884385Y-59593765D01*
D14*
X136384385Y-62693765D02*
X136384385Y-60893766D01*
D15*
X137514385Y-59193765D02*
X137514385Y-61433765D01*
D16*
X145984385Y-60993765D02*
X144584385Y-60993765D01*
D17*
X145584385Y-58293765D02*
X145584385Y-60793765D01*
D18*
X144284385Y-59493765D02*
X137584385Y-59493765D01*
D10*
X146284385Y-61293765D02*
X146284385Y-60293765D01*
X146284385Y-60293765D02*
X146084385Y-60293765D01*
X146064385Y-60293765D02*
X146064385Y-58043765D01*
X146084385Y-58043765D02*
X146284385Y-58043765D01*
X135784385Y-60593765D02*
X135984385Y-60593765D01*
X136014385Y-60593765D02*
X136014385Y-62833765D01*
X135984385Y-62833765D02*
X135784385Y-62833765D01*
X135784385Y-63193765D02*
X135784385Y-62833765D01*
X135784385Y-59593765D02*
X135784385Y-60593765D01*
X135784385Y-63193765D02*
X139064385Y-63193765D01*
X141284385Y-61293765D02*
X146284385Y-61293765D01*
X146284385Y-57693765D02*
X137884384Y-57693765D01*
X146284385Y-58043765D02*
X146284385Y-57693765D01*
D16*
X135984385Y-62993765D02*
X138684385Y-62993765D01*
D19*
X146084385Y-57893765D02*
X144684385Y-57893765D01*
X146084385Y-60393765D02*
X146084385Y-61093765D01*
D10*
X139068067Y-63172294D02*
G75*
G02*
X141284385Y-61293765I2151318J-291471D01*
G01*
X135784385Y-59593766D02*
G75*
G02*
X137884384Y-57693765I2000000J-99999D01*
G01*
D17*
X138668067Y-62772294D02*
G75*
G02*
X140884385Y-60893765I2151318J-291471D01*
G01*
D13*
G04 #@! TO.C,SW29*
X135335688Y-139718291D02*
X135460944Y-138827051D01*
D14*
X135524641Y-141966469D02*
X135775153Y-140183987D01*
D15*
X137130750Y-138657796D02*
X136819002Y-140875996D01*
D16*
X145267809Y-141619075D02*
X143881434Y-141424232D01*
D17*
X145247469Y-138889682D02*
X144899536Y-141365352D01*
D18*
X143793113Y-139897078D02*
X137158317Y-138964619D01*
D10*
X145523137Y-141957907D02*
X145662311Y-140967639D01*
X145662311Y-140967639D02*
X145464257Y-140939804D01*
X145444452Y-140937021D02*
X145757591Y-138708918D01*
X145777396Y-138711701D02*
X145975450Y-138739536D01*
X135222744Y-139803402D02*
X135420797Y-139831236D01*
X135450506Y-139835412D02*
X135138758Y-142053612D01*
X135109050Y-142049437D02*
X134910996Y-142021602D01*
X134860894Y-142378099D02*
X134910996Y-142021602D01*
X135361917Y-138813134D02*
X135222744Y-139803402D01*
X134860894Y-142378099D02*
X138108973Y-142834587D01*
X140571797Y-141262042D02*
X145523137Y-141957907D01*
X146024161Y-138392942D02*
X137705908Y-137223888D01*
X145975450Y-138739536D02*
X146024161Y-138392942D01*
D16*
X135086782Y-142207880D02*
X137760506Y-142583647D01*
D19*
X145798272Y-138563161D02*
X144411897Y-138368319D01*
X145450340Y-141038831D02*
X145352918Y-141732019D01*
D10*
X138115607Y-142813837D02*
G75*
G02*
X140571797Y-141262042I2089817J-588040D01*
G01*
X135361917Y-138813135D02*
G75*
G02*
X137705908Y-137223888I1966619J-377372D01*
G01*
D17*
X137775168Y-142362061D02*
G75*
G02*
X140231359Y-140810265I2089818J-588040D01*
G01*
D10*
G04 #@! TO.C,D29*
X142135853Y-136599971D02*
X142275027Y-135609703D01*
X142275027Y-135609703D02*
X141314199Y-135979581D01*
X141314199Y-135979581D02*
X142135853Y-136599971D01*
X141145585Y-136460797D02*
X141284759Y-135470529D01*
G04 #@! TO.C,D23*
X123134385Y-111228140D02*
X123134385Y-110228140D01*
X123134385Y-110228140D02*
X122234385Y-110728140D01*
X122234385Y-110728140D02*
X123134385Y-111228140D01*
X122134385Y-111228140D02*
X122134385Y-110228140D01*
D13*
G04 #@! TO.C,SW19*
X40634385Y-120025024D02*
X40634385Y-119125025D01*
D14*
X41134385Y-122225025D02*
X41134385Y-120425026D01*
D15*
X42264385Y-118725025D02*
X42264385Y-120965025D01*
D16*
X50734385Y-120525025D02*
X49334385Y-120525025D01*
D17*
X50334385Y-117825025D02*
X50334385Y-120325025D01*
D18*
X49034385Y-119025025D02*
X42334385Y-119025025D01*
D10*
X51034385Y-120825025D02*
X51034385Y-119825025D01*
X51034385Y-119825025D02*
X50834385Y-119825025D01*
X50814385Y-119825025D02*
X50814385Y-117575025D01*
X50834385Y-117575025D02*
X51034385Y-117575025D01*
X40534385Y-120125025D02*
X40734385Y-120125025D01*
X40764385Y-120125025D02*
X40764385Y-122365025D01*
X40734385Y-122365025D02*
X40534385Y-122365025D01*
X40534385Y-122725025D02*
X40534385Y-122365025D01*
X40534385Y-119125025D02*
X40534385Y-120125025D01*
X40534385Y-122725025D02*
X43814385Y-122725025D01*
X46034385Y-120825025D02*
X51034385Y-120825025D01*
X51034385Y-117225025D02*
X42634384Y-117225025D01*
X51034385Y-117575025D02*
X51034385Y-117225025D01*
D16*
X40734385Y-122525025D02*
X43434385Y-122525025D01*
D19*
X50834385Y-117425025D02*
X49434385Y-117425025D01*
X50834385Y-119925025D02*
X50834385Y-120625025D01*
D10*
X43818067Y-122703554D02*
G75*
G02*
X46034385Y-120825025I2151318J-291471D01*
G01*
X40534385Y-119125026D02*
G75*
G02*
X42634384Y-117225025I2000000J-99999D01*
G01*
D17*
X43418067Y-122303554D02*
G75*
G02*
X45634385Y-120425025I2151318J-291471D01*
G01*
D13*
G04 #@! TO.C,SW20*
X59684385Y-120025024D02*
X59684385Y-119125025D01*
D14*
X60184385Y-122225025D02*
X60184385Y-120425026D01*
D15*
X61314385Y-118725025D02*
X61314385Y-120965025D01*
D16*
X69784385Y-120525025D02*
X68384385Y-120525025D01*
D17*
X69384385Y-117825025D02*
X69384385Y-120325025D01*
D18*
X68084385Y-119025025D02*
X61384385Y-119025025D01*
D10*
X70084385Y-120825025D02*
X70084385Y-119825025D01*
X70084385Y-119825025D02*
X69884385Y-119825025D01*
X69864385Y-119825025D02*
X69864385Y-117575025D01*
X69884385Y-117575025D02*
X70084385Y-117575025D01*
X59584385Y-120125025D02*
X59784385Y-120125025D01*
X59814385Y-120125025D02*
X59814385Y-122365025D01*
X59784385Y-122365025D02*
X59584385Y-122365025D01*
X59584385Y-122725025D02*
X59584385Y-122365025D01*
X59584385Y-119125025D02*
X59584385Y-120125025D01*
X59584385Y-122725025D02*
X62864385Y-122725025D01*
X65084385Y-120825025D02*
X70084385Y-120825025D01*
X70084385Y-117225025D02*
X61684384Y-117225025D01*
X70084385Y-117575025D02*
X70084385Y-117225025D01*
D16*
X59784385Y-122525025D02*
X62484385Y-122525025D01*
D19*
X69884385Y-117425025D02*
X68484385Y-117425025D01*
X69884385Y-119925025D02*
X69884385Y-120625025D01*
D10*
X62868067Y-122703554D02*
G75*
G02*
X65084385Y-120825025I2151318J-291471D01*
G01*
X59584385Y-119125026D02*
G75*
G02*
X61684384Y-117225025I2000000J-99999D01*
G01*
D17*
X62468067Y-122303554D02*
G75*
G02*
X64684385Y-120425025I2151318J-291471D01*
G01*
D13*
G04 #@! TO.C,SW24*
X135884385Y-117643764D02*
X135884385Y-116743765D01*
D14*
X136384385Y-119843765D02*
X136384385Y-118043766D01*
D15*
X137514385Y-116343765D02*
X137514385Y-118583765D01*
D16*
X145984385Y-118143765D02*
X144584385Y-118143765D01*
D17*
X145584385Y-115443765D02*
X145584385Y-117943765D01*
D18*
X144284385Y-116643765D02*
X137584385Y-116643765D01*
D10*
X146284385Y-118443765D02*
X146284385Y-117443765D01*
X146284385Y-117443765D02*
X146084385Y-117443765D01*
X146064385Y-117443765D02*
X146064385Y-115193765D01*
X146084385Y-115193765D02*
X146284385Y-115193765D01*
X135784385Y-117743765D02*
X135984385Y-117743765D01*
X136014385Y-117743765D02*
X136014385Y-119983765D01*
X135984385Y-119983765D02*
X135784385Y-119983765D01*
X135784385Y-120343765D02*
X135784385Y-119983765D01*
X135784385Y-116743765D02*
X135784385Y-117743765D01*
X135784385Y-120343765D02*
X139064385Y-120343765D01*
X141284385Y-118443765D02*
X146284385Y-118443765D01*
X146284385Y-114843765D02*
X137884384Y-114843765D01*
X146284385Y-115193765D02*
X146284385Y-114843765D01*
D16*
X135984385Y-120143765D02*
X138684385Y-120143765D01*
D19*
X146084385Y-115043765D02*
X144684385Y-115043765D01*
X146084385Y-117543765D02*
X146084385Y-118243765D01*
D10*
X139068067Y-120322294D02*
G75*
G02*
X141284385Y-118443765I2151318J-291471D01*
G01*
X135784385Y-116743766D02*
G75*
G02*
X137884384Y-114843765I2000000J-99999D01*
G01*
D17*
X138668067Y-119922294D02*
G75*
G02*
X140884385Y-118043765I2151318J-291471D01*
G01*
D10*
G04 #@! TO.C,D1*
X46934385Y-58840650D02*
X46934385Y-57840650D01*
X46934385Y-57840650D02*
X46034385Y-58340650D01*
X46034385Y-58340650D02*
X46934385Y-58840650D01*
X45934385Y-58840650D02*
X45934385Y-57840650D01*
G04 #@! TO.C,D2*
X65984385Y-58840650D02*
X65984385Y-57840650D01*
X65984385Y-57840650D02*
X65084385Y-58340650D01*
X65084385Y-58340650D02*
X65984385Y-58840650D01*
X64984385Y-58840650D02*
X64984385Y-57840650D01*
G04 #@! TO.C,D3*
X85034385Y-51696890D02*
X85034385Y-50696890D01*
X85034385Y-50696890D02*
X84134385Y-51196890D01*
X84134385Y-51196890D02*
X85034385Y-51696890D01*
X84034385Y-51696890D02*
X84034385Y-50696890D01*
G04 #@! TO.C,D4*
X104084385Y-49315640D02*
X104084385Y-48315640D01*
X104084385Y-48315640D02*
X103184385Y-48815640D01*
X103184385Y-48815640D02*
X104084385Y-49315640D01*
X103084385Y-49315640D02*
X103084385Y-48315640D01*
G04 #@! TO.C,D5*
X123134385Y-54078140D02*
X123134385Y-53078140D01*
X123134385Y-53078140D02*
X122234385Y-53578140D01*
X122234385Y-53578140D02*
X123134385Y-54078140D01*
X122134385Y-54078140D02*
X122134385Y-53078140D01*
G04 #@! TO.C,D6*
X142184385Y-56459390D02*
X142184385Y-55459390D01*
X142184385Y-55459390D02*
X141284385Y-55959390D01*
X141284385Y-55959390D02*
X142184385Y-56459390D01*
X141184385Y-56459390D02*
X141184385Y-55459390D01*
G04 #@! TO.C,D7*
X46934385Y-77890650D02*
X46934385Y-76890650D01*
X46934385Y-76890650D02*
X46034385Y-77390650D01*
X46034385Y-77390650D02*
X46934385Y-77890650D01*
X45934385Y-77890650D02*
X45934385Y-76890650D01*
G04 #@! TO.C,D8*
X65984385Y-77890650D02*
X65984385Y-76890650D01*
X65984385Y-76890650D02*
X65084385Y-77390650D01*
X65084385Y-77390650D02*
X65984385Y-77890650D01*
X64984385Y-77890650D02*
X64984385Y-76890650D01*
G04 #@! TO.C,D9*
X85640635Y-70746890D02*
X85640635Y-69746890D01*
X85640635Y-69746890D02*
X84740635Y-70246890D01*
X84740635Y-70246890D02*
X85640635Y-70746890D01*
X84640635Y-70746890D02*
X84640635Y-69746890D01*
G04 #@! TO.C,D10*
X104084385Y-68365640D02*
X104084385Y-67365640D01*
X104084385Y-67365640D02*
X103184385Y-67865640D01*
X103184385Y-67865640D02*
X104084385Y-68365640D01*
X103084385Y-68365640D02*
X103084385Y-67365640D01*
G04 #@! TO.C,D11*
X123134385Y-73128140D02*
X123134385Y-72128140D01*
X123134385Y-72128140D02*
X122234385Y-72628140D01*
X122234385Y-72628140D02*
X123134385Y-73128140D01*
X122134385Y-73128140D02*
X122134385Y-72128140D01*
G04 #@! TO.C,D12*
X142184385Y-75509390D02*
X142184385Y-74509390D01*
X142184385Y-74509390D02*
X141284385Y-75009390D01*
X141284385Y-75009390D02*
X142184385Y-75509390D01*
X141184385Y-75509390D02*
X141184385Y-74509390D01*
G04 #@! TO.C,D13*
X46934385Y-96940650D02*
X46934385Y-95940650D01*
X46934385Y-95940650D02*
X46034385Y-96440650D01*
X46034385Y-96440650D02*
X46934385Y-96940650D01*
X45934385Y-96940650D02*
X45934385Y-95940650D01*
G04 #@! TO.C,D14*
X65984385Y-96940650D02*
X65984385Y-95940650D01*
X65984385Y-95940650D02*
X65084385Y-96440650D01*
X65084385Y-96440650D02*
X65984385Y-96940650D01*
X64984385Y-96940650D02*
X64984385Y-95940650D01*
G04 #@! TO.C,D15*
X85034385Y-89796890D02*
X85034385Y-88796890D01*
X85034385Y-88796890D02*
X84134385Y-89296890D01*
X84134385Y-89296890D02*
X85034385Y-89796890D01*
X84034385Y-89796890D02*
X84034385Y-88796890D01*
G04 #@! TO.C,D16*
X104084385Y-87415640D02*
X104084385Y-86415640D01*
X104084385Y-86415640D02*
X103184385Y-86915640D01*
X103184385Y-86915640D02*
X104084385Y-87415640D01*
X103084385Y-87415640D02*
X103084385Y-86415640D01*
G04 #@! TO.C,D17*
X123134385Y-92178140D02*
X123134385Y-91178140D01*
X123134385Y-91178140D02*
X122234385Y-91678140D01*
X122234385Y-91678140D02*
X123134385Y-92178140D01*
X122134385Y-92178140D02*
X122134385Y-91178140D01*
G04 #@! TO.C,D18*
X142184385Y-94559390D02*
X142184385Y-93559390D01*
X142184385Y-93559390D02*
X141284385Y-94059390D01*
X141284385Y-94059390D02*
X142184385Y-94559390D01*
X141184385Y-94559390D02*
X141184385Y-93559390D01*
G04 #@! TO.C,D19*
X46934385Y-115990650D02*
X46934385Y-114990650D01*
X46934385Y-114990650D02*
X46034385Y-115490650D01*
X46034385Y-115490650D02*
X46934385Y-115990650D01*
X45934385Y-115990650D02*
X45934385Y-114990650D01*
G04 #@! TO.C,D20*
X65984385Y-115990650D02*
X65984385Y-114990650D01*
X65984385Y-114990650D02*
X65084385Y-115490650D01*
X65084385Y-115490650D02*
X65984385Y-115990650D01*
X64984385Y-115990650D02*
X64984385Y-114990650D01*
G04 #@! TO.C,D21*
X85034385Y-108846890D02*
X85034385Y-107846890D01*
X85034385Y-107846890D02*
X84134385Y-108346890D01*
X84134385Y-108346890D02*
X85034385Y-108846890D01*
X84034385Y-108846890D02*
X84034385Y-107846890D01*
G04 #@! TO.C,D22*
X104084385Y-106465640D02*
X104084385Y-105465640D01*
X104084385Y-105465640D02*
X103184385Y-105965640D01*
X103184385Y-105965640D02*
X104084385Y-106465640D01*
X103084385Y-106465640D02*
X103084385Y-105465640D01*
G04 #@! TO.C,D24*
X142184385Y-113609390D02*
X142184385Y-112609390D01*
X142184385Y-112609390D02*
X141284385Y-113109390D01*
X141284385Y-113109390D02*
X142184385Y-113609390D01*
X141184385Y-113609390D02*
X141184385Y-112609390D01*
G04 #@! TO.C,D25*
X46934385Y-135040650D02*
X46934385Y-134040650D01*
X46934385Y-134040650D02*
X46034385Y-134540650D01*
X46034385Y-134540650D02*
X46934385Y-135040650D01*
X45934385Y-135040650D02*
X45934385Y-134040650D01*
G04 #@! TO.C,D26*
X65984385Y-135040650D02*
X65984385Y-134040650D01*
X65984385Y-134040650D02*
X65084385Y-134540650D01*
X65084385Y-134540650D02*
X65984385Y-135040650D01*
X64984385Y-135040650D02*
X64984385Y-134040650D01*
G04 #@! TO.C,D27*
X85034385Y-127896890D02*
X85034385Y-126896890D01*
X85034385Y-126896890D02*
X84134385Y-127396890D01*
X84134385Y-127396890D02*
X85034385Y-127896890D01*
X84034385Y-127896890D02*
X84034385Y-126896890D01*
G04 #@! TO.C,D28*
X118376385Y-135041640D02*
X118376385Y-134041640D01*
X118376385Y-134041640D02*
X117476385Y-134541640D01*
X117476385Y-134541640D02*
X118376385Y-135041640D01*
X117376385Y-135041640D02*
X117376385Y-134041640D01*
G04 #@! TO.C,D30*
X165887185Y-143585191D02*
X166162823Y-142623929D01*
X166162823Y-142623929D02*
X165159868Y-142856486D01*
X165159868Y-142856486D02*
X165887185Y-143585191D01*
X164925923Y-143309553D02*
X165201561Y-142348291D01*
D13*
G04 #@! TO.C,SW4*
X97784385Y-53350014D02*
X97784385Y-52450015D01*
D14*
X98284385Y-55550015D02*
X98284385Y-53750016D01*
D15*
X99414385Y-52050015D02*
X99414385Y-54290015D01*
D16*
X107884385Y-53850015D02*
X106484385Y-53850015D01*
D17*
X107484385Y-51150015D02*
X107484385Y-53650015D01*
D18*
X106184385Y-52350015D02*
X99484385Y-52350015D01*
D10*
X108184385Y-54150015D02*
X108184385Y-53150015D01*
X108184385Y-53150015D02*
X107984385Y-53150015D01*
X107964385Y-53150015D02*
X107964385Y-50900015D01*
X107984385Y-50900015D02*
X108184385Y-50900015D01*
X97684385Y-53450015D02*
X97884385Y-53450015D01*
X97914385Y-53450015D02*
X97914385Y-55690015D01*
X97884385Y-55690015D02*
X97684385Y-55690015D01*
X97684385Y-56050015D02*
X97684385Y-55690015D01*
X97684385Y-52450015D02*
X97684385Y-53450015D01*
X97684385Y-56050015D02*
X100964385Y-56050015D01*
X103184385Y-54150015D02*
X108184385Y-54150015D01*
X108184385Y-50550015D02*
X99784384Y-50550015D01*
X108184385Y-50900015D02*
X108184385Y-50550015D01*
D16*
X97884385Y-55850015D02*
X100584385Y-55850015D01*
D19*
X107984385Y-50750015D02*
X106584385Y-50750015D01*
X107984385Y-53250015D02*
X107984385Y-53950015D01*
D10*
X100968067Y-56028544D02*
G75*
G02*
X103184385Y-54150015I2151318J-291471D01*
G01*
X97684385Y-52450016D02*
G75*
G02*
X99784384Y-50550015I2000000J-99999D01*
G01*
D17*
X100568067Y-55628544D02*
G75*
G02*
X102784385Y-53750015I2151318J-291471D01*
G01*
D13*
G04 #@! TO.C,SW30*
X167185877Y-151028369D02*
X168051012Y-151276443D01*
D14*
X164933282Y-150902598D02*
X166663552Y-151398745D01*
D15*
X167986227Y-152953554D02*
X165833001Y-152336127D01*
D16*
X163921308Y-160599294D02*
X164307200Y-159253527D01*
D17*
X166626969Y-160959010D02*
X164223815Y-160269916D01*
D18*
X165831784Y-159378605D02*
X167678554Y-152938151D01*
D10*
X163550238Y-160804981D02*
X164511500Y-161080618D01*
X164511500Y-161080618D02*
X164566627Y-160888366D01*
X164572140Y-160869141D02*
X166734979Y-161489325D01*
X166729466Y-161508550D02*
X166674339Y-161700802D01*
X167117314Y-150904679D02*
X167062186Y-151096932D01*
X167053917Y-151125769D02*
X164900691Y-150508342D01*
X164908960Y-150479504D02*
X164964087Y-150287252D01*
X164618033Y-150188022D02*
X164964087Y-150287252D01*
X168078575Y-151180317D02*
X167117314Y-150904679D01*
X164618033Y-150188022D02*
X163713943Y-153340960D01*
X164928425Y-155998672D02*
X163550238Y-160804981D01*
X167010780Y-161797275D02*
X169326134Y-153722676D01*
X166674339Y-161700802D02*
X167010780Y-161797275D01*
D16*
X164755158Y-150435402D02*
X164010937Y-153030808D01*
D19*
X166873655Y-161549896D02*
X167259548Y-160204129D01*
X164470501Y-160860802D02*
X163797618Y-160667856D01*
D10*
X163733567Y-153350418D02*
G75*
G02*
X164928425Y-155998672I-873163J-1987639D01*
G01*
X168078574Y-151180316D02*
G75*
G02*
X169326134Y-153722676I-647400J-1894960D01*
G01*
D17*
X164228326Y-153076168D02*
G75*
G02*
X165423185Y-155724423I-873163J-1987640D01*
G01*
D13*
G04 #@! TO.C,SW25*
X40634385Y-139075024D02*
X40634385Y-138175025D01*
D14*
X41134385Y-141275025D02*
X41134385Y-139475026D01*
D15*
X42264385Y-137775025D02*
X42264385Y-140015025D01*
D16*
X50734385Y-139575025D02*
X49334385Y-139575025D01*
D17*
X50334385Y-136875025D02*
X50334385Y-139375025D01*
D18*
X49034385Y-138075025D02*
X42334385Y-138075025D01*
D10*
X51034385Y-139875025D02*
X51034385Y-138875025D01*
X51034385Y-138875025D02*
X50834385Y-138875025D01*
X50814385Y-138875025D02*
X50814385Y-136625025D01*
X50834385Y-136625025D02*
X51034385Y-136625025D01*
X40534385Y-139175025D02*
X40734385Y-139175025D01*
X40764385Y-139175025D02*
X40764385Y-141415025D01*
X40734385Y-141415025D02*
X40534385Y-141415025D01*
X40534385Y-141775025D02*
X40534385Y-141415025D01*
X40534385Y-138175025D02*
X40534385Y-139175025D01*
X40534385Y-141775025D02*
X43814385Y-141775025D01*
X46034385Y-139875025D02*
X51034385Y-139875025D01*
X51034385Y-136275025D02*
X42634384Y-136275025D01*
X51034385Y-136625025D02*
X51034385Y-136275025D01*
D16*
X40734385Y-141575025D02*
X43434385Y-141575025D01*
D19*
X50834385Y-136475025D02*
X49434385Y-136475025D01*
X50834385Y-138975025D02*
X50834385Y-139675025D01*
D10*
X43818067Y-141753554D02*
G75*
G02*
X46034385Y-139875025I2151318J-291471D01*
G01*
X40534385Y-138175026D02*
G75*
G02*
X42634384Y-136275025I2000000J-99999D01*
G01*
D17*
X43418067Y-141353554D02*
G75*
G02*
X45634385Y-139475025I2151318J-291471D01*
G01*
D10*
G04 #@! TO.C,J1*
X171913560Y-115290425D02*
X171913560Y-121290425D01*
X171913560Y-121290425D02*
X159913560Y-121290425D01*
X159913560Y-121290425D02*
X159913560Y-115290425D01*
X159913560Y-115290425D02*
X171913560Y-115290425D01*
G04 #@! TO.C,J2*
X157054560Y-112420425D02*
X157054560Y-109880425D01*
X167214560Y-112420425D02*
X157054560Y-112420425D01*
X167214560Y-109880425D02*
X167214560Y-112420425D01*
X157054560Y-109880425D02*
X167214560Y-109880425D01*
G04 #@! TO.C,JP1*
X163277560Y-105689425D02*
X163277560Y-103911425D01*
X160991560Y-105689425D02*
X163277560Y-105689425D01*
X160991560Y-103911425D02*
X160991560Y-105689425D01*
X163277560Y-103911425D02*
X160991560Y-103911425D01*
G04 #@! TO.C,JP3*
X165055560Y-109118425D02*
X166833560Y-109118425D01*
X165055560Y-106832425D02*
X165055560Y-109118425D01*
X166833560Y-106832425D02*
X165055560Y-106832425D01*
X166833560Y-109118425D02*
X166833560Y-106832425D01*
G04 #@! TO.C,JP4*
X162515560Y-109118425D02*
X164293560Y-109118425D01*
X162515560Y-106832425D02*
X162515560Y-109118425D01*
X164293560Y-106832425D02*
X162515560Y-106832425D01*
X164293560Y-109118425D02*
X164293560Y-106832425D01*
G04 #@! TO.C,JP5*
X159975560Y-109118425D02*
X161753560Y-109118425D01*
X159975560Y-106832425D02*
X159975560Y-109118425D01*
X161753560Y-106832425D02*
X159975560Y-106832425D01*
X161753560Y-109118425D02*
X161753560Y-106832425D01*
G04 #@! TO.C,JP6*
X157435560Y-109118425D02*
X159213560Y-109118425D01*
X157435560Y-106832425D02*
X157435560Y-109118425D01*
X159213560Y-106832425D02*
X157435560Y-106832425D01*
X159213560Y-109118425D02*
X159213560Y-106832425D01*
G04 #@! TO.C,RSW1*
X165116850Y-124942520D02*
X165116850Y-125192520D01*
X159116850Y-124942520D02*
X165116850Y-124942520D01*
X159116850Y-125192520D02*
X159116850Y-124942520D01*
X159116850Y-128442520D02*
X159116850Y-128192520D01*
X165116850Y-128442520D02*
X159116850Y-128442520D01*
X165116850Y-128192520D02*
X165116850Y-128442520D01*
D13*
G04 #@! TO.C,SW1*
X40634385Y-62875024D02*
X40634385Y-61975025D01*
D14*
X41134385Y-65075025D02*
X41134385Y-63275026D01*
D15*
X42264385Y-61575025D02*
X42264385Y-63815025D01*
D16*
X50734385Y-63375025D02*
X49334385Y-63375025D01*
D17*
X50334385Y-60675025D02*
X50334385Y-63175025D01*
D18*
X49034385Y-61875025D02*
X42334385Y-61875025D01*
D10*
X51034385Y-63675025D02*
X51034385Y-62675025D01*
X51034385Y-62675025D02*
X50834385Y-62675025D01*
X50814385Y-62675025D02*
X50814385Y-60425025D01*
X50834385Y-60425025D02*
X51034385Y-60425025D01*
X40534385Y-62975025D02*
X40734385Y-62975025D01*
X40764385Y-62975025D02*
X40764385Y-65215025D01*
X40734385Y-65215025D02*
X40534385Y-65215025D01*
X40534385Y-65575025D02*
X40534385Y-65215025D01*
X40534385Y-61975025D02*
X40534385Y-62975025D01*
X40534385Y-65575025D02*
X43814385Y-65575025D01*
X46034385Y-63675025D02*
X51034385Y-63675025D01*
X51034385Y-60075025D02*
X42634384Y-60075025D01*
X51034385Y-60425025D02*
X51034385Y-60075025D01*
D16*
X40734385Y-65375025D02*
X43434385Y-65375025D01*
D19*
X50834385Y-60275025D02*
X49434385Y-60275025D01*
X50834385Y-62775025D02*
X50834385Y-63475025D01*
D10*
X43818067Y-65553554D02*
G75*
G02*
X46034385Y-63675025I2151318J-291471D01*
G01*
X40534385Y-61975026D02*
G75*
G02*
X42634384Y-60075025I2000000J-99999D01*
G01*
D17*
X43418067Y-65153554D02*
G75*
G02*
X45634385Y-63275025I2151318J-291471D01*
G01*
D13*
G04 #@! TO.C,SW2*
X59684385Y-62875024D02*
X59684385Y-61975025D01*
D14*
X60184385Y-65075025D02*
X60184385Y-63275026D01*
D15*
X61314385Y-61575025D02*
X61314385Y-63815025D01*
D16*
X69784385Y-63375025D02*
X68384385Y-63375025D01*
D17*
X69384385Y-60675025D02*
X69384385Y-63175025D01*
D18*
X68084385Y-61875025D02*
X61384385Y-61875025D01*
D10*
X70084385Y-63675025D02*
X70084385Y-62675025D01*
X70084385Y-62675025D02*
X69884385Y-62675025D01*
X69864385Y-62675025D02*
X69864385Y-60425025D01*
X69884385Y-60425025D02*
X70084385Y-60425025D01*
X59584385Y-62975025D02*
X59784385Y-62975025D01*
X59814385Y-62975025D02*
X59814385Y-65215025D01*
X59784385Y-65215025D02*
X59584385Y-65215025D01*
X59584385Y-65575025D02*
X59584385Y-65215025D01*
X59584385Y-61975025D02*
X59584385Y-62975025D01*
X59584385Y-65575025D02*
X62864385Y-65575025D01*
X65084385Y-63675025D02*
X70084385Y-63675025D01*
X70084385Y-60075025D02*
X61684384Y-60075025D01*
X70084385Y-60425025D02*
X70084385Y-60075025D01*
D16*
X59784385Y-65375025D02*
X62484385Y-65375025D01*
D19*
X69884385Y-60275025D02*
X68484385Y-60275025D01*
X69884385Y-62775025D02*
X69884385Y-63475025D01*
D10*
X62868067Y-65553554D02*
G75*
G02*
X65084385Y-63675025I2151318J-291471D01*
G01*
X59584385Y-61975026D02*
G75*
G02*
X61684384Y-60075025I2000000J-99999D01*
G01*
D17*
X62468067Y-65153554D02*
G75*
G02*
X64684385Y-63275025I2151318J-291471D01*
G01*
D13*
G04 #@! TO.C,SW3*
X78734385Y-55731264D02*
X78734385Y-54831265D01*
D14*
X79234385Y-57931265D02*
X79234385Y-56131266D01*
D15*
X80364385Y-54431265D02*
X80364385Y-56671265D01*
D16*
X88834385Y-56231265D02*
X87434385Y-56231265D01*
D17*
X88434385Y-53531265D02*
X88434385Y-56031265D01*
D18*
X87134385Y-54731265D02*
X80434385Y-54731265D01*
D10*
X89134385Y-56531265D02*
X89134385Y-55531265D01*
X89134385Y-55531265D02*
X88934385Y-55531265D01*
X88914385Y-55531265D02*
X88914385Y-53281265D01*
X88934385Y-53281265D02*
X89134385Y-53281265D01*
X78634385Y-55831265D02*
X78834385Y-55831265D01*
X78864385Y-55831265D02*
X78864385Y-58071265D01*
X78834385Y-58071265D02*
X78634385Y-58071265D01*
X78634385Y-58431265D02*
X78634385Y-58071265D01*
X78634385Y-54831265D02*
X78634385Y-55831265D01*
X78634385Y-58431265D02*
X81914385Y-58431265D01*
X84134385Y-56531265D02*
X89134385Y-56531265D01*
X89134385Y-52931265D02*
X80734384Y-52931265D01*
X89134385Y-53281265D02*
X89134385Y-52931265D01*
D16*
X78834385Y-58231265D02*
X81534385Y-58231265D01*
D19*
X88934385Y-53131265D02*
X87534385Y-53131265D01*
X88934385Y-55631265D02*
X88934385Y-56331265D01*
D10*
X81918067Y-58409794D02*
G75*
G02*
X84134385Y-56531265I2151318J-291471D01*
G01*
X78634385Y-54831266D02*
G75*
G02*
X80734384Y-52931265I2000000J-99999D01*
G01*
D17*
X81518067Y-58009794D02*
G75*
G02*
X83734385Y-56131265I2151318J-291471D01*
G01*
D13*
G04 #@! TO.C,SW5*
X116834385Y-58112514D02*
X116834385Y-57212515D01*
D14*
X117334385Y-60312515D02*
X117334385Y-58512516D01*
D15*
X118464385Y-56812515D02*
X118464385Y-59052515D01*
D16*
X126934385Y-58612515D02*
X125534385Y-58612515D01*
D17*
X126534385Y-55912515D02*
X126534385Y-58412515D01*
D18*
X125234385Y-57112515D02*
X118534385Y-57112515D01*
D10*
X127234385Y-58912515D02*
X127234385Y-57912515D01*
X127234385Y-57912515D02*
X127034385Y-57912515D01*
X127014385Y-57912515D02*
X127014385Y-55662515D01*
X127034385Y-55662515D02*
X127234385Y-55662515D01*
X116734385Y-58212515D02*
X116934385Y-58212515D01*
X116964385Y-58212515D02*
X116964385Y-60452515D01*
X116934385Y-60452515D02*
X116734385Y-60452515D01*
X116734385Y-60812515D02*
X116734385Y-60452515D01*
X116734385Y-57212515D02*
X116734385Y-58212515D01*
X116734385Y-60812515D02*
X120014385Y-60812515D01*
X122234385Y-58912515D02*
X127234385Y-58912515D01*
X127234385Y-55312515D02*
X118834384Y-55312515D01*
X127234385Y-55662515D02*
X127234385Y-55312515D01*
D16*
X116934385Y-60612515D02*
X119634385Y-60612515D01*
D19*
X127034385Y-55512515D02*
X125634385Y-55512515D01*
X127034385Y-58012515D02*
X127034385Y-58712515D01*
D10*
X120018067Y-60791044D02*
G75*
G02*
X122234385Y-58912515I2151318J-291471D01*
G01*
X116734385Y-57212516D02*
G75*
G02*
X118834384Y-55312515I2000000J-99999D01*
G01*
D17*
X119618067Y-60391044D02*
G75*
G02*
X121834385Y-58512515I2151318J-291471D01*
G01*
D13*
G04 #@! TO.C,SW7*
X40634385Y-81925024D02*
X40634385Y-81025025D01*
D14*
X41134385Y-84125025D02*
X41134385Y-82325026D01*
D15*
X42264385Y-80625025D02*
X42264385Y-82865025D01*
D16*
X50734385Y-82425025D02*
X49334385Y-82425025D01*
D17*
X50334385Y-79725025D02*
X50334385Y-82225025D01*
D18*
X49034385Y-80925025D02*
X42334385Y-80925025D01*
D10*
X51034385Y-82725025D02*
X51034385Y-81725025D01*
X51034385Y-81725025D02*
X50834385Y-81725025D01*
X50814385Y-81725025D02*
X50814385Y-79475025D01*
X50834385Y-79475025D02*
X51034385Y-79475025D01*
X40534385Y-82025025D02*
X40734385Y-82025025D01*
X40764385Y-82025025D02*
X40764385Y-84265025D01*
X40734385Y-84265025D02*
X40534385Y-84265025D01*
X40534385Y-84625025D02*
X40534385Y-84265025D01*
X40534385Y-81025025D02*
X40534385Y-82025025D01*
X40534385Y-84625025D02*
X43814385Y-84625025D01*
X46034385Y-82725025D02*
X51034385Y-82725025D01*
X51034385Y-79125025D02*
X42634384Y-79125025D01*
X51034385Y-79475025D02*
X51034385Y-79125025D01*
D16*
X40734385Y-84425025D02*
X43434385Y-84425025D01*
D19*
X50834385Y-79325025D02*
X49434385Y-79325025D01*
X50834385Y-81825025D02*
X50834385Y-82525025D01*
D10*
X43818067Y-84603554D02*
G75*
G02*
X46034385Y-82725025I2151318J-291471D01*
G01*
X40534385Y-81025026D02*
G75*
G02*
X42634384Y-79125025I2000000J-99999D01*
G01*
D17*
X43418067Y-84203554D02*
G75*
G02*
X45634385Y-82325025I2151318J-291471D01*
G01*
D13*
G04 #@! TO.C,SW8*
X59684385Y-81925024D02*
X59684385Y-81025025D01*
D14*
X60184385Y-84125025D02*
X60184385Y-82325026D01*
D15*
X61314385Y-80625025D02*
X61314385Y-82865025D01*
D16*
X69784385Y-82425025D02*
X68384385Y-82425025D01*
D17*
X69384385Y-79725025D02*
X69384385Y-82225025D01*
D18*
X68084385Y-80925025D02*
X61384385Y-80925025D01*
D10*
X70084385Y-82725025D02*
X70084385Y-81725025D01*
X70084385Y-81725025D02*
X69884385Y-81725025D01*
X69864385Y-81725025D02*
X69864385Y-79475025D01*
X69884385Y-79475025D02*
X70084385Y-79475025D01*
X59584385Y-82025025D02*
X59784385Y-82025025D01*
X59814385Y-82025025D02*
X59814385Y-84265025D01*
X59784385Y-84265025D02*
X59584385Y-84265025D01*
X59584385Y-84625025D02*
X59584385Y-84265025D01*
X59584385Y-81025025D02*
X59584385Y-82025025D01*
X59584385Y-84625025D02*
X62864385Y-84625025D01*
X65084385Y-82725025D02*
X70084385Y-82725025D01*
X70084385Y-79125025D02*
X61684384Y-79125025D01*
X70084385Y-79475025D02*
X70084385Y-79125025D01*
D16*
X59784385Y-84425025D02*
X62484385Y-84425025D01*
D19*
X69884385Y-79325025D02*
X68484385Y-79325025D01*
X69884385Y-81825025D02*
X69884385Y-82525025D01*
D10*
X62868067Y-84603554D02*
G75*
G02*
X65084385Y-82725025I2151318J-291471D01*
G01*
X59584385Y-81025026D02*
G75*
G02*
X61684384Y-79125025I2000000J-99999D01*
G01*
D17*
X62468067Y-84203554D02*
G75*
G02*
X64684385Y-82325025I2151318J-291471D01*
G01*
D13*
G04 #@! TO.C,SW9*
X78734385Y-74781264D02*
X78734385Y-73881265D01*
D14*
X79234385Y-76981265D02*
X79234385Y-75181266D01*
D15*
X80364385Y-73481265D02*
X80364385Y-75721265D01*
D16*
X88834385Y-75281265D02*
X87434385Y-75281265D01*
D17*
X88434385Y-72581265D02*
X88434385Y-75081265D01*
D18*
X87134385Y-73781265D02*
X80434385Y-73781265D01*
D10*
X89134385Y-75581265D02*
X89134385Y-74581265D01*
X89134385Y-74581265D02*
X88934385Y-74581265D01*
X88914385Y-74581265D02*
X88914385Y-72331265D01*
X88934385Y-72331265D02*
X89134385Y-72331265D01*
X78634385Y-74881265D02*
X78834385Y-74881265D01*
X78864385Y-74881265D02*
X78864385Y-77121265D01*
X78834385Y-77121265D02*
X78634385Y-77121265D01*
X78634385Y-77481265D02*
X78634385Y-77121265D01*
X78634385Y-73881265D02*
X78634385Y-74881265D01*
X78634385Y-77481265D02*
X81914385Y-77481265D01*
X84134385Y-75581265D02*
X89134385Y-75581265D01*
X89134385Y-71981265D02*
X80734384Y-71981265D01*
X89134385Y-72331265D02*
X89134385Y-71981265D01*
D16*
X78834385Y-77281265D02*
X81534385Y-77281265D01*
D19*
X88934385Y-72181265D02*
X87534385Y-72181265D01*
X88934385Y-74681265D02*
X88934385Y-75381265D01*
D10*
X81918067Y-77459794D02*
G75*
G02*
X84134385Y-75581265I2151318J-291471D01*
G01*
X78634385Y-73881266D02*
G75*
G02*
X80734384Y-71981265I2000000J-99999D01*
G01*
D17*
X81518067Y-77059794D02*
G75*
G02*
X83734385Y-75181265I2151318J-291471D01*
G01*
D13*
G04 #@! TO.C,SW10*
X97784385Y-72400014D02*
X97784385Y-71500015D01*
D14*
X98284385Y-74600015D02*
X98284385Y-72800016D01*
D15*
X99414385Y-71100015D02*
X99414385Y-73340015D01*
D16*
X107884385Y-72900015D02*
X106484385Y-72900015D01*
D17*
X107484385Y-70200015D02*
X107484385Y-72700015D01*
D18*
X106184385Y-71400015D02*
X99484385Y-71400015D01*
D10*
X108184385Y-73200015D02*
X108184385Y-72200015D01*
X108184385Y-72200015D02*
X107984385Y-72200015D01*
X107964385Y-72200015D02*
X107964385Y-69950015D01*
X107984385Y-69950015D02*
X108184385Y-69950015D01*
X97684385Y-72500015D02*
X97884385Y-72500015D01*
X97914385Y-72500015D02*
X97914385Y-74740015D01*
X97884385Y-74740015D02*
X97684385Y-74740015D01*
X97684385Y-75100015D02*
X97684385Y-74740015D01*
X97684385Y-71500015D02*
X97684385Y-72500015D01*
X97684385Y-75100015D02*
X100964385Y-75100015D01*
X103184385Y-73200015D02*
X108184385Y-73200015D01*
X108184385Y-69600015D02*
X99784384Y-69600015D01*
X108184385Y-69950015D02*
X108184385Y-69600015D01*
D16*
X97884385Y-74900015D02*
X100584385Y-74900015D01*
D19*
X107984385Y-69800015D02*
X106584385Y-69800015D01*
X107984385Y-72300015D02*
X107984385Y-73000015D01*
D10*
X100968067Y-75078544D02*
G75*
G02*
X103184385Y-73200015I2151318J-291471D01*
G01*
X97684385Y-71500016D02*
G75*
G02*
X99784384Y-69600015I2000000J-99999D01*
G01*
D17*
X100568067Y-74678544D02*
G75*
G02*
X102784385Y-72800015I2151318J-291471D01*
G01*
D13*
G04 #@! TO.C,SW11*
X116834385Y-77162514D02*
X116834385Y-76262515D01*
D14*
X117334385Y-79362515D02*
X117334385Y-77562516D01*
D15*
X118464385Y-75862515D02*
X118464385Y-78102515D01*
D16*
X126934385Y-77662515D02*
X125534385Y-77662515D01*
D17*
X126534385Y-74962515D02*
X126534385Y-77462515D01*
D18*
X125234385Y-76162515D02*
X118534385Y-76162515D01*
D10*
X127234385Y-77962515D02*
X127234385Y-76962515D01*
X127234385Y-76962515D02*
X127034385Y-76962515D01*
X127014385Y-76962515D02*
X127014385Y-74712515D01*
X127034385Y-74712515D02*
X127234385Y-74712515D01*
X116734385Y-77262515D02*
X116934385Y-77262515D01*
X116964385Y-77262515D02*
X116964385Y-79502515D01*
X116934385Y-79502515D02*
X116734385Y-79502515D01*
X116734385Y-79862515D02*
X116734385Y-79502515D01*
X116734385Y-76262515D02*
X116734385Y-77262515D01*
X116734385Y-79862515D02*
X120014385Y-79862515D01*
X122234385Y-77962515D02*
X127234385Y-77962515D01*
X127234385Y-74362515D02*
X118834384Y-74362515D01*
X127234385Y-74712515D02*
X127234385Y-74362515D01*
D16*
X116934385Y-79662515D02*
X119634385Y-79662515D01*
D19*
X127034385Y-74562515D02*
X125634385Y-74562515D01*
X127034385Y-77062515D02*
X127034385Y-77762515D01*
D10*
X120018067Y-79841044D02*
G75*
G02*
X122234385Y-77962515I2151318J-291471D01*
G01*
X116734385Y-76262516D02*
G75*
G02*
X118834384Y-74362515I2000000J-99999D01*
G01*
D17*
X119618067Y-79441044D02*
G75*
G02*
X121834385Y-77562515I2151318J-291471D01*
G01*
D13*
G04 #@! TO.C,SW12*
X135884385Y-79543764D02*
X135884385Y-78643765D01*
D14*
X136384385Y-81743765D02*
X136384385Y-79943766D01*
D15*
X137514385Y-78243765D02*
X137514385Y-80483765D01*
D16*
X145984385Y-80043765D02*
X144584385Y-80043765D01*
D17*
X145584385Y-77343765D02*
X145584385Y-79843765D01*
D18*
X144284385Y-78543765D02*
X137584385Y-78543765D01*
D10*
X146284385Y-80343765D02*
X146284385Y-79343765D01*
X146284385Y-79343765D02*
X146084385Y-79343765D01*
X146064385Y-79343765D02*
X146064385Y-77093765D01*
X146084385Y-77093765D02*
X146284385Y-77093765D01*
X135784385Y-79643765D02*
X135984385Y-79643765D01*
X136014385Y-79643765D02*
X136014385Y-81883765D01*
X135984385Y-81883765D02*
X135784385Y-81883765D01*
X135784385Y-82243765D02*
X135784385Y-81883765D01*
X135784385Y-78643765D02*
X135784385Y-79643765D01*
X135784385Y-82243765D02*
X139064385Y-82243765D01*
X141284385Y-80343765D02*
X146284385Y-80343765D01*
X146284385Y-76743765D02*
X137884384Y-76743765D01*
X146284385Y-77093765D02*
X146284385Y-76743765D01*
D16*
X135984385Y-82043765D02*
X138684385Y-82043765D01*
D19*
X146084385Y-76943765D02*
X144684385Y-76943765D01*
X146084385Y-79443765D02*
X146084385Y-80143765D01*
D10*
X139068067Y-82222294D02*
G75*
G02*
X141284385Y-80343765I2151318J-291471D01*
G01*
X135784385Y-78643766D02*
G75*
G02*
X137884384Y-76743765I2000000J-99999D01*
G01*
D17*
X138668067Y-81822294D02*
G75*
G02*
X140884385Y-79943765I2151318J-291471D01*
G01*
D13*
G04 #@! TO.C,SW13*
X40634385Y-100975024D02*
X40634385Y-100075025D01*
D14*
X41134385Y-103175025D02*
X41134385Y-101375026D01*
D15*
X42264385Y-99675025D02*
X42264385Y-101915025D01*
D16*
X50734385Y-101475025D02*
X49334385Y-101475025D01*
D17*
X50334385Y-98775025D02*
X50334385Y-101275025D01*
D18*
X49034385Y-99975025D02*
X42334385Y-99975025D01*
D10*
X51034385Y-101775025D02*
X51034385Y-100775025D01*
X51034385Y-100775025D02*
X50834385Y-100775025D01*
X50814385Y-100775025D02*
X50814385Y-98525025D01*
X50834385Y-98525025D02*
X51034385Y-98525025D01*
X40534385Y-101075025D02*
X40734385Y-101075025D01*
X40764385Y-101075025D02*
X40764385Y-103315025D01*
X40734385Y-103315025D02*
X40534385Y-103315025D01*
X40534385Y-103675025D02*
X40534385Y-103315025D01*
X40534385Y-100075025D02*
X40534385Y-101075025D01*
X40534385Y-103675025D02*
X43814385Y-103675025D01*
X46034385Y-101775025D02*
X51034385Y-101775025D01*
X51034385Y-98175025D02*
X42634384Y-98175025D01*
X51034385Y-98525025D02*
X51034385Y-98175025D01*
D16*
X40734385Y-103475025D02*
X43434385Y-103475025D01*
D19*
X50834385Y-98375025D02*
X49434385Y-98375025D01*
X50834385Y-100875025D02*
X50834385Y-101575025D01*
D10*
X43818067Y-103653554D02*
G75*
G02*
X46034385Y-101775025I2151318J-291471D01*
G01*
X40534385Y-100075026D02*
G75*
G02*
X42634384Y-98175025I2000000J-99999D01*
G01*
D17*
X43418067Y-103253554D02*
G75*
G02*
X45634385Y-101375025I2151318J-291471D01*
G01*
D13*
G04 #@! TO.C,SW14*
X59684385Y-100975024D02*
X59684385Y-100075025D01*
D14*
X60184385Y-103175025D02*
X60184385Y-101375026D01*
D15*
X61314385Y-99675025D02*
X61314385Y-101915025D01*
D16*
X69784385Y-101475025D02*
X68384385Y-101475025D01*
D17*
X69384385Y-98775025D02*
X69384385Y-101275025D01*
D18*
X68084385Y-99975025D02*
X61384385Y-99975025D01*
D10*
X70084385Y-101775025D02*
X70084385Y-100775025D01*
X70084385Y-100775025D02*
X69884385Y-100775025D01*
X69864385Y-100775025D02*
X69864385Y-98525025D01*
X69884385Y-98525025D02*
X70084385Y-98525025D01*
X59584385Y-101075025D02*
X59784385Y-101075025D01*
X59814385Y-101075025D02*
X59814385Y-103315025D01*
X59784385Y-103315025D02*
X59584385Y-103315025D01*
X59584385Y-103675025D02*
X59584385Y-103315025D01*
X59584385Y-100075025D02*
X59584385Y-101075025D01*
X59584385Y-103675025D02*
X62864385Y-103675025D01*
X65084385Y-101775025D02*
X70084385Y-101775025D01*
X70084385Y-98175025D02*
X61684384Y-98175025D01*
X70084385Y-98525025D02*
X70084385Y-98175025D01*
D16*
X59784385Y-103475025D02*
X62484385Y-103475025D01*
D19*
X69884385Y-98375025D02*
X68484385Y-98375025D01*
X69884385Y-100875025D02*
X69884385Y-101575025D01*
D10*
X62868067Y-103653554D02*
G75*
G02*
X65084385Y-101775025I2151318J-291471D01*
G01*
X59584385Y-100075026D02*
G75*
G02*
X61684384Y-98175025I2000000J-99999D01*
G01*
D17*
X62468067Y-103253554D02*
G75*
G02*
X64684385Y-101375025I2151318J-291471D01*
G01*
D13*
G04 #@! TO.C,SW15*
X78734385Y-93831264D02*
X78734385Y-92931265D01*
D14*
X79234385Y-96031265D02*
X79234385Y-94231266D01*
D15*
X80364385Y-92531265D02*
X80364385Y-94771265D01*
D16*
X88834385Y-94331265D02*
X87434385Y-94331265D01*
D17*
X88434385Y-91631265D02*
X88434385Y-94131265D01*
D18*
X87134385Y-92831265D02*
X80434385Y-92831265D01*
D10*
X89134385Y-94631265D02*
X89134385Y-93631265D01*
X89134385Y-93631265D02*
X88934385Y-93631265D01*
X88914385Y-93631265D02*
X88914385Y-91381265D01*
X88934385Y-91381265D02*
X89134385Y-91381265D01*
X78634385Y-93931265D02*
X78834385Y-93931265D01*
X78864385Y-93931265D02*
X78864385Y-96171265D01*
X78834385Y-96171265D02*
X78634385Y-96171265D01*
X78634385Y-96531265D02*
X78634385Y-96171265D01*
X78634385Y-92931265D02*
X78634385Y-93931265D01*
X78634385Y-96531265D02*
X81914385Y-96531265D01*
X84134385Y-94631265D02*
X89134385Y-94631265D01*
X89134385Y-91031265D02*
X80734384Y-91031265D01*
X89134385Y-91381265D02*
X89134385Y-91031265D01*
D16*
X78834385Y-96331265D02*
X81534385Y-96331265D01*
D19*
X88934385Y-91231265D02*
X87534385Y-91231265D01*
X88934385Y-93731265D02*
X88934385Y-94431265D01*
D10*
X81918067Y-96509794D02*
G75*
G02*
X84134385Y-94631265I2151318J-291471D01*
G01*
X78634385Y-92931266D02*
G75*
G02*
X80734384Y-91031265I2000000J-99999D01*
G01*
D17*
X81518067Y-96109794D02*
G75*
G02*
X83734385Y-94231265I2151318J-291471D01*
G01*
D13*
G04 #@! TO.C,SW16*
X97784385Y-91450014D02*
X97784385Y-90550015D01*
D14*
X98284385Y-93650015D02*
X98284385Y-91850016D01*
D15*
X99414385Y-90150015D02*
X99414385Y-92390015D01*
D16*
X107884385Y-91950015D02*
X106484385Y-91950015D01*
D17*
X107484385Y-89250015D02*
X107484385Y-91750015D01*
D18*
X106184385Y-90450015D02*
X99484385Y-90450015D01*
D10*
X108184385Y-92250015D02*
X108184385Y-91250015D01*
X108184385Y-91250015D02*
X107984385Y-91250015D01*
X107964385Y-91250015D02*
X107964385Y-89000015D01*
X107984385Y-89000015D02*
X108184385Y-89000015D01*
X97684385Y-91550015D02*
X97884385Y-91550015D01*
X97914385Y-91550015D02*
X97914385Y-93790015D01*
X97884385Y-93790015D02*
X97684385Y-93790015D01*
X97684385Y-94150015D02*
X97684385Y-93790015D01*
X97684385Y-90550015D02*
X97684385Y-91550015D01*
X97684385Y-94150015D02*
X100964385Y-94150015D01*
X103184385Y-92250015D02*
X108184385Y-92250015D01*
X108184385Y-88650015D02*
X99784384Y-88650015D01*
X108184385Y-89000015D02*
X108184385Y-88650015D01*
D16*
X97884385Y-93950015D02*
X100584385Y-93950015D01*
D19*
X107984385Y-88850015D02*
X106584385Y-88850015D01*
X107984385Y-91350015D02*
X107984385Y-92050015D01*
D10*
X100968067Y-94128544D02*
G75*
G02*
X103184385Y-92250015I2151318J-291471D01*
G01*
X97684385Y-90550016D02*
G75*
G02*
X99784384Y-88650015I2000000J-99999D01*
G01*
D17*
X100568067Y-93728544D02*
G75*
G02*
X102784385Y-91850015I2151318J-291471D01*
G01*
D13*
G04 #@! TO.C,SW17*
X116834385Y-96212514D02*
X116834385Y-95312515D01*
D14*
X117334385Y-98412515D02*
X117334385Y-96612516D01*
D15*
X118464385Y-94912515D02*
X118464385Y-97152515D01*
D16*
X126934385Y-96712515D02*
X125534385Y-96712515D01*
D17*
X126534385Y-94012515D02*
X126534385Y-96512515D01*
D18*
X125234385Y-95212515D02*
X118534385Y-95212515D01*
D10*
X127234385Y-97012515D02*
X127234385Y-96012515D01*
X127234385Y-96012515D02*
X127034385Y-96012515D01*
X127014385Y-96012515D02*
X127014385Y-93762515D01*
X127034385Y-93762515D02*
X127234385Y-93762515D01*
X116734385Y-96312515D02*
X116934385Y-96312515D01*
X116964385Y-96312515D02*
X116964385Y-98552515D01*
X116934385Y-98552515D02*
X116734385Y-98552515D01*
X116734385Y-98912515D02*
X116734385Y-98552515D01*
X116734385Y-95312515D02*
X116734385Y-96312515D01*
X116734385Y-98912515D02*
X120014385Y-98912515D01*
X122234385Y-97012515D02*
X127234385Y-97012515D01*
X127234385Y-93412515D02*
X118834384Y-93412515D01*
X127234385Y-93762515D02*
X127234385Y-93412515D01*
D16*
X116934385Y-98712515D02*
X119634385Y-98712515D01*
D19*
X127034385Y-93612515D02*
X125634385Y-93612515D01*
X127034385Y-96112515D02*
X127034385Y-96812515D01*
D10*
X120018067Y-98891044D02*
G75*
G02*
X122234385Y-97012515I2151318J-291471D01*
G01*
X116734385Y-95312516D02*
G75*
G02*
X118834384Y-93412515I2000000J-99999D01*
G01*
D17*
X119618067Y-98491044D02*
G75*
G02*
X121834385Y-96612515I2151318J-291471D01*
G01*
D13*
G04 #@! TO.C,SW18*
X135884385Y-98593764D02*
X135884385Y-97693765D01*
D14*
X136384385Y-100793765D02*
X136384385Y-98993766D01*
D15*
X137514385Y-97293765D02*
X137514385Y-99533765D01*
D16*
X145984385Y-99093765D02*
X144584385Y-99093765D01*
D17*
X145584385Y-96393765D02*
X145584385Y-98893765D01*
D18*
X144284385Y-97593765D02*
X137584385Y-97593765D01*
D10*
X146284385Y-99393765D02*
X146284385Y-98393765D01*
X146284385Y-98393765D02*
X146084385Y-98393765D01*
X146064385Y-98393765D02*
X146064385Y-96143765D01*
X146084385Y-96143765D02*
X146284385Y-96143765D01*
X135784385Y-98693765D02*
X135984385Y-98693765D01*
X136014385Y-98693765D02*
X136014385Y-100933765D01*
X135984385Y-100933765D02*
X135784385Y-100933765D01*
X135784385Y-101293765D02*
X135784385Y-100933765D01*
X135784385Y-97693765D02*
X135784385Y-98693765D01*
X135784385Y-101293765D02*
X139064385Y-101293765D01*
X141284385Y-99393765D02*
X146284385Y-99393765D01*
X146284385Y-95793765D02*
X137884384Y-95793765D01*
X146284385Y-96143765D02*
X146284385Y-95793765D01*
D16*
X135984385Y-101093765D02*
X138684385Y-101093765D01*
D19*
X146084385Y-95993765D02*
X144684385Y-95993765D01*
X146084385Y-98493765D02*
X146084385Y-99193765D01*
D10*
X139068067Y-101272294D02*
G75*
G02*
X141284385Y-99393765I2151318J-291471D01*
G01*
X135784385Y-97693766D02*
G75*
G02*
X137884384Y-95793765I2000000J-99999D01*
G01*
D17*
X138668067Y-100872294D02*
G75*
G02*
X140884385Y-98993765I2151318J-291471D01*
G01*
D13*
G04 #@! TO.C,SW21*
X78734385Y-112881264D02*
X78734385Y-111981265D01*
D14*
X79234385Y-115081265D02*
X79234385Y-113281266D01*
D15*
X80364385Y-111581265D02*
X80364385Y-113821265D01*
D16*
X88834385Y-113381265D02*
X87434385Y-113381265D01*
D17*
X88434385Y-110681265D02*
X88434385Y-113181265D01*
D18*
X87134385Y-111881265D02*
X80434385Y-111881265D01*
D10*
X89134385Y-113681265D02*
X89134385Y-112681265D01*
X89134385Y-112681265D02*
X88934385Y-112681265D01*
X88914385Y-112681265D02*
X88914385Y-110431265D01*
X88934385Y-110431265D02*
X89134385Y-110431265D01*
X78634385Y-112981265D02*
X78834385Y-112981265D01*
X78864385Y-112981265D02*
X78864385Y-115221265D01*
X78834385Y-115221265D02*
X78634385Y-115221265D01*
X78634385Y-115581265D02*
X78634385Y-115221265D01*
X78634385Y-111981265D02*
X78634385Y-112981265D01*
X78634385Y-115581265D02*
X81914385Y-115581265D01*
X84134385Y-113681265D02*
X89134385Y-113681265D01*
X89134385Y-110081265D02*
X80734384Y-110081265D01*
X89134385Y-110431265D02*
X89134385Y-110081265D01*
D16*
X78834385Y-115381265D02*
X81534385Y-115381265D01*
D19*
X88934385Y-110281265D02*
X87534385Y-110281265D01*
X88934385Y-112781265D02*
X88934385Y-113481265D01*
D10*
X81918067Y-115559794D02*
G75*
G02*
X84134385Y-113681265I2151318J-291471D01*
G01*
X78634385Y-111981266D02*
G75*
G02*
X80734384Y-110081265I2000000J-99999D01*
G01*
D17*
X81518067Y-115159794D02*
G75*
G02*
X83734385Y-113281265I2151318J-291471D01*
G01*
D13*
G04 #@! TO.C,SW22*
X97784385Y-110500014D02*
X97784385Y-109600015D01*
D14*
X98284385Y-112700015D02*
X98284385Y-110900016D01*
D15*
X99414385Y-109200015D02*
X99414385Y-111440015D01*
D16*
X107884385Y-111000015D02*
X106484385Y-111000015D01*
D17*
X107484385Y-108300015D02*
X107484385Y-110800015D01*
D18*
X106184385Y-109500015D02*
X99484385Y-109500015D01*
D10*
X108184385Y-111300015D02*
X108184385Y-110300015D01*
X108184385Y-110300015D02*
X107984385Y-110300015D01*
X107964385Y-110300015D02*
X107964385Y-108050015D01*
X107984385Y-108050015D02*
X108184385Y-108050015D01*
X97684385Y-110600015D02*
X97884385Y-110600015D01*
X97914385Y-110600015D02*
X97914385Y-112840015D01*
X97884385Y-112840015D02*
X97684385Y-112840015D01*
X97684385Y-113200015D02*
X97684385Y-112840015D01*
X97684385Y-109600015D02*
X97684385Y-110600015D01*
X97684385Y-113200015D02*
X100964385Y-113200015D01*
X103184385Y-111300015D02*
X108184385Y-111300015D01*
X108184385Y-107700015D02*
X99784384Y-107700015D01*
X108184385Y-108050015D02*
X108184385Y-107700015D01*
D16*
X97884385Y-113000015D02*
X100584385Y-113000015D01*
D19*
X107984385Y-107900015D02*
X106584385Y-107900015D01*
X107984385Y-110400015D02*
X107984385Y-111100015D01*
D10*
X100968067Y-113178544D02*
G75*
G02*
X103184385Y-111300015I2151318J-291471D01*
G01*
X97684385Y-109600016D02*
G75*
G02*
X99784384Y-107700015I2000000J-99999D01*
G01*
D17*
X100568067Y-112778544D02*
G75*
G02*
X102784385Y-110900015I2151318J-291471D01*
G01*
D13*
G04 #@! TO.C,SW23*
X116834385Y-115262514D02*
X116834385Y-114362515D01*
D14*
X117334385Y-117462515D02*
X117334385Y-115662516D01*
D15*
X118464385Y-113962515D02*
X118464385Y-116202515D01*
D16*
X126934385Y-115762515D02*
X125534385Y-115762515D01*
D17*
X126534385Y-113062515D02*
X126534385Y-115562515D01*
D18*
X125234385Y-114262515D02*
X118534385Y-114262515D01*
D10*
X127234385Y-116062515D02*
X127234385Y-115062515D01*
X127234385Y-115062515D02*
X127034385Y-115062515D01*
X127014385Y-115062515D02*
X127014385Y-112812515D01*
X127034385Y-112812515D02*
X127234385Y-112812515D01*
X116734385Y-115362515D02*
X116934385Y-115362515D01*
X116964385Y-115362515D02*
X116964385Y-117602515D01*
X116934385Y-117602515D02*
X116734385Y-117602515D01*
X116734385Y-117962515D02*
X116734385Y-117602515D01*
X116734385Y-114362515D02*
X116734385Y-115362515D01*
X116734385Y-117962515D02*
X120014385Y-117962515D01*
X122234385Y-116062515D02*
X127234385Y-116062515D01*
X127234385Y-112462515D02*
X118834384Y-112462515D01*
X127234385Y-112812515D02*
X127234385Y-112462515D01*
D16*
X116934385Y-117762515D02*
X119634385Y-117762515D01*
D19*
X127034385Y-112662515D02*
X125634385Y-112662515D01*
X127034385Y-115162515D02*
X127034385Y-115862515D01*
D10*
X120018067Y-117941044D02*
G75*
G02*
X122234385Y-116062515I2151318J-291471D01*
G01*
X116734385Y-114362516D02*
G75*
G02*
X118834384Y-112462515I2000000J-99999D01*
G01*
D17*
X119618067Y-117541044D02*
G75*
G02*
X121834385Y-115662515I2151318J-291471D01*
G01*
D13*
G04 #@! TO.C,SW26*
X59684385Y-139075024D02*
X59684385Y-138175025D01*
D14*
X60184385Y-141275025D02*
X60184385Y-139475026D01*
D15*
X61314385Y-137775025D02*
X61314385Y-140015025D01*
D16*
X69784385Y-139575025D02*
X68384385Y-139575025D01*
D17*
X69384385Y-136875025D02*
X69384385Y-139375025D01*
D18*
X68084385Y-138075025D02*
X61384385Y-138075025D01*
D10*
X70084385Y-139875025D02*
X70084385Y-138875025D01*
X70084385Y-138875025D02*
X69884385Y-138875025D01*
X69864385Y-138875025D02*
X69864385Y-136625025D01*
X69884385Y-136625025D02*
X70084385Y-136625025D01*
X59584385Y-139175025D02*
X59784385Y-139175025D01*
X59814385Y-139175025D02*
X59814385Y-141415025D01*
X59784385Y-141415025D02*
X59584385Y-141415025D01*
X59584385Y-141775025D02*
X59584385Y-141415025D01*
X59584385Y-138175025D02*
X59584385Y-139175025D01*
X59584385Y-141775025D02*
X62864385Y-141775025D01*
X65084385Y-139875025D02*
X70084385Y-139875025D01*
X70084385Y-136275025D02*
X61684384Y-136275025D01*
X70084385Y-136625025D02*
X70084385Y-136275025D01*
D16*
X59784385Y-141575025D02*
X62484385Y-141575025D01*
D19*
X69884385Y-136475025D02*
X68484385Y-136475025D01*
X69884385Y-138975025D02*
X69884385Y-139675025D01*
D10*
X62868067Y-141753554D02*
G75*
G02*
X65084385Y-139875025I2151318J-291471D01*
G01*
X59584385Y-138175026D02*
G75*
G02*
X61684384Y-136275025I2000000J-99999D01*
G01*
D17*
X62468067Y-141353554D02*
G75*
G02*
X64684385Y-139475025I2151318J-291471D01*
G01*
D13*
G04 #@! TO.C,SW27*
X78734385Y-131931264D02*
X78734385Y-131031265D01*
D14*
X79234385Y-134131265D02*
X79234385Y-132331266D01*
D15*
X80364385Y-130631265D02*
X80364385Y-132871265D01*
D16*
X88834385Y-132431265D02*
X87434385Y-132431265D01*
D17*
X88434385Y-129731265D02*
X88434385Y-132231265D01*
D18*
X87134385Y-130931265D02*
X80434385Y-130931265D01*
D10*
X89134385Y-132731265D02*
X89134385Y-131731265D01*
X89134385Y-131731265D02*
X88934385Y-131731265D01*
X88914385Y-131731265D02*
X88914385Y-129481265D01*
X88934385Y-129481265D02*
X89134385Y-129481265D01*
X78634385Y-132031265D02*
X78834385Y-132031265D01*
X78864385Y-132031265D02*
X78864385Y-134271265D01*
X78834385Y-134271265D02*
X78634385Y-134271265D01*
X78634385Y-134631265D02*
X78634385Y-134271265D01*
X78634385Y-131031265D02*
X78634385Y-132031265D01*
X78634385Y-134631265D02*
X81914385Y-134631265D01*
X84134385Y-132731265D02*
X89134385Y-132731265D01*
X89134385Y-129131265D02*
X80734384Y-129131265D01*
X89134385Y-129481265D02*
X89134385Y-129131265D01*
D16*
X78834385Y-134431265D02*
X81534385Y-134431265D01*
D19*
X88934385Y-129331265D02*
X87534385Y-129331265D01*
X88934385Y-131831265D02*
X88934385Y-132531265D01*
D10*
X81918067Y-134609794D02*
G75*
G02*
X84134385Y-132731265I2151318J-291471D01*
G01*
X78634385Y-131031266D02*
G75*
G02*
X80734384Y-129131265I2000000J-99999D01*
G01*
D17*
X81518067Y-134209794D02*
G75*
G02*
X83734385Y-132331265I2151318J-291471D01*
G01*
D13*
G04 #@! TO.C,SW28*
X112076385Y-139076014D02*
X112076385Y-138176015D01*
D14*
X112576385Y-141276015D02*
X112576385Y-139476016D01*
D15*
X113706385Y-137776015D02*
X113706385Y-140016015D01*
D16*
X122176385Y-139576015D02*
X120776385Y-139576015D01*
D17*
X121776385Y-136876015D02*
X121776385Y-139376015D01*
D18*
X120476385Y-138076015D02*
X113776385Y-138076015D01*
D10*
X122476385Y-139876015D02*
X122476385Y-138876015D01*
X122476385Y-138876015D02*
X122276385Y-138876015D01*
X122256385Y-138876015D02*
X122256385Y-136626015D01*
X122276385Y-136626015D02*
X122476385Y-136626015D01*
X111976385Y-139176015D02*
X112176385Y-139176015D01*
X112206385Y-139176015D02*
X112206385Y-141416015D01*
X112176385Y-141416015D02*
X111976385Y-141416015D01*
X111976385Y-141776015D02*
X111976385Y-141416015D01*
X111976385Y-138176015D02*
X111976385Y-139176015D01*
X111976385Y-141776015D02*
X115256385Y-141776015D01*
X117476385Y-139876015D02*
X122476385Y-139876015D01*
X122476385Y-136276015D02*
X114076384Y-136276015D01*
X122476385Y-136626015D02*
X122476385Y-136276015D01*
D16*
X112176385Y-141576015D02*
X114876385Y-141576015D01*
D19*
X122276385Y-136476015D02*
X120876385Y-136476015D01*
X122276385Y-138976015D02*
X122276385Y-139676015D01*
D10*
X115260067Y-141754544D02*
G75*
G02*
X117476385Y-139876015I2151318J-291471D01*
G01*
X111976385Y-138176016D02*
G75*
G02*
X114076384Y-136276015I2000000J-99999D01*
G01*
D17*
X114860067Y-141354544D02*
G75*
G02*
X117076385Y-139476015I2151318J-291471D01*
G01*
D10*
G04 #@! TO.C,U1*
X152553160Y-108737425D02*
X152553160Y-78257425D01*
X155093160Y-108737425D02*
X152553160Y-108737425D01*
X155093160Y-78257425D02*
X155093160Y-108737425D01*
X152553160Y-78257425D02*
X155093160Y-78257425D01*
X167793160Y-108737425D02*
X167793160Y-78257425D01*
X170333160Y-108737425D02*
X167793160Y-108737425D01*
X170333160Y-78257425D02*
X170333160Y-108737425D01*
X167793160Y-78257425D02*
X170333160Y-78257425D01*
G04 #@! TO.C,J1*
X164952440Y-117453020D02*
X164952440Y-118024448D01*
X165952440Y-117738734D02*
X164952440Y-117738734D01*
X165952440Y-118929210D02*
X165476250Y-118595877D01*
X165952440Y-118357782D02*
X164952440Y-118357782D01*
X164952440Y-118738734D01*
X165000060Y-118833972D01*
X165047679Y-118881591D01*
X165142917Y-118929210D01*
X165285774Y-118929210D01*
X165381012Y-118881591D01*
X165428631Y-118833972D01*
X165476250Y-118738734D01*
X165476250Y-118357782D01*
X165952440Y-119929210D02*
X165476250Y-119595877D01*
X165952440Y-119357782D02*
X164952440Y-119357782D01*
X164952440Y-119738734D01*
X165000060Y-119833972D01*
X165047679Y-119881591D01*
X165142917Y-119929210D01*
X165285774Y-119929210D01*
X165381012Y-119881591D01*
X165428631Y-119833972D01*
X165476250Y-119738734D01*
X165476250Y-119357782D01*
X165904821Y-120310163D02*
X165952440Y-120453020D01*
X165952440Y-120691115D01*
X165904821Y-120786353D01*
X165857202Y-120833972D01*
X165761964Y-120881591D01*
X165666726Y-120881591D01*
X165571488Y-120833972D01*
X165523869Y-120786353D01*
X165476250Y-120691115D01*
X165428631Y-120500639D01*
X165381012Y-120405401D01*
X165333393Y-120357782D01*
X165238155Y-120310163D01*
X165142917Y-120310163D01*
X165047679Y-120357782D01*
X165000060Y-120405401D01*
X164952440Y-120500639D01*
X164952440Y-120738734D01*
X165000060Y-120881591D01*
G04 #@! TO.C,RSW1*
X163696230Y-127144900D02*
X164029564Y-126668710D01*
X164267659Y-127144900D02*
X164267659Y-126144900D01*
X163886707Y-126144900D01*
X163791469Y-126192520D01*
X163743850Y-126240139D01*
X163696230Y-126335377D01*
X163696230Y-126478234D01*
X163743850Y-126573472D01*
X163791469Y-126621091D01*
X163886707Y-126668710D01*
X164267659Y-126668710D01*
X163267659Y-126621091D02*
X162934326Y-126621091D01*
X162791469Y-127144900D02*
X163267659Y-127144900D01*
X163267659Y-126144900D01*
X162791469Y-126144900D01*
X162410516Y-127097281D02*
X162267659Y-127144900D01*
X162029564Y-127144900D01*
X161934326Y-127097281D01*
X161886707Y-127049662D01*
X161839088Y-126954424D01*
X161839088Y-126859186D01*
X161886707Y-126763948D01*
X161934326Y-126716329D01*
X162029564Y-126668710D01*
X162220040Y-126621091D01*
X162315278Y-126573472D01*
X162362897Y-126525853D01*
X162410516Y-126430615D01*
X162410516Y-126335377D01*
X162362897Y-126240139D01*
X162315278Y-126192520D01*
X162220040Y-126144900D01*
X161981945Y-126144900D01*
X161839088Y-126192520D01*
X161410516Y-126621091D02*
X161077183Y-126621091D01*
X160934326Y-127144900D02*
X161410516Y-127144900D01*
X161410516Y-126144900D01*
X160934326Y-126144900D01*
X160648611Y-126144900D02*
X160077183Y-126144900D01*
X160362897Y-127144900D02*
X160362897Y-126144900D01*
G04 #@! TO.C,U1*
D20*
X151960779Y-97638782D02*
X151984588Y-97674496D01*
X152056017Y-97710210D01*
X152103636Y-97710210D01*
X152175064Y-97674496D01*
X152222683Y-97603067D01*
X152246493Y-97531639D01*
X152270302Y-97388782D01*
X152270302Y-97281639D01*
X152246493Y-97138782D01*
X152222683Y-97067353D01*
X152175064Y-96995925D01*
X152103636Y-96960210D01*
X152056017Y-96960210D01*
X151984588Y-96995925D01*
X151960779Y-97031639D01*
X151651255Y-96960210D02*
X151556017Y-96960210D01*
X151508398Y-96995925D01*
X151460779Y-97067353D01*
X151436969Y-97210210D01*
X151436969Y-97460210D01*
X151460779Y-97603067D01*
X151508398Y-97674496D01*
X151556017Y-97710210D01*
X151651255Y-97710210D01*
X151698874Y-97674496D01*
X151746493Y-97603067D01*
X151770302Y-97460210D01*
X151770302Y-97210210D01*
X151746493Y-97067353D01*
X151698874Y-96995925D01*
X151651255Y-96960210D01*
X150984588Y-97710210D02*
X151222683Y-97710210D01*
X151222683Y-96960210D01*
X150841731Y-97031639D02*
X150817921Y-96995925D01*
X150770302Y-96960210D01*
X150651255Y-96960210D01*
X150603636Y-96995925D01*
X150579826Y-97031639D01*
X150556017Y-97103067D01*
X150556017Y-97174496D01*
X150579826Y-97281639D01*
X150865540Y-97710210D01*
X150556017Y-97710210D01*
X167294112Y-100186710D02*
X167460779Y-99829567D01*
X167579826Y-100186710D02*
X167579826Y-99436710D01*
X167389350Y-99436710D01*
X167341731Y-99472425D01*
X167317921Y-99508139D01*
X167294112Y-99579567D01*
X167294112Y-99686710D01*
X167317921Y-99758139D01*
X167341731Y-99793853D01*
X167389350Y-99829567D01*
X167579826Y-99829567D01*
X166984588Y-99436710D02*
X166889350Y-99436710D01*
X166841731Y-99472425D01*
X166794112Y-99543853D01*
X166770302Y-99686710D01*
X166770302Y-99936710D01*
X166794112Y-100079567D01*
X166841731Y-100150996D01*
X166889350Y-100186710D01*
X166984588Y-100186710D01*
X167032207Y-100150996D01*
X167079826Y-100079567D01*
X167103636Y-99936710D01*
X167103636Y-99686710D01*
X167079826Y-99543853D01*
X167032207Y-99472425D01*
X166984588Y-99436710D01*
X166603636Y-99436710D02*
X166484588Y-100186710D01*
X166389350Y-99650996D01*
X166294112Y-100186710D01*
X166175064Y-99436710D01*
X166008398Y-99508139D02*
X165984588Y-99472425D01*
X165936969Y-99436710D01*
X165817921Y-99436710D01*
X165770302Y-99472425D01*
X165746493Y-99508139D01*
X165722683Y-99579567D01*
X165722683Y-99650996D01*
X165746493Y-99758139D01*
X166032207Y-100186710D01*
X165722683Y-100186710D01*
X151960779Y-100242282D02*
X151984588Y-100277996D01*
X152056017Y-100313710D01*
X152103636Y-100313710D01*
X152175064Y-100277996D01*
X152222683Y-100206567D01*
X152246493Y-100135139D01*
X152270302Y-99992282D01*
X152270302Y-99885139D01*
X152246493Y-99742282D01*
X152222683Y-99670853D01*
X152175064Y-99599425D01*
X152103636Y-99563710D01*
X152056017Y-99563710D01*
X151984588Y-99599425D01*
X151960779Y-99635139D01*
X151651255Y-99563710D02*
X151556017Y-99563710D01*
X151508398Y-99599425D01*
X151460779Y-99670853D01*
X151436969Y-99813710D01*
X151436969Y-100063710D01*
X151460779Y-100206567D01*
X151508398Y-100277996D01*
X151556017Y-100313710D01*
X151651255Y-100313710D01*
X151698874Y-100277996D01*
X151746493Y-100206567D01*
X151770302Y-100063710D01*
X151770302Y-99813710D01*
X151746493Y-99670853D01*
X151698874Y-99599425D01*
X151651255Y-99563710D01*
X150984588Y-100313710D02*
X151222683Y-100313710D01*
X151222683Y-99563710D01*
X150865540Y-99563710D02*
X150556017Y-99563710D01*
X150722683Y-99849425D01*
X150651255Y-99849425D01*
X150603636Y-99885139D01*
X150579826Y-99920853D01*
X150556017Y-99992282D01*
X150556017Y-100170853D01*
X150579826Y-100242282D01*
X150603636Y-100277996D01*
X150651255Y-100313710D01*
X150794112Y-100313710D01*
X150841731Y-100277996D01*
X150865540Y-100242282D01*
X167344112Y-102824710D02*
X167510779Y-102467567D01*
X167629826Y-102824710D02*
X167629826Y-102074710D01*
X167439350Y-102074710D01*
X167391731Y-102110425D01*
X167367921Y-102146139D01*
X167344112Y-102217567D01*
X167344112Y-102324710D01*
X167367921Y-102396139D01*
X167391731Y-102431853D01*
X167439350Y-102467567D01*
X167629826Y-102467567D01*
X167034588Y-102074710D02*
X166939350Y-102074710D01*
X166891731Y-102110425D01*
X166844112Y-102181853D01*
X166820302Y-102324710D01*
X166820302Y-102574710D01*
X166844112Y-102717567D01*
X166891731Y-102788996D01*
X166939350Y-102824710D01*
X167034588Y-102824710D01*
X167082207Y-102788996D01*
X167129826Y-102717567D01*
X167153636Y-102574710D01*
X167153636Y-102324710D01*
X167129826Y-102181853D01*
X167082207Y-102110425D01*
X167034588Y-102074710D01*
X166653636Y-102074710D02*
X166534588Y-102824710D01*
X166439350Y-102288996D01*
X166344112Y-102824710D01*
X166225064Y-102074710D01*
X166082207Y-102074710D02*
X165772683Y-102074710D01*
X165939350Y-102360425D01*
X165867921Y-102360425D01*
X165820302Y-102396139D01*
X165796493Y-102431853D01*
X165772683Y-102503282D01*
X165772683Y-102681853D01*
X165796493Y-102753282D01*
X165820302Y-102788996D01*
X165867921Y-102824710D01*
X166010779Y-102824710D01*
X166058398Y-102788996D01*
X166082207Y-102753282D01*
X151960779Y-102753282D02*
X151984588Y-102788996D01*
X152056017Y-102824710D01*
X152103636Y-102824710D01*
X152175064Y-102788996D01*
X152222683Y-102717567D01*
X152246493Y-102646139D01*
X152270302Y-102503282D01*
X152270302Y-102396139D01*
X152246493Y-102253282D01*
X152222683Y-102181853D01*
X152175064Y-102110425D01*
X152103636Y-102074710D01*
X152056017Y-102074710D01*
X151984588Y-102110425D01*
X151960779Y-102146139D01*
X151651255Y-102074710D02*
X151556017Y-102074710D01*
X151508398Y-102110425D01*
X151460779Y-102181853D01*
X151436969Y-102324710D01*
X151436969Y-102574710D01*
X151460779Y-102717567D01*
X151508398Y-102788996D01*
X151556017Y-102824710D01*
X151651255Y-102824710D01*
X151698874Y-102788996D01*
X151746493Y-102717567D01*
X151770302Y-102574710D01*
X151770302Y-102324710D01*
X151746493Y-102181853D01*
X151698874Y-102110425D01*
X151651255Y-102074710D01*
X150984588Y-102824710D02*
X151222683Y-102824710D01*
X151222683Y-102074710D01*
X150603636Y-102324710D02*
X150603636Y-102824710D01*
X150722683Y-102038996D02*
X150841731Y-102574710D01*
X150532207Y-102574710D01*
X167344112Y-105203210D02*
X167510779Y-104846067D01*
X167629826Y-105203210D02*
X167629826Y-104453210D01*
X167439350Y-104453210D01*
X167391731Y-104488925D01*
X167367921Y-104524639D01*
X167344112Y-104596067D01*
X167344112Y-104703210D01*
X167367921Y-104774639D01*
X167391731Y-104810353D01*
X167439350Y-104846067D01*
X167629826Y-104846067D01*
X167034588Y-104453210D02*
X166939350Y-104453210D01*
X166891731Y-104488925D01*
X166844112Y-104560353D01*
X166820302Y-104703210D01*
X166820302Y-104953210D01*
X166844112Y-105096067D01*
X166891731Y-105167496D01*
X166939350Y-105203210D01*
X167034588Y-105203210D01*
X167082207Y-105167496D01*
X167129826Y-105096067D01*
X167153636Y-104953210D01*
X167153636Y-104703210D01*
X167129826Y-104560353D01*
X167082207Y-104488925D01*
X167034588Y-104453210D01*
X166653636Y-104453210D02*
X166534588Y-105203210D01*
X166439350Y-104667496D01*
X166344112Y-105203210D01*
X166225064Y-104453210D01*
X165820302Y-104703210D02*
X165820302Y-105203210D01*
X165939350Y-104417496D02*
X166058398Y-104953210D01*
X165748874Y-104953210D01*
X151960779Y-105258782D02*
X151984588Y-105294496D01*
X152056017Y-105330210D01*
X152103636Y-105330210D01*
X152175064Y-105294496D01*
X152222683Y-105223067D01*
X152246493Y-105151639D01*
X152270302Y-105008782D01*
X152270302Y-104901639D01*
X152246493Y-104758782D01*
X152222683Y-104687353D01*
X152175064Y-104615925D01*
X152103636Y-104580210D01*
X152056017Y-104580210D01*
X151984588Y-104615925D01*
X151960779Y-104651639D01*
X151651255Y-104580210D02*
X151556017Y-104580210D01*
X151508398Y-104615925D01*
X151460779Y-104687353D01*
X151436969Y-104830210D01*
X151436969Y-105080210D01*
X151460779Y-105223067D01*
X151508398Y-105294496D01*
X151556017Y-105330210D01*
X151651255Y-105330210D01*
X151698874Y-105294496D01*
X151746493Y-105223067D01*
X151770302Y-105080210D01*
X151770302Y-104830210D01*
X151746493Y-104687353D01*
X151698874Y-104615925D01*
X151651255Y-104580210D01*
X150984588Y-105330210D02*
X151222683Y-105330210D01*
X151222683Y-104580210D01*
X150579826Y-104580210D02*
X150817921Y-104580210D01*
X150841731Y-104937353D01*
X150817921Y-104901639D01*
X150770302Y-104865925D01*
X150651255Y-104865925D01*
X150603636Y-104901639D01*
X150579826Y-104937353D01*
X150556017Y-105008782D01*
X150556017Y-105187353D01*
X150579826Y-105258782D01*
X150603636Y-105294496D01*
X150651255Y-105330210D01*
X150770302Y-105330210D01*
X150817921Y-105294496D01*
X150841731Y-105258782D01*
X151960779Y-107798782D02*
X151984588Y-107834496D01*
X152056017Y-107870210D01*
X152103636Y-107870210D01*
X152175064Y-107834496D01*
X152222683Y-107763067D01*
X152246493Y-107691639D01*
X152270302Y-107548782D01*
X152270302Y-107441639D01*
X152246493Y-107298782D01*
X152222683Y-107227353D01*
X152175064Y-107155925D01*
X152103636Y-107120210D01*
X152056017Y-107120210D01*
X151984588Y-107155925D01*
X151960779Y-107191639D01*
X151651255Y-107120210D02*
X151556017Y-107120210D01*
X151508398Y-107155925D01*
X151460779Y-107227353D01*
X151436969Y-107370210D01*
X151436969Y-107620210D01*
X151460779Y-107763067D01*
X151508398Y-107834496D01*
X151556017Y-107870210D01*
X151651255Y-107870210D01*
X151698874Y-107834496D01*
X151746493Y-107763067D01*
X151770302Y-107620210D01*
X151770302Y-107370210D01*
X151746493Y-107227353D01*
X151698874Y-107155925D01*
X151651255Y-107120210D01*
X150984588Y-107870210D02*
X151222683Y-107870210D01*
X151222683Y-107120210D01*
X150603636Y-107120210D02*
X150698874Y-107120210D01*
X150746493Y-107155925D01*
X150770302Y-107191639D01*
X150817921Y-107298782D01*
X150841731Y-107441639D01*
X150841731Y-107727353D01*
X150817921Y-107798782D01*
X150794112Y-107834496D01*
X150746493Y-107870210D01*
X150651255Y-107870210D01*
X150603636Y-107834496D01*
X150579826Y-107798782D01*
X150556017Y-107727353D01*
X150556017Y-107548782D01*
X150579826Y-107477353D01*
X150603636Y-107441639D01*
X150651255Y-107405925D01*
X150746493Y-107405925D01*
X150794112Y-107441639D01*
X150817921Y-107477353D01*
X150841731Y-107548782D01*
X167344112Y-107806710D02*
X167510779Y-107449567D01*
X167629826Y-107806710D02*
X167629826Y-107056710D01*
X167439350Y-107056710D01*
X167391731Y-107092425D01*
X167367921Y-107128139D01*
X167344112Y-107199567D01*
X167344112Y-107306710D01*
X167367921Y-107378139D01*
X167391731Y-107413853D01*
X167439350Y-107449567D01*
X167629826Y-107449567D01*
X167034588Y-107056710D02*
X166939350Y-107056710D01*
X166891731Y-107092425D01*
X166844112Y-107163853D01*
X166820302Y-107306710D01*
X166820302Y-107556710D01*
X166844112Y-107699567D01*
X166891731Y-107770996D01*
X166939350Y-107806710D01*
X167034588Y-107806710D01*
X167082207Y-107770996D01*
X167129826Y-107699567D01*
X167153636Y-107556710D01*
X167153636Y-107306710D01*
X167129826Y-107163853D01*
X167082207Y-107092425D01*
X167034588Y-107056710D01*
X166653636Y-107056710D02*
X166534588Y-107806710D01*
X166439350Y-107270996D01*
X166344112Y-107806710D01*
X166225064Y-107056710D01*
X165796493Y-107056710D02*
X166034588Y-107056710D01*
X166058398Y-107413853D01*
X166034588Y-107378139D01*
X165986969Y-107342425D01*
X165867921Y-107342425D01*
X165820302Y-107378139D01*
X165796493Y-107413853D01*
X165772683Y-107485282D01*
X165772683Y-107663853D01*
X165796493Y-107735282D01*
X165820302Y-107770996D01*
X165867921Y-107806710D01*
X165986969Y-107806710D01*
X166034588Y-107770996D01*
X166058398Y-107735282D01*
X166903636Y-89838996D02*
X166522683Y-89838996D01*
X152271302Y-90054496D02*
X152199874Y-90090210D01*
X152080826Y-90090210D01*
X152033207Y-90054496D01*
X152009398Y-90018782D01*
X151985588Y-89947353D01*
X151985588Y-89875925D01*
X152009398Y-89804496D01*
X152033207Y-89768782D01*
X152080826Y-89733067D01*
X152176064Y-89697353D01*
X152223683Y-89661639D01*
X152247493Y-89625925D01*
X152271302Y-89554496D01*
X152271302Y-89483067D01*
X152247493Y-89411639D01*
X152223683Y-89375925D01*
X152176064Y-89340210D01*
X152057017Y-89340210D01*
X151985588Y-89375925D01*
X151771302Y-90090210D02*
X151771302Y-89340210D01*
X151652255Y-89340210D01*
X151580826Y-89375925D01*
X151533207Y-89447353D01*
X151509398Y-89518782D01*
X151485588Y-89661639D01*
X151485588Y-89768782D01*
X151509398Y-89911639D01*
X151533207Y-89983067D01*
X151580826Y-90054496D01*
X151652255Y-90090210D01*
X151771302Y-90090210D01*
X151295112Y-89875925D02*
X151057017Y-89875925D01*
X151342731Y-90090210D02*
X151176064Y-89340210D01*
X151009398Y-90090210D01*
X166903636Y-92344496D02*
X166522683Y-92344496D01*
X152259398Y-92594496D02*
X152187969Y-92630210D01*
X152068921Y-92630210D01*
X152021302Y-92594496D01*
X151997493Y-92558782D01*
X151973683Y-92487353D01*
X151973683Y-92415925D01*
X151997493Y-92344496D01*
X152021302Y-92308782D01*
X152068921Y-92273067D01*
X152164160Y-92237353D01*
X152211779Y-92201639D01*
X152235588Y-92165925D01*
X152259398Y-92094496D01*
X152259398Y-92023067D01*
X152235588Y-91951639D01*
X152211779Y-91915925D01*
X152164160Y-91880210D01*
X152045112Y-91880210D01*
X151973683Y-91915925D01*
X151473683Y-92558782D02*
X151497493Y-92594496D01*
X151568921Y-92630210D01*
X151616540Y-92630210D01*
X151687969Y-92594496D01*
X151735588Y-92523067D01*
X151759398Y-92451639D01*
X151783207Y-92308782D01*
X151783207Y-92201639D01*
X151759398Y-92058782D01*
X151735588Y-91987353D01*
X151687969Y-91915925D01*
X151616540Y-91880210D01*
X151568921Y-91880210D01*
X151497493Y-91915925D01*
X151473683Y-91951639D01*
X151021302Y-92630210D02*
X151259398Y-92630210D01*
X151259398Y-91880210D01*
X167284588Y-95138996D02*
X167213160Y-95174710D01*
X167094112Y-95174710D01*
X167046493Y-95138996D01*
X167022683Y-95103282D01*
X166998874Y-95031853D01*
X166998874Y-94960425D01*
X167022683Y-94888996D01*
X167046493Y-94853282D01*
X167094112Y-94817567D01*
X167189350Y-94781853D01*
X167236969Y-94746139D01*
X167260779Y-94710425D01*
X167284588Y-94638996D01*
X167284588Y-94567567D01*
X167260779Y-94496139D01*
X167236969Y-94460425D01*
X167189350Y-94424710D01*
X167070302Y-94424710D01*
X166998874Y-94460425D01*
X166784588Y-94781853D02*
X166617921Y-94781853D01*
X166546493Y-95174710D02*
X166784588Y-95174710D01*
X166784588Y-94424710D01*
X166546493Y-94424710D01*
X166094112Y-95174710D02*
X166332207Y-95174710D01*
X166332207Y-94424710D01*
X151960779Y-95035282D02*
X151984588Y-95070996D01*
X152056017Y-95106710D01*
X152103636Y-95106710D01*
X152175064Y-95070996D01*
X152222683Y-94999567D01*
X152246493Y-94928139D01*
X152270302Y-94785282D01*
X152270302Y-94678139D01*
X152246493Y-94535282D01*
X152222683Y-94463853D01*
X152175064Y-94392425D01*
X152103636Y-94356710D01*
X152056017Y-94356710D01*
X151984588Y-94392425D01*
X151960779Y-94428139D01*
X151651255Y-94356710D02*
X151556017Y-94356710D01*
X151508398Y-94392425D01*
X151460779Y-94463853D01*
X151436969Y-94606710D01*
X151436969Y-94856710D01*
X151460779Y-94999567D01*
X151508398Y-95070996D01*
X151556017Y-95106710D01*
X151651255Y-95106710D01*
X151698874Y-95070996D01*
X151746493Y-94999567D01*
X151770302Y-94856710D01*
X151770302Y-94606710D01*
X151746493Y-94463853D01*
X151698874Y-94392425D01*
X151651255Y-94356710D01*
X150984588Y-95106710D02*
X151222683Y-95106710D01*
X151222683Y-94356710D01*
X150556017Y-95106710D02*
X150841731Y-95106710D01*
X150698874Y-95106710D02*
X150698874Y-94356710D01*
X150746493Y-94463853D01*
X150794112Y-94535282D01*
X150841731Y-94570996D01*
X167344112Y-97674710D02*
X167510779Y-97317567D01*
X167629826Y-97674710D02*
X167629826Y-96924710D01*
X167439350Y-96924710D01*
X167391731Y-96960425D01*
X167367921Y-96996139D01*
X167344112Y-97067567D01*
X167344112Y-97174710D01*
X167367921Y-97246139D01*
X167391731Y-97281853D01*
X167439350Y-97317567D01*
X167629826Y-97317567D01*
X167034588Y-96924710D02*
X166939350Y-96924710D01*
X166891731Y-96960425D01*
X166844112Y-97031853D01*
X166820302Y-97174710D01*
X166820302Y-97424710D01*
X166844112Y-97567567D01*
X166891731Y-97638996D01*
X166939350Y-97674710D01*
X167034588Y-97674710D01*
X167082207Y-97638996D01*
X167129826Y-97567567D01*
X167153636Y-97424710D01*
X167153636Y-97174710D01*
X167129826Y-97031853D01*
X167082207Y-96960425D01*
X167034588Y-96924710D01*
X166653636Y-96924710D02*
X166534588Y-97674710D01*
X166439350Y-97138996D01*
X166344112Y-97674710D01*
X166225064Y-96924710D01*
X165772683Y-97674710D02*
X166058398Y-97674710D01*
X165915540Y-97674710D02*
X165915540Y-96924710D01*
X165963160Y-97031853D01*
X166010779Y-97103282D01*
X166058398Y-97138996D01*
X152045112Y-86835925D02*
X152092731Y-86800210D01*
X152164160Y-86800210D01*
X152235588Y-86835925D01*
X152283207Y-86907353D01*
X152307017Y-86978782D01*
X152330826Y-87121639D01*
X152330826Y-87228782D01*
X152307017Y-87371639D01*
X152283207Y-87443067D01*
X152235588Y-87514496D01*
X152164160Y-87550210D01*
X152116540Y-87550210D01*
X152045112Y-87514496D01*
X152021302Y-87478782D01*
X152021302Y-87228782D01*
X152116540Y-87228782D01*
X151807017Y-87550210D02*
X151807017Y-86800210D01*
X151521302Y-87550210D01*
X151521302Y-86800210D01*
X151283207Y-87550210D02*
X151283207Y-86800210D01*
X151164160Y-86800210D01*
X151092731Y-86835925D01*
X151045112Y-86907353D01*
X151021302Y-86978782D01*
X150997493Y-87121639D01*
X150997493Y-87228782D01*
X151021302Y-87371639D01*
X151045112Y-87443067D01*
X151092731Y-87514496D01*
X151164160Y-87550210D01*
X151283207Y-87550210D01*
X167507326Y-86800210D02*
X167340660Y-87550210D01*
X167173993Y-86800210D01*
X166721612Y-87478782D02*
X166745421Y-87514496D01*
X166816850Y-87550210D01*
X166864469Y-87550210D01*
X166935898Y-87514496D01*
X166983517Y-87443067D01*
X167007326Y-87371639D01*
X167031136Y-87228782D01*
X167031136Y-87121639D01*
X167007326Y-86978782D01*
X166983517Y-86907353D01*
X166935898Y-86835925D01*
X166864469Y-86800210D01*
X166816850Y-86800210D01*
X166745421Y-86835925D01*
X166721612Y-86871639D01*
X166221612Y-87478782D02*
X166245421Y-87514496D01*
X166316850Y-87550210D01*
X166364469Y-87550210D01*
X166435898Y-87514496D01*
X166483517Y-87443067D01*
X166507326Y-87371639D01*
X166531136Y-87228782D01*
X166531136Y-87121639D01*
X166507326Y-86978782D01*
X166483517Y-86907353D01*
X166435898Y-86835925D01*
X166364469Y-86800210D01*
X166316850Y-86800210D01*
X166245421Y-86835925D01*
X166221612Y-86871639D01*
X152045112Y-84295925D02*
X152092731Y-84260210D01*
X152164160Y-84260210D01*
X152235588Y-84295925D01*
X152283207Y-84367353D01*
X152307017Y-84438782D01*
X152330826Y-84581639D01*
X152330826Y-84688782D01*
X152307017Y-84831639D01*
X152283207Y-84903067D01*
X152235588Y-84974496D01*
X152164160Y-85010210D01*
X152116540Y-85010210D01*
X152045112Y-84974496D01*
X152021302Y-84938782D01*
X152021302Y-84688782D01*
X152116540Y-84688782D01*
X151807017Y-85010210D02*
X151807017Y-84260210D01*
X151521302Y-85010210D01*
X151521302Y-84260210D01*
X151283207Y-85010210D02*
X151283207Y-84260210D01*
X151164160Y-84260210D01*
X151092731Y-84295925D01*
X151045112Y-84367353D01*
X151021302Y-84438782D01*
X150997493Y-84581639D01*
X150997493Y-84688782D01*
X151021302Y-84831639D01*
X151045112Y-84903067D01*
X151092731Y-84974496D01*
X151164160Y-85010210D01*
X151283207Y-85010210D01*
X167177969Y-85010210D02*
X167344636Y-84653067D01*
X167463683Y-85010210D02*
X167463683Y-84260210D01*
X167273207Y-84260210D01*
X167225588Y-84295925D01*
X167201779Y-84331639D01*
X167177969Y-84403067D01*
X167177969Y-84510210D01*
X167201779Y-84581639D01*
X167225588Y-84617353D01*
X167273207Y-84653067D01*
X167463683Y-84653067D01*
X166987493Y-84974496D02*
X166916064Y-85010210D01*
X166797017Y-85010210D01*
X166749398Y-84974496D01*
X166725588Y-84938782D01*
X166701779Y-84867353D01*
X166701779Y-84795925D01*
X166725588Y-84724496D01*
X166749398Y-84688782D01*
X166797017Y-84653067D01*
X166892255Y-84617353D01*
X166939874Y-84581639D01*
X166963683Y-84545925D01*
X166987493Y-84474496D01*
X166987493Y-84403067D01*
X166963683Y-84331639D01*
X166939874Y-84295925D01*
X166892255Y-84260210D01*
X166773207Y-84260210D01*
X166701779Y-84295925D01*
X166558921Y-84260210D02*
X166273207Y-84260210D01*
X166416064Y-85010210D02*
X166416064Y-84260210D01*
X152263160Y-82574710D02*
X152263160Y-81824710D01*
X152144112Y-81824710D01*
X152072683Y-81860425D01*
X152025064Y-81931853D01*
X152001255Y-82003282D01*
X151977445Y-82146139D01*
X151977445Y-82253282D01*
X152001255Y-82396139D01*
X152025064Y-82467567D01*
X152072683Y-82538996D01*
X152144112Y-82574710D01*
X152263160Y-82574710D01*
X151786969Y-82360425D02*
X151548874Y-82360425D01*
X151834588Y-82574710D02*
X151667921Y-81824710D01*
X151501255Y-82574710D01*
X151406017Y-81824710D02*
X151120302Y-81824710D01*
X151263160Y-82574710D02*
X151263160Y-81824710D01*
X150977445Y-82360425D02*
X150739350Y-82360425D01*
X151025064Y-82574710D02*
X150858398Y-81824710D01*
X150691731Y-82574710D01*
X167221612Y-81692425D02*
X167269231Y-81656710D01*
X167340660Y-81656710D01*
X167412088Y-81692425D01*
X167459707Y-81763853D01*
X167483517Y-81835282D01*
X167507326Y-81978139D01*
X167507326Y-82085282D01*
X167483517Y-82228139D01*
X167459707Y-82299567D01*
X167412088Y-82370996D01*
X167340660Y-82406710D01*
X167293040Y-82406710D01*
X167221612Y-82370996D01*
X167197802Y-82335282D01*
X167197802Y-82085282D01*
X167293040Y-82085282D01*
X166983517Y-82406710D02*
X166983517Y-81656710D01*
X166697802Y-82406710D01*
X166697802Y-81656710D01*
X166459707Y-82406710D02*
X166459707Y-81656710D01*
X166340660Y-81656710D01*
X166269231Y-81692425D01*
X166221612Y-81763853D01*
X166197802Y-81835282D01*
X166173993Y-81978139D01*
X166173993Y-82085282D01*
X166197802Y-82228139D01*
X166221612Y-82299567D01*
X166269231Y-82370996D01*
X166340660Y-82406710D01*
X166459707Y-82406710D01*
X151985588Y-79930210D02*
X152223683Y-79930210D01*
X152223683Y-79180210D01*
X151818921Y-79537353D02*
X151652255Y-79537353D01*
X151580826Y-79930210D02*
X151818921Y-79930210D01*
X151818921Y-79180210D01*
X151580826Y-79180210D01*
X151366540Y-79930210D02*
X151366540Y-79180210D01*
X151247493Y-79180210D01*
X151176064Y-79215925D01*
X151128445Y-79287353D01*
X151104636Y-79358782D01*
X151080826Y-79501639D01*
X151080826Y-79608782D01*
X151104636Y-79751639D01*
X151128445Y-79823067D01*
X151176064Y-79894496D01*
X151247493Y-79930210D01*
X151366540Y-79930210D01*
X167249398Y-79930210D02*
X167416064Y-79573067D01*
X167535112Y-79930210D02*
X167535112Y-79180210D01*
X167344636Y-79180210D01*
X167297017Y-79215925D01*
X167273207Y-79251639D01*
X167249398Y-79323067D01*
X167249398Y-79430210D01*
X167273207Y-79501639D01*
X167297017Y-79537353D01*
X167344636Y-79573067D01*
X167535112Y-79573067D01*
X167058921Y-79715925D02*
X166820826Y-79715925D01*
X167106540Y-79930210D02*
X166939874Y-79180210D01*
X166773207Y-79930210D01*
X166654160Y-79180210D02*
X166535112Y-79930210D01*
X166439874Y-79394496D01*
X166344636Y-79930210D01*
X166225588Y-79180210D01*
G04 #@! TD*
M02*
