G04 #@! TF.GenerationSoftware,KiCad,Pcbnew,5.1.10-88a1d61d58~88~ubuntu18.04.1*
G04 #@! TF.CreationDate,2021-07-03T13:59:34+09:00*
G04 #@! TF.ProjectId,swallowtail,7377616c-6c6f-4777-9461-696c2e6b6963,rev?*
G04 #@! TF.SameCoordinates,Original*
G04 #@! TF.FileFunction,Soldermask,Top*
G04 #@! TF.FilePolarity,Negative*
%FSLAX46Y46*%
G04 Gerber Fmt 4.6, Leading zero omitted, Abs format (unit mm)*
G04 Created by KiCad (PCBNEW 5.1.10-88a1d61d58~88~ubuntu18.04.1) date 2021-07-03 13:59:34*
%MOMM*%
%LPD*%
G01*
G04 APERTURE LIST*
%ADD10R,1.700000X1.000000*%
%ADD11C,0.100000*%
%ADD12C,1.700000*%
%ADD13C,1.900000*%
%ADD14C,4.100000*%
%ADD15C,3.000000*%
%ADD16R,2.300000X2.000000*%
%ADD17C,2.300000*%
%ADD18R,1.400000X1.300000*%
%ADD19O,1.778000X1.300000*%
%ADD20R,1.778000X1.300000*%
%ADD21O,2.500000X1.700000*%
%ADD22C,1.200000*%
%ADD23C,1.397000*%
%ADD24R,0.635000X1.143000*%
%ADD25R,1.143000X0.635000*%
%ADD26C,2.000000*%
%ADD27C,1.524000*%
G04 APERTURE END LIST*
D10*
G04 #@! TO.C,LED1*
X144434970Y-69756540D03*
X144434970Y-68356540D03*
X138934970Y-69756540D03*
X138934970Y-68356540D03*
G04 #@! TD*
G04 #@! TO.C,LED2*
X125384890Y-67375280D03*
X125384890Y-65975280D03*
X119884890Y-67375280D03*
X119884890Y-65975280D03*
G04 #@! TD*
G04 #@! TO.C,LED3*
X106334810Y-62612760D03*
X106334810Y-61212760D03*
X100834810Y-62612760D03*
X100834810Y-61212760D03*
G04 #@! TD*
G04 #@! TO.C,LED4*
X87284730Y-64994020D03*
X87284730Y-63594020D03*
X81784730Y-64994020D03*
X81784730Y-63594020D03*
G04 #@! TD*
G04 #@! TO.C,LED5*
X68234650Y-72137800D03*
X68234650Y-70737800D03*
X62734650Y-72137800D03*
X62734650Y-70737800D03*
G04 #@! TD*
G04 #@! TO.C,LED6*
X49184570Y-72137800D03*
X49184570Y-70737800D03*
X43684570Y-72137800D03*
X43684570Y-70737800D03*
G04 #@! TD*
G04 #@! TO.C,LED7*
X49184570Y-91187880D03*
X49184570Y-89787880D03*
X43684570Y-91187880D03*
X43684570Y-89787880D03*
G04 #@! TD*
G04 #@! TO.C,LED8*
X68234650Y-91187880D03*
X68234650Y-89787880D03*
X62734650Y-91187880D03*
X62734650Y-89787880D03*
G04 #@! TD*
G04 #@! TO.C,LED9*
X87284730Y-84044100D03*
X87284730Y-82644100D03*
X81784730Y-84044100D03*
X81784730Y-82644100D03*
G04 #@! TD*
G04 #@! TO.C,LED10*
X106334810Y-81662840D03*
X106334810Y-80262840D03*
X100834810Y-81662840D03*
X100834810Y-80262840D03*
G04 #@! TD*
G04 #@! TO.C,LED11*
X125384890Y-86425360D03*
X125384890Y-85025360D03*
X119884890Y-86425360D03*
X119884890Y-85025360D03*
G04 #@! TD*
G04 #@! TO.C,LED12*
X144434970Y-88806620D03*
X144434970Y-87406620D03*
X138934970Y-88806620D03*
X138934970Y-87406620D03*
G04 #@! TD*
G04 #@! TO.C,LED13*
X144434970Y-107856700D03*
X144434970Y-106456700D03*
X138934970Y-107856700D03*
X138934970Y-106456700D03*
G04 #@! TD*
G04 #@! TO.C,LED14*
X125384890Y-105475440D03*
X125384890Y-104075440D03*
X119884890Y-105475440D03*
X119884890Y-104075440D03*
G04 #@! TD*
G04 #@! TO.C,LED15*
X106334810Y-100712920D03*
X106334810Y-99312920D03*
X100834810Y-100712920D03*
X100834810Y-99312920D03*
G04 #@! TD*
G04 #@! TO.C,LED16*
X87284730Y-103094180D03*
X87284730Y-101694180D03*
X81784730Y-103094180D03*
X81784730Y-101694180D03*
G04 #@! TD*
G04 #@! TO.C,LED17*
X68234650Y-110237960D03*
X68234650Y-108837960D03*
X62734650Y-110237960D03*
X62734650Y-108837960D03*
G04 #@! TD*
G04 #@! TO.C,LED18*
X49184570Y-110237960D03*
X49184570Y-108837960D03*
X43684570Y-110237960D03*
X43684570Y-108837960D03*
G04 #@! TD*
G04 #@! TO.C,LED19*
X49184570Y-129288040D03*
X49184570Y-127888040D03*
X43684570Y-129288040D03*
X43684570Y-127888040D03*
G04 #@! TD*
G04 #@! TO.C,LED20*
X68234650Y-129288040D03*
X68234650Y-127888040D03*
X62734650Y-129288040D03*
X62734650Y-127888040D03*
G04 #@! TD*
G04 #@! TO.C,LED21*
X87284730Y-122144260D03*
X87284730Y-120744260D03*
X81784730Y-122144260D03*
X81784730Y-120744260D03*
G04 #@! TD*
G04 #@! TO.C,LED22*
X106334810Y-119763000D03*
X106334810Y-118363000D03*
X100834810Y-119763000D03*
X100834810Y-118363000D03*
G04 #@! TD*
G04 #@! TO.C,LED23*
X125384890Y-124525520D03*
X125384890Y-123125520D03*
X119884890Y-124525520D03*
X119884890Y-123125520D03*
G04 #@! TD*
G04 #@! TO.C,LED24*
X144434970Y-126906780D03*
X144434970Y-125506780D03*
X138934970Y-126906780D03*
X138934970Y-125506780D03*
G04 #@! TD*
D11*
G04 #@! TO.C,LED25*
G36*
X155647775Y-155620633D02*
G01*
X156609037Y-155896270D01*
X156140453Y-157530415D01*
X155179191Y-157254778D01*
X155647775Y-155620633D01*
G37*
G36*
X156993541Y-156006525D02*
G01*
X157954803Y-156282162D01*
X157486219Y-157916307D01*
X156524957Y-157640670D01*
X156993541Y-156006525D01*
G37*
G36*
X157163781Y-150333693D02*
G01*
X158125043Y-150609330D01*
X157656459Y-152243475D01*
X156695197Y-151967838D01*
X157163781Y-150333693D01*
G37*
G36*
X158509547Y-150719585D02*
G01*
X159470809Y-150995222D01*
X159002225Y-152629367D01*
X158040963Y-152353730D01*
X158509547Y-150719585D01*
G37*
G04 #@! TD*
G04 #@! TO.C,LED26*
G36*
X141585160Y-150567289D02*
G01*
X141724333Y-149577021D01*
X143407788Y-149813615D01*
X143268615Y-150803883D01*
X141585160Y-150567289D01*
G37*
G36*
X141780002Y-149180913D02*
G01*
X141919175Y-148190645D01*
X143602630Y-148427239D01*
X143463457Y-149417507D01*
X141780002Y-149180913D01*
G37*
G36*
X136138686Y-149801837D02*
G01*
X136277859Y-148811569D01*
X137961314Y-149048163D01*
X137822141Y-150038431D01*
X136138686Y-149801837D01*
G37*
G36*
X136333528Y-148415461D02*
G01*
X136472701Y-147425193D01*
X138156156Y-147661787D01*
X138016983Y-148652055D01*
X136333528Y-148415461D01*
G37*
G04 #@! TD*
D10*
G04 #@! TO.C,LED27*
X120622370Y-148338120D03*
X120622370Y-146938120D03*
X115122370Y-148338120D03*
X115122370Y-146938120D03*
G04 #@! TD*
G04 #@! TO.C,LED28*
X87284730Y-141194340D03*
X87284730Y-139794340D03*
X81784730Y-141194340D03*
X81784730Y-139794340D03*
G04 #@! TD*
G04 #@! TO.C,LED29*
X68234650Y-148338120D03*
X68234650Y-146938120D03*
X62734650Y-148338120D03*
X62734650Y-146938120D03*
G04 #@! TD*
G04 #@! TO.C,LED30*
X49184570Y-148338120D03*
X49184570Y-146938120D03*
X43684570Y-148338120D03*
X43684570Y-146938120D03*
G04 #@! TD*
D12*
G04 #@! TO.C,SW6*
X146184385Y-64293765D03*
X137184385Y-64293765D03*
D13*
X136604385Y-64293765D03*
X146764385Y-64293765D03*
D14*
X141684385Y-64293765D03*
D15*
X144224385Y-59213765D03*
X145494385Y-61753764D03*
X139144385Y-59213765D03*
X137874385Y-61753765D03*
D16*
X135984385Y-59173765D03*
X148684385Y-61713765D03*
G04 #@! TD*
D17*
G04 #@! TO.C,Ref\u002A\u002A*
X169125000Y-111875000D03*
G04 #@! TD*
G04 #@! TO.C,Ref\u002A\u002A*
X154775000Y-111875000D03*
G04 #@! TD*
G04 #@! TO.C,Ref\u002A\u002A*
X132159930Y-111919220D03*
G04 #@! TD*
G04 #@! TO.C,Ref\u002A\u002A*
X132159930Y-73819060D03*
G04 #@! TD*
G04 #@! TO.C,Ref\u002A\u002A*
X94059770Y-88106620D03*
G04 #@! TD*
G04 #@! TO.C,Ref\u002A\u002A*
X150975000Y-149925000D03*
G04 #@! TD*
G04 #@! TO.C,Ref\u002A\u002A*
X55959610Y-133350560D03*
G04 #@! TD*
G04 #@! TO.C,Ref\u002A\u002A*
X55959610Y-76200320D03*
G04 #@! TD*
D12*
G04 #@! TO.C,SW29*
X145006591Y-144914794D03*
X136094179Y-143662236D03*
D13*
X135519823Y-143581516D03*
X145580947Y-144995514D03*
D14*
X140550385Y-144288515D03*
D15*
X143772665Y-139611453D03*
X144676806Y-142303483D03*
X138742103Y-138904454D03*
X137130963Y-141242985D03*
D11*
G36*
X136896404Y-137594837D02*
G01*
X136618058Y-139575373D01*
X134340442Y-139255275D01*
X134618788Y-137274739D01*
X136896404Y-137594837D01*
G37*
G36*
X149119309Y-141877616D02*
G01*
X148840963Y-143858152D01*
X146563347Y-143538054D01*
X146841693Y-141557518D01*
X149119309Y-141877616D01*
G37*
G04 #@! TD*
G04 #@! TO.C,D29*
G36*
X144251682Y-135736029D02*
G01*
X144070757Y-137023377D01*
X142684382Y-136828535D01*
X142865307Y-135541187D01*
X144251682Y-135736029D01*
G37*
G36*
X140736230Y-135241965D02*
G01*
X140555305Y-136529313D01*
X139168930Y-136334471D01*
X139349855Y-135047123D01*
X140736230Y-135241965D01*
G37*
G36*
G01*
X143800762Y-136329044D02*
X143800762Y-136329044D01*
G75*
G02*
X144534899Y-135775833I643674J-90463D01*
G01*
X145008247Y-135842357D01*
G75*
G02*
X145561458Y-136576494I-90463J-643674D01*
G01*
X145561458Y-136576494D01*
G75*
G02*
X144827321Y-137129705I-643674J90463D01*
G01*
X144353973Y-137063181D01*
G75*
G02*
X143800762Y-136329044I90463J643674D01*
G01*
G37*
G36*
X137768691Y-136137680D02*
G01*
X137949616Y-134850332D01*
X139710313Y-135097782D01*
X139529388Y-136385130D01*
X137768691Y-136137680D01*
G37*
G04 #@! TD*
D18*
G04 #@! TO.C,D23*
X124409385Y-110728140D03*
X120859385Y-110728140D03*
D19*
X125634385Y-110728140D03*
D20*
X119634385Y-110728140D03*
G04 #@! TD*
D12*
G04 #@! TO.C,SW19*
X50934385Y-123825025D03*
X41934385Y-123825025D03*
D13*
X41354385Y-123825025D03*
X51514385Y-123825025D03*
D14*
X46434385Y-123825025D03*
D15*
X48974385Y-118745025D03*
X50244385Y-121285024D03*
X43894385Y-118745025D03*
X42624385Y-121285025D03*
D16*
X40734385Y-118705025D03*
X53434385Y-121245025D03*
G04 #@! TD*
D12*
G04 #@! TO.C,SW20*
X69984385Y-123825025D03*
X60984385Y-123825025D03*
D13*
X60404385Y-123825025D03*
X70564385Y-123825025D03*
D14*
X65484385Y-123825025D03*
D15*
X68024385Y-118745025D03*
X69294385Y-121285024D03*
X62944385Y-118745025D03*
X61674385Y-121285025D03*
D16*
X59784385Y-118705025D03*
X72484385Y-121245025D03*
G04 #@! TD*
D12*
G04 #@! TO.C,SW24*
X146184385Y-121443765D03*
X137184385Y-121443765D03*
D13*
X136604385Y-121443765D03*
X146764385Y-121443765D03*
D14*
X141684385Y-121443765D03*
D15*
X144224385Y-116363765D03*
X145494385Y-118903764D03*
X139144385Y-116363765D03*
X137874385Y-118903765D03*
D16*
X135984385Y-116323765D03*
X148684385Y-118863765D03*
G04 #@! TD*
D18*
G04 #@! TO.C,D1*
X48209385Y-58340650D03*
X44659385Y-58340650D03*
D19*
X49434385Y-58340650D03*
D20*
X43434385Y-58340650D03*
G04 #@! TD*
D18*
G04 #@! TO.C,D2*
X67259385Y-58340650D03*
X63709385Y-58340650D03*
D19*
X68484385Y-58340650D03*
D20*
X62484385Y-58340650D03*
G04 #@! TD*
D18*
G04 #@! TO.C,D3*
X86309385Y-51196890D03*
X82759385Y-51196890D03*
D19*
X87534385Y-51196890D03*
D20*
X81534385Y-51196890D03*
G04 #@! TD*
D18*
G04 #@! TO.C,D4*
X105359385Y-48815640D03*
X101809385Y-48815640D03*
D19*
X106584385Y-48815640D03*
D20*
X100584385Y-48815640D03*
G04 #@! TD*
D18*
G04 #@! TO.C,D5*
X124409385Y-53578140D03*
X120859385Y-53578140D03*
D19*
X125634385Y-53578140D03*
D20*
X119634385Y-53578140D03*
G04 #@! TD*
D18*
G04 #@! TO.C,D6*
X143459385Y-55959390D03*
X139909385Y-55959390D03*
D19*
X144684385Y-55959390D03*
D20*
X138684385Y-55959390D03*
G04 #@! TD*
D18*
G04 #@! TO.C,D7*
X48209385Y-77390650D03*
X44659385Y-77390650D03*
D19*
X49434385Y-77390650D03*
D20*
X43434385Y-77390650D03*
G04 #@! TD*
D18*
G04 #@! TO.C,D8*
X67259385Y-77390650D03*
X63709385Y-77390650D03*
D19*
X68484385Y-77390650D03*
D20*
X62484385Y-77390650D03*
G04 #@! TD*
D18*
G04 #@! TO.C,D9*
X86915635Y-70246890D03*
X83365635Y-70246890D03*
D19*
X88140635Y-70246890D03*
D20*
X82140635Y-70246890D03*
G04 #@! TD*
D18*
G04 #@! TO.C,D10*
X105359385Y-67865640D03*
X101809385Y-67865640D03*
D19*
X106584385Y-67865640D03*
D20*
X100584385Y-67865640D03*
G04 #@! TD*
D18*
G04 #@! TO.C,D11*
X124409385Y-72628140D03*
X120859385Y-72628140D03*
D19*
X125634385Y-72628140D03*
D20*
X119634385Y-72628140D03*
G04 #@! TD*
D18*
G04 #@! TO.C,D12*
X143459385Y-75009390D03*
X139909385Y-75009390D03*
D19*
X144684385Y-75009390D03*
D20*
X138684385Y-75009390D03*
G04 #@! TD*
D18*
G04 #@! TO.C,D13*
X48209385Y-96440650D03*
X44659385Y-96440650D03*
D19*
X49434385Y-96440650D03*
D20*
X43434385Y-96440650D03*
G04 #@! TD*
D18*
G04 #@! TO.C,D14*
X67259385Y-96440650D03*
X63709385Y-96440650D03*
D19*
X68484385Y-96440650D03*
D20*
X62484385Y-96440650D03*
G04 #@! TD*
D18*
G04 #@! TO.C,D15*
X86309385Y-89296890D03*
X82759385Y-89296890D03*
D19*
X87534385Y-89296890D03*
D20*
X81534385Y-89296890D03*
G04 #@! TD*
D18*
G04 #@! TO.C,D16*
X105359385Y-86915640D03*
X101809385Y-86915640D03*
D19*
X106584385Y-86915640D03*
D20*
X100584385Y-86915640D03*
G04 #@! TD*
D18*
G04 #@! TO.C,D17*
X124409385Y-91678140D03*
X120859385Y-91678140D03*
D19*
X125634385Y-91678140D03*
D20*
X119634385Y-91678140D03*
G04 #@! TD*
D18*
G04 #@! TO.C,D18*
X143459385Y-94059390D03*
X139909385Y-94059390D03*
D19*
X144684385Y-94059390D03*
D20*
X138684385Y-94059390D03*
G04 #@! TD*
D18*
G04 #@! TO.C,D19*
X48209385Y-115490650D03*
X44659385Y-115490650D03*
D19*
X49434385Y-115490650D03*
D20*
X43434385Y-115490650D03*
G04 #@! TD*
D18*
G04 #@! TO.C,D20*
X67259385Y-115490650D03*
X63709385Y-115490650D03*
D19*
X68484385Y-115490650D03*
D20*
X62484385Y-115490650D03*
G04 #@! TD*
D18*
G04 #@! TO.C,D21*
X86309385Y-108346890D03*
X82759385Y-108346890D03*
D19*
X87534385Y-108346890D03*
D20*
X81534385Y-108346890D03*
G04 #@! TD*
D18*
G04 #@! TO.C,D22*
X105359385Y-105965640D03*
X101809385Y-105965640D03*
D19*
X106584385Y-105965640D03*
D20*
X100584385Y-105965640D03*
G04 #@! TD*
D18*
G04 #@! TO.C,D24*
X143459385Y-113109390D03*
X139909385Y-113109390D03*
D19*
X144684385Y-113109390D03*
D20*
X138684385Y-113109390D03*
G04 #@! TD*
D18*
G04 #@! TO.C,D25*
X48209385Y-134540650D03*
X44659385Y-134540650D03*
D19*
X49434385Y-134540650D03*
D20*
X43434385Y-134540650D03*
G04 #@! TD*
D18*
G04 #@! TO.C,D26*
X67259385Y-134540650D03*
X63709385Y-134540650D03*
D19*
X68484385Y-134540650D03*
D20*
X62484385Y-134540650D03*
G04 #@! TD*
D18*
G04 #@! TO.C,D27*
X86309385Y-127396890D03*
X82759385Y-127396890D03*
D19*
X87534385Y-127396890D03*
D20*
X81534385Y-127396890D03*
G04 #@! TD*
D18*
G04 #@! TO.C,D28*
X119651385Y-134541640D03*
X116101385Y-134541640D03*
D19*
X120876385Y-134541640D03*
D20*
X114876385Y-134541640D03*
G04 #@! TD*
D11*
G04 #@! TO.C,D30*
G36*
X168102660Y-143024123D02*
G01*
X167744332Y-144273763D01*
X166398566Y-143887871D01*
X166756894Y-142638231D01*
X168102660Y-143024123D01*
G37*
G36*
X164690180Y-142045611D02*
G01*
X164331852Y-143295251D01*
X162986086Y-142909359D01*
X163344414Y-141659719D01*
X164690180Y-142045611D01*
G37*
G36*
G01*
X167573596Y-143548612D02*
X167573596Y-143548612D01*
G75*
G02*
X168377580Y-143102956I624820J-179164D01*
G01*
X168837064Y-143234710D01*
G75*
G02*
X169282720Y-144038694I-179164J-624820D01*
G01*
X169282720Y-144038694D01*
G75*
G02*
X168478736Y-144484350I-624820J179164D01*
G01*
X168019252Y-144352596D01*
G75*
G02*
X167573596Y-143548612I179164J624820D01*
G01*
G37*
G36*
X161626862Y-142519607D02*
G01*
X161985191Y-141269967D01*
X163694314Y-141760051D01*
X163335985Y-143009691D01*
X161626862Y-142519607D01*
G37*
G04 #@! TD*
D12*
G04 #@! TO.C,SW4*
X108084385Y-57150015D03*
X99084385Y-57150015D03*
D13*
X98504385Y-57150015D03*
X108664385Y-57150015D03*
D14*
X103584385Y-57150015D03*
D15*
X106124385Y-52070015D03*
X107394385Y-54610014D03*
X101044385Y-52070015D03*
X99774385Y-54610015D03*
D16*
X97884385Y-52030015D03*
X110584385Y-54570015D03*
G04 #@! TD*
D12*
G04 #@! TO.C,SW30*
X160694017Y-159881943D03*
X163174753Y-151230587D03*
D13*
X163334623Y-150673056D03*
X160534147Y-160439474D03*
D14*
X161934385Y-155556265D03*
D15*
X166117476Y-159398107D03*
X163325812Y-159918791D03*
X167517713Y-154514898D03*
X165426168Y-152593977D03*
D11*
G36*
X169071457Y-152869425D02*
G01*
X167148933Y-152318151D01*
X167782899Y-150107249D01*
X169705423Y-150658523D01*
X169071457Y-152869425D01*
G37*
G36*
X163129258Y-164377329D02*
G01*
X161206734Y-163826055D01*
X161840700Y-161615153D01*
X163763224Y-162166427D01*
X163129258Y-164377329D01*
G37*
G04 #@! TD*
D12*
G04 #@! TO.C,SW25*
X50934385Y-142875025D03*
X41934385Y-142875025D03*
D13*
X41354385Y-142875025D03*
X51514385Y-142875025D03*
D14*
X46434385Y-142875025D03*
D15*
X48974385Y-137795025D03*
X50244385Y-140335024D03*
X43894385Y-137795025D03*
X42624385Y-140335025D03*
D16*
X40734385Y-137755025D03*
X53434385Y-140295025D03*
G04 #@! TD*
D21*
G04 #@! TO.C,J1*
X160113560Y-117940425D03*
X161613560Y-122140425D03*
X165613560Y-122140425D03*
X168613560Y-122140425D03*
D22*
X163413560Y-120040425D03*
X170413560Y-120040425D03*
D21*
X165613560Y-116190425D03*
X168613560Y-116190425D03*
X160113560Y-120390425D03*
X161613560Y-116190425D03*
D22*
X170413560Y-118290425D03*
X163413560Y-118290425D03*
G04 #@! TD*
D23*
G04 #@! TO.C,J2*
X165944560Y-111150425D03*
X163404560Y-111150425D03*
X160864560Y-111150425D03*
X158324560Y-111150425D03*
G04 #@! TD*
D24*
G04 #@! TO.C,JP2*
X161634180Y-104800425D03*
X162634940Y-104800425D03*
G04 #@! TD*
D25*
G04 #@! TO.C,JP7*
X165944560Y-107475045D03*
X165944560Y-108475805D03*
G04 #@! TD*
G04 #@! TO.C,JP8*
X163404560Y-107475045D03*
X163404560Y-108475805D03*
G04 #@! TD*
G04 #@! TO.C,JP9*
X160864560Y-107475045D03*
X160864560Y-108475805D03*
G04 #@! TD*
G04 #@! TO.C,JP10*
X158324560Y-107475045D03*
X158324560Y-108475805D03*
G04 #@! TD*
D26*
G04 #@! TO.C,RSW1*
X158866850Y-126692520D03*
X165366850Y-126692520D03*
G04 #@! TD*
D12*
G04 #@! TO.C,SW1*
X50934385Y-66675025D03*
X41934385Y-66675025D03*
D13*
X41354385Y-66675025D03*
X51514385Y-66675025D03*
D14*
X46434385Y-66675025D03*
D15*
X48974385Y-61595025D03*
X50244385Y-64135024D03*
X43894385Y-61595025D03*
X42624385Y-64135025D03*
D16*
X40734385Y-61555025D03*
X53434385Y-64095025D03*
G04 #@! TD*
D12*
G04 #@! TO.C,SW2*
X69984385Y-66675025D03*
X60984385Y-66675025D03*
D13*
X60404385Y-66675025D03*
X70564385Y-66675025D03*
D14*
X65484385Y-66675025D03*
D15*
X68024385Y-61595025D03*
X69294385Y-64135024D03*
X62944385Y-61595025D03*
X61674385Y-64135025D03*
D16*
X59784385Y-61555025D03*
X72484385Y-64095025D03*
G04 #@! TD*
D12*
G04 #@! TO.C,SW3*
X89034385Y-59531265D03*
X80034385Y-59531265D03*
D13*
X79454385Y-59531265D03*
X89614385Y-59531265D03*
D14*
X84534385Y-59531265D03*
D15*
X87074385Y-54451265D03*
X88344385Y-56991264D03*
X81994385Y-54451265D03*
X80724385Y-56991265D03*
D16*
X78834385Y-54411265D03*
X91534385Y-56951265D03*
G04 #@! TD*
D12*
G04 #@! TO.C,SW5*
X127134385Y-61912515D03*
X118134385Y-61912515D03*
D13*
X117554385Y-61912515D03*
X127714385Y-61912515D03*
D14*
X122634385Y-61912515D03*
D15*
X125174385Y-56832515D03*
X126444385Y-59372514D03*
X120094385Y-56832515D03*
X118824385Y-59372515D03*
D16*
X116934385Y-56792515D03*
X129634385Y-59332515D03*
G04 #@! TD*
D12*
G04 #@! TO.C,SW7*
X50934385Y-85725025D03*
X41934385Y-85725025D03*
D13*
X41354385Y-85725025D03*
X51514385Y-85725025D03*
D14*
X46434385Y-85725025D03*
D15*
X48974385Y-80645025D03*
X50244385Y-83185024D03*
X43894385Y-80645025D03*
X42624385Y-83185025D03*
D16*
X40734385Y-80605025D03*
X53434385Y-83145025D03*
G04 #@! TD*
D12*
G04 #@! TO.C,SW8*
X69984385Y-85725025D03*
X60984385Y-85725025D03*
D13*
X60404385Y-85725025D03*
X70564385Y-85725025D03*
D14*
X65484385Y-85725025D03*
D15*
X68024385Y-80645025D03*
X69294385Y-83185024D03*
X62944385Y-80645025D03*
X61674385Y-83185025D03*
D16*
X59784385Y-80605025D03*
X72484385Y-83145025D03*
G04 #@! TD*
D12*
G04 #@! TO.C,SW9*
X89034385Y-78581265D03*
X80034385Y-78581265D03*
D13*
X79454385Y-78581265D03*
X89614385Y-78581265D03*
D14*
X84534385Y-78581265D03*
D15*
X87074385Y-73501265D03*
X88344385Y-76041264D03*
X81994385Y-73501265D03*
X80724385Y-76041265D03*
D16*
X78834385Y-73461265D03*
X91534385Y-76001265D03*
G04 #@! TD*
D12*
G04 #@! TO.C,SW10*
X108084385Y-76200015D03*
X99084385Y-76200015D03*
D13*
X98504385Y-76200015D03*
X108664385Y-76200015D03*
D14*
X103584385Y-76200015D03*
D15*
X106124385Y-71120015D03*
X107394385Y-73660014D03*
X101044385Y-71120015D03*
X99774385Y-73660015D03*
D16*
X97884385Y-71080015D03*
X110584385Y-73620015D03*
G04 #@! TD*
D12*
G04 #@! TO.C,SW11*
X127134385Y-80962515D03*
X118134385Y-80962515D03*
D13*
X117554385Y-80962515D03*
X127714385Y-80962515D03*
D14*
X122634385Y-80962515D03*
D15*
X125174385Y-75882515D03*
X126444385Y-78422514D03*
X120094385Y-75882515D03*
X118824385Y-78422515D03*
D16*
X116934385Y-75842515D03*
X129634385Y-78382515D03*
G04 #@! TD*
D12*
G04 #@! TO.C,SW12*
X146184385Y-83343765D03*
X137184385Y-83343765D03*
D13*
X136604385Y-83343765D03*
X146764385Y-83343765D03*
D14*
X141684385Y-83343765D03*
D15*
X144224385Y-78263765D03*
X145494385Y-80803764D03*
X139144385Y-78263765D03*
X137874385Y-80803765D03*
D16*
X135984385Y-78223765D03*
X148684385Y-80763765D03*
G04 #@! TD*
D12*
G04 #@! TO.C,SW13*
X50934385Y-104775025D03*
X41934385Y-104775025D03*
D13*
X41354385Y-104775025D03*
X51514385Y-104775025D03*
D14*
X46434385Y-104775025D03*
D15*
X48974385Y-99695025D03*
X50244385Y-102235024D03*
X43894385Y-99695025D03*
X42624385Y-102235025D03*
D16*
X40734385Y-99655025D03*
X53434385Y-102195025D03*
G04 #@! TD*
D12*
G04 #@! TO.C,SW14*
X69984385Y-104775025D03*
X60984385Y-104775025D03*
D13*
X60404385Y-104775025D03*
X70564385Y-104775025D03*
D14*
X65484385Y-104775025D03*
D15*
X68024385Y-99695025D03*
X69294385Y-102235024D03*
X62944385Y-99695025D03*
X61674385Y-102235025D03*
D16*
X59784385Y-99655025D03*
X72484385Y-102195025D03*
G04 #@! TD*
D12*
G04 #@! TO.C,SW15*
X89034385Y-97631265D03*
X80034385Y-97631265D03*
D13*
X79454385Y-97631265D03*
X89614385Y-97631265D03*
D14*
X84534385Y-97631265D03*
D15*
X87074385Y-92551265D03*
X88344385Y-95091264D03*
X81994385Y-92551265D03*
X80724385Y-95091265D03*
D16*
X78834385Y-92511265D03*
X91534385Y-95051265D03*
G04 #@! TD*
D12*
G04 #@! TO.C,SW16*
X108084385Y-95250015D03*
X99084385Y-95250015D03*
D13*
X98504385Y-95250015D03*
X108664385Y-95250015D03*
D14*
X103584385Y-95250015D03*
D15*
X106124385Y-90170015D03*
X107394385Y-92710014D03*
X101044385Y-90170015D03*
X99774385Y-92710015D03*
D16*
X97884385Y-90130015D03*
X110584385Y-92670015D03*
G04 #@! TD*
D12*
G04 #@! TO.C,SW17*
X127134385Y-100012515D03*
X118134385Y-100012515D03*
D13*
X117554385Y-100012515D03*
X127714385Y-100012515D03*
D14*
X122634385Y-100012515D03*
D15*
X125174385Y-94932515D03*
X126444385Y-97472514D03*
X120094385Y-94932515D03*
X118824385Y-97472515D03*
D16*
X116934385Y-94892515D03*
X129634385Y-97432515D03*
G04 #@! TD*
D12*
G04 #@! TO.C,SW18*
X146184385Y-102393765D03*
X137184385Y-102393765D03*
D13*
X136604385Y-102393765D03*
X146764385Y-102393765D03*
D14*
X141684385Y-102393765D03*
D15*
X144224385Y-97313765D03*
X145494385Y-99853764D03*
X139144385Y-97313765D03*
X137874385Y-99853765D03*
D16*
X135984385Y-97273765D03*
X148684385Y-99813765D03*
G04 #@! TD*
D12*
G04 #@! TO.C,SW21*
X89034385Y-116681265D03*
X80034385Y-116681265D03*
D13*
X79454385Y-116681265D03*
X89614385Y-116681265D03*
D14*
X84534385Y-116681265D03*
D15*
X87074385Y-111601265D03*
X88344385Y-114141264D03*
X81994385Y-111601265D03*
X80724385Y-114141265D03*
D16*
X78834385Y-111561265D03*
X91534385Y-114101265D03*
G04 #@! TD*
D12*
G04 #@! TO.C,SW22*
X108084385Y-114300015D03*
X99084385Y-114300015D03*
D13*
X98504385Y-114300015D03*
X108664385Y-114300015D03*
D14*
X103584385Y-114300015D03*
D15*
X106124385Y-109220015D03*
X107394385Y-111760014D03*
X101044385Y-109220015D03*
X99774385Y-111760015D03*
D16*
X97884385Y-109180015D03*
X110584385Y-111720015D03*
G04 #@! TD*
D12*
G04 #@! TO.C,SW23*
X127134385Y-119062515D03*
X118134385Y-119062515D03*
D13*
X117554385Y-119062515D03*
X127714385Y-119062515D03*
D14*
X122634385Y-119062515D03*
D15*
X125174385Y-113982515D03*
X126444385Y-116522514D03*
X120094385Y-113982515D03*
X118824385Y-116522515D03*
D16*
X116934385Y-113942515D03*
X129634385Y-116482515D03*
G04 #@! TD*
D12*
G04 #@! TO.C,SW26*
X69984385Y-142875025D03*
X60984385Y-142875025D03*
D13*
X60404385Y-142875025D03*
X70564385Y-142875025D03*
D14*
X65484385Y-142875025D03*
D15*
X68024385Y-137795025D03*
X69294385Y-140335024D03*
X62944385Y-137795025D03*
X61674385Y-140335025D03*
D16*
X59784385Y-137755025D03*
X72484385Y-140295025D03*
G04 #@! TD*
D12*
G04 #@! TO.C,SW27*
X89034385Y-135731265D03*
X80034385Y-135731265D03*
D13*
X79454385Y-135731265D03*
X89614385Y-135731265D03*
D14*
X84534385Y-135731265D03*
D15*
X87074385Y-130651265D03*
X88344385Y-133191264D03*
X81994385Y-130651265D03*
X80724385Y-133191265D03*
D16*
X78834385Y-130611265D03*
X91534385Y-133151265D03*
G04 #@! TD*
D12*
G04 #@! TO.C,SW28*
X122376385Y-142876015D03*
X113376385Y-142876015D03*
D13*
X112796385Y-142876015D03*
X122956385Y-142876015D03*
D14*
X117876385Y-142876015D03*
D15*
X120416385Y-137796015D03*
X121686385Y-140336014D03*
X115336385Y-137796015D03*
X114066385Y-140336015D03*
D16*
X112176385Y-137756015D03*
X124876385Y-140296015D03*
G04 #@! TD*
D27*
G04 #@! TO.C,U1*
X169063160Y-79527425D03*
X169063160Y-82067425D03*
X169063160Y-84607425D03*
X169063160Y-87147425D03*
X169063160Y-89687425D03*
X169063160Y-92227425D03*
X169063160Y-94767425D03*
X169063160Y-97307425D03*
X169063160Y-99847425D03*
X169063160Y-102387425D03*
X169063160Y-104927425D03*
X169063160Y-107467425D03*
X153823160Y-107467425D03*
X153823160Y-104927425D03*
X153823160Y-102387425D03*
X153823160Y-99847425D03*
X153823160Y-97307425D03*
X153823160Y-94767425D03*
X153823160Y-92227425D03*
X153823160Y-89687425D03*
X153823160Y-87147425D03*
X153823160Y-84607425D03*
X153823160Y-82067425D03*
X153823160Y-79527425D03*
X170369560Y-78257425D03*
X170369560Y-80797425D03*
X170369560Y-83337425D03*
X170369560Y-85877425D03*
X170369560Y-88417425D03*
X170369560Y-90957425D03*
X170369560Y-93497425D03*
X170369560Y-96037425D03*
X170369560Y-98577425D03*
X170369560Y-101117425D03*
X170369560Y-103657425D03*
X170369560Y-106197425D03*
X155149560Y-106197425D03*
X155149560Y-103657425D03*
X155149560Y-101117425D03*
X155149560Y-98577425D03*
X155149560Y-96037425D03*
X155149560Y-93497425D03*
X155149560Y-90957425D03*
X155149560Y-88417425D03*
X155149560Y-85877425D03*
X155149560Y-83337425D03*
X155149560Y-80797425D03*
X155149560Y-78257425D03*
G04 #@! TD*
M02*
